<?xml version="1.0" standalone="no"?>
<!DOCTYPE svg PUBLIC "-//W3C//DTD SVG 20010904//EN"
 "http://www.w3.org/TR/2001/REC-SVG-20010904/DTD/svg10.dtd">
<svg version="1.0" xmlns="http://www.w3.org/2000/svg"
 width="2070.000000pt" height="2070.000000pt" viewBox="0 0 2070.000000 2070.000000"
 preserveAspectRatio="xMidYMid meet">
<metadata>
Created by potrace 1.15, written by Peter Selinger 2001-2017
</metadata>
<g transform="translate(0.000000,2070.000000) scale(0.100000,-0.100000)"
fill="#000000" stroke="none">
<path d="M15916 16112 c-3 -5 12 -16 32 -25 80 -37 122 -96 157 -222 9 -33 20
-74 26 -91 5 -17 9 -41 9 -54 0 -13 4 -37 9 -54 63 -210 102 -744 82 -1106 -7
-113 -16 -243 -21 -290 -18 -168 -27 -237 -33 -247 -4 -6 -11 -39 -17 -74 -6
-35 -15 -85 -20 -111 -6 -27 -14 -67 -19 -90 -5 -24 -16 -70 -26 -103 -28 -99
-36 -128 -45 -165 -11 -44 -49 -159 -61 -182 -5 -10 -9 -23 -9 -30 0 -12 -54
-161 -87 -238 -20 -47 -31 -75 -44 -107 -24 -59 -40 -94 -133 -283 -129 -261
-176 -343 -366 -633 -61 -94 -96 -144 -133 -189 -23 -29 -55 -72 -70 -95 -65
-95 -292 -341 -636 -688 -411 -414 -457 -471 -492 -610 -10 -43 -19 -89 -19
-103 0 -14 -4 -51 -10 -81 -5 -31 -14 -90 -21 -131 -6 -41 -15 -97 -21 -125
-5 -27 -14 -81 -19 -120 -5 -38 -14 -97 -19 -130 -5 -33 -13 -95 -19 -138 -5
-42 -13 -82 -16 -87 -3 -5 -11 -45 -16 -87 -6 -43 -14 -105 -19 -138 -5 -33
-13 -95 -19 -138 -5 -42 -13 -82 -16 -87 -3 -5 -11 -45 -16 -87 -6 -43 -14
-103 -19 -133 -5 -30 -13 -89 -18 -131 -5 -42 -12 -81 -15 -86 -4 -6 -12 -48
-18 -94 -6 -46 -14 -109 -19 -139 -5 -30 -13 -90 -19 -133 -5 -42 -13 -82 -16
-87 -5 -9 -10 -40 -35 -230 -11 -82 -19 -109 -41 -140 -9 -14 -418 -425 -907
-914 -661 -660 -900 -893 -932 -907 -86 -39 -204 -18 -277 49 -75 69 -93 161
-94 482 0 113 -5 230 -10 260 -10 59 -26 423 -35 829 l-6 253 -212 -210 c-177
-177 -220 -215 -269 -237 -70 -31 -109 -31 -184 -4 -50 19 -78 41 -195 157
l-137 135 -68 -43 c-37 -24 -153 -100 -258 -168 -104 -69 -235 -154 -290 -190
-55 -36 -136 -88 -180 -117 -347 -226 -344 -224 -406 -244 -56 -18 -96 -13
-179 22 -14 6 -467 452 -1007 991 -1075 1073 -1031 1024 -1035 1147 -2 58 -2
56 -7 -26 -5 -80 -3 -95 17 -140 19 -41 205 -232 985 -1013 529 -530 983 -979
1009 -998 51 -38 123 -64 178 -64 43 0 119 23 157 46 32 20 217 140 338 219
44 29 125 81 180 117 55 36 192 125 305 199 113 74 221 145 241 157 l35 21
118 -118 c145 -145 192 -173 299 -172 130 0 163 20 366 225 l165 165 13 -26
c9 -18 13 -76 13 -214 -1 -104 2 -194 6 -200 3 -6 10 -153 14 -327 5 -174 13
-329 19 -344 5 -15 11 -127 12 -256 2 -225 2 -230 28 -282 32 -66 80 -114 140
-142 66 -30 209 -29 266 1 24 13 403 384 937 918 678 678 903 908 919 942 12
26 25 78 29 117 4 39 10 76 13 81 7 10 20 102 42 285 7 65 17 123 21 129 4 7
11 44 15 83 12 104 25 194 37 256 22 113 32 177 32 207 0 18 4 43 10 57 5 14
16 83 25 152 9 70 18 131 21 136 5 8 14 70 32 233 4 33 11 65 15 72 4 7 12 50
18 95 15 118 26 195 38 253 9 45 30 183 51 340 19 139 26 160 80 245 44 70
119 152 420 455 345 347 572 592 637 688 15 23 47 66 70 95 23 28 59 78 80
109 21 31 45 67 53 79 64 96 169 263 206 329 111 194 103 178 208 397 42 87
76 164 76 172 0 8 4 17 9 20 4 3 16 27 25 53 10 26 22 57 26 68 22 49 73 183
80 210 5 17 17 55 28 85 29 80 97 312 107 365 6 29 23 98 44 181 6 23 11 58
11 78 0 21 5 46 11 57 10 20 22 100 39 264 6 50 14 113 19 140 6 28 10 205 10
395 1 268 -3 361 -14 415 -8 38 -15 92 -15 119 0 51 -13 140 -31 211 -6 22
-15 65 -20 95 -18 110 -25 146 -32 156 -3 6 -13 42 -21 80 -19 92 -55 165
-101 206 -51 44 -87 66 -103 60 -7 -2 -19 1 -26 8 -8 6 -17 7 -20 2z"/>
<path d="M14699 15756 c-4 -4 -78 -9 -165 -12 -88 -3 -170 -9 -184 -13 -14 -4
-52 -9 -85 -10 -33 -2 -85 -9 -115 -16 -30 -8 -71 -16 -90 -19 -85 -12 -117
-18 -150 -26 -19 -5 -64 -16 -100 -25 -179 -44 -324 -86 -336 -98 -4 -4 -18
-7 -30 -7 -13 0 -26 -4 -29 -10 -3 -5 -15 -10 -26 -10 -10 0 -27 -4 -37 -9 -9
-5 -37 -17 -62 -26 -75 -29 -83 -32 -132 -54 -26 -12 -51 -21 -54 -21 -16 0
-261 -120 -457 -224 -123 -65 -325 -189 -407 -250 -30 -23 -75 -54 -100 -71
-53 -35 -168 -124 -226 -174 -23 -20 -54 -45 -69 -56 -51 -37 -208 -191 -799
-783 l-589 -590 7 -35 c6 -34 -6 -58 -19 -37 -19 31 -56 3 -237 -177 l-189
-187 -167 167 -167 167 129 129 c71 70 131 136 132 145 2 16 -5 17 -59 13
-101 -9 -168 -18 -235 -33 -35 -8 -81 -14 -102 -14 -21 0 -41 -4 -44 -8 -2 -4
-22 -9 -43 -10 -21 -2 -51 -5 -68 -8 -16 -2 -61 -9 -100 -14 -38 -5 -88 -13
-110 -19 -22 -5 -62 -12 -90 -16 -48 -6 -126 -17 -245 -35 -30 -4 -64 -10 -75
-13 -21 -5 -67 -12 -145 -23 -24 -3 -48 -7 -51 -10 -4 -2 -28 -5 -53 -6 -26 0
-49 -4 -51 -8 -2 -4 -30 -8 -61 -9 -32 -1 -65 -6 -73 -11 -9 -4 -20 -8 -26 -9
-37 -2 -148 -18 -152 -21 -7 -5 -27 -8 -75 -9 l-53 -1 -620 -620 c-347 -347
-621 -629 -622 -639 -2 -24 43 -28 342 -36 110 -3 241 -7 290 -9 50 -3 167 -7
260 -11 94 -3 190 -7 215 -9 25 -3 137 -7 249 -11 l204 -6 346 344 c190 190
361 352 379 361 113 57 249 5 314 -119 29 -54 28 -145 -1 -200 -12 -24 -301
-320 -716 -735 -382 -382 -695 -702 -695 -710 0 -19 1190 -1210 1210 -1210 8
0 667 652 1465 1450 1526 1526 1496 1498 1575 1492 90 -8 167 -56 218 -136 35
-55 36 -141 3 -206 -16 -32 -439 -462 -1467 -1490 -794 -795 -1444 -1452
-1444 -1460 0 -20 1190 -1210 1210 -1210 8 0 330 315 715 700 501 501 712 706
742 720 82 38 166 21 249 -53 31 -26 79 -107 77 -127 -1 -3 3 -12 7 -20 8 -15
-13 -93 -37 -135 -6 -11 -168 -175 -358 -365 l-347 -345 7 -95 c4 -52 9 -113
11 -135 1 -22 5 -139 9 -260 4 -121 8 -236 10 -255 1 -19 6 -109 9 -200 4 -91
9 -205 11 -255 3 -49 7 -146 10 -215 7 -141 9 -149 27 -146 9 2 1230 1217
1244 1239 1 1 4 18 7 38 2 20 7 41 10 46 3 4 6 33 8 63 1 30 7 61 13 69 6 8 9
15 8 15 -2 1 -1 24 3 51 3 28 8 62 10 77 2 15 5 31 8 35 3 5 7 35 8 67 1 31 5
59 9 61 4 2 8 25 8 51 1 25 4 49 6 53 3 3 7 27 10 51 11 77 18 124 23 145 3
11 7 36 9 55 3 19 9 58 14 85 5 28 12 70 14 95 5 49 9 76 31 190 8 41 15 93
16 115 2 22 6 47 10 55 4 9 8 40 10 70 1 30 5 60 9 65 4 6 10 37 13 70 7 68
14 101 21 113 3 5 6 34 7 66 1 31 6 59 11 62 4 3 8 17 8 32 0 56 -36 32 -192
-125 -83 -85 -166 -161 -185 -170 -20 -9 -59 -15 -96 -15 -52 0 -71 4 -111 29
-48 30 -116 114 -116 143 0 9 -3 20 -7 24 -19 18 -1 96 35 156 12 18 425 439
919 934 791 793 964 973 1048 1086 11 15 38 52 61 81 156 206 336 501 469 769
79 158 106 217 165 365 22 55 59 154 70 185 7 19 16 44 20 55 20 50 39 114 71
238 6 23 17 60 24 82 12 37 23 90 46 205 33 176 39 207 38 225 0 11 1 27 4 35
2 8 7 26 10 40 27 108 27 894 1 995 -3 11 -7 38 -10 60 -5 39 -18 113 -45 243
-15 70 -31 87 -94 94 -22 3 -65 10 -95 17 -30 6 -64 12 -75 14 -11 2 -31 7
-45 10 -14 3 -52 8 -85 11 -33 3 -69 7 -80 10 -11 3 -78 8 -150 10 -71 3 -175
8 -230 12 -55 3 -103 3 -106 0z m-709 -860 c347 -69 643 -292 800 -605 38 -76
54 -120 80 -216 119 -446 -68 -931 -458 -1193 -203 -135 -386 -192 -622 -192
-297 0 -554 105 -768 314 -162 157 -257 319 -312 531 -55 210 -47 384 28 632
6 17 25 62 42 100 157 332 480 577 835 632 44 7 87 14 95 16 29 8 206 -5 280
-19z"/>
<path d="M13675 14443 c-86 -14 -219 -75 -290 -134 -103 -85 -176 -192 -221
-324 -24 -69 -25 -288 -2 -362 71 -227 260 -404 488 -459 71 -17 210 -17 280
0 242 60 417 227 491 468 24 79 26 241 4 324 -56 215 -211 384 -424 462 -52
19 -90 25 -181 27 -63 2 -128 1 -145 -2z"/>
<path d="M5920 11629 c0 -81 47 -178 110 -224 89 -64 101 -68 290 -77 258 -12
638 -27 950 -38 151 -5 322 -14 380 -19 95 -8 107 -8 131 9 53 39 54 48 7 54
-89 11 -211 18 -473 27 -148 5 -387 14 -530 20 -725 28 -659 21 -744 84 -50
36 -70 69 -96 158 -9 31 -19 57 -21 57 -2 0 -4 -23 -4 -51z"/>
<path d="M7350 10706 c0 -26 4 -54 10 -64 5 -9 16 -33 25 -52 8 -20 71 -91
140 -160 118 -118 126 -124 142 -107 17 16 11 24 -119 155 -134 135 -168 180
-168 222 0 12 -7 28 -15 36 -13 14 -15 10 -15 -30z"/>
<path d="M8040 9971 c0 -5 -31 -55 -69 -112 -118 -180 -226 -344 -231 -354 -3
-5 -41 -64 -84 -130 -43 -66 -99 -151 -124 -189 l-44 -69 803 -803 c442 -442
809 -804 816 -804 7 0 59 30 115 68 57 37 117 76 135 87 34 22 289 188 473
308 63 42 121 81 129 88 11 10 -60 85 -378 403 l-391 391 -62 -62 c-78 -75
-130 -103 -198 -103 -86 0 -160 45 -219 134 -23 35 -26 49 -25 122 0 81 1 83
44 138 23 31 56 68 72 81 15 13 28 30 28 37 0 17 -761 778 -778 778 -6 0 -12
-4 -12 -9z"/>
<path d="M7060 8466 c0 -20 -48 -56 -75 -56 -24 0 -145 -40 -212 -71 -24 -10
-45 -19 -48 -19 -7 0 -149 -71 -196 -97 -326 -186 -666 -473 -802 -676 -121
-181 -193 -385 -242 -682 -32 -192 -29 -739 5 -980 26 -189 32 -222 43 -245 7
-14 22 -26 33 -28 20 -3 21 0 17 70 -3 39 -9 80 -14 89 -5 10 -9 37 -9 60 0
23 -4 70 -9 103 -6 34 -15 153 -22 266 -10 177 -9 233 5 410 18 225 26 283 50
380 9 36 19 76 22 90 3 14 9 34 13 45 5 11 16 45 26 75 22 67 103 235 136 281
98 141 266 303 479 465 171 130 432 277 590 333 36 12 74 26 85 31 11 4 43 14
70 21 86 21 122 58 104 106 -10 28 -49 51 -49 29z"/>
<path d="M8474 7059 c22 -358 16 -578 -20 -739 -9 -36 -20 -87 -26 -115 -40
-185 -169 -472 -283 -630 -238 -332 -666 -650 -1129 -840 -107 -44 -380 -135
-403 -135 -10 0 -35 -6 -58 -14 -57 -19 -131 -36 -161 -36 -14 0 -33 -4 -43
-10 -10 -5 -70 -16 -132 -25 -63 -8 -136 -20 -164 -25 -98 -18 -254 -25 -590
-25 -347 1 -446 7 -709 44 -190 26 -211 34 -225 81 -6 21 -11 54 -11 74 0 21
-5 47 -12 59 -11 22 -21 96 -39 297 -16 184 -24 246 -30 225 -10 -37 -3 -153
10 -169 13 -15 12 -55 -3 -118 -3 -15 -2 -30 4 -33 5 -3 11 -41 12 -83 1 -69
2 -72 8 -32 6 39 7 34 7 -32 1 -57 5 -81 17 -93 18 -18 22 -55 6 -55 -5 0 -10
-11 -10 -25 0 -14 4 -25 9 -25 5 0 14 -19 20 -43 8 -32 18 -47 38 -56 57 -26
111 -39 213 -50 58 -7 116 -14 130 -17 33 -6 190 -19 427 -35 154 -10 225 -10
360 1 263 19 364 28 413 35 200 27 205 28 363 64 26 6 58 11 72 11 13 0 27 5
30 10 3 6 16 10 27 10 20 0 106 23 153 40 11 4 38 13 60 19 62 19 176 61 222
82 24 10 45 19 48 19 20 0 311 144 336 166 8 8 19 14 24 14 11 0 188 114 255
164 120 90 170 133 298 257 208 203 328 386 442 674 5 11 16 45 26 75 9 30 19
62 22 70 42 117 82 420 82 617 0 133 -24 384 -40 414 -6 10 -20 24 -32 30 -21
11 -21 11 -14 -92z"/>
</g>
</svg>
