<?xml version="1.0" standalone="no"?>
<!DOCTYPE svg PUBLIC "-//W3C//DTD SVG 20010904//EN"
 "http://www.w3.org/TR/2001/REC-SVG-20010904/DTD/svg10.dtd">
<svg version="1.0" xmlns="http://www.w3.org/2000/svg"
 width="700.000000pt" height="700.000000pt" viewBox="0 0 700.000000 700.000000"
 preserveAspectRatio="xMidYMid meet">
<metadata>
Created by potrace 1.15, written by Peter Selinger 2001-2017
</metadata>
<g transform="translate(0.000000,700.000000) scale(0.100000,-0.100000)"
fill="#000000" stroke="none">
<path d="M3322 5858 c-219 -365 -378 -806 -444 -1230 -18 -121 -22 -186 -22
-428 -1 -157 3 -341 7 -410 l8 -126 -66 -23 c-88 -31 -156 -86 -188 -151 l-26
-51 -3 170 c-3 156 -5 171 -23 186 -48 37 -106 26 -131 -24 l-12 -23 -7 23
c-4 13 -17 35 -29 47 -39 44 -68 52 -186 52 l-110 0 0 29 0 29 115 4 c114 3
115 3 147 36 30 29 33 38 33 92 0 54 -3 63 -33 92 l-32 33 -243 3 c-273 4
-307 -1 -337 -51 -24 -39 -26 -106 -5 -147 25 -48 61 -60 180 -60 l105 0 0
-30 0 -30 -110 0 c-74 0 -122 -5 -145 -14 -36 -15 -75 -67 -75 -101 -1 -14 -5
-11 -15 13 -16 37 -55 56 -97 47 -54 -12 -58 -30 -58 -246 l0 -198 26 -20 c56
-44 134 -11 134 57 l1 37 13 -38 c8 -20 19 -43 25 -51 18 -22 76 -46 110 -46
29 0 31 -3 31 -35 0 -33 -2 -35 -34 -35 l-35 0 -5 -137 c-3 -76 -8 -166 -11
-200 l-7 -63 131 0 131 0 0 48 c0 27 -6 57 -15 68 -11 14 -14 51 -15 152 l0
132 -35 0 c-33 0 -35 2 -35 35 l0 35 120 0 120 0 0 -35 c0 -33 -2 -35 -35 -35
l-35 0 0 -132 c-1 -101 -4 -138 -15 -152 -9 -11 -15 -41 -15 -68 l0 -48 130 0
130 0 0 54 c0 30 -6 61 -12 68 -9 9 -13 53 -13 143 l0 130 -32 3 c-30 3 -33 6
-33 38 0 32 2 34 33 34 45 0 98 29 124 69 l23 34 11 -32 c6 -17 19 -36 29 -41
27 -15 72 -12 97 5 l21 15 4 -187 c3 -172 5 -192 26 -230 90 -170 289 -222
442 -117 l50 34 120 0 120 0 0 -43 c0 -48 13 -67 47 -67 27 0 43 27 43 74 l0
36 118 0 c110 0 120 -2 152 -25 47 -35 133 -65 184 -65 113 0 229 76 277 182
23 50 24 63 24 258 0 189 -2 209 -22 252 -42 92 -100 138 -237 193 l-38 15 7
67 c14 141 21 474 13 628 -20 423 -148 880 -363 1305 -69 134 -152 270 -165
270 -5 0 -31 -37 -58 -82z m337 -695 c33 -91 80 -264 106 -390 44 -209 56
-356 53 -628 l-3 -250 -428 -3 c-400 -2 -428 -1 -435 15 -13 32 -8 532 6 638
26 193 69 379 134 583 l29 92 258 0 259 0 21 -57z m146 -1411 c-28 -261 -51
-410 -85 -552 -11 -47 -32 -122 -46 -167 l-26 -83 -109 0 -109 0 0 348 c0 381
-1 387 -55 380 l-30 -3 -5 -360 -5 -360 -107 -3 c-98 -2 -108 -1 -118 17 -22
42 -80 277 -105 424 -25 149 -55 397 -50 407 2 3 195 4 429 2 l427 -2 -6 -48z
m-1480 23 c24 -24 25 -27 25 -185 0 -158 -1 -161 -25 -185 l-24 -25 -245 0
c-244 0 -245 0 -273 24 -28 24 -28 26 -31 157 -4 154 1 192 30 219 21 19 36
20 270 20 l249 0 24 -25z"/>
<path d="M3300 5007 c-61 -17 -110 -48 -155 -98 -57 -64 -79 -121 -79 -209 0
-128 66 -233 184 -289 77 -36 192 -37 265 -1 64 31 124 92 156 155 20 41 24
65 24 135 0 73 -4 92 -28 137 -72 138 -228 210 -367 170z m200 -115 c118 -72
144 -236 54 -340 -158 -185 -458 -22 -390 212 42 142 208 206 336 128z"/>
<path d="M3305 4881 c-152 -71 -165 -268 -23 -357 36 -23 49 -26 109 -22 58 3
74 8 106 34 69 56 96 137 74 220 -15 58 -46 93 -105 120 -61 29 -107 30 -161
5z"/>
<path d="M1879 3671 c-21 -16 -24 -28 -24 -81 0 -95 10 -100 195 -100 134 0
150 2 174 21 23 18 26 28 26 78 0 47 -4 61 -23 79 -22 21 -33 22 -174 22 -134
0 -153 -2 -174 -19z"/>
<path d="M702 4889 c-107 -53 -158 -207 -116 -350 21 -69 90 -142 152 -158
192 -52 328 248 198 436 -59 86 -149 114 -234 72z"/>
<path d="M6101 4868 c-57 -31 -106 -101 -121 -175 -40 -191 93 -373 242 -332
64 17 132 89 153 163 64 220 -106 434 -274 344z"/>
<path d="M4952 4859 c-107 -53 -158 -207 -116 -350 21 -69 90 -142 152 -158
192 -52 328 248 198 436 -59 86 -149 114 -234 72z"/>
<path d="M540 4273 c-115 -19 -194 -39 -247 -64 l-63 -30 0 -635 0 -634 105 0
c58 0 105 -3 105 -7 0 -5 29 -325 65 -712 36 -387 65 -712 65 -722 0 -19 9
-19 207 -17 l208 3 27 295 c15 162 43 475 63 695 20 220 38 415 41 433 l5 32
104 0 105 0 0 629 0 630 -26 20 c-48 37 -262 91 -365 91 l-37 0 -58 -170 c-33
-93 -62 -170 -65 -170 -4 0 -33 77 -65 170 l-58 170 -46 -1 c-25 -1 -56 -4
-70 -6z"/>
<path d="M5870 4240 c-105 -20 -192 -50 -221 -76 -18 -16 -19 -42 -19 -646 l0
-628 105 0 c58 0 105 -1 105 -2 1 -2 31 -329 68 -728 l67 -725 208 -3 c200 -2
207 -2 207 17 0 21 115 1284 126 1384 l7 57 103 0 104 0 0 634 0 635 -62 30
c-69 32 -183 58 -293 68 l-70 5 -59 -171 c-32 -94 -61 -171 -65 -171 -3 0 -32
77 -65 170 l-58 170 -47 -1 c-25 0 -89 -9 -141 -19z"/>
<path d="M4790 4243 c-115 -19 -194 -39 -247 -64 l-63 -30 0 -635 0 -634 105
0 c58 0 105 -3 105 -7 0 -5 29 -325 65 -712 36 -387 65 -712 65 -722 0 -19 9
-19 207 -17 l208 3 27 295 c15 162 43 475 63 695 20 220 38 415 41 433 l5 32
104 0 105 0 0 629 0 630 -26 20 c-48 37 -262 91 -365 91 l-37 0 -58 -170 c-33
-93 -62 -170 -65 -170 -4 0 -33 77 -65 170 l-58 170 -46 -1 c-25 -1 -56 -4
-70 -6z"/>
<path d="M1340 2691 l0 -40 48 -3 47 -3 3 -597 2 -598 100 0 100 0 2 498 3
497 1218 3 1217 2 0 -500 0 -500 100 0 100 0 2 598 3 597 48 3 47 3 0 40 0 39
-1520 0 -1520 0 0 -39z"/>
</g>
</svg>
