<?xml version="1.0" standalone="no"?>
<!DOCTYPE svg PUBLIC "-//W3C//DTD SVG 20010904//EN"
 "http://www.w3.org/TR/2001/REC-SVG-20010904/DTD/svg10.dtd">
<svg version="1.0" xmlns="http://www.w3.org/2000/svg"
 width="2070.000000pt" height="2070.000000pt" viewBox="0 0 2070.000000 2070.000000"
 preserveAspectRatio="xMidYMid meet">
<metadata>
Created by potrace 1.15, written by Peter Selinger 2001-2017
</metadata>
<g transform="translate(0.000000,2070.000000) scale(0.100000,-0.100000)"
fill="#000000" stroke="none">
<path d="M11495 16239 c-22 -4 -70 -8 -107 -8 -36 -1 -68 -5 -70 -11 -1 -5
-48 -12 -103 -16 -55 -4 -104 -10 -110 -14 -5 -4 -54 -10 -109 -13 -54 -4
-104 -11 -110 -15 -6 -5 -56 -12 -110 -15 -54 -3 -102 -10 -105 -15 -3 -5 -50
-11 -103 -14 -54 -3 -103 -10 -110 -15 -7 -6 -57 -13 -111 -15 -54 -2 -101 -9
-105 -15 -4 -5 -55 -13 -115 -16 -59 -2 -113 -9 -120 -15 -6 -5 -57 -12 -112
-16 -55 -3 -118 -11 -140 -16 -22 -5 -89 -12 -150 -16 -60 -4 -115 -11 -122
-16 -7 -5 -56 -12 -110 -15 -54 -3 -104 -10 -111 -16 -7 -5 -56 -12 -110 -15
-53 -3 -100 -9 -103 -14 -3 -5 -53 -12 -110 -15 -57 -3 -109 -10 -116 -15 -7
-5 -56 -12 -110 -15 -54 -3 -101 -10 -104 -15 -3 -5 -51 -11 -107 -15 -56 -3
-102 -9 -102 -13 0 -4 -45 -10 -100 -13 -56 -3 -106 -10 -113 -15 -7 -5 -56
-12 -109 -14 -54 -3 -103 -10 -110 -15 -7 -6 -57 -13 -110 -15 -54 -3 -103
-10 -110 -15 -7 -6 -57 -13 -111 -16 -54 -3 -103 -10 -110 -15 -7 -5 -58 -12
-115 -15 -56 -3 -108 -9 -115 -15 -7 -5 -57 -12 -112 -16 -55 -3 -136 -13
-180 -21 -44 -8 -109 -14 -145 -15 -37 0 -71 -5 -76 -10 -6 -6 -58 -15 -115
-19 -57 -5 -122 -14 -144 -20 -22 -6 -72 -11 -112 -11 -41 0 -73 -4 -75 -11
-2 -6 -46 -13 -103 -16 -55 -3 -105 -10 -111 -15 -7 -5 -56 -13 -110 -18 -55
-5 -121 -13 -149 -19 -27 -5 -76 -10 -107 -10 -31 -1 -59 -5 -62 -10 -3 -4
-51 -11 -106 -14 -55 -3 -106 -9 -113 -15 -7 -5 -54 -12 -104 -14 -51 -3 -99
-10 -105 -16 -7 -5 -56 -12 -109 -14 -54 -2 -103 -9 -110 -15 -8 -6 -58 -13
-112 -15 -54 -3 -103 -10 -110 -17 -6 -6 -41 -11 -79 -11 -56 0 -69 -3 -78
-19 -7 -14 -10 -1577 -10 -4970 l0 -4951 27 -6 c16 -3 39 -9 53 -14 14 -5 62
-11 108 -14 45 -3 91 -10 101 -16 11 -5 46 -10 78 -10 32 0 76 -5 98 -11 22
-6 84 -15 138 -19 54 -5 103 -12 110 -18 7 -5 56 -12 111 -15 54 -3 103 -10
109 -16 6 -6 34 -11 63 -11 29 0 112 -9 186 -20 73 -11 158 -20 188 -20 31 0
61 -5 67 -11 6 -6 55 -13 109 -16 55 -3 105 -10 112 -16 7 -5 56 -12 110 -15
53 -2 103 -9 110 -15 8 -6 55 -13 105 -15 51 -2 98 -9 105 -14 6 -6 54 -13
105 -16 50 -2 97 -9 104 -14 7 -6 57 -12 113 -15 55 -3 100 -9 100 -13 0 -4
44 -10 97 -14 53 -4 102 -10 107 -15 6 -5 56 -11 110 -14 54 -3 102 -10 105
-15 3 -5 48 -12 98 -14 51 -3 99 -10 105 -15 7 -6 58 -13 112 -16 54 -3 102
-10 105 -15 3 -5 50 -12 104 -15 54 -3 103 -10 110 -15 7 -5 71 -13 142 -17
72 -4 135 -11 141 -16 7 -6 59 -12 115 -16 57 -3 110 -10 117 -16 7 -5 56 -12
110 -15 53 -2 103 -9 111 -15 7 -6 56 -13 110 -15 53 -3 99 -9 102 -15 4 -5
51 -12 105 -15 55 -2 102 -9 105 -14 3 -5 51 -12 105 -15 54 -3 102 -10 105
-15 3 -5 51 -11 107 -15 56 -3 102 -9 102 -13 0 -4 46 -10 102 -13 56 -4 104
-10 107 -15 3 -5 51 -12 105 -15 54 -3 102 -10 105 -15 3 -5 50 -12 105 -14
54 -3 101 -10 105 -15 3 -6 49 -12 102 -15 54 -2 103 -9 110 -15 8 -6 61 -13
118 -16 57 -3 107 -10 110 -15 3 -5 65 -13 136 -17 72 -4 135 -11 142 -17 6
-5 59 -12 117 -15 58 -3 106 -9 106 -14 0 -7 40 -12 203 -24 l77 -6 0 500 0
501 1885 2 c1491 2 1887 6 1897 16 6 6 30 12 53 12 23 0 50 7 61 15 10 8 31
15 46 15 15 0 30 5 33 10 3 6 27 20 53 31 26 12 51 28 55 35 4 8 13 14 19 14
6 0 21 11 33 24 12 13 32 27 43 31 12 3 22 13 22 21 0 8 9 22 20 31 11 10 20
21 20 26 0 5 14 22 30 39 17 16 30 38 30 49 0 10 4 19 9 19 5 0 12 14 16 30 4
17 11 30 16 30 5 0 9 11 9 24 0 13 6 29 14 35 7 6 17 35 22 64 11 72 11 8618
0 8687 -5 30 -15 59 -22 63 -8 4 -14 21 -14 37 0 17 -4 30 -9 30 -5 0 -12 12
-16 27 -3 15 -17 37 -31 50 -13 12 -24 30 -24 39 0 14 -152 174 -166 174 -2 0
-31 18 -63 40 -32 22 -67 40 -78 40 -12 0 -26 7 -33 15 -7 8 -23 15 -37 15
-13 0 -34 6 -46 13 -17 9 -430 13 -1932 17 l-1910 5 -3 488 -2 487 -58 -1
c-31 -1 -75 -5 -97 -10z m3887 -1386 c6 -7 22 -13 34 -13 13 0 29 -6 36 -13 7
-7 21 -16 31 -20 9 -3 17 -11 17 -16 0 -5 9 -13 21 -16 27 -9 55 -37 64 -64 3
-12 10 -21 15 -21 4 0 11 -16 14 -35 4 -19 11 -35 16 -35 7 0 10 -1561 10
-4260 0 -2778 -3 -4260 -10 -4260 -5 0 -13 -12 -16 -27 -10 -39 -145 -169
-183 -178 -17 -4 -31 -11 -31 -16 0 -5 -740 -9 -1875 -9 l-1875 0 0 4494 0
4495 28 4 c15 2 851 4 1859 3 1451 -1 1835 -4 1845 -13z m-5262 -3173 c3 -6
35 -13 70 -17 35 -3 75 -12 90 -20 14 -7 40 -13 58 -13 17 0 32 -4 32 -10 0
-5 18 -13 40 -16 22 -4 40 -10 40 -14 0 -5 14 -11 30 -15 17 -4 30 -11 30 -16
0 -5 9 -9 19 -9 11 0 26 -6 33 -13 7 -7 21 -16 31 -20 9 -3 17 -11 17 -16 0
-5 11 -12 25 -15 14 -4 25 -11 25 -16 0 -6 5 -10 11 -10 13 0 199 -184 199
-197 0 -5 13 -20 29 -34 17 -15 33 -38 37 -53 3 -14 10 -26 14 -26 4 0 11 -12
14 -26 4 -15 14 -33 21 -41 8 -8 15 -27 15 -43 0 -16 7 -30 15 -34 10 -3 15
-19 15 -43 0 -21 7 -47 15 -57 8 -11 15 -41 15 -67 0 -29 5 -49 13 -51 16 -6
18 -445 1 -456 -6 -4 -13 -38 -16 -76 -2 -42 -9 -71 -16 -74 -7 -2 -12 -18
-12 -36 0 -18 -7 -41 -15 -52 -8 -10 -15 -27 -15 -37 0 -9 -9 -34 -20 -54 -11
-21 -20 -43 -20 -50 0 -7 -4 -13 -9 -13 -5 0 -12 -13 -16 -30 -4 -16 -11 -30
-16 -30 -5 0 -9 -7 -9 -15 0 -9 -6 -18 -14 -21 -8 -3 -18 -19 -21 -35 -4 -16
-13 -29 -21 -29 -8 0 -14 -5 -14 -11 0 -6 -13 -24 -30 -41 -16 -16 -30 -36
-30 -44 0 -8 -6 -14 -14 -14 -8 0 -34 -19 -58 -43 -24 -24 -51 -46 -60 -50
-10 -3 -18 -11 -18 -17 0 -5 -6 -10 -14 -10 -8 0 -21 -6 -28 -12 -33 -31 -143
-88 -168 -88 -10 0 -20 -5 -22 -10 -2 -6 -21 -13 -43 -17 -22 -3 -46 -12 -53
-20 -7 -7 -28 -13 -47 -13 -18 0 -35 -5 -37 -11 -2 -6 -28 -14 -58 -17 -30 -2
-58 -9 -61 -14 -3 -5 -51 -12 -105 -15 -54 -3 -105 -10 -112 -16 -18 -14 -538
-13 -555 1 -7 5 -75 12 -152 15 -89 3 -141 9 -143 16 -2 6 -19 11 -38 11 l-34
0 0 1134 c0 1241 -5 1146 55 1146 13 0 26 4 29 8 3 5 53 12 112 15 58 3 111
11 118 16 25 21 833 21 846 1z m-2156 -46 c9 -3 16 -12 16 -19 0 -8 6 -20 13
-27 8 -7 16 -33 20 -57 3 -24 10 -47 15 -50 5 -3 12 -24 15 -45 4 -22 10 -42
15 -45 5 -3 12 -28 16 -55 3 -28 10 -52 15 -55 4 -4 11 -27 15 -54 4 -26 14
-59 22 -75 7 -15 14 -40 14 -55 0 -16 7 -35 15 -43 8 -9 15 -31 15 -50 0 -19
4 -34 10 -34 5 0 12 -17 15 -37 3 -21 13 -50 21 -65 8 -14 14 -42 14 -61 0
-20 5 -37 11 -39 5 -2 13 -22 16 -46 3 -23 9 -42 13 -42 4 0 10 -19 13 -41 3
-23 10 -45 15 -48 5 -3 12 -26 15 -50 3 -24 10 -47 15 -50 5 -3 12 -24 15 -46
4 -22 11 -41 17 -43 5 -2 10 -19 10 -37 0 -18 7 -46 15 -62 8 -15 17 -45 20
-65 3 -21 10 -38 14 -38 5 0 11 -22 15 -50 4 -27 11 -52 15 -55 5 -3 12 -28
16 -55 4 -27 11 -52 15 -55 5 -3 11 -24 15 -48 4 -23 14 -54 21 -69 8 -15 14
-40 14 -57 0 -16 5 -31 11 -33 5 -2 13 -22 16 -46 3 -23 9 -42 14 -42 4 0 10
-15 14 -32 8 -44 35 -139 46 -160 5 -10 9 -26 9 -35 0 -10 7 -31 15 -47 30
-58 37 -56 -234 -56 -290 0 -309 2 -318 39 -3 14 -10 31 -14 37 -5 6 -12 33
-16 60 -3 27 -10 52 -16 55 -5 4 -12 30 -15 58 -2 28 -8 51 -13 51 -4 0 -11
17 -14 38 -3 20 -13 49 -21 64 -8 14 -14 40 -14 56 0 17 -5 32 -11 34 -5 2
-13 22 -16 46 l-6 42 -168 0 c-92 0 -170 4 -173 8 -3 5 -58 10 -123 11 -111 2
-119 1 -137 -20 -10 -13 -21 -43 -24 -68 -3 -25 -9 -49 -15 -52 -5 -4 -12 -28
-15 -55 -2 -27 -11 -58 -18 -69 -8 -11 -14 -36 -14 -56 0 -21 -5 -39 -11 -41
-6 -2 -14 -27 -17 -56 -2 -29 -8 -52 -12 -52 -4 0 -10 -19 -13 -41 -3 -23 -11
-46 -19 -50 -18 -11 -480 1 -495 14 -15 11 -17 37 -4 37 4 0 11 19 14 41 3 23
10 45 15 48 5 3 12 26 15 50 3 24 10 47 15 50 5 3 12 28 15 56 3 27 10 51 16
53 6 2 11 16 11 30 0 15 6 39 14 54 8 14 17 49 21 77 4 28 10 51 15 51 4 0 11
26 15 58 4 31 11 60 17 63 5 3 12 26 15 50 3 24 12 53 19 64 8 11 14 35 14 53
0 18 7 40 15 48 8 9 15 30 15 49 0 18 5 35 11 37 6 2 13 26 16 53 3 28 10 53
16 56 5 4 12 27 14 53 3 25 9 46 13 46 4 0 11 20 14 45 4 25 11 45 15 45 5 0
11 23 13 52 3 29 11 54 17 56 6 2 11 19 11 37 0 19 7 40 15 49 8 8 15 28 15
43 0 16 7 38 15 49 8 10 15 36 15 57 0 20 4 37 10 37 5 0 12 17 15 38 3 20 10
44 15 53 5 9 12 34 16 55 3 22 10 44 14 49 4 6 11 31 14 58 4 26 11 47 17 47
5 0 9 12 9 28 0 15 7 40 15 56 8 15 15 37 15 48 0 11 6 34 14 51 8 18 17 44
20 59 l6 28 303 3 c166 1 305 3 309 5 3 1 13 -1 22 -4z m-1734 -13 c0 -5 38
-12 85 -16 47 -4 85 -10 85 -15 0 -4 19 -10 41 -13 23 -3 45 -10 48 -15 3 -5
18 -12 34 -16 25 -6 39 -26 18 -26 -4 0 -11 -27 -15 -60 -4 -33 -11 -62 -16
-65 -4 -3 -12 -36 -15 -73 -4 -37 -11 -71 -15 -77 -5 -5 -11 -28 -15 -50 -12
-64 -39 -83 -71 -50 -9 8 -30 15 -49 15 -18 0 -35 6 -37 13 -4 9 -57 12 -223
12 -166 0 -219 -3 -222 -12 -3 -7 -17 -13 -33 -13 -16 0 -35 -7 -44 -15 -8 -8
-21 -15 -30 -15 -8 0 -21 -6 -28 -14 -8 -7 -23 -16 -34 -20 -11 -3 -38 -24
-60 -46 -55 -55 -64 -67 -64 -85 0 -9 -6 -18 -14 -21 -8 -3 -17 -16 -20 -30
-4 -13 -11 -24 -16 -24 -6 0 -10 -13 -10 -29 0 -16 -6 -34 -14 -40 -7 -6 -16
-32 -19 -58 -3 -26 -10 -49 -16 -51 -14 -5 -16 -402 -2 -402 5 0 12 -23 16
-52 4 -28 14 -58 21 -66 8 -7 14 -25 14 -38 0 -14 5 -30 10 -37 41 -48 50 -62
50 -74 0 -7 5 -13 10 -13 6 0 10 -6 10 -14 0 -7 10 -20 23 -29 12 -8 33 -24
46 -36 13 -11 28 -21 33 -21 5 0 19 -11 31 -24 12 -13 37 -27 55 -30 17 -4 32
-11 32 -15 0 -18 134 -35 275 -35 153 0 269 14 317 40 41 22 55 10 62 -58 3
-34 10 -66 15 -72 5 -6 12 -55 16 -109 4 -53 11 -100 16 -103 15 -9 10 -44 -6
-44 -8 0 -15 -4 -15 -10 0 -5 -17 -12 -37 -16 -21 -4 -41 -11 -44 -17 -4 -5
-40 -12 -80 -15 -41 -2 -77 -10 -81 -16 -10 -15 -390 -15 -409 0 -8 6 -42 14
-77 17 -34 3 -68 9 -75 15 -7 5 -30 13 -51 17 -22 3 -49 13 -60 21 -11 8 -31
14 -43 14 -13 0 -23 4 -23 9 0 5 -13 12 -30 16 -16 4 -30 11 -30 16 0 5 -11
11 -24 15 -14 3 -27 12 -30 20 -3 8 -12 14 -21 14 -8 0 -15 4 -15 10 0 5 -11
12 -25 16 -14 3 -25 10 -25 15 0 10 -12 24 -90 105 -32 33 -60 70 -64 82 -4
13 -19 35 -32 49 -13 15 -27 37 -30 50 -4 13 -10 23 -14 23 -4 0 -11 16 -14
35 -4 19 -11 35 -15 35 -5 0 -11 18 -15 40 -3 22 -10 40 -15 40 -5 0 -11 21
-14 46 -2 26 -9 49 -14 53 -6 3 -13 53 -17 111 -3 57 -11 109 -16 114 -13 13
-13 139 0 152 5 5 13 56 16 112 4 56 11 102 15 102 4 0 11 26 15 57 4 32 13
63 20 71 8 7 14 27 14 43 0 16 4 29 9 29 5 0 13 14 16 32 4 17 14 38 21 46 8
7 14 20 14 28 0 8 4 14 9 14 5 0 12 14 16 30 4 17 11 30 16 30 5 0 9 6 9 13 0
7 13 24 29 38 15 14 31 35 35 47 4 12 13 22 20 22 7 0 47 34 88 74 42 41 87
78 101 81 14 4 28 13 31 21 3 8 12 14 21 14 8 0 15 4 15 9 0 5 10 13 22 17 12
3 28 13 36 20 7 8 22 14 33 14 10 0 19 4 19 10 0 5 16 12 35 16 19 3 38 10 40
15 3 4 26 11 50 15 25 3 45 10 45 14 0 4 36 11 80 15 44 4 80 11 80 16 0 5 68
9 150 9 83 0 150 -4 150 -9z"/>
<path d="M9551 11273 c-24 -2 -50 -10 -57 -18 -12 -11 -14 -142 -14 -757 l0
-744 33 -12 c39 -14 313 -17 321 -3 3 4 38 11 78 13 40 3 74 11 76 17 2 6 13
11 25 11 12 1 40 9 62 20 22 11 46 19 53 20 6 0 12 4 12 10 0 5 11 12 24 16
14 3 27 12 30 20 3 8 10 14 16 14 13 0 100 84 100 97 0 5 9 16 20 26 11 9 20
24 20 32 0 8 5 15 10 15 6 0 10 6 10 14 0 7 7 19 15 26 8 7 15 21 15 31 0 11
4 19 9 19 5 0 12 15 16 33 3 17 10 41 15 52 46 104 46 560 0 620 -4 6 -11 25
-15 43 -3 17 -11 32 -16 32 -5 0 -9 8 -9 19 0 10 -7 24 -15 31 -8 7 -15 19
-15 26 0 8 -4 14 -9 14 -5 0 -12 8 -15 18 -8 25 -84 102 -100 102 -8 0 -16 7
-20 15 -3 8 -12 15 -21 15 -8 0 -15 4 -15 10 0 5 -11 12 -25 16 -14 3 -25 10
-25 15 0 4 -16 11 -35 15 -19 3 -35 10 -35 14 0 5 -19 11 -42 15 -24 4 -46 12
-49 17 -6 10 -353 19 -428 11z"/>
<path d="M7620 11185 c0 -14 -4 -25 -9 -25 -6 0 -13 -31 -17 -70 -3 -38 -10
-70 -14 -70 -5 0 -12 -29 -15 -65 -4 -36 -11 -65 -15 -65 -4 0 -10 -20 -13
-45 -4 -24 -11 -53 -16 -62 -6 -10 -13 -39 -16 -65 -3 -27 -10 -48 -14 -48 -5
0 -11 -23 -14 -52 -4 -28 -10 -54 -15 -57 -5 -3 -12 -28 -16 -55 -3 -28 -10
-52 -15 -55 -5 -4 -11 -26 -12 -51 l-4 -45 215 -5 c118 -3 221 -3 228 -1 15 4
8 68 -9 85 -5 6 -9 21 -9 35 0 15 -7 39 -15 55 -8 15 -15 40 -15 55 0 14 -6
38 -14 52 -7 14 -16 47 -20 72 -4 26 -11 49 -16 52 -4 3 -11 28 -15 55 -4 27
-11 52 -15 55 -5 3 -12 30 -15 60 -4 30 -11 55 -16 55 -4 0 -11 27 -15 60 -4
33 -10 60 -14 60 -4 0 -11 25 -15 55 -4 38 -11 55 -21 55 -8 0 -14 -10 -14
-25z"/>
</g>
</svg>
