<?xml version="1.0" standalone="no"?>
<!DOCTYPE svg PUBLIC "-//W3C//DTD SVG 20010904//EN"
 "http://www.w3.org/TR/2001/REC-SVG-20010904/DTD/svg10.dtd">
<svg version="1.0" xmlns="http://www.w3.org/2000/svg"
 width="160.000000pt" height="160.000000pt" viewBox="0 0 160.000000 160.000000"
 preserveAspectRatio="xMidYMid meet">
<metadata>
Created by potrace 1.15, written by Peter Selinger 2001-2017
</metadata>
<g transform="translate(0.000000,160.000000) scale(0.100000,-0.100000)"
fill="#000000" stroke="none">
<path d="M695 1127 c-44 -96 -43 -99 17 -121 29 -10 58 -20 63 -22 10 -4 72
143 64 149 -2 2 -30 13 -62 25 l-58 22 -24 -53z"/>
<path d="M830 1067 c-35 -79 -41 -72 140 -144 91 -36 176 -67 190 -69 14 -2
36 -6 50 -9 14 -3 40 -8 58 -11 17 -4 32 -12 32 -19 0 -14 27 -28 40 -20 5 3
11 19 15 35 4 16 11 32 16 35 5 4 9 10 9 14 0 13 -39 21 -46 9 -4 -5 -13 -3
-22 5 -10 8 -27 18 -40 22 -13 4 -21 9 -18 12 9 9 -59 41 -237 113 l-169 68
-18 -41z"/>
<path d="M847 893 c-12 -11 -8 -141 4 -145 6 -2 -42 -80 -108 -173 -147 -208
-139 -195 -115 -195 14 0 55 49 138 164 l119 164 3 -164 2 -164 26 0 25 0 -3
170 c-2 94 -3 170 -3 170 0 0 56 -79 125 -174 102 -143 129 -175 148 -173 21
1 31 22 14 29 -18 7 -253 343 -243 346 7 2 11 34 11 78 l0 74 -68 0 c-38 0
-72 -3 -75 -7z"/>
</g>
</svg>
