<?xml version="1.0" standalone="no"?>
<!DOCTYPE svg PUBLIC "-//W3C//DTD SVG 20010904//EN"
 "http://www.w3.org/TR/2001/REC-SVG-20010904/DTD/svg10.dtd">
<svg version="1.0" xmlns="http://www.w3.org/2000/svg"
 width="2070.000000pt" height="2070.000000pt" viewBox="0 0 2070.000000 2070.000000"
 preserveAspectRatio="xMidYMid meet">
<metadata>
Created by potrace 1.15, written by Peter Selinger 2001-2017
</metadata>
<g transform="translate(0.000000,2070.000000) scale(0.100000,-0.100000)"
fill="#000000" stroke="none">
<path d="M15026 15655 c-4 -11 1 -15 19 -15 14 0 25 -4 25 -10 0 -5 11 -10 25
-10 14 0 25 -5 25 -11 0 -7 16 -26 35 -45 19 -18 35 -40 35 -49 0 -9 11 -28
25 -43 14 -15 25 -39 25 -54 0 -15 5 -30 10 -33 6 -3 10 -50 10 -104 0 -95 -6
-121 -42 -186 -7 -11 -18 -32 -25 -46 -24 -48 -160 -152 -294 -225 -11 -6 -31
-21 -45 -33 -13 -11 -30 -21 -37 -21 -8 0 -24 -11 -37 -25 -13 -14 -30 -25
-37 -25 -8 0 -26 -11 -41 -25 -15 -14 -31 -25 -35 -25 -5 0 -23 -11 -41 -25
-18 -14 -38 -25 -44 -25 -7 0 -12 -4 -12 -8 0 -5 -15 -16 -32 -26 -59 -31 -79
-43 -104 -65 -13 -11 -31 -21 -38 -21 -8 0 -18 -4 -21 -10 -3 -5 -20 -16 -38
-24 -18 -7 -48 -21 -69 -30 -47 -21 -167 -22 -194 -1 -10 8 -29 15 -41 15 -12
0 -25 5 -28 10 -3 6 -14 10 -23 10 -9 0 -28 12 -41 25 -13 14 -29 25 -35 25
-15 0 -56 42 -56 57 0 7 -11 20 -25 31 -14 11 -25 29 -25 41 0 12 -6 21 -15
21 -11 0 -15 12 -15 45 0 25 -4 45 -9 45 -6 0 -12 15 -14 33 -2 20 -4 10 -5
-25 -1 -31 3 -60 8 -63 6 -3 10 -23 10 -44 0 -22 6 -44 15 -51 8 -7 15 -21 15
-31 0 -11 4 -19 8 -19 5 0 18 -18 31 -40 22 -40 78 -90 99 -90 7 0 12 -4 12
-8 0 -5 19 -17 43 -27 23 -9 54 -23 69 -31 38 -20 237 -19 264 1 10 8 27 15
37 15 9 0 35 11 57 25 22 14 44 25 49 25 5 0 11 4 13 8 2 4 46 34 98 67 52 32
104 67 116 77 11 10 24 18 28 18 4 0 22 10 39 23 18 12 39 27 49 32 66 40 207
131 223 146 11 9 30 20 41 23 12 4 29 15 39 26 10 11 23 20 30 20 14 0 125
114 125 128 0 5 9 19 20 32 11 13 20 33 20 46 0 13 5 26 10 29 12 8 14 272 1
279 -5 3 -12 22 -15 41 -4 19 -11 35 -16 35 -5 0 -12 10 -15 21 -15 46 -140
159 -176 159 -6 0 -17 7 -25 15 -9 8 -19 15 -24 15 -4 0 -10 -7 -14 -15z"/>
<path d="M12680 15436 c0 -21 35 -47 54 -40 9 4 16 1 16 -7 0 -16 59 -69 77
-69 8 0 27 -16 44 -35 19 -22 40 -35 55 -35 13 0 24 -5 24 -10 0 -18 93 -101
107 -96 7 3 13 -1 13 -9 0 -8 7 -15 15 -15 8 0 15 -6 15 -14 0 -8 9 -18 20
-21 11 -3 20 -10 20 -15 0 -5 21 -29 47 -52 63 -58 248 -243 300 -301 23 -26
47 -47 52 -47 6 0 11 -4 11 -10 0 -5 8 -18 18 -28 9 -10 30 -36 46 -57 16 -22
47 -60 68 -85 54 -62 58 -68 58 -80 0 -5 6 -10 13 -10 6 0 18 -13 25 -28 7
-16 28 -47 47 -69 19 -23 35 -48 35 -57 0 -9 4 -16 9 -16 9 0 91 -116 91 -128
0 -3 11 -20 25 -38 14 -18 25 -37 25 -42 0 -5 7 -15 16 -23 9 -7 25 -33 37
-58 11 -25 31 -60 44 -77 13 -17 23 -36 23 -41 0 -6 7 -16 15 -23 8 -7 13 -16
10 -20 -3 -4 2 -13 10 -20 8 -7 15 -21 15 -31 0 -10 4 -20 9 -23 5 -3 32 -54
61 -113 28 -60 59 -121 68 -138 23 -44 28 -56 47 -105 10 -25 28 -69 41 -98
13 -29 24 -58 24 -66 0 -7 3 -16 7 -20 7 -7 31 -70 38 -100 3 -11 9 -24 15
-30 5 -5 10 -22 10 -37 0 -15 5 -31 10 -34 6 -3 10 -16 10 -29 0 -12 7 -31 15
-42 8 -10 15 -31 15 -46 0 -15 5 -30 10 -33 6 -3 10 -18 10 -32 0 -14 6 -39
14 -56 16 -36 25 -73 33 -132 3 -22 9 -45 15 -52 10 -12 26 -89 35 -163 3 -25
9 -50 14 -56 6 -7 12 -36 15 -65 3 -30 10 -66 16 -81 5 -14 11 -52 13 -85 2
-32 10 -80 16 -108 7 -27 12 -74 11 -104 -1 -29 3 -62 9 -73 28 -52 27 -938
-1 -1022 -7 -23 -9 -55 -5 -82 4 -26 2 -44 -3 -44 -10 0 -18 -46 -28 -165 -3
-33 -9 -69 -14 -80 -4 -11 -11 -44 -14 -74 -3 -30 -10 -59 -16 -65 -5 -5 -10
-31 -10 -57 0 -26 -4 -51 -10 -54 -5 -3 -10 -23 -10 -43 -1 -20 -7 -48 -15
-62 -8 -14 -14 -39 -15 -57 0 -17 -4 -35 -10 -38 -5 -3 -10 -21 -10 -38 -1
-18 -7 -43 -15 -57 -8 -14 -14 -35 -15 -48 0 -12 -4 -30 -9 -40 -5 -9 -17 -44
-27 -77 -10 -33 -22 -64 -26 -70 -4 -5 -8 -17 -8 -27 0 -16 -19 -66 -41 -110
-5 -10 -9 -25 -9 -33 0 -8 -4 -23 -10 -33 -5 -9 -16 -34 -25 -54 -8 -21 -22
-55 -31 -75 -8 -21 -19 -47 -24 -58 -37 -91 -215 -448 -253 -509 -59 -95 -77
-126 -77 -131 0 -4 -10 -21 -23 -38 -12 -18 -27 -39 -32 -49 -6 -9 -29 -44
-52 -78 -24 -34 -43 -65 -43 -68 0 -3 -10 -16 -21 -28 -12 -13 -27 -32 -33
-42 -23 -40 -177 -240 -220 -286 -16 -17 -53 -60 -82 -96 -63 -78 -399 -411
-469 -465 -27 -21 -54 -43 -60 -50 -5 -6 -28 -24 -50 -40 -22 -16 -59 -46 -82
-67 -24 -21 -46 -38 -50 -38 -5 0 -26 -16 -48 -35 -22 -19 -45 -35 -51 -35 -6
0 -21 -11 -34 -25 -13 -14 -29 -25 -35 -25 -7 0 -20 -9 -30 -20 -10 -11 -27
-22 -39 -26 -11 -4 -34 -17 -49 -30 -16 -13 -35 -24 -43 -24 -8 0 -14 -4 -14
-10 0 -5 -7 -10 -15 -10 -7 0 -18 -6 -22 -14 -4 -8 -5 -169 -1 -358 6 -294 4
-349 -9 -388 -8 -25 -17 -65 -18 -89 -2 -24 -9 -49 -14 -54 -6 -6 -11 -19 -11
-30 0 -27 -104 -239 -129 -261 -11 -11 -21 -25 -21 -33 0 -18 -183 -199 -244
-241 -60 -41 -190 -112 -206 -112 -6 0 -23 -9 -37 -20 -14 -11 -33 -20 -42
-20 -10 0 -28 -10 -40 -21 -15 -15 -25 -18 -30 -11 -9 16 -81 -7 -81 -25 0 -7
-4 -13 -10 -13 -5 0 -10 7 -10 15 0 11 -8 13 -32 8 -18 -3 -41 -10 -50 -14 -9
-5 -38 -9 -63 -9 -58 0 -68 -10 -104 -102 -54 -141 -146 -283 -250 -386 -96
-96 -150 -142 -166 -142 -7 0 -18 -7 -26 -16 -7 -9 -33 -25 -58 -37 -25 -11
-59 -32 -76 -45 -18 -15 -31 -20 -33 -13 -3 8 -15 4 -38 -9 -18 -12 -38 -19
-42 -16 -5 3 -26 -3 -47 -14 -27 -14 -42 -17 -51 -9 -8 7 -14 7 -19 -1 -9 -14
-311 -14 -320 0 -5 8 -11 8 -19 1 -9 -8 -24 -5 -51 9 -21 11 -42 17 -46 14 -5
-3 -25 4 -46 14 -59 30 -106 50 -133 56 -14 3 -39 19 -57 36 -18 16 -36 30
-42 30 -12 0 -149 115 -176 149 -11 13 -44 51 -72 84 -29 33 -53 66 -53 73 0
8 -3 14 -7 14 -15 0 -93 146 -93 172 0 10 -7 21 -15 24 -8 4 -15 17 -15 31 0
14 -8 38 -17 54 -16 26 -22 29 -71 29 -29 0 -62 5 -73 10 -10 6 -38 12 -61 14
-61 6 -107 17 -114 27 -3 5 -15 9 -28 9 -12 0 -42 10 -66 21 -28 14 -46 17
-48 11 -2 -6 -24 4 -50 22 -26 18 -63 42 -82 52 -19 10 -39 24 -45 31 -5 7
-23 19 -39 27 -49 25 -221 201 -272 278 -27 40 -52 75 -56 76 -4 2 -8 12 -8
23 0 11 -7 22 -15 25 -9 4 -15 19 -15 40 0 19 -4 34 -10 34 -5 0 -10 11 -10
24 0 14 -7 31 -15 40 -9 8 -15 33 -15 59 0 27 -5 47 -12 49 -10 4 -14 97 -15
414 l-3 409 -27 22 c-16 13 -31 23 -36 23 -4 0 -30 16 -57 35 -27 19 -54 35
-58 35 -5 0 -21 11 -36 25 -15 14 -29 25 -31 25 -14 0 -181 121 -257 187 -27
24 -52 43 -57 43 -4 0 -37 27 -72 61 -35 33 -100 91 -144 129 -81 69 -168 157
-262 265 -28 33 -77 87 -107 119 -31 33 -56 64 -56 69 0 5 -10 19 -23 31 -23
22 -147 182 -147 190 0 3 -11 17 -25 32 -14 15 -25 31 -25 36 0 5 -11 21 -25
36 -14 15 -25 32 -25 38 0 6 -11 23 -25 38 -14 15 -25 33 -25 40 0 7 -11 23
-25 36 -14 13 -25 27 -25 32 0 8 -34 67 -78 134 -6 10 -14 25 -17 32 -12 31
-17 41 -50 97 -20 33 -41 72 -47 87 -7 16 -16 28 -20 28 -4 0 -8 7 -8 15 0 8
-4 23 -9 33 -23 40 -71 151 -71 161 0 6 -4 11 -10 11 -5 0 -10 9 -10 20 0 11
-6 23 -14 26 -7 3 -13 17 -13 32 0 14 -6 28 -12 30 -6 2 -11 16 -11 32 0 15
-6 30 -13 33 -7 2 -14 18 -15 33 -1 16 -7 31 -12 32 -6 2 -10 14 -10 27 0 12
-7 25 -15 28 -9 4 -13 16 -10 36 2 19 -2 31 -11 35 -8 3 -14 19 -14 41 0 25
-4 35 -15 35 -11 0 -14 7 -9 24 3 14 0 29 -10 39 -9 8 -16 31 -16 50 0 21 -6
37 -14 40 -9 4 -14 19 -13 43 1 21 -4 39 -11 42 -7 2 -12 19 -12 39 0 19 -6
41 -14 49 -10 9 -13 26 -9 49 4 26 2 36 -11 41 -12 5 -16 20 -16 64 0 40 -4
59 -14 63 -10 4 -12 18 -9 49 4 32 1 47 -11 57 -12 10 -16 31 -16 76 0 35 -5
65 -10 67 -6 2 -11 38 -12 80 -1 54 -6 79 -15 82 -9 4 -13 32 -13 105 0 66 -4
101 -11 103 -9 3 -12 74 -13 248 -1 135 -2 229 -4 210 -2 -19 -7 -37 -12 -40
-10 -7 8 -449 20 -475 5 -11 11 -60 14 -110 5 -111 23 -243 35 -270 6 -11 12
-42 15 -70 6 -71 25 -167 35 -180 5 -5 11 -30 14 -55 3 -25 9 -58 13 -75 6
-28 2 -25 -57 33 -74 73 -99 90 -99 67 0 -8 5 -15 10 -15 6 0 10 -5 10 -11 0
-6 15 -25 33 -42 18 -18 41 -49 51 -69 9 -21 21 -38 26 -38 6 0 10 -16 10 -35
0 -19 5 -35 10 -35 17 0 12 -182 -5 -204 -8 -11 -15 -27 -15 -36 0 -48 -111
-175 -187 -215 -21 -11 -61 -34 -90 -52 -29 -18 -59 -33 -67 -33 -8 0 -17 -4
-21 -9 -7 -13 -64 -41 -82 -41 -7 0 -16 -7 -19 -15 -4 -8 -12 -15 -19 -15 -16
0 -73 -29 -80 -41 -4 -5 -13 -9 -21 -9 -8 0 -38 -15 -67 -33 -29 -18 -68 -41
-87 -50 -19 -10 -42 -22 -50 -26 -8 -5 -31 -17 -50 -25 -19 -9 -42 -20 -50
-25 -8 -5 -28 -14 -45 -21 -16 -6 -43 -18 -58 -26 -40 -20 -190 -19 -207 1 -7
8 -24 15 -37 15 -14 0 -37 8 -51 19 -15 10 -32 20 -38 22 -19 7 -104 89 -104
101 0 6 -11 21 -25 34 -16 14 -25 34 -25 52 0 17 -6 32 -15 35 -11 5 -15 30
-18 104 l-3 98 -2 -122 c-1 -67 2 -124 7 -127 4 -3 11 -19 14 -36 8 -36 48
-103 91 -149 39 -42 129 -101 154 -101 10 0 27 -7 38 -15 14 -11 48 -14 131
-15 116 0 143 7 258 68 17 8 37 19 45 22 8 4 29 15 47 24 17 9 56 29 85 44 29
15 55 29 58 32 8 8 64 38 175 94 55 27 102 54 103 58 2 4 11 8 20 9 10 0 31 9
47 19 17 10 54 31 84 47 69 36 181 145 208 203 38 83 43 101 43 165 0 37 4 65
10 65 6 0 10 -15 10 -34 0 -19 5 -38 10 -41 6 -3 10 -15 10 -27 0 -11 6 -32
14 -46 17 -34 36 -93 36 -114 0 -9 7 -21 15 -28 8 -7 15 -23 15 -36 0 -12 5
-26 10 -29 6 -3 10 -17 10 -29 0 -13 7 -29 15 -36 8 -7 15 -21 15 -31 0 -18 8
-37 32 -79 4 -8 11 -22 14 -30 15 -40 24 -59 47 -110 55 -119 89 -188 127
-255 22 -38 49 -88 60 -110 12 -22 34 -60 50 -85 16 -25 33 -52 37 -60 3 -8
17 -29 30 -46 13 -17 23 -33 23 -36 0 -3 27 -45 60 -94 34 -49 71 -105 84
-124 13 -19 35 -46 50 -59 14 -14 26 -29 26 -35 0 -6 19 -31 41 -56 22 -25 48
-57 58 -73 10 -15 40 -51 67 -80 27 -28 60 -65 72 -82 35 -46 268 -280 325
-328 29 -23 78 -66 109 -96 32 -30 70 -61 85 -71 15 -9 43 -31 61 -48 19 -18
44 -38 57 -44 22 -13 135 -96 145 -107 3 -3 17 -13 31 -21 15 -8 52 -32 83
-52 31 -21 59 -38 61 -38 3 0 27 -16 55 -36 l49 -35 3 -399 c2 -303 6 -402 16
-412 6 -6 12 -31 12 -54 0 -24 5 -46 10 -49 6 -3 10 -14 10 -23 0 -9 7 -30 15
-46 8 -15 15 -34 15 -41 0 -16 32 -79 43 -83 4 -2 7 -8 7 -13 0 -25 94 -144
185 -235 94 -94 175 -156 250 -194 17 -8 45 -25 62 -37 17 -13 44 -23 60 -23
15 0 37 -7 47 -15 11 -8 28 -15 38 -15 10 0 26 -4 36 -9 39 -20 112 -34 203
-38 l96 -5 16 -37 c10 -21 17 -41 17 -44 0 -4 11 -30 25 -59 14 -28 25 -57 25
-64 0 -6 6 -17 14 -23 8 -7 22 -26 31 -44 31 -60 41 -75 75 -115 19 -23 53
-63 75 -90 52 -63 269 -230 302 -232 6 0 24 -6 40 -14 15 -8 40 -19 56 -25 15
-6 37 -15 50 -21 52 -23 124 -30 319 -30 194 0 300 10 323 31 5 5 17 9 27 9
22 0 180 81 230 118 114 83 157 120 193 164 22 27 56 67 75 90 19 22 48 64 63
92 16 28 35 58 43 67 8 8 14 20 14 25 0 6 11 34 25 62 14 29 25 55 25 59 0 3
8 24 17 45 l17 38 108 0 c89 0 108 3 108 15 0 11 12 15 50 15 28 0 50 5 50 10
0 6 6 10 14 10 8 0 37 11 64 25 28 14 57 25 65 25 9 0 22 6 29 13 7 7 29 21
48 30 34 18 44 23 128 79 49 33 242 226 242 243 0 7 8 19 18 28 9 9 37 55 61
104 25 48 50 100 58 115 7 14 13 35 13 46 0 12 5 24 10 27 6 3 10 23 10 43 0
20 7 55 15 77 11 32 14 113 15 402 l0 362 29 20 c16 12 33 21 39 21 5 0 15 6
21 14 7 8 42 33 79 56 37 23 87 57 112 76 25 18 63 46 85 61 22 15 51 37 65
49 14 13 39 33 57 46 122 88 528 475 618 590 22 28 61 74 86 102 25 28 50 58
55 67 5 9 24 34 41 55 39 47 94 120 109 146 6 10 21 29 33 42 11 12 21 25 21
29 0 4 23 38 50 77 28 39 50 73 50 77 0 3 11 21 25 39 14 18 25 36 25 39 0 4
8 19 19 33 10 15 38 63 61 107 24 44 53 96 65 115 21 35 118 232 137 280 6 14
14 32 19 40 5 8 12 22 15 30 3 8 11 26 16 40 24 55 36 86 48 115 7 17 19 42
26 57 8 14 14 35 14 46 0 12 5 24 10 27 6 3 10 16 10 28 0 12 7 31 15 41 8 11
15 30 15 42 0 13 5 26 10 29 6 3 10 19 10 36 0 16 5 29 10 29 6 0 10 -22 10
-49 0 -53 17 -100 58 -165 33 -53 83 -106 98 -106 6 0 17 -6 23 -14 6 -7 57
-37 114 -65 56 -29 134 -70 172 -91 39 -22 85 -47 103 -56 19 -10 36 -23 39
-31 3 -7 16 -13 29 -13 14 0 42 -11 64 -25 22 -14 46 -25 53 -25 7 0 17 -4 23
-9 8 -8 31 -21 159 -91 77 -42 118 -50 252 -50 72 0 133 4 135 8 4 9 96 72
106 72 11 0 65 53 89 87 68 96 87 155 87 273 0 96 -12 148 -50 217 -32 59
-116 147 -164 172 -19 10 -53 28 -75 41 -149 84 -187 102 -198 91 -8 -8 -4
-11 15 -11 14 0 28 -7 32 -15 3 -8 15 -15 26 -15 11 0 20 -4 20 -10 0 -5 12
-13 26 -16 19 -5 22 -9 12 -15 -9 -6 -5 -9 15 -9 15 0 27 -4 27 -10 0 -5 12
-10 26 -10 19 0 25 -4 20 -15 -4 -11 2 -15 24 -15 17 0 30 -5 30 -10 0 -6 20
-33 45 -59 25 -26 45 -55 45 -63 0 -9 7 -21 15 -28 9 -7 13 -15 10 -18 -3 -3
1 -15 9 -26 27 -42 36 -154 19 -236 -15 -69 -88 -188 -130 -211 -13 -7 -23
-16 -23 -21 0 -4 -7 -8 -15 -8 -8 0 -15 -4 -15 -10 0 -5 -7 -10 -15 -10 -9 0
-30 -14 -47 -32 -17 -18 -33 -28 -35 -22 -2 6 -40 8 -99 6 -63 -3 -99 -1 -107
7 -6 6 -18 11 -27 11 -9 0 -45 15 -80 34 -36 19 -81 42 -100 51 -19 9 -42 21
-50 26 -8 4 -31 16 -50 25 -19 10 -43 24 -52 32 -10 8 -26 12 -37 9 -14 -3
-31 5 -54 27 -18 17 -76 53 -128 79 -52 26 -101 52 -109 57 -8 4 -32 17 -53
27 -76 36 -103 52 -116 67 -8 9 -19 16 -25 16 -13 0 -76 61 -76 73 0 5 -11 18
-25 31 -14 13 -25 33 -25 44 0 11 -7 27 -15 36 -21 21 -23 218 -1 266 8 19 21
50 28 68 7 17 16 32 20 32 5 0 8 11 8 25 0 14 4 25 9 25 8 0 19 43 41 165 24
133 36 184 43 191 4 4 7 37 7 74 0 37 3 70 8 74 12 12 33 198 43 376 5 91 12
221 16 290 l8 125 25 -50 c24 -48 134 -165 155 -165 6 0 22 -11 36 -24 27 -25
43 -28 224 -45 50 -4 103 -13 118 -19 16 -7 55 -12 88 -12 33 0 59 -4 59 -10
0 -6 34 -10 83 -10 46 0 100 -7 122 -15 22 -8 68 -14 103 -15 34 0 62 -4 62
-10 0 -6 49 -10 126 -10 125 0 128 1 201 36 104 50 223 172 223 230 0 7 6 14
13 16 9 3 13 44 15 146 3 141 3 141 -28 209 -19 39 -54 91 -84 121 -50 53
-166 123 -166 101 0 -6 9 -13 20 -16 11 -3 20 -9 20 -14 0 -5 8 -9 18 -9 10 0
25 -12 34 -27 10 -16 31 -42 48 -60 16 -18 30 -38 30 -46 0 -8 7 -20 15 -27 8
-7 12 -16 9 -21 -3 -5 2 -19 10 -31 12 -17 16 -48 16 -124 0 -96 -2 -107 -34
-176 -38 -80 -103 -151 -171 -184 -22 -10 -51 -27 -64 -37 -16 -11 -28 -14
-34 -8 -7 7 -17 6 -30 -1 -12 -6 -49 -8 -88 -6 -45 4 -70 1 -73 -6 -3 -8 -7
-8 -13 0 -8 10 -161 47 -179 43 -17 -4 -129 12 -146 21 -13 7 -20 5 -27 -8 -7
-11 -13 -13 -18 -6 -7 10 -99 32 -168 40 -96 10 -142 18 -156 25 -9 5 -20 4
-26 -2 -7 -7 -24 -5 -54 5 -32 11 -45 12 -51 4 -4 -8 -16 -2 -35 19 -15 17
-37 34 -49 37 -25 7 -112 91 -125 120 -5 12 -18 36 -30 55 -11 19 -22 47 -24
63 -2 16 -8 35 -14 41 -5 7 -12 99 -14 207 -3 107 -13 245 -22 305 -9 61 -19
139 -22 175 -2 36 -8 70 -13 75 -4 6 -11 37 -15 70 -4 33 -11 65 -15 70 -4 6
-10 33 -13 60 -7 65 -25 145 -36 159 -5 6 -11 29 -14 51 -7 57 -26 128 -38
140 -5 5 -9 24 -9 41 0 18 -4 36 -10 39 -5 3 -10 16 -10 29 0 12 -7 31 -15 42
-8 10 -15 31 -15 46 0 15 -4 30 -10 33 -5 3 -10 16 -10 29 0 12 -7 31 -15 42
-8 10 -15 28 -15 39 0 11 -12 43 -25 70 -14 28 -25 58 -25 67 0 9 -4 20 -10
23 -5 3 -10 14 -10 24 0 10 -7 24 -15 31 -8 7 -15 21 -15 31 0 18 -8 37 -32
79 -4 8 -11 22 -14 30 -19 48 -159 326 -166 328 -4 2 -8 10 -8 18 0 8 -22 50
-50 94 -27 44 -50 82 -50 86 0 3 -11 20 -25 38 -14 18 -25 36 -25 39 0 7 -137
212 -172 257 -11 14 -44 59 -75 100 -30 41 -69 91 -87 110 -18 19 -45 53 -61
74 -83 114 -466 495 -587 584 -29 21 -60 47 -68 57 -8 10 -31 28 -50 42 -19
13 -62 43 -95 68 -33 24 -78 56 -100 71 -22 15 -42 30 -45 34 -11 14 -40 19
-40 6z"/>
<path d="M6440 15335 c0 -8 5 -15 10 -15 6 0 10 -7 10 -15 0 -11 7 -14 25 -9
17 4 25 2 25 -6 0 -18 31 -39 58 -40 12 0 22 -5 22 -11 0 -17 27 -39 49 -39
12 0 21 -5 21 -11 0 -16 31 -38 53 -39 9 0 17 -5 17 -10 0 -6 11 -21 25 -34
14 -13 25 -31 25 -40 0 -9 9 -26 20 -38 11 -12 23 -36 26 -55 3 -18 10 -33 15
-33 5 0 9 -51 9 -114 0 -89 -3 -116 -15 -126 -8 -7 -15 -21 -15 -31 0 -10 -4
-21 -10 -24 -5 -3 -10 -12 -10 -20 0 -19 -99 -118 -149 -150 -23 -14 -51 -25
-65 -25 -13 0 -29 -7 -36 -15 -9 -11 -34 -15 -95 -15 -61 0 -86 4 -95 15 -7 8
-22 15 -34 15 -27 0 -98 33 -116 54 -7 9 -19 16 -27 16 -8 0 -24 11 -37 25
-13 14 -30 25 -38 25 -8 0 -25 11 -38 25 -13 14 -28 25 -32 25 -5 0 -24 11
-42 25 -18 14 -38 25 -44 25 -7 0 -12 4 -12 10 0 5 -11 12 -24 16 -14 3 -32
14 -42 25 -9 10 -25 19 -34 19 -10 0 -26 11 -36 25 -10 14 -26 25 -35 25 -8 0
-26 11 -39 25 -13 14 -31 25 -39 25 -9 0 -27 12 -40 25 -13 14 -27 25 -33 25
-5 0 -24 11 -42 25 -18 14 -36 25 -40 25 -4 0 -30 23 -58 50 -28 28 -55 50
-60 50 -4 0 -8 9 -8 19 0 11 -4 23 -10 26 -5 3 -10 15 -10 26 0 10 -7 19 -15
19 -12 0 -15 13 -15 55 0 41 -4 55 -14 55 -8 0 -17 8 -20 18 -3 9 -3 -3 0 -28
3 -25 9 -49 15 -54 5 -6 9 -25 9 -44 0 -57 46 -136 122 -212 40 -38 75 -70 79
-70 5 0 25 -11 46 -25 54 -36 60 -40 133 -87 36 -23 71 -48 78 -55 7 -7 19
-13 26 -13 7 0 21 -9 31 -20 10 -11 23 -20 28 -20 6 0 25 -11 43 -25 18 -14
35 -25 37 -25 2 0 48 -29 102 -65 53 -36 100 -65 104 -65 4 0 16 -8 27 -18 24
-23 82 -52 103 -52 9 0 25 -7 35 -15 28 -22 238 -21 260 0 8 8 23 15 34 15 61
0 191 119 241 220 l32 65 -4 135 c-3 136 -9 164 -53 238 -29 51 -73 93 -144
140 -36 23 -72 47 -80 52 -8 6 -44 29 -80 52 -36 23 -67 44 -70 48 -12 16 -40
19 -40 5z"/>
<path d="M10115 15300 c-11 -5 -48 -9 -82 -9 -35 -1 -63 -5 -63 -10 0 -13 -64
-20 -72 -8 -4 7 -16 6 -37 -2 -17 -7 -54 -14 -83 -15 -29 -1 -57 -4 -63 -8 -5
-3 -32 -9 -60 -14 -56 -8 -116 -31 -127 -48 -6 -8 -10 -8 -16 1 -6 10 -20 10
-66 -2 -32 -8 -67 -22 -78 -29 -11 -8 -26 -12 -33 -9 -8 2 -25 -3 -40 -13 -14
-9 -28 -14 -32 -10 -3 3 -20 -3 -38 -14 -18 -11 -34 -17 -37 -14 -4 3 -30 -4
-60 -16 -29 -12 -62 -26 -73 -30 -11 -4 -44 -19 -73 -34 -30 -14 -59 -26 -66
-26 -7 0 -23 -11 -36 -25 -13 -14 -34 -25 -47 -25 -13 0 -40 -10 -61 -23 -20
-13 -58 -34 -84 -46 -27 -13 -51 -27 -54 -32 -3 -6 -16 -15 -27 -20 -29 -13
-56 -29 -94 -56 -17 -13 -36 -23 -42 -23 -5 0 -14 -6 -18 -14 -4 -8 -26 -24
-48 -36 -40 -22 -68 -43 -148 -110 -23 -20 -67 -54 -97 -77 -104 -78 -423
-401 -507 -513 -22 -30 -50 -65 -62 -77 -12 -12 -21 -25 -21 -28 0 -4 -17 -27
-39 -53 -21 -26 -41 -54 -45 -62 -3 -8 -20 -33 -36 -55 -39 -51 -91 -130 -116
-175 -10 -19 -24 -42 -30 -50 -12 -15 -60 -100 -74 -130 -4 -8 -15 -31 -25
-50 -24 -45 -30 -58 -49 -100 -9 -19 -21 -42 -25 -50 -9 -14 -54 -113 -71
-155 -30 -74 -42 -102 -50 -117 -6 -10 -10 -24 -10 -32 0 -7 -7 -27 -15 -42
-8 -16 -15 -36 -15 -44 0 -9 -4 -20 -8 -25 -5 -6 -17 -37 -26 -70 -10 -33 -22
-68 -27 -77 -5 -10 -9 -28 -9 -41 0 -13 -4 -27 -9 -33 -5 -5 -12 -27 -15 -49
-4 -22 -11 -44 -16 -49 -6 -6 -10 -27 -10 -47 0 -21 -4 -41 -10 -44 -5 -3 -10
-23 -10 -43 -1 -20 -7 -48 -15 -62 -8 -14 -14 -43 -15 -64 0 -22 -4 -53 -9
-70 -15 -48 -32 -164 -37 -246 -2 -41 -7 -82 -10 -90 -17 -39 -24 -640 -10
-830 15 -207 24 -287 39 -340 8 -30 13 -67 10 -81 -3 -15 0 -30 6 -33 6 -4 11
-27 11 -52 0 -25 5 -54 11 -65 6 -11 15 -44 20 -72 21 -114 50 -221 62 -233 4
-4 7 -20 7 -35 0 -15 6 -40 14 -56 8 -15 20 -48 26 -73 11 -42 30 -91 51 -132
5 -10 9 -28 9 -42 0 -13 6 -28 13 -34 7 -6 19 -34 27 -62 8 -28 18 -53 22 -56
4 -3 8 -14 8 -25 0 -11 7 -22 15 -25 8 -4 15 -14 15 -24 0 -15 12 -44 59 -140
4 -8 23 -42 41 -75 19 -33 45 -80 58 -105 13 -25 31 -57 40 -72 9 -14 32 -50
50 -80 36 -59 53 -87 65 -102 30 -42 116 -165 137 -196 14 -21 35 -47 48 -58
12 -11 22 -22 22 -26 0 -8 12 -23 60 -75 19 -21 53 -59 75 -86 58 -70 213
-226 260 -260 21 -17 66 -56 98 -87 33 -32 68 -58 78 -58 10 0 19 -7 19 -15 0
-8 6 -15 13 -15 7 0 21 -11 31 -25 10 -14 27 -25 37 -25 11 0 19 -4 19 -10 0
-5 6 -10 13 -10 8 0 20 -11 27 -25 8 -15 22 -25 35 -25 13 0 27 -10 35 -25 9
-17 22 -25 40 -25 18 0 31 -8 40 -25 8 -14 22 -25 34 -25 12 0 30 -11 40 -25
10 -14 27 -25 37 -25 11 0 19 -4 19 -10 0 -5 11 -10 25 -10 14 0 28 -7 31 -15
4 -8 17 -15 30 -15 13 0 24 -4 24 -10 0 -5 11 -10 24 -10 13 0 26 -7 30 -15 3
-8 12 -15 21 -15 8 0 15 -4 15 -10 0 -5 7 -10 15 -10 8 0 15 -7 15 -15 0 -10
10 -15 27 -15 14 0 24 -3 20 -6 -3 -3 5 -16 19 -29 13 -12 24 -27 24 -34 0 -6
4 -11 10 -11 5 0 12 -11 16 -25 3 -14 10 -25 15 -25 5 0 9 -9 9 -20 0 -11 7
-23 15 -26 10 -4 13 -13 10 -24 -3 -10 4 -37 16 -60 20 -38 21 -49 13 -128 -8
-86 -10 -652 -3 -827 l4 -90 50 -47 c31 -30 59 -48 74 -48 23 0 21 3 -22 47
l-47 47 0 510 c0 434 -2 515 -15 540 -8 15 -15 35 -15 43 0 7 -14 40 -31 73
-31 61 -95 127 -167 175 -23 15 -42 32 -42 36 0 5 -11 9 -25 9 -14 0 -25 5
-25 10 0 6 -8 10 -17 10 -20 0 -110 43 -158 75 -17 11 -37 25 -46 30 -9 6 -43
28 -75 50 -33 22 -66 44 -75 50 -9 5 -52 37 -94 70 -43 33 -90 69 -104 79 -14
11 -60 51 -101 90 -42 39 -105 98 -140 131 -80 74 -242 251 -283 308 -17 23
-33 44 -37 47 -9 7 -93 118 -106 142 -6 10 -20 29 -30 41 -11 12 -39 54 -63
92 -24 39 -48 72 -53 73 -4 2 -8 10 -8 19 0 8 -11 29 -24 46 -41 53 -209 384
-258 507 -16 39 -39 93 -49 112 -5 10 -9 26 -9 36 0 10 -7 27 -15 38 -8 10
-15 29 -15 41 0 12 -4 25 -10 28 -5 3 -10 16 -10 29 0 12 -7 31 -15 42 -8 10
-15 31 -15 46 0 15 -4 30 -10 33 -5 3 -10 18 -10 33 -1 15 -7 38 -15 52 -8 14
-14 39 -15 57 0 17 -4 35 -10 38 -5 3 -10 24 -10 45 0 21 -4 42 -10 45 -5 3
-10 19 -10 35 0 16 -5 41 -12 57 -12 29 -23 95 -37 220 -4 40 -13 78 -19 85
-17 21 -23 179 -23 618 -1 457 5 579 26 627 8 17 15 56 15 86 0 31 5 59 10 62
6 3 10 30 10 59 0 28 4 56 9 62 10 9 29 90 38 159 3 22 9 44 14 50 5 5 9 20 9
35 1 14 7 36 15 50 8 14 14 37 15 52 0 15 5 30 10 33 6 3 10 18 10 33 0 15 7
36 15 46 8 11 15 30 15 42 0 13 5 26 10 29 6 3 10 16 10 28 0 12 11 45 25 72
13 28 25 60 25 73 0 12 4 22 9 22 4 0 16 21 25 48 10 26 28 70 41 97 32 70
104 217 115 235 4 8 16 31 25 50 9 19 29 55 45 80 16 25 33 52 37 60 4 8 22
38 40 67 18 29 33 56 33 61 0 5 11 19 25 32 14 13 25 28 26 34 0 6 23 40 50
76 27 36 61 83 76 105 15 22 35 47 43 55 9 8 37 42 62 76 62 81 415 434 487
486 31 23 58 44 61 48 7 9 115 90 159 119 20 13 38 27 41 30 3 4 37 27 75 51
39 25 72 48 73 52 2 5 10 8 18 8 8 0 36 16 63 35 26 19 55 35 64 35 9 0 19 4
22 10 3 5 23 17 43 25 37 16 70 32 107 52 37 21 130 61 178 79 26 9 50 21 53
25 3 5 18 9 34 9 16 0 31 4 35 9 3 5 20 13 37 17 18 3 39 10 48 14 8 5 41 16
72 25 32 9 60 21 64 26 3 5 30 9 60 9 30 0 54 4 54 9 0 5 15 11 33 14 43 7
125 26 163 38 17 5 58 9 92 9 33 0 73 5 89 11 39 15 235 32 373 31 161 0 382
-17 407 -31 12 -6 46 -11 77 -11 30 0 58 -4 61 -10 3 -5 27 -10 53 -10 26 -1
58 -7 72 -15 14 -8 48 -14 77 -15 28 0 54 -4 57 -9 3 -5 23 -11 43 -14 37 -4
90 -21 125 -38 10 -5 28 -9 40 -9 13 0 32 -7 42 -15 11 -8 28 -15 38 -15 10 0
26 -4 36 -9 9 -5 64 -28 122 -51 117 -48 284 -128 345 -166 22 -13 54 -31 70
-39 17 -7 49 -27 72 -44 24 -17 48 -31 53 -31 6 0 23 -11 38 -25 15 -14 32
-25 38 -25 6 0 21 -11 34 -25 13 -14 27 -25 31 -25 9 0 125 -87 180 -134 20
-17 52 -42 70 -56 46 -33 399 -388 435 -437 16 -21 45 -57 66 -80 21 -24 38
-46 38 -50 0 -5 10 -19 23 -33 12 -14 47 -61 77 -105 30 -44 63 -88 73 -99 9
-11 17 -23 17 -28 0 -10 63 -102 73 -106 4 -2 7 -10 7 -18 0 -12 14 -37 77
-139 7 -11 20 -36 29 -55 9 -19 23 -48 32 -65 8 -16 19 -37 22 -45 4 -8 15
-31 25 -50 31 -59 39 -76 74 -165 5 -11 20 -45 35 -75 14 -30 26 -63 26 -72 0
-9 5 -20 10 -23 6 -3 10 -18 10 -33 0 -15 7 -36 15 -46 8 -11 15 -28 15 -38 0
-10 4 -26 9 -36 5 -9 17 -44 27 -77 10 -33 22 -64 26 -69 4 -6 8 -27 8 -47 0
-21 4 -40 9 -43 5 -3 12 -26 15 -51 4 -24 11 -47 17 -50 5 -4 9 -26 9 -50 0
-24 5 -47 10 -50 6 -3 10 -24 10 -47 0 -22 6 -54 14 -71 8 -18 17 -59 20 -92
18 -204 23 -242 31 -255 6 -9 12 -192 15 -435 l6 -420 1 458 c1 266 -1 455 -7
452 -13 -8 -18 21 -19 110 0 45 -5 81 -11 83 -5 2 -10 34 -10 72 0 52 -4 69
-16 74 -12 5 -14 17 -11 60 4 41 2 56 -9 60 -9 4 -14 22 -14 56 0 27 -4 50 -9
50 -5 0 -12 23 -16 50 -4 28 -11 50 -16 50 -5 0 -9 20 -9 44 0 24 -5 46 -11
48 -5 2 -11 18 -11 37 -1 18 -7 35 -15 38 -7 3 -13 18 -13 33 0 15 -6 40 -14
55 -8 15 -12 34 -9 41 3 8 -2 17 -10 20 -11 4 -15 15 -12 35 2 20 -1 32 -11
36 -8 3 -14 18 -14 33 0 16 -4 32 -10 35 -5 3 -10 15 -10 26 0 11 -7 22 -15
25 -8 4 -15 19 -15 34 0 16 -4 32 -10 35 -5 3 -10 17 -10 30 0 12 -7 26 -16
29 -8 3 -13 10 -10 14 3 5 -1 18 -9 28 -8 10 -15 26 -15 35 0 9 -7 19 -15 23
-8 3 -14 9 -13 13 5 13 -132 280 -153 299 -10 9 -19 25 -19 34 0 10 -7 23 -15
30 -8 7 -15 17 -15 22 0 5 -9 18 -20 30 -11 12 -20 27 -20 34 0 7 -11 25 -25
40 -14 15 -25 32 -25 39 0 7 -9 20 -21 31 -12 10 -30 35 -40 56 -10 20 -22 38
-27 40 -4 1 -28 29 -51 62 -24 32 -51 66 -60 75 -9 9 -25 30 -35 46 -49 75
-423 446 -508 504 -27 17 -48 35 -48 39 0 5 -20 21 -44 36 -24 15 -54 39 -67
52 -12 13 -28 24 -34 24 -6 0 -20 8 -31 18 -24 22 -101 73 -136 91 -16 7 -28
17 -28 22 0 5 -6 9 -14 9 -8 0 -21 6 -28 13 -14 12 -41 28 -128 74 -25 13 -58
33 -75 43 -16 10 -37 19 -46 19 -9 1 -22 8 -29 16 -7 8 -21 15 -31 15 -11 0
-19 5 -19 10 0 6 -7 10 -15 10 -14 0 -26 5 -127 49 -26 12 -51 21 -54 21 -3 0
-20 6 -37 13 -55 23 -101 39 -130 44 -15 3 -30 9 -33 14 -3 5 -18 9 -34 9 -16
0 -31 4 -34 9 -3 5 -26 12 -51 15 -24 4 -47 11 -50 17 -4 5 -19 9 -35 9 -16 0
-41 5 -55 12 -21 9 -28 9 -34 -1 -6 -10 -12 -9 -24 3 -8 9 -23 16 -32 16 -9 0
-25 5 -36 10 -15 8 -21 7 -25 -4 -5 -14 -8 -14 -27 -1 -12 8 -32 15 -45 15
-13 0 -32 5 -43 10 -11 6 -25 8 -32 3 -15 -9 -69 -4 -81 8 -6 5 -35 9 -67 9
-31 0 -70 5 -88 11 -17 6 -39 8 -49 4 -18 -7 -218 -7 -292 0 -25 3 -54 0 -65
-5z"/>
<path d="M10780 13975 c0 -9 5 -13 10 -10 6 3 13 -1 16 -9 3 -9 15 -16 25 -16
10 0 19 -7 19 -15 0 -9 9 -15 25 -15 14 0 25 -4 25 -10 0 -5 7 -10 15 -10 8 0
15 -5 15 -11 0 -15 61 -69 78 -69 6 0 12 -4 12 -10 0 -5 7 -10 15 -10 8 0 15
-7 15 -15 0 -8 4 -15 8 -15 5 0 18 -17 30 -37 11 -21 39 -55 61 -76 23 -21 41
-46 41 -56 0 -17 56 -79 64 -70 9 9 9 35 1 54 -5 11 -42 59 -82 107 -96 114
-239 229 -360 292 -30 15 -33 15 -33 1z"/>
<path d="M10165 13884 c-174 -25 -348 -125 -513 -293 -75 -77 -192 -279 -192
-332 0 -11 18 -44 40 -74 22 -30 40 -57 40 -60 0 -3 11 -22 23 -43 13 -20 36
-70 51 -109 15 -40 31 -73 35 -73 4 0 18 11 31 25 66 70 255 153 403 176 85
13 91 21 54 66 -27 32 -47 84 -47 121 0 41 39 110 73 130 99 60 185 27 287
-108 19 -25 37 -47 40 -50 30 -27 105 -178 120 -240 21 -86 26 -88 111 -47
117 56 179 69 314 69 66 1 135 -2 153 -6 l32 -8 0 41 c0 36 -8 66 -40 146 -4
11 -15 40 -25 65 -61 157 -120 245 -241 359 -126 120 -240 185 -399 226 -56
15 -292 28 -350 19z"/>
<path d="M15990 13779 c0 -5 13 -22 29 -37 42 -39 92 -103 86 -112 -3 -4 2
-13 10 -20 8 -7 15 -24 15 -39 0 -15 5 -32 12 -39 7 -7 12 -44 12 -97 0 -53
-5 -90 -12 -97 -7 -7 -12 -24 -12 -39 0 -15 -7 -32 -15 -39 -8 -7 -15 -18 -15
-25 0 -7 -27 -41 -61 -75 -43 -44 -82 -71 -137 -97 -42 -20 -82 -43 -89 -52
-11 -14 -12 -14 -13 2 0 14 -5 16 -27 11 -16 -4 -31 -12 -34 -17 -4 -5 -17 -7
-29 -4 -12 3 -36 -1 -54 -8 -18 -8 -55 -16 -82 -20 -26 -3 -58 -12 -70 -20
-17 -11 -23 -12 -27 -2 -3 9 -7 9 -20 -1 -8 -7 -35 -15 -59 -17 -24 -2 -59 -9
-78 -15 -19 -6 -50 -13 -68 -15 -18 -3 -46 -12 -62 -20 -22 -11 -29 -12 -33
-2 -3 9 -7 9 -18 1 -38 -30 -256 -40 -309 -13 -19 9 -50 23 -68 31 -65 29
-172 150 -172 195 0 7 -7 13 -15 13 -12 0 -15 13 -15 56 0 31 -4 53 -9 50 -5
-4 -12 0 -14 6 -3 7 -6 -4 -6 -24 -1 -20 4 -40 9 -43 6 -3 10 -22 10 -40 0
-41 39 -127 79 -176 106 -128 331 -206 444 -155 18 8 55 17 82 19 64 6 145 24
159 36 11 9 33 13 153 29 35 4 68 13 75 20 7 7 28 12 48 12 20 0 40 4 46 9 10
10 66 19 162 27 41 4 65 11 69 20 3 8 13 14 22 14 10 0 46 14 81 31 72 35 190
146 190 179 0 11 3 20 8 20 4 0 15 22 25 49 18 53 25 275 8 285 -5 3 -12 22
-15 41 -4 19 -11 35 -16 35 -6 0 -10 8 -10 18 0 10 -33 50 -73 90 -68 68 -97
86 -97 61z"/>
<path d="M5835 13630 c-3 -5 3 -10 14 -10 13 0 21 -7 21 -16 0 -12 6 -15 25
-10 18 5 25 2 25 -9 0 -8 5 -15 10 -15 6 0 10 -5 10 -11 0 -6 11 -20 25 -31
14 -11 25 -28 25 -38 0 -10 11 -28 25 -41 16 -16 25 -35 25 -56 0 -18 5 -33
10 -33 6 0 10 -41 10 -104 0 -80 -3 -106 -15 -116 -8 -7 -15 -21 -15 -31 0
-24 -65 -126 -99 -155 -14 -12 -46 -33 -71 -45 -25 -13 -46 -27 -48 -31 -2 -5
-21 -8 -42 -8 -21 0 -42 -4 -45 -10 -3 -5 -33 -10 -65 -10 -32 0 -62 5 -65 10
-3 6 -26 10 -50 10 -24 0 -47 5 -50 10 -3 6 -25 10 -49 10 -23 0 -51 7 -62 15
-10 8 -38 15 -61 15 -23 0 -45 5 -48 10 -3 6 -25 10 -48 10 -23 0 -51 7 -61
15 -11 8 -39 15 -62 15 -24 0 -46 5 -49 10 -3 6 -26 10 -49 10 -27 0 -48 6
-56 15 -8 10 -30 15 -61 15 -26 0 -51 5 -54 10 -3 6 -19 10 -34 10 -16 0 -42
7 -57 15 -16 8 -36 15 -45 15 -9 0 -24 9 -34 20 -10 11 -23 20 -29 20 -18 0
-86 64 -86 81 0 8 -11 23 -25 33 -14 11 -25 29 -25 42 0 15 -6 24 -15 24 -11
0 -15 12 -15 51 0 33 -6 56 -16 67 -15 15 -16 13 -10 -23 4 -22 10 -62 14 -90
16 -98 96 -217 176 -260 20 -11 36 -23 36 -27 0 -5 8 -8 18 -8 10 0 27 -7 38
-15 10 -8 36 -15 56 -15 20 0 40 -4 43 -10 3 -5 23 -10 43 -10 20 -1 48 -7 62
-15 14 -8 44 -14 67 -15 23 0 45 -4 48 -10 3 -5 25 -10 48 -10 23 0 51 -7 61
-15 11 -8 37 -15 57 -15 21 0 41 -4 44 -10 3 -5 26 -10 51 -10 27 0 52 -6 60
-15 9 -9 34 -15 59 -15 24 0 47 -4 50 -10 3 -5 28 -10 55 -10 29 0 50 -5 52
-12 7 -21 163 -24 193 -4 13 9 34 16 45 16 34 0 135 58 179 103 52 53 90 111
98 148 3 16 10 32 14 35 5 3 9 60 9 127 0 89 -4 133 -17 167 -39 105 -106 184
-195 230 -64 34 -64 34 -73 20z"/>
<path d="M11547 13445 c-105 -23 -223 -78 -233 -108 -3 -11 2 -38 11 -61 31
-73 33 -80 49 -148 9 -37 16 -87 16 -112 0 -44 1 -46 73 -99 155 -117 260
-260 306 -417 8 -25 24 -74 36 -110 12 -36 26 -78 31 -95 10 -32 33 -42 110
-44 23 0 77 -12 120 -26 102 -33 104 -34 202 -83 69 -35 87 -40 104 -31 53 29
227 69 296 69 90 0 270 -32 367 -66 77 -27 88 -18 111 95 33 158 6 363 -66
493 -16 29 -34 63 -39 75 -6 12 -45 57 -88 100 -118 118 -260 182 -406 183
l-59 0 8 -52 c15 -103 7 -288 -15 -368 -50 -180 -106 -245 -212 -245 -46 0
-63 5 -93 28 -20 16 -43 41 -51 57 -21 40 -19 110 5 164 11 26 27 82 35 125
15 73 15 86 0 166 -20 107 -49 174 -108 251 -26 33 -49 75 -52 94 -4 19 -8 45
-11 57 -9 47 -234 125 -349 122 -22 -1 -66 -7 -98 -14z"/>
<path d="M8769 13321 c-124 -29 -202 -74 -301 -173 -49 -49 -88 -92 -88 -98 0
-6 -11 -28 -25 -50 -37 -59 -33 -74 33 -121 77 -57 128 -112 142 -155 26 -76
-16 -171 -89 -201 -47 -20 -124 -12 -159 16 -157 126 -213 152 -348 159 -129
6 -199 -16 -315 -100 -81 -59 -148 -152 -188 -263 -23 -64 -33 -200 -22 -292
13 -104 27 -145 81 -248 22 -43 42 -99 46 -127 7 -48 10 -52 78 -102 112 -83
182 -111 316 -127 108 -12 110 -11 110 68 0 96 20 212 57 323 129 396 473 665
848 665 123 0 275 -35 357 -83 36 -21 52 -7 74 66 21 69 58 151 97 215 27 44
29 53 23 108 -19 169 -177 388 -333 463 -88 43 -92 44 -175 61 -95 18 -122 18
-219 -4z"/>
<path d="M12980 13116 c0 -7 43 -57 95 -110 52 -53 95 -104 95 -113 0 -8 12
-26 26 -39 14 -13 23 -28 20 -33 -3 -5 1 -14 9 -21 8 -7 15 -21 15 -31 0 -10
5 -21 10 -24 6 -3 10 -20 10 -36 0 -17 6 -32 15 -35 9 -4 15 -19 15 -39 0 -19
5 -37 10 -40 6 -3 10 -33 10 -66 0 -36 7 -73 16 -91 13 -24 15 -46 10 -92 -3
-33 -11 -65 -16 -70 -6 -6 -10 -41 -10 -78 0 -39 -4 -68 -10 -68 -5 0 -10 -15
-10 -34 0 -18 -7 -39 -15 -46 -8 -7 -15 -17 -15 -23 0 -17 33 -36 63 -37 15 0
27 -5 27 -11 0 -17 76 -89 94 -89 9 0 16 -4 16 -9 0 -12 78 -109 117 -147 18
-17 33 -38 33 -47 0 -9 11 -24 25 -35 14 -11 25 -29 25 -40 0 -12 5 -24 10
-27 6 -3 10 -14 10 -25 0 -10 7 -20 15 -24 9 -3 15 -18 15 -35 0 -16 5 -33 10
-36 6 -3 10 -14 10 -24 0 -10 7 -24 15 -31 8 -7 15 -25 15 -41 0 -16 5 -29 10
-29 6 0 10 -13 10 -29 0 -16 7 -34 15 -41 10 -8 15 -31 15 -71 0 -33 4 -59 10
-59 15 0 13 -326 -2 -353 -7 -12 -13 -47 -14 -77 -1 -30 -7 -56 -13 -58 -6 -2
-11 -19 -11 -37 0 -19 -4 -37 -10 -40 -5 -3 -10 -17 -10 -30 0 -13 -7 -30 -15
-39 -8 -8 -15 -24 -15 -35 0 -12 -4 -21 -10 -21 -5 0 -10 -7 -10 -15 0 -9 -11
-33 -25 -55 -14 -22 -25 -46 -25 -55 0 -8 -5 -15 -10 -15 -6 0 -15 -11 -20
-24 -5 -13 -21 -39 -37 -57 -16 -19 -41 -51 -57 -72 -49 -67 -151 -156 -222
-195 -16 -9 -24 -22 -24 -40 0 -15 -7 -36 -15 -46 -8 -11 -15 -35 -15 -53 0
-18 -4 -33 -10 -33 -5 0 -10 -8 -10 -19 0 -10 -7 -24 -15 -31 -8 -7 -15 -18
-15 -25 0 -16 -18 -51 -47 -92 -13 -17 -23 -35 -23 -40 0 -16 -205 -213 -222
-213 -9 0 -21 -6 -25 -14 -11 -19 -97 -66 -122 -66 -11 0 -23 -4 -26 -10 -3
-5 -19 -10 -34 -10 -16 0 -34 -7 -41 -15 -9 -11 -32 -15 -79 -15 -62 0 -68 -2
-94 -31 -15 -17 -27 -37 -27 -44 0 -8 -4 -17 -10 -20 -5 -3 -10 -13 -10 -21 0
-8 -11 -25 -25 -38 -14 -13 -25 -30 -25 -38 0 -19 -234 -248 -253 -248 -8 0
-17 -7 -21 -15 -3 -8 -12 -15 -20 -15 -8 0 -31 -9 -53 -19 -86 -44 -108 -51
-150 -51 -24 0 -43 -5 -43 -11 0 -18 -274 2 -294 22 -6 5 -17 9 -25 9 -9 0
-29 7 -45 15 -15 8 -35 15 -42 15 -8 0 -14 4 -14 8 0 5 -18 18 -40 31 -22 12
-79 60 -127 107 -48 46 -92 84 -98 84 -5 -1 -28 -12 -50 -25 -43 -25 -102 -58
-132 -73 -10 -5 -28 -14 -40 -20 -13 -7 -33 -12 -47 -12 -13 0 -29 -7 -36 -15
-7 -8 -24 -15 -39 -15 -15 0 -32 -5 -38 -11 -17 -17 -324 -17 -398 -1 -33 8
-68 18 -77 23 -10 5 -23 9 -29 9 -12 0 -81 31 -89 39 -3 4 -21 15 -40 25 -19
10 -57 31 -83 45 -27 14 -69 45 -95 68 -26 23 -51 42 -57 42 -5 0 -43 -31 -83
-69 -40 -39 -76 -70 -79 -70 -3 0 -20 -10 -37 -23 -28 -21 -125 -71 -218 -111
-20 -9 -47 -16 -61 -16 -14 0 -29 -4 -32 -10 -4 -6 -77 -10 -185 -10 -108 0
-181 4 -185 10 -3 6 -18 10 -33 10 -15 0 -36 7 -46 15 -11 8 -30 15 -43 15
-13 0 -23 5 -23 10 0 6 -8 10 -19 10 -10 0 -24 7 -31 15 -7 8 -21 15 -31 15
-11 0 -19 5 -19 10 0 6 -8 10 -19 10 -10 0 -25 7 -32 17 -8 9 -36 31 -64 48
-59 38 -141 123 -155 161 -9 24 -12 25 -28 12 -9 -7 -29 -20 -44 -28 -16 -7
-28 -17 -28 -22 0 -4 -8 -8 -19 -8 -10 0 -24 -7 -31 -15 -7 -8 -23 -15 -36
-15 -12 0 -26 -4 -29 -10 -3 -5 -19 -10 -34 -10 -15 0 -36 -7 -47 -15 -28 -22
-339 -22 -348 0 -3 9 -19 15 -41 15 -19 0 -35 5 -35 10 0 6 -10 10 -22 10 -21
0 -45 13 -162 83 -40 25 -186 174 -186 191 0 8 -7 16 -15 20 -8 3 -15 13 -15
22 0 9 -11 27 -25 40 -16 15 -25 34 -25 54 0 21 -5 30 -16 30 -12 0 -15 6 -10
25 5 18 2 27 -9 31 -11 4 -15 20 -15 55 0 37 -4 49 -15 49 -12 0 -15 28 -18
168 l-3 167 -2 -186 c-2 -150 1 -189 13 -205 8 -10 15 -36 15 -56 0 -20 5 -40
10 -43 6 -3 10 -16 10 -28 0 -12 7 -31 15 -41 8 -11 15 -26 15 -33 0 -30 98
-168 173 -242 82 -81 211 -171 245 -171 10 0 22 -4 28 -9 5 -4 32 -16 61 -25
40 -12 92 -16 223 -16 191 0 224 6 360 69 19 9 37 19 40 22 3 3 13 8 23 12 14
5 37 -11 94 -68 41 -41 79 -75 84 -75 4 0 23 -12 41 -27 41 -35 73 -53 93 -53
8 0 15 -4 15 -8 0 -10 71 -42 93 -42 10 0 17 -4 17 -10 0 -5 17 -12 38 -15 20
-4 46 -11 57 -16 26 -13 416 -6 473 8 24 6 49 16 55 22 6 6 19 11 29 11 19 0
142 63 169 86 8 8 21 14 27 14 6 0 20 12 31 26 l21 27 0 -1336 c0 -734 3
-1342 6 -1351 5 -14 52 -16 418 -16 226 0 428 3 449 6 l37 7 0 1268 0 1269 44
0 c25 0 48 5 51 10 3 6 19 10 34 10 15 0 36 7 47 15 10 8 27 15 37 15 9 0 25
4 35 9 9 4 35 16 57 26 22 11 54 29 71 41 50 36 65 33 120 -21 88 -88 235
-184 281 -185 12 0 25 -4 28 -10 3 -5 25 -10 48 -10 23 0 51 -7 61 -15 28 -21
210 -21 250 0 15 8 41 15 56 15 42 0 210 74 210 92 0 4 7 8 17 8 18 0 263 237
263 255 0 6 8 20 18 31 10 10 31 44 46 76 30 61 38 66 131 78 55 7 78 13 155
43 49 18 96 42 148 75 64 40 232 206 256 254 10 18 37 69 61 113 24 44 44 94
44 110 1 17 8 39 16 49 8 11 15 32 15 48 0 17 5 28 14 28 7 0 20 7 27 16 8 9
31 28 52 41 71 45 247 244 247 280 0 7 4 13 8 13 6 0 52 84 104 192 17 37 38
104 38 125 0 41 19 34 23 -9 2 -24 5 4 6 62 2 73 6 96 11 75 4 -17 8 78 9 212
1 152 -3 244 -9 248 -5 3 -10 26 -10 50 0 39 -12 80 -41 137 -5 10 -9 25 -9
34 0 9 -6 28 -14 42 -21 41 -34 74 -40 105 -4 15 -11 27 -16 27 -6 0 -10 6
-10 13 0 19 -30 78 -52 101 -10 11 -18 24 -18 29 0 32 -278 307 -310 307 -9 0
-10 13 -6 43 4 23 9 65 12 92 3 28 12 64 20 82 19 43 19 208 -1 247 -8 15 -15
52 -15 82 0 29 -4 56 -10 59 -5 3 -10 19 -10 34 0 16 -7 34 -15 41 -8 7 -15
22 -15 33 0 25 -31 97 -42 97 -4 0 -8 7 -8 15 0 26 -78 125 -168 213 -92 90
-122 112 -122 88z"/>
<path d="M10070 12924 c-85 -15 -169 -49 -240 -97 -62 -42 -170 -147 -170
-165 0 -15 -1 -15 105 12 70 18 239 21 299 5 204 -52 353 -153 469 -315 39
-55 105 -189 119 -244 32 -122 38 -176 38 -297 l0 -132 31 -25 c17 -14 41 -26
54 -26 12 0 36 -3 52 -6 27 -5 33 -2 54 33 76 125 200 205 328 212 169 8 306
-78 385 -242 21 -42 41 -79 45 -82 5 -2 33 3 62 12 66 20 180 22 240 4 119
-36 252 -118 289 -179 48 -78 11 -195 -73 -233 -66 -29 -95 -25 -187 32 -111
67 -158 73 -217 30 l-43 -31 0 -123 c-1 -110 -17 -235 -48 -372 -20 -86 -80
-224 -148 -336 -19 -31 -34 -61 -34 -67 0 -14 158 -62 206 -62 28 0 47 6 59
20 50 56 140 66 207 24 49 -31 65 -29 174 21 108 50 183 106 292 219 78 80
101 112 134 184 40 84 41 88 30 139 -13 65 -2 111 39 158 44 50 57 133 40 262
-13 103 -33 188 -56 238 -91 204 -116 245 -199 333 -149 158 -341 245 -571
258 -121 7 -125 8 -125 29 0 42 -53 229 -103 365 -43 117 -149 245 -253 306
-23 13 -78 38 -123 54 -72 26 -95 30 -190 30 -138 0 -251 -35 -358 -112 -47
-34 -41 -36 -116 29 -32 29 -44 33 -91 33 -68 0 -115 20 -155 66 l-32 36 -97
3 c-53 2 -108 2 -122 -1z"/>
<path d="M9790 12505 c-136 -34 -274 -134 -355 -255 -26 -38 -50 -72 -54 -74
-4 -3 -23 5 -42 18 -57 38 -130 76 -173 91 -385 127 -777 -89 -923 -510 -39
-112 -51 -333 -24 -450 16 -71 41 -146 53 -159 4 -6 8 -16 8 -23 0 -28 99
-172 162 -235 69 -70 172 -142 243 -170 93 -37 131 -43 265 -42 157 0 218 16
342 89 78 45 193 150 227 205 l19 32 -51 91 c-94 172 -199 289 -308 345 -53
27 -72 32 -134 32 -40 0 -92 -7 -115 -15 -56 -20 -83 -19 -128 4 -61 32 -102
89 -102 145 0 72 50 141 120 166 125 43 245 50 364 20 143 -36 264 -111 384
-238 71 -75 185 -239 226 -325 23 -50 31 -58 69 -68 70 -19 203 4 307 54 149
72 293 243 331 393 6 22 15 57 20 79 6 22 9 97 6 170 -3 106 -9 143 -30 203
-30 86 -91 191 -144 248 -75 81 -196 155 -288 177 -68 16 -216 17 -275 2z"/>
<path d="M12553 11970 c-28 -12 -29 -31 -3 -55 20 -18 120 -159 120 -169 0 -3
11 -29 24 -58 81 -181 79 -173 107 -302 10 -49 19 -113 19 -143 0 -29 4 -53
10 -53 13 0 81 95 114 161 38 74 90 109 161 108 58 -1 101 -22 131 -67 44 -65
36 -151 -22 -244 -13 -20 -24 -40 -24 -43 0 -11 -77 -110 -129 -167 -34 -37
-50 -62 -45 -70 4 -7 28 -35 53 -61 26 -26 53 -60 61 -75 9 -15 35 -59 59 -99
62 -105 121 -293 121 -393 0 -66 13 -66 75 2 93 102 179 243 220 363 43 125
55 204 55 355 0 155 -11 226 -51 330 -11 30 -30 80 -41 110 -23 63 -52 120
-88 170 -148 209 -351 348 -575 395 -77 17 -315 20 -352 5z"/>
<path d="M5563 11863 c-22 -8 -14 -23 12 -23 14 0 25 -5 25 -11 0 -11 25 -39
35 -39 9 0 35 -27 35 -36 0 -4 11 -17 25 -30 14 -13 25 -32 25 -44 0 -11 5
-20 10 -20 6 0 10 -8 10 -18 0 -10 5 -23 12 -30 14 -14 12 -232 -3 -246 -5 -6
-9 -17 -9 -25 0 -8 -18 -42 -40 -76 -41 -63 -142 -145 -178 -145 -11 0 -25 -7
-32 -15 -8 -10 -31 -15 -66 -15 -29 0 -56 -4 -59 -10 -3 -5 -39 -10 -79 -10
-46 0 -85 -6 -102 -15 -18 -9 -57 -15 -101 -15 -39 0 -75 -4 -78 -10 -3 -5
-43 -10 -89 -10 -45 0 -86 -4 -92 -10 -5 -5 -49 -13 -97 -16 -48 -4 -90 -11
-93 -16 -7 -11 -121 -10 -129 2 -3 6 -18 10 -33 10 -15 0 -40 7 -56 15 -15 8
-33 15 -38 15 -5 0 -15 6 -22 13 -8 6 -45 42 -85 79 -43 41 -69 73 -65 81 3 9
-3 17 -16 20 -20 5 -21 10 -15 46 4 26 3 41 -4 41 -6 0 -12 31 -14 73 -2 39
-3 18 -2 -48 1 -134 10 -161 77 -251 54 -73 171 -154 222 -154 14 0 28 -4 31
-10 3 -6 50 -10 105 -10 55 0 102 4 105 10 3 6 41 10 84 10 52 0 83 5 97 15
13 10 45 14 101 15 45 0 85 5 88 10 3 6 41 10 83 10 51 0 85 5 98 14 11 8 55
17 100 19 111 7 192 21 206 35 7 7 20 12 30 12 32 0 167 107 168 134 0 4 11
21 25 38 14 16 25 38 25 48 0 10 5 22 10 25 6 4 10 66 10 154 0 136 -2 151
-25 199 -38 80 -110 159 -166 184 -16 7 -29 16 -29 19 0 10 -23 17 -37 12z"/>
<path d="M11129 11685 c-94 -49 -187 -191 -150 -230 17 -19 75 -203 93 -300
17 -83 21 -373 7 -409 -32 -82 -125 -132 -198 -106 -106 37 -121 73 -125 278
-3 154 -9 189 -55 341 -16 54 -84 161 -102 161 -9 0 -23 -14 -30 -32 -11 -28
-46 -75 -117 -159 -34 -40 -158 -128 -222 -157 -140 -62 -214 -77 -355 -69
-123 7 -152 -3 -192 -66 -35 -55 -37 -58 -123 -149 l-75 -80 0 -126 c0 -140 8
-170 68 -264 95 -147 284 -223 428 -173 66 23 105 43 120 61 11 14 10 21 -6
48 -91 151 -136 282 -160 459 -5 41 -2 58 20 102 45 92 142 122 230 71 52 -31
72 -71 90 -179 27 -157 65 -238 173 -361 44 -50 52 -65 52 -98 0 -44 23 -71
87 -102 21 -10 45 -22 54 -27 9 -4 53 -15 97 -23 80 -15 87 -15 230 11 18 3
35 10 38 14 3 5 12 9 20 9 23 0 148 84 206 138 101 94 222 284 260 407 41 133
68 307 68 437 0 75 -1 80 -34 116 -42 46 -62 111 -47 154 25 70 5 148 -58 235
-62 86 -197 118 -292 68z"/>
<path d="M7271 11481 c-44 -56 -97 -178 -117 -266 -28 -124 -26 -422 4 -530
26 -92 67 -183 116 -258 42 -64 134 -159 147 -155 6 2 34 33 62 68 67 82 167
166 248 208 57 28 67 39 89 85 57 120 166 245 278 319 65 44 75 65 48 104 -8
11 -28 60 -44 109 l-31 90 -103 7 c-204 14 -361 79 -503 209 -35 32 -47 37
-103 41 -63 4 -63 4 -91 -31z"/>
<path d="M6952 10929 c-2 -220 0 -268 13 -285 8 -10 15 -38 15 -61 0 -23 5
-45 10 -48 6 -3 10 -15 10 -27 0 -11 6 -32 14 -46 8 -15 24 -47 35 -72 29 -63
57 -109 81 -137 11 -13 20 -28 20 -33 0 -6 33 -45 74 -88 57 -60 75 -86 79
-112 4 -34 4 -33 5 7 1 28 8 45 20 52 15 9 8 20 -58 85 -42 41 -82 87 -90 103
-8 15 -25 36 -37 46 -13 10 -23 27 -23 37 0 10 -7 20 -15 24 -8 3 -15 15 -15
26 0 11 -4 20 -10 20 -5 0 -10 9 -10 20 0 11 -7 23 -15 26 -8 4 -15 17 -15 30
0 15 -6 24 -16 24 -13 0 -15 7 -10 35 6 28 4 35 -9 35 -12 0 -15 12 -15 55 0
42 -4 55 -15 55 -12 0 -15 37 -18 248 l-2 247 -3 -266z"/>
<path d="M8188 10812 c-78 -52 -129 -101 -182 -175 -53 -75 -64 -108 -44 -140
20 -31 28 -78 21 -123 -5 -28 -19 -51 -55 -86 -45 -43 -48 -50 -48 -97 0 -174
120 -413 258 -515 60 -44 164 -96 191 -96 11 0 23 -4 26 -10 13 -21 94 -11
135 16 31 21 52 27 94 26 29 0 63 -6 74 -13 18 -11 28 -11 59 0 88 32 199 123
268 221 21 30 40 57 41 59 2 2 38 -19 81 -46 111 -72 200 -101 325 -108 57 -4
116 -2 132 2 l28 9 2 154 1 155 -77 73 c-63 60 -84 89 -122 165 -46 94 -76
199 -76 267 0 21 -4 41 -9 44 -4 3 -27 -4 -50 -15 -22 -11 -56 -22 -74 -26
-17 -3 -36 -9 -42 -13 -41 -30 -382 -29 -401 1 -3 5 -14 9 -24 9 -32 0 -187
76 -256 125 -35 25 -92 75 -127 110 -36 36 -71 65 -78 65 -8 0 -40 -17 -71
-38z"/>
<path d="M12825 10743 c-16 -9 -43 -19 -59 -22 -16 -4 -32 -13 -37 -21 -4 -8
-21 -44 -38 -80 -17 -36 -41 -82 -53 -102 -40 -65 -240 -262 -313 -309 -64
-41 -206 -107 -258 -120 -35 -8 -51 -19 -61 -38 -22 -41 -251 -258 -355 -336
-51 -38 -130 -93 -174 -120 -71 -44 -82 -55 -90 -87 -14 -58 6 -178 43 -256
83 -179 279 -275 440 -215 232 85 341 364 241 616 -20 50 -14 119 14 160 34
49 77 70 142 69 79 -1 125 -39 161 -132 27 -71 43 -147 50 -240 l7 -95 30 -3
c16 -2 61 4 100 13 200 49 364 184 459 380 80 164 99 448 41 612 -32 92 -113
223 -178 291 -55 56 -66 60 -112 35z"/>
<path d="M11275 10090 c-61 -52 -149 -103 -237 -138 -15 -6 -69 -18 -119 -27
-100 -18 -196 -10 -294 23 -54 18 -170 76 -195 97 -8 7 -46 16 -85 18 -38 3
-84 8 -102 12 -25 6 -38 2 -65 -19 -85 -64 -219 -102 -338 -93 -79 5 -80 5
-86 -20 -4 -14 -4 -66 0 -116 13 -171 77 -362 167 -494 36 -53 192 -213 208
-213 6 0 41 -19 78 -41 84 -52 119 -67 208 -90 77 -20 270 -26 321 -10 16 5
56 17 89 27 71 21 201 86 246 123 l32 27 -15 54 c-9 30 -21 84 -28 118 l-13
64 -46 -5 c-25 -3 -104 -12 -174 -21 -116 -15 -140 -15 -245 -1 -163 21 -182
25 -223 51 -38 24 -79 95 -79 138 0 26 22 82 42 106 33 40 73 55 138 54 36 -1
83 -7 105 -13 92 -25 303 -7 445 39 90 29 250 109 340 169 86 57 192 141 197
156 2 6 -20 19 -49 29 -29 11 -71 27 -92 37 -22 11 -45 19 -50 18 -6 0 -42
-27 -81 -59z"/>
<path d="M7709 10088 c-18 -28 -35 -67 -57 -128 -25 -69 -21 -277 6 -348 49
-126 126 -217 226 -267 56 -28 66 -30 180 -30 113 0 125 2 176 28 76 40 89 62
43 73 -86 21 -224 106 -307 190 -89 89 -165 214 -200 329 -10 33 -23 70 -27
83 -5 13 -9 33 -9 45 0 39 -15 51 -31 25z"/>
<path d="M9033 9621 c-30 -40 -146 -125 -220 -163 -35 -17 -63 -34 -63 -38 0
-4 -24 -47 -54 -96 -60 -99 -60 -97 1 -165 89 -99 254 -192 392 -223 118 -26
280 -16 376 23 125 51 229 120 307 205 40 45 41 36 -14 126 -37 61 -65 123
-88 193 -13 37 -27 70 -32 73 -5 3 -40 0 -79 -6 -113 -19 -319 19 -440 81 -51
25 -61 24 -86 -10z"/>
</g>
</svg>
