<?xml version="1.0" standalone="no"?>
<!DOCTYPE svg PUBLIC "-//W3C//DTD SVG 20010904//EN"
 "http://www.w3.org/TR/2001/REC-SVG-20010904/DTD/svg10.dtd">
<svg version="1.0" xmlns="http://www.w3.org/2000/svg"
 width="2070.000000pt" height="2070.000000pt" viewBox="0 0 2070.000000 2070.000000"
 preserveAspectRatio="xMidYMid meet">
<metadata>
Created by potrace 1.15, written by Peter Selinger 2001-2017
</metadata>
<g transform="translate(0.000000,2070.000000) scale(0.100000,-0.100000)"
fill="#000000" stroke="none">
<path d="M8960 15972 c-17 -6 -11 -27 13 -38 12 -6 101 -52 197 -101 154 -79
336 -160 410 -184 14 -4 63 -22 110 -39 348 -129 781 -187 1092 -145 385 52
662 165 973 395 96 72 127 101 110 107 -13 4 -2892 9 -2905 5z"/>
<path d="M8265 15883 c-115 -47 -266 -107 -335 -135 -69 -27 -134 -54 -145
-59 -11 -4 -108 -42 -215 -84 -107 -42 -204 -80 -215 -85 -11 -5 -78 -32 -150
-60 -71 -28 -173 -69 -225 -90 -52 -21 -194 -77 -315 -125 -121 -48 -231 -91
-245 -97 -166 -66 -145 -49 -542 -437 -205 -200 -492 -482 -638 -625 -146
-144 -362 -355 -480 -471 -118 -115 -311 -304 -428 -419 l-212 -210 22 -23
c69 -67 2216 -1773 2229 -1771 14 3 297 258 559 504 160 151 202 186 211 177
5 -5 10 -1495 11 -3603 l3 -3595 3179 -3 c2342 -1 3182 1 3192 9 12 10 14 595
14 3606 0 2136 4 3593 9 3591 8 -3 206 -183 426 -388 280 -260 325 -300 338
-300 8 0 347 266 753 591 406 325 906 724 1111 887 275 220 372 302 371 317
-1 20 -68 87 -938 935 -234 228 -544 532 -690 675 -146 144 -319 313 -385 376
l-120 115 -130 51 c-71 28 -213 84 -315 123 -239 92 -259 100 -295 115 -16 7
-66 26 -110 43 -44 17 -156 61 -250 97 -93 36 -228 88 -300 116 -71 28 -139
54 -150 59 -11 5 -62 25 -112 44 -51 20 -132 51 -180 70 -236 93 -379 146
-393 146 -8 -1 -57 -39 -109 -86 -273 -246 -530 -400 -851 -506 -110 -37 -245
-68 -390 -89 -120 -18 -448 -16 -590 5 -498 71 -951 243 -1505 572 -77 46
-153 92 -170 103 -16 12 -43 20 -60 20 -16 -1 -124 -40 -240 -86z m1232 -2017
c68 -32 132 -97 166 -168 18 -40 32 -58 46 -58 32 0 72 -39 70 -69 -5 -64 -1
-72 33 -69 36 3 51 -19 16 -24 -28 -4 -35 -33 -13 -58 11 -12 14 -26 10 -40
-6 -20 -12 -21 -53 -15 -60 9 -73 21 -39 36 31 14 33 21 11 40 -9 7 -20 24
-25 37 -7 18 -15 23 -29 19 -24 -6 -60 35 -60 68 0 16 -14 32 -49 55 -87 55
-139 126 -161 219 -15 59 -2 63 77 27z m1809 -44 c6 -4 16 -17 23 -30 11 -20
9 -24 -18 -40 -35 -20 -39 -41 -12 -66 13 -12 27 -15 47 -10 l29 7 -19 -22
c-22 -25 -42 -27 -62 -6 -9 8 -19 15 -24 15 -11 0 -85 -84 -118 -133 l-25 -38
65 -67 c147 -150 220 -306 249 -533 17 -130 -10 -287 -74 -431 -184 -416 -672
-613 -1087 -441 -111 46 -182 94 -277 188 -69 67 -93 97 -93 116 0 33 92 135
174 195 33 24 109 64 170 90 180 76 244 113 321 189 134 131 155 207 164 590
l6 270 28 -3 c43 -5 164 -49 214 -77 25 -14 53 -25 62 -25 16 0 92 86 136 153
18 28 18 28 -10 57 -20 21 -24 30 -13 30 8 0 23 -9 33 -20 26 -29 42 -25 55
15 11 34 31 44 56 27z m-672 -158 c9 -24 7 -132 -5 -267 -20 -224 -83 -355
-214 -447 -22 -15 -112 -65 -200 -110 -238 -123 -312 -169 -366 -228 -27 -29
-53 -51 -58 -48 -9 6 -18 41 -41 163 -19 95 0 249 46 381 24 68 25 74 10 97
-17 26 -21 63 -8 81 4 6 21 17 37 25 30 14 41 46 48 144 1 17 6 36 10 43 12
18 37 15 44 -5 9 -26 34 -53 50 -53 7 0 47 27 89 60 92 74 194 124 316 155
112 29 233 34 242 9z"/>
<path d="M14497 15264 c-9 -9 4 -34 18 -34 7 0 15 -7 19 -15 3 -8 12 -15 20
-15 25 0 66 -22 66 -35 0 -11 416 -422 820 -810 69 -66 287 -280 485 -475 427
-422 737 -724 854 -833 28 -26 51 -52 51 -57 0 -6 -17 -25 -37 -44 -46 -41
-196 -161 -320 -256 -32 -24 -76 -60 -98 -80 -22 -19 -58 -49 -80 -67 -22 -17
-60 -48 -85 -67 -25 -20 -76 -61 -115 -91 -38 -30 -95 -75 -125 -100 -30 -24
-86 -70 -125 -100 -38 -30 -122 -96 -186 -147 -63 -51 -140 -113 -170 -136
-30 -24 -63 -51 -74 -60 -38 -32 -268 -217 -309 -249 -162 -126 -559 -444
-566 -454 -3 -3 -36 -28 -75 -54 -38 -26 -86 -60 -106 -76 -20 -16 -44 -29
-53 -29 -8 0 -48 30 -88 68 -40 37 -78 72 -84 77 -6 6 -86 80 -178 165 -92 85
-171 156 -177 158 -5 2 -9 -1288 -9 -3421 0 -2727 -3 -3427 -12 -3435 -7 -5
-24 -12 -38 -14 -18 -2 -26 -10 -28 -28 -2 -14 -9 -31 -14 -37 -8 -10 -688
-13 -3340 -13 -3047 0 -3331 1 -3353 16 l-25 16 0 3412 c1 2943 3 3419 15
3471 17 70 18 75 7 75 -11 0 -209 -176 -350 -311 -63 -60 -122 -109 -132 -109
-10 0 -40 -20 -68 -45 -27 -25 -55 -45 -62 -45 -6 0 -102 73 -213 162 -111 89
-375 301 -587 470 -212 169 -419 336 -462 370 -42 35 -91 74 -109 88 -18 14
-52 41 -75 60 -23 19 -78 63 -121 97 -109 87 -209 166 -273 217 -75 60 -144
115 -270 216 -59 47 -162 129 -228 183 -66 53 -127 97 -136 97 -9 0 -16 12
-18 33 -3 26 -5 23 -9 -18 -5 -48 -4 -51 35 -87 43 -40 132 -112 201 -163 22
-16 45 -34 50 -41 6 -6 44 -37 85 -69 41 -33 79 -65 83 -72 4 -7 13 -13 19
-13 6 0 30 -17 53 -37 23 -21 66 -57 96 -80 30 -23 78 -62 107 -85 30 -24 78
-61 107 -83 29 -22 85 -67 125 -100 39 -33 86 -70 103 -83 18 -13 48 -38 67
-55 19 -18 48 -40 63 -50 15 -10 52 -39 82 -65 30 -26 88 -74 130 -107 42 -33
82 -65 88 -71 7 -5 37 -29 67 -52 112 -86 146 -114 187 -152 23 -22 46 -40 51
-40 5 0 37 -24 70 -52 33 -29 93 -78 133 -108 40 -30 94 -74 121 -97 27 -24
52 -43 56 -43 4 0 21 -12 37 -28 17 -15 62 -52 100 -82 39 -30 84 -67 100 -82
75 -70 137 -73 200 -8 22 22 47 40 57 40 20 0 156 119 290 253 48 49 93 87
100 85 11 -4 14 -671 18 -3424 3 -1899 9 -3427 14 -3437 4 -10 17 -22 27 -27
11 -7 1219 -10 3373 -10 l3355 0 22 29 c11 16 32 35 46 42 13 7 30 22 36 34 9
15 13 840 17 3397 l5 3377 70 -67 c39 -37 90 -83 115 -103 25 -20 83 -75 129
-123 118 -119 166 -139 230 -93 17 12 73 51 124 86 87 61 109 78 225 176 46
40 131 107 194 152 17 12 50 41 74 63 24 22 48 40 54 40 6 0 37 24 69 53 75
66 136 116 181 147 19 14 42 32 50 40 9 9 34 29 55 45 22 16 59 46 82 67 24
21 46 38 50 38 5 0 34 25 67 55 32 30 67 57 77 60 11 4 19 10 19 14 0 5 26 26
58 48 31 23 66 51 77 63 11 12 44 38 73 57 28 19 55 40 60 47 4 7 23 23 42 36
19 13 54 41 77 62 24 21 46 38 50 38 5 0 31 21 58 46 28 25 66 57 85 70 38 26
59 43 219 174 113 92 139 114 259 207 44 34 90 74 101 89 25 32 27 81 4 114
-20 29 -270 280 -279 280 -3 0 -48 42 -99 93 -52 50 -112 108 -136 127 -23 19
-80 75 -128 123 -112 115 -453 456 -616 618 -92 90 -248 239 -252 239 -6 0
-141 129 -255 245 -290 293 -444 445 -453 445 -5 0 -21 9 -35 20 -14 11 -35
20 -47 20 -13 0 -23 3 -23 8 -1 11 -47 42 -53 36z"/>
</g>
</svg>
