<?xml version="1.0" standalone="no"?>
<!DOCTYPE svg PUBLIC "-//W3C//DTD SVG 20010904//EN"
 "http://www.w3.org/TR/2001/REC-SVG-20010904/DTD/svg10.dtd">
<svg version="1.0" xmlns="http://www.w3.org/2000/svg"
 width="2070.000000pt" height="2070.000000pt" viewBox="0 0 2070.000000 2070.000000"
 preserveAspectRatio="xMidYMid meet">
<metadata>
Created by potrace 1.15, written by Peter Selinger 2001-2017
</metadata>
<g transform="translate(0.000000,2070.000000) scale(0.100000,-0.100000)"
fill="#000000" stroke="none">
<path d="M9958 16553 c-87 -2 -148 -8 -148 -13 0 -6 -33 -10 -74 -10 -41 0
-78 -4 -81 -10 -3 -5 -33 -10 -66 -10 -33 0 -59 -4 -59 -10 0 -5 -22 -10 -49
-10 -28 0 -53 -4 -56 -10 -3 -5 -24 -10 -46 -10 -21 0 -39 -4 -39 -10 0 -5
-18 -10 -39 -10 -22 0 -43 -4 -46 -10 -3 -5 -15 -10 -26 -10 -25 0 -120 -30
-134 -41 -5 -5 -19 -9 -31 -9 -13 0 -26 -4 -29 -10 -3 -5 -15 -10 -25 -10 -10
0 -25 -7 -34 -15 -8 -8 -26 -15 -40 -15 -14 0 -28 -4 -31 -10 -3 -5 -15 -10
-26 -10 -10 0 -19 -4 -19 -10 0 -5 -13 -10 -30 -10 -16 0 -30 -4 -30 -10 0 -5
-11 -10 -25 -10 -14 0 -25 -4 -25 -10 0 -5 -6 -10 -14 -10 -8 0 -45 -16 -83
-35 -37 -19 -74 -35 -80 -35 -7 0 -13 -4 -13 -10 0 -5 -6 -10 -14 -10 -19 0
-96 -42 -96 -52 0 -4 -6 -8 -12 -8 -23 0 -138 -64 -138 -77 0 -7 -9 -13 -20
-13 -11 0 -20 -4 -20 -10 0 -5 -7 -10 -15 -10 -16 0 -162 -97 -203 -135 -15
-14 -31 -25 -35 -25 -5 0 -22 -13 -37 -30 -15 -16 -33 -30 -39 -30 -7 0 -22
-10 -35 -22 -13 -13 -35 -33 -50 -44 -84 -66 -228 -202 -314 -297 -4 -4 -25
-25 -47 -46 -56 -54 -115 -124 -115 -136 0 -6 -11 -19 -25 -29 -14 -10 -52
-55 -85 -100 -34 -44 -68 -89 -76 -99 -8 -9 -14 -21 -14 -25 0 -4 -14 -22 -30
-40 -16 -19 -32 -42 -35 -53 -4 -10 -11 -19 -16 -19 -5 0 -9 -6 -9 -13 0 -7
-9 -23 -20 -35 -11 -12 -20 -28 -20 -37 0 -8 -4 -15 -8 -15 -5 0 -14 -16 -22
-35 -8 -19 -17 -35 -22 -35 -4 0 -8 -9 -8 -20 0 -11 -4 -20 -9 -20 -5 0 -26
-35 -47 -77 -21 -43 -42 -79 -46 -81 -4 -2 -8 -10 -8 -17 0 -8 -11 -35 -25
-61 -14 -26 -25 -53 -25 -60 0 -8 -4 -14 -10 -14 -5 0 -10 -6 -10 -14 0 -8
-12 -38 -26 -68 -15 -29 -31 -64 -36 -78 -6 -14 -14 -33 -19 -42 -5 -10 -9
-27 -9 -37 0 -11 -4 -23 -10 -26 -5 -3 -10 -17 -10 -30 0 -13 -4 -27 -10 -30
-5 -3 -10 -19 -10 -36 0 -16 -4 -29 -10 -29 -5 0 -10 -13 -10 -29 0 -17 -4
-32 -9 -35 -5 -3 -11 -20 -14 -38 -8 -52 -27 -121 -36 -133 -5 -5 -11 -26 -14
-45 -4 -19 -11 -57 -16 -85 -41 -200 -71 -417 -71 -505 0 -137 -22 -383 -47
-520 -13 -74 -27 -152 -30 -173 -3 -20 -9 -40 -14 -43 -5 -3 -9 -20 -9 -38 0
-17 -4 -36 -9 -41 -4 -6 -20 -50 -35 -100 -15 -49 -32 -98 -37 -107 -5 -10 -9
-27 -9 -37 0 -11 -4 -23 -10 -26 -5 -3 -10 -17 -10 -31 0 -13 -4 -24 -10 -24
-5 0 -10 -6 -10 -12 0 -16 -72 -162 -82 -166 -5 -2 -8 -12 -8 -23 0 -10 -4
-19 -10 -19 -5 0 -10 -9 -10 -20 0 -11 -4 -20 -10 -20 -5 0 -10 -6 -10 -14 0
-17 -40 -89 -52 -94 -4 -2 -8 -12 -8 -23 0 -10 -3 -19 -7 -19 -11 0 -43 -58
-43 -76 0 -8 -4 -14 -10 -14 -5 0 -10 -9 -10 -20 0 -11 -4 -20 -10 -20 -5 0
-10 -7 -10 -15 0 -8 -3 -15 -7 -15 -9 0 -33 -49 -33 -67 0 -7 -4 -13 -10 -13
-5 0 -10 -6 -10 -13 0 -8 -9 -24 -20 -37 -11 -13 -20 -27 -20 -31 0 -4 -6 -14
-13 -21 -8 -7 -25 -34 -39 -59 -47 -84 -53 -94 -58 -99 -5 -5 -17 -25 -49 -84
-31 -57 -41 -112 -41 -232 0 -138 12 -174 81 -249 100 -108 163 -125 479 -125
l238 0 5 -942 4 -943 22 -70 c34 -105 86 -197 152 -269 91 -99 173 -155 288
-196 140 -49 151 -50 874 -50 l678 0 -4 -438 c-4 -424 -5 -440 -29 -547 -25
-106 -41 -161 -59 -197 -5 -10 -9 -27 -9 -38 0 -11 -4 -20 -10 -20 -5 0 -10
-7 -10 -15 0 -8 -4 -23 -9 -33 -5 -9 -24 -48 -42 -87 -18 -38 -37 -71 -41 -73
-4 -2 -8 -12 -8 -23 0 -10 -4 -19 -10 -19 -5 0 -10 -9 -10 -20 0 -11 -4 -20
-8 -20 -5 0 -24 -21 -42 -47 -19 -27 -37 -50 -40 -53 -4 -3 -21 -27 -40 -55
-18 -27 -45 -59 -59 -70 -13 -11 -50 -46 -80 -77 -31 -32 -180 -183 -331 -336
-320 -324 -612 -625 -655 -676 -16 -20 -35 -36 -40 -36 -6 0 -19 -12 -30 -27
-11 -14 -26 -32 -32 -39 -7 -7 -13 -20 -13 -28 0 -9 -4 -16 -10 -16 -5 0 -10
-6 -10 -13 0 -13 -19 -59 -41 -99 -5 -10 -9 -80 -9 -155 0 -122 3 -146 25
-208 48 -133 145 -242 265 -299 l65 -31 3755 0 3755 0 75 37 c120 58 223 171
278 301 24 57 26 73 26 217 0 233 19 199 -399 745 -268 351 -391 511 -647 847
-64 84 -180 236 -258 338 -213 278 -320 445 -399 621 -33 73 -113 308 -129
379 -58 245 -60 316 -61 1587 l-1 1131 91 114 c107 134 250 346 344 512 59
102 91 168 194 401 25 55 65 166 92 250 12 39 25 79 30 90 4 11 10 31 13 45 2
14 9 41 14 60 43 151 68 269 101 465 37 217 52 643 31 857 -18 181 -42 341
-70 473 -19 88 -62 251 -71 267 -5 10 -9 27 -9 38 0 11 -4 28 -9 38 -5 9 -15
37 -22 62 -21 73 -124 331 -177 443 -115 243 -287 517 -471 747 -96 121 -388
418 -511 522 -229 192 -488 363 -746 491 -196 98 -229 113 -349 157 -33 12
-76 28 -95 35 -190 72 -230 85 -257 85 -12 0 -25 5 -28 10 -3 6 -21 10 -40 10
-19 0 -36 4 -39 9 -3 5 -23 11 -43 15 -21 3 -65 10 -98 16 -33 6 -82 14 -110
16 -27 3 -54 10 -59 15 -6 5 -44 9 -86 9 -42 0 -80 4 -86 9 -10 10 -518 20
-746 14z m522 -908 c219 -18 338 -35 458 -64 23 -6 59 -15 80 -19 50 -12 290
-93 377 -128 148 -59 378 -189 549 -308 207 -146 446 -372 604 -574 145 -185
305 -454 382 -639 18 -43 39 -94 47 -113 24 -57 30 -71 53 -150 12 -41 26 -86
30 -100 5 -14 13 -45 18 -70 6 -25 15 -65 21 -90 41 -178 51 -254 59 -445 9
-217 -7 -594 -28 -640 -5 -11 -11 -38 -14 -60 -11 -88 -62 -290 -97 -385 -12
-30 -23 -65 -26 -77 -3 -13 -9 -23 -14 -23 -5 0 -9 -9 -9 -20 0 -11 -4 -29
-10 -40 -5 -11 -14 -29 -20 -40 -5 -11 -10 -26 -10 -34 0 -8 -4 -16 -8 -18 -4
-2 -30 -48 -57 -103 -27 -55 -52 -102 -56 -105 -3 -3 -18 -27 -33 -55 -15 -27
-32 -54 -37 -60 -5 -5 -9 -16 -9 -25 0 -8 -9 -22 -20 -30 -11 -8 -20 -21 -20
-30 0 -9 -9 -22 -20 -30 -11 -8 -20 -20 -20 -27 0 -7 -13 -26 -30 -43 -16 -17
-30 -35 -30 -40 0 -5 -16 -25 -35 -44 -19 -20 -35 -40 -35 -46 0 -10 -177
-198 -253 -269 -21 -20 -57 -54 -80 -76 -23 -22 -60 -53 -82 -69 -22 -17 -47
-38 -56 -48 -9 -10 -21 -18 -26 -18 -5 0 -18 -8 -29 -18 -31 -28 -123 -92
-133 -92 -5 0 -18 -11 -29 -25 -11 -14 -27 -25 -36 -25 -9 0 -16 -4 -16 -10 0
-5 -6 -10 -12 -10 -7 0 -24 -9 -38 -20 -14 -11 -32 -20 -42 -20 -9 0 -18 -4
-20 -8 -1 -4 -38 -25 -80 -46 -43 -21 -80 -42 -84 -47 -3 -5 -14 -9 -25 -9
-10 0 -19 -4 -19 -10 0 -5 -11 -10 -25 -10 -14 0 -25 -4 -25 -10 0 -5 -9 -10
-20 -10 -11 0 -20 -4 -20 -10 0 -5 -11 -10 -25 -10 -14 0 -34 -4 -45 -10 -11
-5 -29 -14 -40 -20 -11 -5 -29 -10 -39 -10 -11 0 -23 -5 -26 -10 -3 -5 -17
-10 -30 -10 -13 0 -27 -4 -30 -10 -3 -5 -16 -10 -28 -10 -21 0 -92 -21 -132
-40 -11 -5 -36 -11 -55 -14 -19 -3 -60 -10 -90 -16 -91 -18 -179 -30 -299 -40
-63 -5 -119 -14 -125 -20 -13 -13 -269 -13 -282 0 -6 6 -62 15 -125 20 -150
13 -221 23 -374 55 -32 6 -187 52 -220 65 -11 4 -42 15 -70 23 -181 56 -444
182 -610 293 -350 234 -587 465 -820 799 -268 383 -451 892 -490 1360 -3 39
-10 114 -14 168 -5 53 -5 141 0 195 4 53 11 129 14 167 60 715 423 1431 965
1899 324 280 641 461 1025 583 243 78 384 104 670 127 212 17 194 17 405 1z"/>
<path d="M10875 13901 c-3 -6 0 -11 8 -11 7 0 25 -12 39 -27 14 -16 42 -41 62
-58 50 -40 73 -63 104 -105 15 -19 29 -37 32 -40 3 -3 11 -17 19 -32 8 -16 18
-28 23 -28 4 0 8 -5 8 -12 0 -6 11 -26 25 -44 28 -37 52 -88 82 -179 40 -117
48 -176 47 -335 0 -166 -13 -234 -71 -380 -51 -127 -189 -307 -297 -389 -29
-21 -30 -24 -27 -101 2 -91 -15 -140 -55 -159 -35 -15 -49 -14 -94 9 -27 14
-40 27 -40 41 0 11 -4 18 -9 15 -18 -12 7 -90 38 -118 27 -24 40 -28 89 -28
101 0 132 41 132 174 l0 84 38 29 c122 89 273 309 317 458 9 33 21 71 25 85
25 76 32 343 12 455 -23 129 -75 261 -140 355 -95 136 -120 164 -212 239 -121
98 -146 115 -155 102z"/>
<path d="M9080 13855 c0 -12 29 -35 42 -35 8 0 20 -9 28 -20 8 -11 22 -20 32
-20 10 0 18 -4 18 -10 0 -5 5 -10 12 -10 6 0 26 -11 44 -25 18 -14 37 -25 41
-25 38 0 73 -93 53 -144 -9 -25 -56 -56 -83 -56 -7 0 -47 21 -88 47 -185 116
-254 165 -261 186 -4 12 -6 0 -3 -27 7 -69 18 -80 228 -213 87 -56 105 -63
149 -63 61 0 100 22 122 67 43 89 9 143 -154 245 -141 89 -180 111 -180 103z"/>
<path d="M11725 13845 c11 -9 19 -18 17 -21 -2 -2 -1 -17 3 -33 13 -60 -25
-99 -219 -223 -49 -32 -101 -58 -114 -58 -14 0 -45 11 -69 25 -48 29 -56 19
-28 -35 23 -45 53 -60 118 -60 56 0 61 2 201 95 79 52 151 106 160 120 9 14
16 45 16 73 0 57 -23 93 -73 118 -29 14 -30 14 -12 -1z"/>
<path d="M10143 13825 c-240 -66 -421 -212 -523 -420 -69 -142 -83 -203 -84
-365 0 -99 5 -151 18 -195 46 -160 95 -247 201 -359 43 -45 111 -96 128 -96 9
0 17 -7 17 -15 0 -8 4 -15 8 -15 19 0 34 -108 30 -213 -3 -107 -3 -109 -33
-133 -37 -29 -53 -30 -111 -2 l-46 21 3 104 4 104 -35 30 c-64 54 -75 64 -120
116 -60 68 -72 83 -94 124 -10 18 -26 43 -36 54 -9 11 -24 37 -34 57 -9 20
-21 40 -26 43 -6 3 -10 19 -10 36 0 16 -4 29 -10 29 -5 0 -10 16 -10 35 0 19
-4 35 -10 35 -6 0 -10 29 -10 66 0 38 -4 63 -9 59 -6 -3 -12 14 -14 37 -2 24
-3 18 -1 -12 15 -276 109 -485 306 -683 l98 -98 0 -80 c0 -121 38 -169 135
-169 102 0 135 50 135 205 0 171 -15 203 -136 299 -168 135 -274 357 -274 576
0 195 65 365 192 506 110 122 242 203 393 242 138 36 189 39 285 17 144 -32
211 -57 305 -112 86 -51 216 -191 264 -283 39 -73 80 -198 82 -250 1 -14 5 -2
9 25 5 37 4 54 -7 67 -8 9 -14 27 -12 40 3 34 -9 73 -52 163 -38 81 -63 116
-154 210 -97 101 -229 170 -408 213 -80 20 -260 13 -354 -13z"/>
<path d="M10379 13476 c6 -7 14 -33 17 -57 5 -35 -1 -64 -31 -144 -55 -151
-69 -195 -63 -200 3 -3 22 -2 43 3 l39 8 43 119 c23 66 43 135 43 153 0 43
-22 85 -59 111 -33 24 -49 27 -32 7z"/>
<path d="M9140 13115 c0 -8 5 -15 10 -15 6 0 10 -21 10 -46 0 -37 -5 -51 -29
-75 l-29 -29 -157 0 c-198 0 -222 8 -228 78 -3 36 -4 30 -5 -24 -2 -66 0 -72
29 -100 l30 -29 173 -3 c205 -4 233 3 265 67 25 48 26 67 7 112 -25 58 -76
101 -76 64z"/>
<path d="M11956 13068 c5 -54 3 -66 -14 -88 -20 -24 -24 -25 -168 -28 -174 -4
-199 0 -239 34 -37 32 -45 14 -18 -43 31 -66 60 -74 265 -71 171 3 177 4 202
27 23 22 26 32 26 98 0 80 -9 106 -41 123 -19 11 -19 9 -13 -52z"/>
<path d="M10586 13071 c-3 -5 1 -16 9 -24 25 -26 19 -58 -55 -257 -17 -47 -42
-116 -56 -154 -13 -38 -31 -80 -40 -93 -19 -29 -59 -46 -94 -38 -32 7 -76 44
-83 70 -3 13 -5 9 -6 -13 -3 -101 102 -172 189 -127 55 28 91 100 163 325 6
19 15 39 19 45 4 5 8 18 8 30 0 12 5 26 10 31 6 6 10 44 8 89 -3 74 -5 79 -35
102 -18 14 -34 20 -37 14z"/>
<path d="M10060 12952 c0 -31 23 -84 45 -102 13 -11 51 -16 129 -20 110 -5
111 -5 134 21 38 46 31 49 -98 49 -129 0 -164 9 -194 52 l-16 22 0 -22z"/>
<path d="M9343 12568 c9 -7 19 -33 22 -58 7 -53 -15 -97 -61 -119 -16 -8 -51
-31 -79 -51 -112 -81 -165 -110 -203 -110 -40 0 -92 28 -104 57 -5 10 -6 -2
-3 -27 7 -54 40 -92 94 -109 60 -17 79 -9 269 117 139 92 152 108 152 179 0
61 -18 96 -61 119 -34 17 -49 18 -26 2z"/>
<path d="M11480 12556 c0 -9 7 -16 15 -16 8 0 29 -13 47 -30 17 -16 39 -30 49
-30 11 0 19 -4 19 -10 0 -5 7 -10 15 -10 14 0 26 -8 87 -61 39 -35 45 -85 16
-129 -18 -27 -32 -36 -58 -38 -46 -5 -36 -11 -330 185 l-35 23 -3 -21 c-5 -32
26 -67 109 -126 184 -128 253 -157 323 -133 49 16 76 57 76 115 0 82 -11 94
-210 220 -41 26 -85 54 -97 63 -21 13 -23 13 -23 -2z"/>
<path d="M10900 11842 c0 -4 6 -14 12 -20 9 -9 12 -58 10 -179 -4 -173 -13
-223 -54 -291 -22 -36 -105 -107 -138 -117 -16 -5 -20 -15 -20 -53 0 -71 -36
-124 -108 -161 -38 -19 -57 -21 -257 -21 -210 0 -217 1 -263 25 -55 29 -92 59
-92 74 0 7 -7 14 -16 18 -13 5 -15 15 -9 58 l6 52 -43 26 c-53 31 -124 99
-133 127 -3 11 -11 20 -16 20 -5 0 -9 14 -9 30 0 17 -4 30 -10 30 -6 0 -11 64
-13 158 l-3 157 -2 -164 c-2 -168 1 -192 41 -284 21 -49 77 -108 135 -142 25
-15 32 -26 32 -50 0 -45 47 -131 88 -163 l35 -27 284 -3 c277 -3 285 -2 320
19 51 32 91 93 99 151 5 39 12 53 33 65 45 28 112 96 132 135 43 83 49 118 49
287 0 149 -2 167 -21 197 -24 40 -69 69 -69 46z"/>
<path d="M9947 11663 c-4 -3 -7 -43 -7 -87 0 -63 4 -88 20 -113 20 -33 66 -63
97 -63 16 0 15 3 -4 18 -29 23 -43 62 -43 123 l0 49 353 0 c337 0 355 1 371
19 10 11 16 28 14 38 -3 17 -25 18 -399 21 -217 1 -398 -1 -402 -5z"/>
</g>
</svg>
