<?xml version="1.0" standalone="no"?>
<!DOCTYPE svg PUBLIC "-//W3C//DTD SVG 20010904//EN"
 "http://www.w3.org/TR/2001/REC-SVG-20010904/DTD/svg10.dtd">
<svg version="1.0" xmlns="http://www.w3.org/2000/svg"
 width="2070.000000pt" height="2070.000000pt" viewBox="0 0 2070.000000 2070.000000"
 preserveAspectRatio="xMidYMid meet">
<metadata>
Created by potrace 1.15, written by Peter Selinger 2001-2017
</metadata>
<g transform="translate(0.000000,2070.000000) scale(0.100000,-0.100000)"
fill="#000000" stroke="none">
<path d="M5660 13888 c0 -5 -15 -8 -33 -8 -19 0 -79 -7 -136 -15 -56 -9 -107
-12 -114 -9 -7 4 -9 3 -5 -1 9 -9 -171 -58 -189 -51 -6 3 -13 0 -15 -5 -2 -6
-10 -11 -18 -13 -8 -2 -28 -8 -43 -15 -16 -6 -33 -9 -38 -5 -5 3 -9 1 -9 -4 0
-6 -13 -15 -30 -21 -16 -5 -30 -8 -30 -5 0 3 -7 -2 -16 -11 -10 -9 -25 -14
-36 -12 -10 3 -16 1 -13 -3 3 -5 -12 -14 -32 -20 -21 -7 -43 -17 -50 -22 -25
-20 -143 -78 -143 -70 0 4 -7 -2 -15 -12 -8 -11 -15 -17 -15 -13 0 4 -9 -2
-20 -13 -12 -12 -26 -18 -33 -14 -7 4 -9 4 -5 -1 5 -5 -16 -24 -45 -43 -28
-20 -83 -61 -121 -91 -37 -31 -75 -60 -83 -66 -18 -12 -127 -120 -177 -175
-19 -21 -37 -36 -40 -34 -3 2 -4 1 -2 -2 2 -3 -24 -41 -59 -85 -35 -44 -78
-102 -96 -129 -18 -28 -36 -50 -41 -50 -5 0 -7 -4 -4 -8 3 -5 -4 -19 -15 -30
-10 -12 -19 -24 -19 -27 0 -15 -35 -73 -42 -69 -4 3 -5 -1 -3 -8 3 -8 -3 -23
-13 -34 -10 -10 -17 -25 -14 -32 2 -6 -3 -15 -12 -18 -9 -3 -16 -17 -16 -29 0
-13 -6 -30 -12 -37 -7 -7 -14 -21 -16 -31 -2 -10 -13 -39 -24 -65 -12 -26 -21
-50 -20 -54 1 -5 -3 -8 -9 -8 -5 0 -8 -4 -5 -8 8 -14 -16 -82 -27 -75 -6 3 -7
1 -3 -5 3 -6 2 -30 -4 -54 -41 -160 -62 -270 -60 -311 0 -21 -3 -36 -7 -34 -5
3 -10 -88 -11 -201 -3 -200 7 -329 38 -491 5 -29 7 -57 4 -62 -3 -5 -1 -9 4
-9 5 0 12 -15 15 -32 4 -18 9 -44 13 -57 5 -17 4 -22 -5 -17 -6 4 -9 12 -6 17
4 5 1 9 -4 9 -14 0 -14 -6 0 -31 5 -11 14 -17 18 -14 13 7 22 -37 10 -51 -7
-8 -7 -14 1 -19 5 -3 10 0 11 7 0 7 7 -3 14 -22 18 -46 18 -55 1 -41 -12 10
-13 8 -9 -9 3 -13 11 -19 19 -16 17 7 18 -6 2 -23 -11 -11 -10 -13 3 -8 23 8
61 -81 46 -108 -8 -15 -7 -17 7 -12 19 8 21 -4 4 -22 -11 -11 -10 -12 1 -6 11
6 13 4 7 -10 -6 -16 -4 -16 10 -4 16 13 16 12 4 -11 -12 -22 -12 -24 2 -12 21
17 30 -4 15 -33 -9 -18 -9 -19 8 -5 17 14 18 14 5 -10 -12 -23 -12 -24 3 -11
20 16 23 1 5 -18 -11 -11 -10 -12 1 -6 11 6 13 4 7 -10 -5 -15 -4 -16 9 -5 8
7 16 9 16 4 1 -5 2 -13 4 -19 1 -5 3 -16 3 -23 1 -7 6 -11 11 -7 5 3 13 0 17
-6 4 -7 3 -9 -3 -6 -6 4 -13 0 -16 -7 -4 -10 0 -13 14 -11 17 3 18 1 7 -18
-10 -19 -9 -21 4 -9 19 15 25 7 23 -30 0 -15 2 -25 6 -22 4 2 10 0 14 -6 4 -6
10 -8 14 -6 4 3 7 -8 6 -24 -1 -16 3 -28 9 -27 6 1 10 -6 10 -15 -1 -10 2 -16
6 -13 12 8 33 -23 24 -36 -4 -7 -3 -9 3 -6 12 7 35 -16 31 -29 -2 -5 0 -9 3
-9 17 0 49 -40 44 -54 -3 -8 -3 -12 1 -8 4 4 20 -5 36 -20 29 -27 38 -50 16
-37 -7 4 -2 -5 11 -19 13 -15 27 -24 31 -22 4 2 26 -16 50 -40 24 -25 40 -45
36 -45 -5 0 -1 -9 9 -20 10 -11 22 -17 27 -14 13 8 69 -46 61 -59 -4 -6 -1 -7
6 -3 15 10 53 -23 44 -37 -3 -6 -1 -7 6 -3 15 10 43 -13 34 -27 -3 -6 -1 -7 6
-3 13 9 44 -12 36 -24 -3 -4 3 -7 13 -6 9 0 16 -5 14 -12 -1 -8 2 -11 7 -7 14
8 92 -45 84 -58 -3 -6 -1 -7 5 -3 14 8 55 -12 47 -23 -2 -5 3 -8 13 -7 9 0 16
-4 15 -11 -2 -8 4 -10 14 -6 11 4 14 3 9 -5 -5 -8 -1 -10 10 -5 12 4 15 3 10
-5 -5 -8 -1 -10 10 -5 13 5 15 3 9 -7 -5 -8 -4 -11 3 -6 12 7 83 -24 77 -33
-8 -14 98 -1 245 30 l155 32 672 6 c531 5 675 9 685 19 9 9 14 57 16 162 3
125 6 151 20 162 16 12 16 11 2 -7 -14 -19 -14 -19 2 -6 10 7 16 17 13 21 -6
10 50 62 63 58 5 -2 11 2 12 7 2 17 43 55 56 53 7 -2 13 2 14 7 2 19 64 75 78
70 7 -2 11 -1 8 4 -6 10 26 42 46 44 7 2 14 6 15 11 3 16 57 66 69 64 7 -2 13
1 12 5 0 17 56 67 70 62 7 -2 11 -1 8 4 -7 11 40 55 52 47 5 -3 15 1 22 9 7 8
9 15 4 15 -4 0 3 11 16 25 13 14 29 24 36 23 7 -2 12 0 11 4 -4 14 68 78 81
73 7 -2 11 -1 8 4 -6 10 38 53 50 49 5 -2 10 1 11 5 3 19 58 67 71 62 7 -2 11
-1 8 4 -6 10 48 63 60 59 5 -2 10 2 12 7 6 19 46 55 58 53 7 -2 13 1 12 5 0
15 55 67 68 65 7 -2 13 1 12 5 0 14 55 67 67 65 6 -2 12 2 13 7 5 18 45 55 57
53 6 -2 12 2 13 7 5 18 45 55 56 53 6 -2 12 1 13 6 3 17 58 66 69 62 16 -6 37
19 40 47 1 12 9 70 18 128 18 121 21 406 6 509 -6 36 -15 99 -20 140 -12 89
-60 268 -101 382 -17 45 -28 87 -25 95 3 8 2 12 -3 9 -11 -7 -23 22 -14 36 3
6 1 8 -5 4 -13 -8 -26 29 -16 45 4 7 3 9 -3 6 -13 -8 -26 20 -16 35 4 7 1 8
-7 3 -10 -6 -12 -4 -7 9 5 11 3 15 -5 10 -8 -5 -9 -2 -5 10 5 11 3 15 -5 10
-8 -5 -9 -2 -5 10 5 11 3 15 -5 10 -8 -5 -9 -2 -5 10 5 11 3 15 -5 10 -8 -5
-9 -2 -5 9 4 10 2 16 -6 14 -7 -1 -11 6 -11 15 1 10 -3 15 -9 11 -6 -4 -8 0
-4 11 4 10 3 15 -3 11 -12 -7 -33 32 -24 46 5 8 1 8 -14 0 -16 -8 -21 -7 -26
5 -3 8 -2 13 3 10 5 -3 12 1 15 10 3 8 2 12 -4 9 -12 -7 -33 32 -24 47 4 6 3
8 -4 4 -6 -3 -13 -2 -17 4 -4 6 -11 7 -17 4 -6 -4 -5 3 2 16 7 13 8 20 2 16
-6 -3 -13 -2 -17 4 -4 6 -11 7 -17 4 -6 -4 -6 0 1 13 9 18 7 20 -12 19 -12 0
-21 4 -20 9 1 6 3 17 5 25 2 10 -4 15 -19 14 -22 -1 -30 17 -24 50 1 5 -5 3
-14 -4 -14 -11 -16 -11 -13 1 2 8 -2 13 -9 12 -7 -2 -10 3 -7 11 3 7 -2 19
-10 26 -9 7 -14 16 -11 20 3 5 1 11 -4 14 -5 4 -13 1 -17 -5 -5 -8 -3 -9 7 -4
8 5 11 4 6 0 -4 -5 1 -18 10 -29 10 -12 3 -8 -14 8 -17 15 -29 34 -26 42 5 14
-94 121 -108 116 -5 -1 -9 3 -9 9 0 6 -6 9 -14 6 -15 -6 -40 16 -30 26 3 3 3
11 -1 17 -5 9 -9 9 -14 1 -5 -7 -19 0 -42 20 -18 17 -28 28 -21 24 21 -11 13
9 -9 23 -15 10 -19 10 -14 1 5 -7 3 -10 -6 -7 -8 3 -14 11 -14 18 0 7 -7 16
-15 20 -56 26 -75 38 -73 48 2 7 -4 9 -14 5 -11 -4 -14 -3 -9 5 5 8 2 10 -9 6
-11 -5 -18 0 -22 15 -3 11 -10 21 -15 21 -5 0 -6 -5 -2 -11 6 -10 -43 17 -56
31 -3 3 -22 13 -43 23 -24 10 -35 22 -31 29 4 6 3 8 -4 4 -14 -9 -63 14 -55
27 3 6 1 7 -5 3 -6 -3 -46 10 -89 30 -79 36 -161 68 -220 85 -18 6 -33 14 -33
19 0 4 -8 6 -19 3 -10 -3 -32 2 -49 11 -16 8 -32 13 -34 10 -3 -2 -22 2 -44 9
-21 8 -45 12 -51 10 -7 -3 -13 0 -13 7 0 6 -4 9 -9 6 -4 -3 -48 1 -97 9 -49 8
-108 15 -131 15 -24 0 -43 3 -43 8 0 4 -81 7 -180 7 -99 0 -180 -3 -180 -7z
m444 -659 c179 -34 392 -113 536 -198 79 -47 230 -158 230 -169 0 -4 -118
-125 -262 -269 l-263 -263 -30 21 c-54 37 -159 86 -230 109 -54 17 -102 24
-210 27 -222 8 -325 -21 -523 -147 -21 -14 -31 -6 -288 251 l-266 266 78 60
c94 71 134 97 234 150 173 91 397 158 595 177 69 7 336 -4 399 -15z m1047
-684 c113 -167 194 -362 241 -579 33 -147 33 -435 1 -587 -32 -148 -76 -276
-138 -401 -78 -155 -198 -328 -229 -328 -6 0 -128 117 -271 260 l-259 259 20
28 c98 135 144 289 144 483 0 171 -43 318 -130 447 -17 25 -30 49 -28 54 2 5
120 126 263 269 l260 262 33 -39 c18 -21 60 -78 93 -128z m-2241 -95 c138
-134 256 -252 261 -261 6 -12 -4 -38 -39 -96 -79 -131 -112 -258 -112 -428 0
-166 43 -305 142 -467 l23 -38 -263 -262 -263 -263 -40 45 c-100 111 -217 323
-278 505 -91 271 -105 564 -40 835 43 180 99 315 194 470 65 107 143 212 155
208 4 -2 121 -113 260 -248z m1705 -1700 l266 -264 -33 -29 c-119 -101 -343
-224 -508 -280 -145 -49 -360 -87 -491 -87 -67 0 -261 23 -339 39 -89 19 -247
74 -348 123 -105 50 -290 169 -330 211 l-21 22 259 265 259 265 48 -28 c85
-50 186 -94 258 -113 98 -26 324 -26 415 0 77 22 187 72 250 113 25 17 46 30
47 29 1 -1 122 -120 268 -266z"/>
<path d="M14565 13864 c-173 -14 -378 -58 -562 -120 -117 -39 -393 -169 -393
-184 0 -6 -4 -9 -8 -7 -5 1 -37 -17 -73 -40 -187 -121 -367 -280 -504 -448
-89 -108 -195 -262 -195 -282 0 -7 -4 -13 -9 -13 -12 0 -133 -249 -169 -350
-42 -113 -78 -250 -103 -390 -36 -193 -37 -563 -3 -795 3 -22 13 -51 23 -65
16 -23 332 -298 872 -758 118 -101 239 -205 269 -231 143 -126 244 -211 252
-211 4 0 8 -67 8 -148 0 -129 2 -151 18 -165 15 -14 93 -16 667 -20 668 -4
654 -3 880 -45 198 -37 189 -37 236 -18 56 22 242 134 334 200 486 348 811
887 902 1495 24 163 24 513 0 671 -73 472 -289 912 -604 1235 -136 139 -313
284 -427 350 -99 57 -153 86 -186 101 -19 8 -57 25 -85 38 -27 13 -72 32 -100
42 -27 9 -54 21 -60 24 -33 23 -293 90 -448 115 -90 15 -432 27 -532 19z m450
-683 c28 -6 73 -17 100 -23 209 -47 497 -190 635 -315 l25 -23 -259 -259 -259
-260 -44 30 c-264 182 -656 180 -927 -6 -21 -14 -40 -25 -42 -23 -1 2 -118
117 -258 257 l-256 255 22 23 c30 32 207 150 284 191 160 83 338 136 559 166
57 8 370 -2 420 -13z m1034 -671 c278 -406 348 -932 184 -1395 -54 -152 -171
-360 -262 -465 l-30 -35 -258 257 -257 257 22 38 c98 162 132 283 132 467 0
188 -36 317 -126 452 l-37 56 259 259 259 260 28 -33 c15 -18 54 -71 86 -118z
m-2224 -117 l256 -252 -41 -71 c-161 -276 -160 -624 4 -874 l43 -64 -262 -262
-262 -262 -55 73 c-84 113 -113 161 -162 261 -83 172 -125 308 -151 497 -54
381 53 787 295 1121 36 49 68 89 72 87 3 -1 122 -115 263 -254z m1696 -1680
l259 -257 -22 -23 c-28 -30 -174 -129 -259 -177 -248 -137 -588 -211 -853
-186 -333 32 -612 140 -858 332 l-57 44 257 257 c142 141 261 257 265 257 5 0
28 -13 51 -29 151 -104 371 -151 566 -121 36 6 85 15 110 22 57 14 194 78 240
112 19 14 37 25 38 26 2 0 121 -116 263 -257z"/>
<path d="M10615 11139 c-913 -3 -1823 -7 -2022 -8 l-362 -1 -138 -122 c-75
-68 -245 -219 -378 -337 -132 -117 -256 -228 -275 -245 -19 -17 -161 -143
-315 -280 -154 -136 -293 -261 -308 -278 -26 -27 -28 -34 -25 -106 l3 -77 305
-5 305 -5 -302 -3 -303 -2 2 -22 2 -23 2095 -3 c1153 -2 2719 -1 3480 3 l1384
7 24 24 c20 20 23 33 23 97 0 60 -4 80 -20 98 l-19 24 -1 -80 c0 -44 -4 -85
-8 -91 -9 -13 -54 -26 -46 -13 3 5 12 9 20 9 11 0 14 18 14 84 l0 84 -65 56
c-35 32 -64 62 -62 68 1 6 -6 12 -16 13 -24 4 -192 156 -191 172 1 7 -3 10 -8
7 -5 -3 -39 21 -76 53 -37 33 -79 70 -94 83 -15 13 -25 28 -21 33 3 6 2 7 -4
4 -13 -8 -115 82 -107 95 4 6 2 8 -4 4 -15 -9 -68 42 -64 63 2 12 1 13 -6 3
-7 -10 -22 -2 -60 33 -29 26 -49 52 -45 57 3 7 1 8 -5 4 -15 -9 -303 244 -295
258 3 6 3 8 -2 4 -12 -11 -86 52 -78 65 3 7 3 9 -2 5 -11 -10 -106 72 -98 84
3 6 1 8 -4 5 -13 -8 -93 60 -89 76 1 7 1 8 -2 4 -2 -4 -9 -3 -16 2 -6 5 -23
13 -36 18 -14 4 -772 5 -1685 2z m960 -649 l0 -355 -270 -7 c-148 -4 -733 -7
-1300 -5 l-1030 2 0 355 -1 355 6 -352 c4 -290 7 -351 18 -344 8 5 13 11 13
15 -1 3 -1 147 -1 320 l0 314 408 7 c244 5 752 3 1271 -4 475 -6 865 -10 866
-9 2 2 5 14 7 28 l3 25 -1265 5 -1265 5 1270 0 1270 0 0 -355z m819 238 c72
-67 183 -174 246 -237 116 -116 46 -55 -130 114 -52 50 -129 124 -171 163
l-76 72 -194 -2 -194 -3 1 -280 2 -280 -10 272 c-6 149 -8 279 -5 287 6 14 34
16 203 16 l197 0 131 -122z m-3722 -260 c3 -178 3 -329 1 -335 -4 -10 -121
-13 -542 -12 -458 1 -532 3 -506 14 17 7 59 43 95 79 35 36 68 66 73 66 5 0 4
-7 -3 -15 -24 -28 -4 -15 26 17 25 28 25 30 4 13 -14 -11 4 11 40 48 35 37 68
67 73 67 4 0 5 -4 2 -10 -14 -22 4 -6 80 72 l80 83 -80 -75 c-44 -41 -19 -13
55 63 74 75 140 135 146 133 7 -3 25 10 40 27 l29 32 -35 -30 c-28 -23 -25
-19 10 19 25 26 54 52 65 56 11 5 92 9 181 9 l161 1 5 -322z m3783 150 c94
-89 245 -233 337 -320 142 -135 198 -178 198 -152 0 3 -21 24 -46 47 -86 78
-184 175 -184 183 0 3 37 -29 83 -73 45 -44 101 -97 125 -118 23 -20 42 -41
42 -46 0 -5 -247 -9 -570 -9 l-570 0 2 63 2 62 3 -57 c3 -50 7 -58 23 -58 19
0 20 9 20 320 l0 320 183 0 182 0 170 -162z m-175 -939 c-575 -3 -1884 -6
-2910 -5 -1686 1 -1751 1 -685 6 649 3 1959 5 2910 6 1574 0 1636 -1 685 -7z"/>
<path d="M14500 9519 c-377 -3 -1722 -7 -2990 -8 -1268 -1 -3144 -6 -4170 -11
-1820 -9 -1868 -10 -2005 -30 -77 -12 -180 -30 -230 -42 -49 -11 -106 -24
-125 -28 -41 -9 -133 -34 -210 -57 -30 -9 -66 -15 -80 -14 -14 2 -22 0 -18 -5
5 -4 -49 -28 -120 -54 -403 -147 -678 -304 -867 -494 -113 -114 -168 -206
-185 -310 -9 -59 -6 -308 5 -369 6 -31 14 -95 19 -148 2 -14 6 -31 10 -37 4
-7 4 -17 0 -24 -5 -7 -3 -8 6 -3 10 6 11 2 6 -19 -5 -20 -4 -26 5 -20 9 5 10
1 7 -14 -4 -12 -2 -22 2 -22 5 0 12 -10 15 -22 4 -13 23 -58 41 -101 19 -43
31 -83 28 -89 -4 -7 -2 -8 4 -4 14 8 36 -30 26 -46 -4 -7 -3 -8 4 -4 13 8 35
-28 24 -39 -4 -5 -2 -5 4 -2 12 7 138 -116 129 -125 -4 -3 2 -5 12 -4 10 0 17
-5 15 -12 -1 -6 1 -11 5 -11 21 3 34 -2 28 -11 -4 -6 -3 -10 2 -9 20 3 34 -2
28 -11 -3 -5 0 -7 8 -5 7 3 38 -6 67 -19 30 -14 87 -33 127 -43 40 -9 68 -20
62 -24 -25 -15 11703 4 12161 20 270 10 306 17 457 91 225 111 356 301 424
612 28 133 46 407 31 499 -16 106 -73 215 -166 315 -72 78 -217 197 -281 229
-16 9 -52 29 -80 46 -76 46 -299 153 -410 197 -157 62 -264 99 -415 142 -120
34 -131 37 -210 55 -41 10 -84 21 -95 25 -11 5 -27 8 -35 8 -8 0 -31 3 -50 6
-61 11 -94 17 -123 21 -15 3 -39 7 -55 9 -15 3 -58 6 -96 7 -43 1 -64 4 -55
10 8 5 10 8 4 7 -5 -1 -318 -5 -695 -9z"/>
</g>
</svg>
