<?xml version="1.0" standalone="no"?>
<!DOCTYPE svg PUBLIC "-//W3C//DTD SVG 20010904//EN"
 "http://www.w3.org/TR/2001/REC-SVG-20010904/DTD/svg10.dtd">
<svg version="1.0" xmlns="http://www.w3.org/2000/svg"
 width="1136.000000pt" height="1136.000000pt" viewBox="0 0 1136.000000 1136.000000"
 preserveAspectRatio="xMidYMid meet">
<metadata>
Created by potrace 1.15, written by Peter Selinger 2001-2017
</metadata>
<g transform="translate(0.000000,1136.000000) scale(0.100000,-0.100000)"
fill="#000000" stroke="none">
<path d="M4538 7536 l-245 -155 -172 -3 -173 -3 -34 -37 -34 -38 0 -230 c0
-265 2 -275 75 -310 l45 -22 0 -1706 0 -1707 30 -84 c63 -180 179 -299 353
-363 70 -26 96 -31 182 -31 67 0 120 5 160 17 182 53 338 207 391 386 l15 50
103 0 103 0 6 -33 c19 -116 153 -287 275 -350 108 -56 165 -71 272 -71 111 1
186 19 279 71 122 68 236 212 270 341 l12 42 104 0 c100 0 105 -1 105 -21 0
-12 17 -58 39 -103 95 -203 291 -330 511 -330 199 1 366 90 473 252 61 92 87
170 94 273 6 85 -11 219 -27 219 -4 0 -26 -25 -49 -55 -35 -47 -41 -61 -36
-86 10 -46 -14 -167 -47 -237 -133 -283 -524 -339 -738 -105 -92 100 -126 202
-117 342 15 208 170 376 380 412 72 12 168 1 235 -27 40 -17 41 -16 77 36 33
48 34 48 -65 82 -52 18 -87 23 -170 23 -58 0 -121 -3 -140 -7 l-35 -7 30 16
c45 24 64 43 104 103 l36 55 3 740 c3 716 -2 897 -28 943 -5 9 -21 53 -36 97
-25 77 -60 154 -73 165 -3 3 -24 32 -46 65 -52 79 -163 187 -250 243 -38 25
-72 49 -75 53 -16 22 -266 105 -352 116 l-38 5 0 73 c0 71 1 73 28 80 40 10
108 55 125 84 9 14 25 36 37 49 11 12 28 51 37 87 35 143 -30 286 -162 357
-108 57 -245 49 -349 -22 -34 -24 -95 -106 -113 -154 -15 -41 -16 -164 -1
-207 6 -19 33 -62 61 -96 37 -46 63 -67 103 -85 l54 -23 0 -72 c0 -66 -2 -73
-20 -73 -32 0 -234 -58 -291 -83 -94 -42 -231 -141 -310 -224 -107 -112 -176
-229 -221 -372 -11 -36 -25 -77 -32 -90 -16 -34 -16 -1679 0 -1689 6 -4 19
-22 28 -40 22 -42 86 -88 149 -107 28 -8 91 -15 141 -15 l91 -1 -60 -32 c-72
-39 -171 -133 -211 -202 -16 -27 -39 -79 -51 -115 l-22 -65 -99 -3 -99 -3 -22
67 c-28 85 -61 141 -123 209 -63 70 -150 127 -235 157 -93 32 -278 32 -365 0
-66 -24 -150 -76 -207 -128 l-41 -36 0 1476 0 1476 84 0 84 0 244 -150 c157
-97 253 -150 270 -150 15 0 36 10 48 22 19 20 20 34 20 219 l0 196 50 5 c93 9
179 96 188 190 7 75 -5 112 -53 166 -47 52 -108 82 -167 82 l-28 0 0 168 c0
151 -2 171 -18 185 -39 36 -69 23 -324 -137z m210 -694 l-3 -218 -182 110
-182 111 0 215 0 215 182 111 182 111 3 -218 c1 -121 1 -317 0 -437z m-498
343 l0 -55 -120 0 -120 0 0 55 0 55 120 0 120 0 0 -55z m701 -18 c66 -51 37
-157 -43 -157 l-28 0 0 85 0 85 28 0 c15 0 34 -6 43 -13z m1358 -22 c34 -17
71 -87 71 -133 0 -97 -86 -166 -185 -148 -61 12 -107 74 -107 146 0 39 6 60
28 91 16 23 37 45 49 49 33 14 114 11 144 -5z m-2059 -210 l0 -55 -120 0 -120
0 0 55 0 55 120 0 120 0 0 -55z m2210 -575 c41 -12 77 -24 80 -28 3 -4 38 -23
79 -42 41 -19 92 -52 115 -73 22 -21 51 -46 64 -54 50 -34 164 -211 199 -308
28 -79 43 -200 43 -357 l0 -158 -811 0 -812 0 6 188 c6 229 24 310 96 440 43
75 79 121 157 198 67 67 102 92 186 134 141 71 234 91 398 86 87 -3 148 -11
200 -26z m578 -1700 l-3 -499 -23 -23 -23 -23 -742 -3 c-557 -2 -749 1 -771
10 -55 22 -56 32 -56 558 l0 480 810 0 811 0 -3 -500z m-93 -748 c-133 -70
-262 -233 -281 -354 l-7 -38 -102 0 -103 0 -7 33 c-25 119 -146 279 -266 349
l-63 38 439 3 c242 1 445 3 450 4 6 1 -21 -14 -60 -35z m-2284 -56 c141 -30
262 -126 321 -253 27 -59 32 -82 36 -170 6 -144 -30 -242 -124 -337 -174 -178
-454 -182 -634 -10 -36 34 -72 81 -90 117 -29 59 -30 64 -30 209 0 146 0 150
31 210 58 115 175 205 302 233 81 17 108 18 188 1z m1322 -1 c323 -68 469
-447 274 -712 -164 -224 -498 -245 -689 -45 -97 101 -134 202 -126 344 5 73
11 99 41 163 62 129 175 221 310 250 81 18 108 18 190 0z"/>
<path d="M6111 6040 c-60 -22 -70 -29 -120 -84 -74 -80 -94 -130 -93 -231 1
-61 21 -142 41 -167 6 -7 22 -28 37 -46 14 -18 47 -44 73 -59 25 -15 48 -30
51 -34 12 -17 105 -31 166 -26 109 10 227 98 277 207 30 63 30 196 1 260 -33
72 -119 154 -187 179 -74 27 -172 27 -246 1z m210 -95 c110 -39 167 -158 135
-281 -12 -49 -23 -67 -63 -102 -50 -46 -67 -55 -120 -67 l-33 -7 0 236 c0 267
-6 251 81 221z"/>
<path d="M4505 3563 c-68 -36 -97 -82 -97 -154 0 -145 175 -218 278 -115 64
64 69 157 11 223 -54 61 -130 79 -192 46z"/>
<path d="M5838 3560 c-103 -55 -125 -183 -44 -264 83 -82 213 -61 266 45 34
66 21 138 -36 191 -55 51 -122 61 -186 28z"/>
<path d="M6140 7550 l0 -140 90 0 90 0 0 140 0 140 -90 0 -90 0 0 -140z"/>
<path d="M5742 7497 c-29 -29 -52 -56 -52 -59 0 -11 193 -199 201 -196 17 7
109 100 109 111 0 14 -183 197 -197 197 -5 0 -32 -24 -61 -53z"/>
<path d="M6557 7455 c-53 -52 -97 -98 -97 -102 0 -7 110 -113 117 -113 7 0
193 190 193 197 0 9 -102 113 -111 113 -3 0 -49 -43 -102 -95z"/>
<path d="M5547 7093 c-4 -3 -7 -42 -7 -85 l0 -78 145 0 145 0 0 85 0 85 -138
0 c-76 0 -142 -3 -145 -7z"/>
<path d="M6637 7093 c-4 -3 -7 -42 -7 -85 l0 -78 145 0 145 0 0 85 0 85 -138
0 c-76 0 -142 -3 -145 -7z"/>
<path d="M4987 5416 c-3 -7 -34 -35 -69 -62 -35 -27 -70 -56 -78 -65 -8 -9
-35 -31 -60 -50 -98 -73 -91 -46 -88 -305 l3 -229 93 -3 92 -3 0 200 0 200 60
43 c33 23 60 45 60 50 0 4 27 26 60 50 33 23 60 45 60 49 0 4 -22 34 -50 65
-27 31 -50 61 -50 66 0 14 -27 9 -33 -6z"/>
<path d="M7440 5417 c0 -7 -20 -33 -45 -57 -25 -24 -45 -52 -45 -61 0 -9 17
-29 38 -44 20 -16 51 -41 67 -56 17 -16 52 -45 78 -66 l49 -38 -1 -197 -2
-198 96 0 95 0 0 236 c0 175 -3 238 -12 247 -7 7 -40 32 -73 56 -33 24 -67 51
-75 61 -8 9 -43 38 -77 64 -35 26 -63 51 -63 57 0 5 -7 9 -15 9 -8 0 -15 -6
-15 -13z"/>
<path d="M4615 4641 c-40 -17 -113 -98 -124 -137 -6 -22 -11 -110 -11 -196 l0
-158 90 0 89 0 3 158 3 157 125 0 125 0 3 -157 3 -158 89 0 90 0 0 168 c-1
194 -6 212 -84 283 l-49 44 -166 2 c-91 1 -175 -1 -186 -6z"/>
<path d="M7502 4639 c-13 -5 -45 -29 -72 -55 -62 -59 -70 -91 -70 -284 l0
-151 93 3 92 3 5 155 5 155 114 3 c75 2 118 -1 127 -9 11 -9 14 -45 14 -160
l0 -149 85 0 85 0 0 168 c0 141 -3 173 -19 207 -20 44 -77 100 -117 115 -32
13 -311 12 -342 -1z"/>
<path d="M7656 3968 c-13 -13 -116 -147 -229 -299 l-204 -276 -108 81 c-93 69
-114 81 -148 81 -69 0 -120 -84 -87 -145 8 -16 370 -290 383 -290 3 0 127 164
276 364 261 350 271 365 271 409 0 38 -5 49 -31 71 -39 33 -89 34 -123 4z"/>
</g>
</svg>
