<?xml version="1.0" standalone="no"?>
<!DOCTYPE svg PUBLIC "-//W3C//DTD SVG 20010904//EN"
 "http://www.w3.org/TR/2001/REC-SVG-20010904/DTD/svg10.dtd">
<svg version="1.0" xmlns="http://www.w3.org/2000/svg"
 width="1000.000000pt" height="1000.000000pt" viewBox="0 0 1000.000000 1000.000000"
 preserveAspectRatio="xMidYMid meet">
<metadata>
Created by potrace 1.15, written by Peter Selinger 2001-2017
</metadata>
<g transform="translate(0.000000,1000.000000) scale(0.100000,-0.100000)"
fill="#000000" stroke="none">
<path d="M3573 9111 c-24 -17 -47 -31 -51 -31 -12 0 -62 -54 -62 -68 0 -6 -6
-15 -12 -19 -7 -4 -22 -24 -32 -43 -11 -19 -24 -43 -30 -53 -8 -13 -7 -20 4
-28 11 -8 12 -12 3 -16 -7 -2 -13 -11 -13 -19 0 -9 5 -12 10 -9 6 4 10 -7 10
-24 0 -17 -4 -31 -10 -31 -20 0 -10 -57 20 -115 33 -64 78 -118 92 -109 4 3 8
-2 8 -10 0 -9 7 -16 15 -16 8 0 15 -4 15 -10 0 -5 7 -10 15 -10 13 0 15 -23
15 -150 l0 -150 149 0 150 0 -3 133 -2 132 35 32 c20 18 41 33 46 33 6 0 17
10 25 22 8 11 23 28 33 37 9 8 17 24 17 34 0 10 4 16 9 13 5 -3 12 10 15 29 4
19 10 35 14 35 10 0 11 174 1 180 -5 3 -10 16 -12 29 -2 12 -8 26 -14 29 -5 4
-13 22 -16 40 -8 37 -71 102 -132 134 -32 17 -63 22 -155 25 l-115 5 -42 -31z"/>
<path d="M3510 8077 c0 -9 -25 -13 -98 -12 -59 0 -105 -5 -113 -11 -8 -6 -35
-15 -61 -18 -27 -4 -48 -11 -48 -17 0 -5 -11 -9 -25 -9 -14 0 -25 -4 -25 -9 0
-5 -20 -12 -45 -15 -27 -4 -45 -12 -45 -20 0 -9 -9 -12 -25 -8 -16 3 -25 0
-25 -8 0 -7 -7 -10 -16 -6 -8 3 -13 2 -9 -3 3 -5 -13 -12 -35 -16 -22 -4 -40
-11 -40 -16 0 -5 -5 -9 -11 -9 -18 0 -99 -40 -99 -49 0 -5 -12 -12 -27 -16
-15 -3 -30 -10 -33 -13 -3 -4 -27 -23 -55 -42 -27 -19 -51 -38 -53 -42 -2 -4
-9 -8 -16 -8 -17 0 -58 -45 -49 -53 3 -4 -5 -7 -18 -7 -23 0 -59 -30 -59 -49
0 -5 -9 -11 -21 -14 -12 -3 -18 -10 -15 -16 3 -5 -6 -12 -21 -16 -16 -4 -41
-23 -58 -47 -16 -22 -45 -55 -64 -74 -19 -19 -30 -34 -25 -35 5 0 -1 -4 -13
-9 -20 -8 -29 -27 -24 -53 1 -5 -3 -5 -9 -2 -7 4 -14 -2 -17 -14 -3 -11 -9
-18 -14 -15 -5 3 -12 -3 -16 -13 -4 -10 -16 -27 -28 -38 -12 -11 -24 -27 -28
-35 -17 -34 -36 -63 -44 -69 -12 -8 -76 -141 -76 -157 0 -7 -5 -12 -11 -11 -6
1 -12 -9 -14 -23 -2 -14 -8 -28 -14 -31 -5 -3 -12 -25 -15 -48 -3 -25 -11 -41
-19 -41 -8 0 -13 -8 -12 -17 1 -10 0 -31 -1 -48 -3 -30 -3 -30 -11 -5 l-8 25
-3 -25 c-1 -14 -2 -32 -1 -39 0 -8 -5 -20 -13 -25 -7 -6 -15 -30 -19 -54 -4
-24 -11 -51 -16 -60 -9 -17 -25 -106 -23 -129 0 -7 -3 -10 -8 -7 -5 3 -9 -35
-9 -85 0 -49 -4 -93 -10 -96 -5 -3 -10 -24 -10 -46 0 -21 5 -39 10 -39 6 0 10
-7 10 -16 0 -8 -5 -12 -10 -9 -15 10 -13 -378 2 -393 9 -9 9 -12 -1 -12 -10 0
-12 -29 -9 -125 3 -118 2 -126 -17 -131 -41 -12 -95 -38 -95 -46 0 -4 -13 -8
-30 -8 l-30 0 0 431 c0 286 3 428 10 424 6 -3 13 1 16 9 3 8 15 18 26 22 23 7
59 40 51 47 -2 3 4 8 15 11 10 4 28 23 38 44 10 20 24 40 29 44 6 4 10 61 10
135 0 110 -3 134 -22 173 -25 53 -91 125 -125 135 -12 4 -26 12 -30 18 -3 6
-22 11 -42 11 -22 1 -36 6 -36 14 0 8 -20 12 -65 12 -51 0 -65 -3 -65 -15 0
-8 -4 -15 -10 -15 -5 0 -10 4 -10 10 0 10 -32 1 -90 -28 -42 -20 -120 -91
-120 -109 0 -7 -4 -13 -9 -13 -5 0 -12 -13 -16 -30 -4 -16 -11 -30 -16 -30 -5
0 -9 -8 -9 -17 0 -15 2 -16 10 -3 8 12 10 9 10 -12 0 -17 -5 -28 -14 -28 -18
0 -18 -127 1 -134 7 -3 13 -15 13 -26 0 -12 -4 -18 -10 -15 -16 10 -12 -11 5
-25 8 -7 15 -19 15 -26 0 -8 4 -14 9 -14 5 0 11 -9 14 -21 4 -13 10 -18 18
-13 8 5 10 3 5 -5 -5 -8 0 -14 13 -18 11 -3 18 -9 15 -14 -3 -5 3 -12 13 -16
10 -4 24 -13 31 -20 7 -7 20 -13 27 -13 12 0 14 -127 17 -790 2 -586 6 -793
15 -798 6 -4 15 -25 19 -47 6 -32 9 -36 15 -20 6 16 8 14 8 -12 1 -22 6 -33
16 -33 8 0 15 -5 15 -11 0 -5 -4 -7 -10 -4 -19 12 -10 -8 15 -31 14 -13 25
-27 25 -31 0 -13 114 -123 127 -123 7 0 13 -4 13 -9 0 -5 21 -20 48 -33 26
-13 50 -27 54 -32 3 -5 30 -11 60 -14 l53 -4 1 -272 c0 -269 12 -386 39 -386
5 0 11 -17 13 -37 1 -20 6 -40 11 -43 5 -3 13 -17 16 -33 4 -15 11 -25 15 -22
4 3 11 -11 14 -30 4 -20 11 -33 15 -30 5 2 12 -11 15 -30 4 -22 13 -35 22 -35
8 0 12 -5 9 -10 -3 -6 1 -13 9 -16 9 -3 16 -12 16 -20 0 -8 6 -14 14 -14 8 0
17 -12 20 -26 8 -29 29 -54 45 -54 6 0 11 -4 11 -10 0 -13 37 -50 50 -50 6 0
10 -6 10 -13 0 -13 63 -77 75 -77 4 0 18 -10 29 -22 26 -27 54 -46 79 -54 9
-4 17 -10 17 -14 0 -5 14 -11 30 -15 17 -4 30 -10 30 -15 0 -4 12 -11 27 -15
15 -3 31 -11 34 -17 3 -5 25 -12 48 -15 22 -3 41 -9 41 -14 0 -4 17 -11 38
-14 20 -3 46 -11 56 -17 10 -5 90 -12 178 -15 87 -4 161 -10 164 -15 8 -12 51
-10 74 4 16 10 24 10 40 0 25 -16 1275 -18 1285 -2 8 13 92 13 100 0 4 -7 11
-7 18 -2 7 5 70 12 142 16 71 4 132 10 135 15 3 5 26 12 53 16 26 4 47 11 47
15 0 4 16 11 35 14 19 4 35 11 35 16 0 4 14 11 30 15 17 4 30 11 30 16 0 5 11
9 24 9 13 0 29 7 36 15 7 8 18 15 24 15 6 0 26 14 45 30 18 17 38 30 43 30 4
0 29 21 53 47 28 29 45 41 45 31 0 -9 4 -18 9 -20 5 -1 1 -21 -9 -43 -18 -37
-19 -69 -20 -507 l0 -468 -1545 0 -1545 0 0 440 c0 244 -4 440 -9 440 -5 0
-11 23 -13 52 -3 29 -11 54 -17 56 -6 2 -11 10 -11 18 0 8 -6 14 -14 14 -7 0
-16 9 -19 21 -4 13 -10 18 -18 13 -7 -4 -10 -3 -6 3 9 14 -53 70 -85 78 -16 4
-28 11 -28 16 0 5 -10 9 -22 8 -22 0 -22 -1 -3 -9 18 -8 17 -9 -7 -9 -19 -1
-28 4 -28 14 0 13 -38 15 -285 15 -245 0 -286 -2 -291 -15 -4 -8 -16 -15 -28
-14 -20 0 -20 1 -1 9 l20 9 -20 -1 c-11 0 -38 -10 -60 -24 -22 -13 -48 -26
-57 -30 -10 -3 -18 -13 -18 -21 0 -8 -4 -12 -9 -9 -5 4 -12 -7 -16 -24 -4 -17
-11 -28 -16 -24 -5 3 -12 -3 -16 -13 -4 -10 -10 -20 -13 -23 -4 -3 -12 -19
-18 -37 -8 -24 -8 -33 1 -37 7 -2 5 -5 -5 -5 -15 -1 -16 -32 -16 -363 0 -619
0 -598 -19 -598 -9 0 -13 -3 -10 -7 8 -8 -12 -35 -22 -29 -4 3 -8 -4 -8 -15
-2 -23 25 -26 33 -4 4 8 10 15 15 15 4 0 9 -258 11 -572 3 -531 5 -575 21
-605 10 -18 23 -33 28 -33 5 0 9 -5 9 -11 0 -6 14 -24 30 -41 17 -16 30 -33
30 -38 0 -5 10 -12 22 -16 12 -3 28 -13 36 -20 7 -8 24 -14 37 -14 13 0 27 -4
30 -10 8 -14 625 -14 625 0 0 6 12 10 28 10 49 0 165 93 177 143 4 14 13 28
21 31 9 3 14 20 14 46 0 22 5 40 10 40 7 0 10 162 10 465 l0 465 1544 0 1545
0 3 -477 c3 -475 4 -478 26 -521 13 -24 29 -45 37 -49 8 -3 15 -11 15 -18 0
-15 45 -65 60 -65 5 0 10 -4 10 -8 0 -5 19 -17 43 -28 39 -18 67 -19 385 -19
241 0 345 3 350 11 4 6 17 14 30 18 12 4 22 12 22 17 0 5 5 9 10 9 14 0 90 80
90 95 0 8 5 15 11 17 5 2 13 22 16 46 3 23 10 42 14 42 5 0 9 460 9 1044 0
826 -3 1046 -12 1050 -10 5 -10 7 0 12 17 8 15 43 -3 50 -8 4 -15 13 -15 21 0
9 -11 26 -24 38 -13 12 -27 32 -30 43 -4 12 -18 25 -32 28 -13 3 -24 12 -24
20 0 8 -9 14 -19 14 -11 0 -21 5 -23 12 -2 6 -31 13 -66 16 -34 2 -62 8 -62
13 0 5 -121 9 -270 9 -148 0 -270 -4 -270 -9 0 -4 -23 -11 -51 -14 -36 -5 -58
-13 -73 -30 -13 -14 -31 -27 -42 -31 -10 -3 -30 -22 -43 -41 -18 -26 -26 -32
-32 -23 -13 19 -11 28 6 28 8 0 15 4 15 9 0 6 20 30 45 55 25 26 45 51 45 57
0 5 11 20 24 32 14 13 28 35 31 49 4 15 13 29 21 32 8 3 14 12 14 21 0 8 4 15
10 15 5 0 12 16 16 35 3 19 10 35 15 35 4 0 11 16 15 35 3 19 10 35 15 35 5 0
9 11 9 24 0 14 4 28 10 31 6 3 10 17 10 30 0 29 19 43 31 24 22 -37 43 -59 55
-59 8 0 14 -4 14 -10 0 -5 6 -10 13 -10 6 -1 30 -9 52 -20 22 -11 52 -19 68
-20 15 0 27 -4 27 -9 0 -5 50 -13 110 -16 61 -4 113 -12 116 -16 3 -5 25 -9
50 -9 24 0 44 -4 44 -10 0 -5 6 -10 13 -10 8 0 22 -9 32 -20 10 -11 23 -20 30
-20 6 0 20 -18 31 -40 10 -22 26 -40 33 -40 12 0 12 -3 3 -12 -15 -15 -16
-104 -1 -114 7 -4 9 -20 6 -40 -5 -27 0 -39 24 -65 16 -17 29 -36 29 -42 0
-12 65 -77 78 -77 6 0 12 -7 16 -15 8 -23 46 -19 46 5 0 11 -6 20 -13 20 -8 0
-27 13 -43 30 -16 16 -34 30 -41 30 -6 0 -19 23 -28 51 -10 28 -23 53 -30 55
-7 3 -13 21 -13 42 0 41 -10 109 -19 132 -4 8 -5 19 -4 24 3 14 -20 66 -30 66
-5 0 -9 6 -9 13 0 18 -68 52 -96 49 -15 -2 -24 2 -24 10 0 10 -25 18 -89 26
-107 15 -114 15 -106 2 3 -5 1 -10 -4 -10 -6 0 -11 7 -11 15 0 11 -11 15 -35
15 -36 0 -138 30 -185 55 -31 17 -78 61 -106 101 -18 25 -23 51 -29 157 -8
138 -3 157 41 157 29 0 31 15 4 30 -18 9 -20 21 -20 93 l0 82 60 19 c33 10 60
22 60 27 0 5 7 9 15 9 9 0 18 6 21 14 3 8 17 17 31 21 29 7 38 14 99 75 24 24
44 50 44 57 0 7 5 13 10 13 6 0 15 10 20 23 6 12 21 40 35 62 13 22 24 52 25
68 0 15 4 27 9 27 5 0 11 22 15 49 4 27 12 52 19 55 9 5 9 7 0 12 -10 4 -13
156 -13 708 0 548 3 705 13 715 10 11 10 14 0 18 -18 6 -16 23 1 23 8 0 21 6
28 13 7 7 21 16 31 20 11 4 21 16 24 26 3 11 12 21 22 24 9 2 25 21 36 43 11
21 25 42 30 46 14 10 13 277 -1 286 -6 4 -15 17 -18 30 -4 13 -23 38 -42 57
-19 19 -34 42 -34 50 0 12 -6 15 -19 10 -11 -3 -25 1 -34 9 -8 8 -26 18 -41
22 -14 3 -29 10 -32 15 -3 5 -20 9 -37 9 -53 0 -79 11 -73 29 5 13 4 13 -8 -1
-7 -10 -25 -18 -40 -18 -14 0 -26 -6 -26 -12 0 -8 -15 -13 -37 -14 -20 0 -39
-6 -41 -12 -2 -7 -9 -12 -16 -12 -18 0 -58 -45 -49 -55 5 -4 2 -5 -5 -1 -13 8
-68 -46 -78 -76 -3 -10 -9 -18 -14 -18 -5 0 -12 -25 -15 -55 -4 -30 -11 -55
-16 -55 -5 0 -9 -5 -9 -11 0 -5 6 -7 13 -3 6 4 4 -1 -5 -11 -10 -11 -20 -16
-23 -14 -4 5 -10 39 -14 87 0 7 -6 10 -11 7 -6 -4 -9 -3 -8 2 4 15 -13 82 -27
110 -8 15 -15 36 -15 46 0 9 -4 17 -9 17 -5 0 -12 12 -16 28 -3 15 -13 34 -21
43 -8 9 -14 23 -12 30 2 8 -3 13 -10 11 -8 -1 -11 1 -8 6 3 5 -2 20 -12 33 -9
13 -18 33 -20 44 -1 11 -9 23 -17 28 -8 4 -15 15 -15 22 0 8 -4 15 -9 15 -5 0
-12 11 -15 25 -4 14 -11 25 -16 25 -6 0 -10 7 -10 15 0 9 -7 18 -15 21 -8 4
-15 12 -15 20 0 8 -7 22 -15 32 -9 9 -29 34 -46 55 -17 20 -36 37 -43 37 -6 0
-12 8 -13 18 -2 19 -174 202 -190 202 -5 0 -22 14 -38 30 -16 17 -34 30 -40
30 -6 0 -18 9 -28 20 -9 11 -24 20 -32 20 -8 0 -15 4 -15 9 0 10 -101 78 -159
107 -23 12 -47 27 -51 34 -4 7 -29 14 -55 16 -48 4 -75 13 -39 15 16 0 15 2
-4 10 -13 5 -28 7 -33 3 -5 -3 -9 0 -9 5 0 6 -7 11 -15 11 -8 0 -15 5 -15 10
0 6 -6 10 -14 10 -7 0 -27 7 -42 15 -16 8 -37 15 -47 15 -9 0 -27 5 -40 12
-48 24 -58 28 -99 34 -24 4 -46 11 -49 17 -4 5 -52 9 -107 9 -77 0 -102 3
-106 14 -8 20 -436 21 -436 1z m296 -605 c-3 -5 50 -12 121 -15 69 -3 129 -10
132 -15 3 -5 37 -13 76 -17 38 -4 73 -11 76 -16 3 -5 23 -12 45 -16 21 -3 41
-10 44 -14 3 -5 16 -10 29 -12 12 -2 26 -9 30 -16 4 -6 17 -13 29 -14 11 0 18
-5 16 -9 -3 -4 3 -8 13 -8 23 -1 115 -45 107 -52 -3 -3 7 -9 21 -12 15 -4 37
-18 49 -31 13 -14 27 -25 32 -25 5 0 36 -27 69 -60 33 -33 66 -60 73 -60 6 0
12 -6 12 -13 0 -15 44 -60 51 -53 3 3 6 -5 6 -17 1 -12 9 -27 18 -33 8 -6 15
-16 15 -23 0 -6 6 -11 13 -11 7 0 14 -11 15 -24 2 -23 13 -55 30 -86 23 -41
31 -60 37 -94 4 -20 11 -39 16 -42 5 -3 9 -18 9 -35 0 -16 5 -29 11 -29 6 0 9
-6 6 -12 -2 -7 0 -24 5 -38 14 -37 12 -388 -2 -405 -8 -10 -8 -19 0 -34 9 -17
8 -21 -5 -21 -13 0 -21 -27 -15 -55 1 -5 -2 -7 -6 -2 -10 10 -54 -32 -48 -47
3 -7 -4 -21 -16 -31 -11 -10 -20 -22 -20 -26 0 -12 -33 -49 -43 -49 -5 0 -15
-7 -24 -16 -9 -8 -22 -13 -29 -10 -7 3 -16 0 -20 -6 -4 -7 -3 -8 4 -4 7 4 12
2 12 -3 0 -6 -9 -11 -20 -11 -11 0 -28 -8 -37 -17 -10 -10 -26 -18 -35 -19
-10 0 -36 -1 -58 -2 -25 -1 -40 -7 -40 -15 0 -11 -151 -13 -822 -15 -664 -1
-823 -3 -829 -14 -7 -10 -9 -9 -9 5 0 14 -9 17 -55 17 -30 0 -55 5 -55 10 0 6
-11 10 -25 10 -14 0 -25 -4 -25 -10 0 -5 -4 -10 -10 -10 -5 0 -10 7 -10 15 0
9 -9 15 -25 15 -14 0 -25 4 -25 9 0 5 -13 12 -30 16 -16 4 -30 11 -30 15 0 5
-16 12 -35 16 -19 3 -33 9 -30 13 2 4 -16 25 -40 47 -25 21 -45 44 -45 50 0 6
-7 17 -15 24 -8 7 -13 16 -10 20 3 4 -3 18 -13 31 -10 13 -19 35 -20 48 0 13
-7 28 -14 32 -19 12 -18 447 1 458 7 4 14 27 15 51 2 23 8 45 14 49 7 4 14 24
17 46 2 21 8 41 13 44 5 3 18 26 31 51 25 51 43 83 52 90 8 8 22 44 20 53 -1
5 3 6 9 2 5 -3 13 1 17 11 3 9 19 30 35 46 15 16 28 33 28 39 0 6 4 8 9 5 5
-3 12 5 15 18 3 14 16 28 28 32 12 4 33 20 47 35 14 16 30 29 36 29 6 0 24 13
40 30 15 16 31 27 35 25 4 -3 19 5 34 16 42 33 153 87 193 95 21 4 41 11 44
16 3 5 23 11 45 15 21 3 42 10 45 15 3 5 32 11 64 14 32 3 64 9 70 14 6 5 66
12 133 16 67 4 119 10 117 14 -3 4 34 8 81 9 49 1 83 -2 80 -7z m1848 -998 c4
-15 19 -39 34 -55 15 -16 40 -42 55 -59 16 -16 35 -30 43 -30 12 0 14 -63 14
-430 0 -280 -3 -430 -10 -430 -5 0 -10 4 -10 9 0 5 -13 12 -30 16 -16 4 -32
11 -35 16 -4 5 -18 9 -33 9 -23 1 -25 2 -9 11 20 12 23 29 3 29 -11 0 -14 79
-18 450 -3 322 -8 454 -16 462 -14 14 -16 28 -3 28 5 0 12 -12 15 -26z m-3614
-881 c0 -5 14 -8 30 -8 17 0 30 3 30 8 0 4 92 7 205 7 129 0 205 -4 205 -10 0
-11 35 -8 46 3 10 10 1834 9 1834 -1 0 -5 7 -9 15 -9 8 0 15 4 15 9 0 4 14 8
31 8 22 0 32 -5 36 -20 5 -19 14 -20 217 -20 116 0 221 -3 234 -6 16 -5 22 -2
22 10 0 14 25 16 235 16 l235 0 0 -1020 0 -1019 -202 -3 c-216 -3 -258 -1
-258 13 0 5 5 9 10 9 15 0 80 64 80 79 0 6 5 11 12 11 23 0 60 53 53 75 -4 11
-9 305 -11 653 -3 585 -5 635 -21 657 -10 14 -28 28 -39 31 -24 6 -34 44 -34
127 0 41 -3 48 -17 45 -15 -3 -19 -16 -21 -71 l-3 -68 46 -46 45 -46 0 -656 0
-657 -57 -56 c-32 -31 -68 -61 -80 -67 -13 -7 -23 -19 -23 -27 0 -14 -132 -15
-1230 -13 -676 1 -1228 5 -1226 8 2 3 -97 5 -220 3 l-224 -3 -2 1018 c-2 668
0 1022 7 1030 11 14 25 17 25 6z m-132 -2502 c7 -4 14 -20 17 -36 4 -24 -1
-37 -25 -62 -27 -30 -70 -47 -55 -23 4 6 -17 10 -55 10 -38 0 -59 -4 -55 -10
4 -7 -62 -10 -189 -10 -137 0 -196 3 -196 11 0 6 -11 20 -25 31 -32 25 -32 43
2 74 l27 25 271 -2 c150 0 277 -4 283 -8z m4226 -7 c22 -21 20 -56 -4 -77 -18
-15 -49 -17 -285 -17 -236 0 -267 2 -285 17 -24 21 -26 56 -4 77 13 14 54 16
289 16 235 0 276 -2 289 -16z m-4524 -263 c0 -12 33 -9 43 4 5 7 10 7 15 0 4
-5 14 -10 22 -10 8 0 18 5 22 10 5 6 8 5 8 -2 0 -10 24 -13 85 -13 92 0 125
-15 125 -55 0 -11 -9 -28 -20 -38 -18 -15 -49 -17 -289 -17 l-268 0 -27 26
c-27 28 -33 44 -16 44 6 0 10 5 10 12 0 6 8 19 18 29 14 15 36 18 145 18 70 1
127 -3 127 -8z m4521 -11 c23 -13 25 -53 3 -74 -13 -14 -54 -16 -289 -16 -235
0 -276 2 -289 16 -9 8 -16 24 -16 34 0 10 7 26 16 34 13 14 53 16 285 16 167
0 278 -4 290 -10z m-3 -302 c35 -18 30 -63 -10 -82 -41 -21 -406 -24 -439 -3
-17 10 -23 10 -26 0 -5 -15 -53 -18 -53 -4 0 5 -12 11 -27 13 -35 4 -44 45
-15 71 16 14 50 17 258 19 257 3 277 2 312 -14z m-4668 1 c0 -5 97 -9 219 -9
190 0 222 -2 236 -16 15 -16 14 -58 -2 -74 -2 -3 -125 -6 -272 -8 -259 -3
-269 -3 -304 18 -44 26 -46 42 -11 75 21 20 36 24 80 24 30 -1 54 -5 54 -10z
m4688 -304 c5 -61 10 -60 -303 -60 -243 0 -287 2 -295 15 -14 22 -12 47 6 64
14 14 52 16 302 14 l287 -3 3 -30z m-4234 6 c12 -13 16 -27 11 -42 -16 -49
-17 -49 -299 -49 -237 0 -268 2 -286 17 -11 10 -20 28 -20 42 0 48 15 50 306
51 255 0 272 -1 288 -19z m4226 -281 c5 -8 10 -26 10 -40 0 -49 -38 -55 -305
-54 -132 1 -253 6 -270 11 -24 7 -31 16 -33 40 -3 25 2 33 30 47 29 14 67 16
296 14 221 -3 264 -5 272 -18z m-4226 -26 c33 -32 3 -84 -38 -68 -9 3 -16 2
-16 -4 0 -6 6 -13 13 -15 6 -3 -104 -6 -245 -6 -257 -1 -257 -1 -282 23 -24
22 -34 64 -19 79 3 4 134 7 289 7 244 0 285 -2 298 -16z m4176 -234 c0 -5 11
-10 24 -10 17 0 26 -7 30 -26 9 -33 -1 -64 -20 -64 -8 0 -14 -4 -14 -10 0 -6
-95 -10 -266 -10 -264 0 -267 0 -286 22 -14 16 -18 31 -14 52 4 16 8 31 10 34
2 2 119 3 260 3 170 -1 256 2 256 9 0 5 5 10 10 10 6 0 10 -4 10 -10z m-4180
-37 c24 -21 26 -56 4 -77 -13 -14 -54 -16 -289 -16 -235 0 -276 2 -289 16 -21
20 -21 74 -1 74 8 0 15 5 15 10 0 6 97 10 270 10 241 0 272 -2 290 -17z m4224
-279 c22 -21 20 -56 -4 -77 -18 -15 -49 -17 -285 -17 -236 0 -267 2 -285 17
-24 21 -26 56 -4 77 23 24 555 24 578 0z m-4242 -6 c48 -23 47 -94 0 -100 -15
-2 -148 -1 -297 2 l-270 5 -3 33 c-2 23 3 40 15 52 17 17 39 19 274 19 184 1
262 -2 281 -11z m4188 -257 c0 -6 15 -11 33 -13 30 -3 32 -5 32 -43 0 -40 0
-40 -42 -43 -24 -2 -43 -7 -43 -13 0 -15 -387 -12 -394 4 -5 10 -7 10 -12 0
-6 -15 -44 -18 -44 -4 0 5 -16 12 -35 15 -32 6 -35 10 -35 42 0 24 5 36 18 40
9 3 24 9 32 14 21 12 490 13 490 1z m-4156 -46 c8 -33 -3 -75 -20 -75 -8 0
-11 6 -8 15 4 10 0 15 -10 15 -11 0 -16 -7 -14 -17 3 -17 -15 -18 -264 -18
-233 0 -314 7 -270 22 17 6 15 43 -2 43 -9 0 -12 7 -9 20 5 19 14 20 298 20
l293 0 6 -25z"/>
<path d="M2806 6701 c-3 -5 -22 -12 -41 -15 -21 -4 -35 -13 -35 -21 0 -8 -6
-14 -12 -12 -7 1 -12 -4 -10 -10 1 -7 -7 -13 -18 -13 -11 0 -20 -5 -20 -10 0
-6 -10 -21 -23 -33 -42 -41 -52 -75 -52 -173 0 -88 2 -94 28 -121 15 -16 27
-33 27 -37 0 -17 61 -67 89 -72 17 -4 28 -10 26 -15 -3 -4 16 -11 42 -15 27
-3 52 -9 57 -12 19 -11 56 -7 56 5 0 7 3 12 8 12 23 -4 52 2 48 10 -3 5 10 12
29 15 20 4 33 11 30 17 -4 5 0 9 7 9 19 0 78 62 78 81 0 8 5 20 12 27 13 13
13 212 0 222 -8 6 -29 37 -39 60 -10 22 -54 60 -69 60 -8 0 -14 4 -14 10 0 5
-16 12 -35 16 -19 3 -35 10 -35 15 0 12 -127 12 -134 0z"/>
<path d="M4516 6702 c-3 -5 -22 -13 -41 -16 -19 -4 -35 -11 -35 -16 0 -6 -6
-10 -14 -10 -18 0 -78 -68 -71 -81 4 -5 -1 -9 -9 -9 -11 0 -18 -13 -22 -41 -5
-27 -10 -36 -15 -27 -6 8 -9 0 -9 -25 0 -28 3 -36 13 -31 10 6 10 4 0 -7 -20
-21 -15 -72 12 -120 14 -24 28 -52 31 -61 4 -10 13 -18 20 -18 8 0 13 -6 12
-12 -2 -7 2 -12 8 -11 7 1 20 -7 29 -17 10 -11 27 -20 37 -20 11 0 17 -4 13
-9 -7 -12 115 -25 164 -17 42 6 101 33 101 46 0 4 9 10 21 13 13 4 18 10 13
18 -4 8 -3 10 5 5 7 -4 15 2 20 16 6 13 10 19 10 13 1 -5 10 8 20 28 23 45 33
206 14 228 -6 8 -13 23 -15 34 -2 11 -10 19 -16 18 -7 -2 -12 7 -12 20 0 23
-39 67 -60 67 -6 0 -18 7 -26 15 -9 8 -26 15 -40 15 -13 0 -24 3 -24 8 0 11
-127 15 -134 4z"/>
<path d="M4350 5405 c0 -8 -4 -15 -10 -15 -5 0 -10 -3 -10 -7 0 -5 95 -7 212
-5 117 2 227 1 245 -3 l33 -6 0 -179 c0 -117 4 -180 10 -180 6 0 14 -8 17 -17
8 -20 28 -43 39 -43 11 0 -5 63 -19 72 -8 5 -13 62 -17 200 l-5 193 -247 3
c-216 2 -248 0 -248 -13z"/>
<path d="M4034 5086 c-3 -8 -11 -13 -18 -10 -7 3 -20 -4 -29 -14 -15 -16 -15
-21 -3 -38 14 -18 15 -18 21 -1 4 9 13 17 21 17 8 0 14 5 14 10 0 6 5 10 10
10 6 0 10 -7 10 -15 0 -8 9 -15 20 -15 11 0 20 7 20 15 0 8 5 15 10 15 6 0 10
-4 10 -9 0 -5 13 -11 29 -14 21 -4 32 -15 39 -37 6 -16 15 -30 20 -30 5 0 7
-12 4 -26 -3 -16 1 -30 9 -35 11 -7 9 -9 -8 -9 -16 0 -23 -8 -28 -30 -4 -16
-12 -30 -20 -30 -19 0 -39 -27 -25 -35 16 -10 80 42 80 65 0 10 4 21 8 24 5 3
5 34 0 68 -11 73 -47 121 -92 121 -14 0 -26 3 -26 8 0 15 -70 10 -76 -5z"/>
<path d="M4223 4465 c-7 -8 -13 -17 -13 -20 0 -10 -28 -35 -39 -35 -6 0 -11 5
-11 10 0 18 -55 10 -73 -10 -18 -22 -23 -85 -7 -95 18 -11 31 5 20 25 -8 14
-7 25 2 40 19 30 35 31 54 3 13 -21 14 -30 5 -45 -9 -15 -8 -20 3 -24 22 -8
38 5 31 26 -3 11 2 31 11 45 l18 27 18 -24 c12 -15 16 -32 12 -50 -4 -21 -2
-28 9 -28 21 0 25 17 16 63 -3 21 -4 47 -2 58 6 20 -11 27 -22 9 -3 -5 -11
-10 -17 -10 -6 0 -6 6 2 15 17 20 0 39 -17 20z"/>
<path d="M3550 4430 c0 -18 -5 -30 -13 -30 -9 0 -14 -15 -15 -45 -2 -32 2 -45
11 -45 21 0 27 11 17 30 -13 24 -2 57 22 63 20 6 48 -12 48 -31 0 -5 7 -9 15
-9 8 0 15 4 15 9 0 5 7 16 15 25 12 12 19 13 30 3 8 -7 15 -19 15 -27 0 -8 5
-11 10 -8 6 3 10 16 10 28 0 16 3 18 9 8 6 -9 11 -10 15 -2 14 23 46 -8 46
-44 0 -35 12 -51 31 -39 8 5 6 10 -5 16 -9 5 -16 13 -16 17 0 13 41 56 51 54
5 -2 9 4 9 13 0 13 -7 15 -30 11 -22 -5 -30 -3 -30 8 0 18 -27 20 -32 3 -3 -8
-27 -11 -70 -10 -56 2 -67 -1 -71 -16 -4 -16 -5 -16 -6 1 -1 11 -9 17 -26 17
-16 0 -25 6 -25 15 0 8 -7 15 -15 15 -10 0 -15 -10 -15 -30z"/>
<path d="M4558 4425 c-6 -14 -17 -25 -25 -25 -10 0 -13 -11 -10 -42 5 -55 31
-59 35 -6 6 71 48 69 56 -3 5 -46 30 -45 34 1 6 58 20 66 56 29 28 -29 29 -32
13 -44 -12 -8 -14 -15 -8 -20 19 -11 31 5 31 39 0 35 21 62 40 51 5 -3 10 -13
10 -21 0 -8 5 -12 10 -9 6 3 10 -3 10 -14 0 -10 -5 -21 -12 -23 -19 -7 -1 -25
32 -31 l30 -6 0 -130 0 -130 -27 -13 c-24 -12 -27 -19 -25 -47 2 -22 0 -31 -7
-26 -6 3 -11 0 -11 -8 0 -16 -40 -12 -51 6 -4 5 -14 5 -27 -2 -11 -6 -30 -11
-41 -11 -18 0 -21 6 -21 39 0 42 -16 63 -27 36 -3 -10 0 -20 6 -25 9 -5 6 -15
-13 -35 -14 -15 -26 -34 -26 -41 0 -20 27 -17 39 4 10 16 10 16 11 0 0 -14 8
-18 35 -18 19 0 35 5 35 10 0 7 6 7 19 0 24 -12 61 -13 61 -1 0 5 9 7 19 4 13
-3 21 2 26 16 4 12 13 20 22 19 9 -2 18 3 20 10 3 6 -2 12 -11 12 -9 0 -16 5
-16 10 0 6 7 10 15 10 8 0 15 7 15 15 0 8 5 15 10 15 6 0 10 10 10 21 0 12 8
28 18 35 15 13 15 15 1 27 -8 6 -15 23 -15 37 0 14 7 30 15 37 14 10 14 12 -1
18 -12 5 -18 18 -18 41 0 19 3 33 8 32 4 -2 7 2 7 7 0 6 -7 10 -15 10 -8 0
-16 8 -18 18 -2 9 -10 17 -18 17 -8 0 -14 7 -14 15 0 8 -4 15 -10 15 -5 0 -9
10 -7 23 1 16 -3 22 -15 21 -11 -1 -18 5 -18 17 0 10 -9 23 -19 29 -16 8 -23
5 -41 -20 -25 -36 -37 -38 -36 -7 1 18 -4 21 -24 19 -52 -7 -84 -4 -88 7 -6
19 -22 12 -34 -14z"/>
<path d="M3011 3908 c-1 -68 -6 -127 -11 -132 -6 -6 -10 -19 -11 -31 0 -11 -3
-14 -6 -7 -2 6 -13 12 -23 12 -10 0 -21 -6 -23 -12 -4 -10 -8 -10 -14 -2 -11
15 -229 19 -238 4 -3 -5 0 -17 9 -25 13 -13 152 -15 1105 -15 963 0 1091 2
1091 15 0 13 -110 15 -934 15 -821 0 -935 2 -940 15 -4 10 1 15 15 15 19 0 20
6 18 115 -1 64 1 119 5 122 14 15 4 33 -18 33 -24 0 -24 0 -25 -122z"/>
<path d="M3896 4023 c-3 -3 -6 -24 -6 -45 0 -33 -3 -38 -23 -38 -12 0 -33 7
-45 16 -19 13 -22 13 -22 1 0 -8 -7 -17 -15 -21 -17 -6 -21 -36 -5 -36 6 0 10
7 10 15 0 8 3 15 6 15 3 0 12 -7 20 -15 9 -8 29 -15 46 -15 23 0 29 4 24 15
-7 19 1 19 20 1 20 -20 164 -20 164 0 0 8 7 14 15 14 8 0 15 -6 15 -14 0 -10
20 -14 85 -14 l84 -1 7 37 c10 62 8 92 -6 92 -5 0 -10 -15 -10 -34 0 -63 -64
-80 -66 -18 -1 42 -19 63 -29 33 -3 -11 -3 -26 0 -31 10 -16 -15 -40 -42 -40
-21 0 -23 4 -21 33 2 41 -10 66 -23 46 -5 -8 -9 -29 -9 -46 0 -29 -3 -33 -28
-33 -15 0 -33 5 -40 12 -8 8 -15 8 -26 -2 -9 -7 -26 -10 -40 -6 -25 6 -45 38
-27 44 13 4 14 29 2 36 -4 3 -11 3 -15 -1z"/>
<path d="M4355 4020 c-5 -8 -8 -26 -7 -41 1 -15 -6 -33 -18 -44 -11 -10 -20
-13 -20 -7 0 7 -4 12 -10 12 -5 0 -10 -9 -10 -20 0 -11 4 -20 10 -20 5 0 7 -7
4 -15 -4 -10 0 -15 11 -15 11 0 15 5 11 15 -4 10 1 15 14 15 11 0 20 7 20 15
0 8 5 15 10 15 6 0 10 -7 10 -15 0 -10 10 -15 31 -15 24 0 30 4 25 15 -4 11 1
15 19 15 18 0 23 -4 19 -15 -5 -11 1 -15 25 -15 21 0 31 5 31 15 0 8 7 15 15
15 11 0 15 12 15 44 0 46 -15 70 -27 41 -3 -10 -1 -20 5 -24 17 -10 -23 -51
-51 -51 -20 0 -24 4 -20 20 7 28 -5 72 -18 64 -6 -3 -9 -15 -6 -25 3 -11 1
-19 -4 -19 -5 0 -9 -9 -9 -20 0 -16 -7 -20 -31 -20 -29 0 -31 2 -26 28 6 36
-6 72 -18 52z"/>
<path d="M5735 3948 c12 -45 30 -74 69 -115 33 -35 49 -44 88 -49 27 -4 51
-11 54 -15 3 -5 34 -9 70 -9 35 0 64 -3 64 -8 0 -4 20 -6 45 -4 28 3 45 0 45
-7 0 -6 18 -11 40 -11 22 0 40 -4 40 -10 0 -5 7 -7 15 -4 8 3 24 -1 37 -10 25
-18 58 -21 58 -6 0 6 -7 10 -15 10 -8 0 -15 4 -15 9 0 5 -19 12 -42 16 -24 4
-48 12 -55 17 -7 5 -39 12 -73 15 -33 3 -60 10 -60 14 0 5 -28 9 -61 9 -47 0
-65 4 -76 18 -10 12 -16 14 -19 5 -3 -7 -18 -12 -32 -12 -17 1 -21 3 -9 6 30
8 19 25 -12 18 -19 -4 -34 -1 -44 9 -9 9 -19 16 -24 16 -8 0 -53 92 -53 110 0
5 -9 10 -21 10 -16 0 -19 -4 -14 -22z"/>
<path d="M6810 3011 c0 -15 10 -19 53 -25 28 -3 67 -6 85 -6 17 0 32 -4 32
-10 0 -5 7 -10 15 -10 9 0 18 -6 21 -14 3 -8 16 -17 29 -20 13 -3 25 -16 29
-31 4 -14 11 -25 16 -25 6 0 10 -22 10 -49 0 -28 4 -52 9 -55 4 -3 6 -28 3
-56 -4 -39 -1 -50 10 -50 10 0 13 -8 10 -30 -3 -24 -1 -30 14 -31 11 0 14 -3
7 -6 -15 -6 -17 -49 -3 -58 6 -3 10 -15 10 -26 0 -10 7 -19 15 -19 10 0 15
-10 15 -30 0 -23 4 -30 20 -30 14 0 18 -5 13 -16 -5 -14 -2 -16 20 -10 14 3
29 2 32 -4 3 -5 -1 -10 -9 -10 -9 0 -16 -4 -16 -8 0 -5 23 -9 51 -9 31 0 55
-6 59 -14 5 -7 35 -15 72 -17 35 -3 65 -8 68 -12 3 -4 26 -10 53 -13 45 -6 47
-6 47 19 0 24 -2 25 -52 24 -29 -2 -60 0 -68 3 -42 15 -70 17 -70 5 0 -8 -4
-7 -10 3 -5 9 -24 22 -42 30 -45 18 -98 55 -128 88 -32 35 -70 114 -70 146 0
13 -4 27 -10 30 -5 3 -10 42 -10 85 0 43 -4 81 -10 85 -5 3 -7 12 -4 19 15 39
-90 151 -132 143 -15 -2 -24 0 -24 8 0 7 -21 15 -52 19 -90 10 -108 8 -108
-13z"/>
<path d="M2915 2810 c-8 -12 4 -90 15 -105 4 -5 10 -22 14 -37 3 -16 11 -28
16 -28 6 0 10 -7 10 -15 0 -8 5 -15 10 -15 6 0 10 -6 10 -13 0 -8 9 -22 20
-32 11 -10 20 -22 20 -28 0 -20 134 -137 157 -137 7 0 13 -4 13 -10 0 -5 12
-13 27 -16 15 -4 34 -13 41 -21 7 -7 22 -13 33 -13 10 0 19 -4 19 -10 0 -5 11
-10 24 -10 13 0 26 -5 28 -10 2 -6 21 -13 43 -17 22 -3 42 -10 45 -14 3 -5 49
-11 103 -15 53 -4 97 -11 97 -15 0 -5 27 -9 60 -9 33 0 60 4 60 8 0 5 46 12
102 15 56 4 104 11 107 16 3 5 27 12 54 16 26 4 50 11 53 16 3 5 16 9 30 9 13
0 24 5 24 10 0 14 27 12 33 -2 3 -10 8 -10 17 -2 8 8 9 14 1 18 -18 12 -12 23
15 30 14 4 31 11 37 17 47 40 118 76 141 72 28 -6 37 13 11 23 -11 5 -12 9 -2
19 6 7 19 23 27 35 8 12 21 28 28 36 6 7 12 17 12 22 0 6 9 8 20 5 11 -3 20 0
20 6 0 6 -7 11 -15 11 -8 0 -15 5 -15 10 0 6 4 10 9 10 5 0 12 12 16 27 3 15
10 30 15 33 4 3 11 28 15 56 l6 51 -47 7 c-82 11 -1572 7 -1579 -4z"/>
<path d="M7276 2771 c-7 -10 11 -121 25 -158 12 -33 78 -103 96 -103 7 0 13
-4 13 -9 0 -5 30 -12 68 -16 37 -3 75 -10 84 -15 28 -16 98 -12 98 4 0 10 -21
16 -75 21 -41 4 -77 11 -81 16 -3 5 -23 9 -44 9 -21 0 -45 7 -54 15 -8 8 -19
15 -25 15 -6 0 -11 7 -11 15 0 8 -6 15 -14 15 -10 0 -17 16 -22 45 -3 25 -12
45 -18 45 -9 0 -11 16 -8 55 4 45 2 55 -11 55 -9 0 -18 -4 -21 -9z"/>
<path d="M7730 2310 c0 -11 7 -20 15 -20 8 0 15 -4 15 -10 0 -5 5 -10 10 -10
6 0 25 -10 43 -22 18 -13 33 -23 33 -23 1 0 5 -10 8 -22 l7 -23 -455 0 c-297
0 -456 -3 -456 -10 0 -7 166 -10 479 -10 l480 0 -9 28 c-11 38 -38 88 -53 99
-13 10 -98 43 -110 43 -4 0 -7 -9 -7 -20z"/>
<path d="M7990 2312 c0 -4 4 -12 9 -17 5 -6 18 -37 29 -70 l21 -60 480 -3
c319 -1 481 1 481 8 0 7 -159 10 -465 10 l-465 0 0 35 c0 18 -6 38 -13 42 -6
4 -18 20 -26 36 -13 24 -51 39 -51 19z"/>
<path d="M6780 2160 c0 -5 -6 -10 -13 -10 -17 0 -77 -53 -77 -68 0 -7 -4 -12
-8 -12 -25 0 -32 -117 -32 -498 0 -218 3 -407 6 -419 19 -70 24 19 24 427 0
288 4 450 10 450 5 0 13 12 16 26 7 29 77 84 106 84 10 0 18 7 18 15 0 9 -9
15 -25 15 -14 0 -25 -4 -25 -10z"/>
<path d="M8070 2045 c-7 -9 -10 -19 -6 -23 7 -7 537 -4 544 3 3 2 2 11 -1 20
-9 23 -518 23 -537 0z"/>
<path d="M8987 2053 c-14 -13 -6 -20 48 -38 l55 -19 0 -413 c0 -404 0 -414
-21 -436 -12 -13 -33 -22 -52 -23 -18 0 -488 -1 -1044 -2 -668 -1 -1013 -5
-1013 -12 0 -7 355 -10 1045 -10 1004 0 1046 1 1075 19 l31 19 -1 438 c-1 402
-2 440 -18 455 -22 22 -69 32 -78 18 -5 -8 -8 -8 -13 0 -4 6 -10 8 -14 4z"/>
<path d="M6820 2030 c-19 -19 -20 -33 -20 -447 0 -236 4 -433 8 -438 28 -40
132 -63 132 -30 0 10 -10 15 -34 15 -19 0 -41 7 -50 15 -8 8 -19 15 -25 15
-14 0 -15 117 -1 125 15 9 13 142 -2 148 -10 4 -9 8 2 16 12 8 12 13 2 23 -14
14 -16 64 -2 73 14 9 12 62 -2 68 -10 4 -10 6 0 6 14 1 16 47 2 56 -5 3 -10
33 -10 66 0 33 4 59 10 59 15 0 12 68 -2 73 -10 4 -10 7 0 18 14 16 16 59 2
59 -26 0 -1 40 33 53 9 3 17 16 17 27 0 26 -33 27 -60 0z"/>
<path d="M8980 1939 c0 -5 -4 -8 -9 -4 -5 3 -12 1 -16 -5 -3 -5 -44 -10 -90
-10 -46 0 -90 -3 -99 -6 -13 -5 -16 -24 -16 -100 0 -111 -6 -107 141 -102 l94
3 0 103 c0 75 3 102 13 102 6 0 12 7 12 15 0 8 -7 15 -15 15 -8 0 -15 -5 -15
-11z"/>
<path d="M7847 1920 c-25 -30 -25 -196 1 -204 9 -3 63 -4 120 -3 75 2 106 7
112 17 13 21 4 172 -12 181 -7 5 -50 9 -95 9 -45 0 -85 5 -88 10 -9 15 -19 12
-38 -10z"/>
<path d="M9243 1933 c-10 -4 -13 -94 -13 -407 l0 -402 -36 -42 c-66 -77 23
-72 -1231 -72 -1048 -1 -1127 1 -1173 17 -28 10 -50 23 -50 29 0 14 -43 54
-58 54 -7 0 -12 -9 -12 -20 0 -11 7 -20 15 -20 8 0 15 -7 15 -16 0 -20 44 -55
90 -71 27 -10 294 -13 1183 -13 994 -1 1147 -3 1147 -16 0 -17 16 -19 26 -2 4
6 2 14 -4 16 -17 5 -15 22 3 22 8 0 27 14 42 31 16 18 34 37 40 44 7 7 15 31
19 54 4 23 10 41 15 41 11 0 12 767 2 773 -5 2 -14 2 -20 0z"/>
<path d="M6928 1842 c-2 -42 -1 -89 0 -103 l4 -27 114 0 113 0 6 31 c4 18 5
64 3 102 l-3 70 -117 2 -116 2 -4 -77z"/>
<path d="M7233 1914 c-16 -7 -18 -174 -3 -174 6 0 10 -7 10 -15 0 -13 16 -15
105 -12 62 1 109 7 116 14 7 7 13 48 15 92 3 68 0 82 -14 90 -18 9 -208 13
-229 5z"/>
<path d="M7538 1898 c-13 -59 -9 -156 6 -171 24 -23 205 -22 227 2 22 23 23
136 2 168 -14 22 -22 23 -123 23 -104 0 -108 -1 -112 -22z"/>
<path d="M8147 1914 c-4 -4 -7 -49 -7 -100 0 -110 -7 -105 140 -101 l95 2 0
100 0 100 -111 3 c-60 1 -113 -1 -117 -4z"/>
<path d="M8460 1905 c0 -8 -4 -15 -10 -15 -15 0 -12 -142 3 -161 10 -13 33
-16 125 -17 l112 0 0 98 c0 80 -3 99 -16 104 -9 3 -60 6 -115 6 -81 0 -99 -3
-99 -15z"/>
<path d="M6930 1570 c0 -91 3 -110 15 -110 8 0 15 5 15 10 0 14 307 13 315 0
5 -8 11 -7 21 1 10 8 14 37 14 110 l0 99 -190 0 -190 0 0 -110z"/>
<path d="M7390 1641 c0 -22 -5 -41 -12 -44 -10 -3 -10 -9 0 -26 6 -11 12 -37
12 -56 l0 -35 115 0 115 0 1 33 c4 112 4 143 1 155 -3 9 -36 12 -118 12 l-114
0 0 -39z"/>
<path d="M7692 1668 c-12 -12 -17 -143 -6 -172 5 -13 24 -16 99 -16 55 0 97
-4 100 -10 5 -8 11 -7 21 1 10 8 14 37 14 110 l0 99 -108 0 c-71 0 -112 -4
-120 -12z"/>
<path d="M7996 1664 c-3 -9 -6 -51 -6 -94 0 -66 3 -81 18 -87 9 -5 63 -7 120
-5 l102 3 0 100 0 99 -114 0 c-95 0 -115 -3 -120 -16z"/>
<path d="M8303 1665 c-8 -9 -13 -45 -13 -100 l0 -85 99 0 c55 0 103 -4 106
-10 4 -6 13 -5 25 3 17 10 20 23 20 94 0 45 -3 88 -6 97 -8 22 -212 23 -231 1z"/>
<path d="M8607 1667 c-2 -7 -5 -52 -6 -100 -1 -72 1 -87 14 -87 8 0 15 -7 15
-15 0 -8 5 -15 10 -15 6 0 13 7 16 15 5 12 34 15 170 15 l164 0 0 100 0 100
-189 0 c-143 0 -190 -3 -194 -13z"/>
<path d="M6928 1343 c-3 -49 -3 -95 -1 -103 3 -12 25 -15 116 -15 63 0 115 4
119 10 9 12 10 157 2 179 -5 13 -25 16 -119 16 l-112 0 -5 -87z"/>
<path d="M7240 1406 c0 -13 -6 -27 -12 -29 -10 -4 -9 -8 2 -17 11 -9 12 -13 3
-17 -7 -2 -13 -16 -13 -29 0 -15 -6 -24 -15 -24 -8 0 -15 -4 -15 -10 0 -5 5
-10 11 -10 18 0 58 -51 52 -67 -3 -7 2 -13 11 -13 10 0 16 7 14 17 -3 14 10
17 87 20 49 3 95 9 101 14 15 12 6 171 -10 181 -6 4 -57 8 -113 8 -102 0 -103
0 -103 -24z"/>
<path d="M7536 1414 c-11 -29 -6 -160 7 -175 10 -12 75 -14 425 -11 l412 3 0
99 0 100 -419 0 c-373 0 -420 -2 -425 -16z"/>
<path d="M8451 1416 c-8 -9 -11 -45 -9 -98 l3 -83 110 -6 c61 -3 116 -3 123
-1 8 3 12 33 12 103 l0 99 -114 0 c-85 0 -116 -3 -125 -14z"/>
<path d="M8763 1424 c-9 -4 -13 -34 -13 -99 l0 -94 103 -3 c149 -4 138 -12
135 101 l-3 96 -105 2 c-58 1 -111 -1 -117 -3z"/>
</g>
</svg>
