<?xml version="1.0" standalone="no"?>
<!DOCTYPE svg PUBLIC "-//W3C//DTD SVG 20010904//EN"
 "http://www.w3.org/TR/2001/REC-SVG-20010904/DTD/svg10.dtd">
<svg version="1.0" xmlns="http://www.w3.org/2000/svg"
 width="1432.000000pt" height="1432.000000pt" viewBox="0 0 1432.000000 1432.000000"
 preserveAspectRatio="xMidYMid meet">
<metadata>
Created by potrace 1.15, written by Peter Selinger 2001-2017
</metadata>
<g transform="translate(0.000000,1432.000000) scale(0.100000,-0.100000)"
fill="#000000" stroke="none">
<path d="M6845 11901 c-11 -5 -72 -12 -135 -16 -63 -3 -119 -9 -125 -13 -5 -3
-48 -10 -95 -14 -146 -13 -224 -24 -253 -36 -16 -7 -41 -12 -56 -12 -15 0 -32
-5 -38 -11 -6 -6 -35 -14 -64 -19 -30 -5 -74 -14 -99 -19 -25 -5 -64 -14 -88
-19 -24 -5 -49 -15 -55 -21 -6 -6 -20 -11 -32 -11 -11 0 -33 -7 -49 -15 -15
-8 -39 -15 -52 -15 -12 0 -26 -4 -29 -10 -3 -5 -19 -10 -34 -10 -16 0 -34 -7
-41 -15 -7 -8 -22 -15 -34 -15 -12 0 -31 -7 -42 -15 -10 -8 -29 -15 -41 -15
-12 0 -25 -4 -28 -10 -3 -5 -15 -10 -26 -10 -18 0 -37 -8 -79 -32 -8 -4 -22
-11 -30 -14 -8 -3 -28 -11 -45 -18 -16 -7 -43 -19 -60 -26 -16 -7 -37 -16 -45
-21 -8 -4 -44 -22 -80 -39 -36 -17 -73 -36 -82 -41 -10 -5 -25 -9 -33 -9 -8 0
-15 -4 -15 -9 0 -10 -23 -24 -90 -56 -19 -9 -42 -21 -50 -26 -8 -5 -22 -12
-30 -16 -8 -4 -17 -10 -20 -13 -3 -4 -32 -22 -65 -40 -33 -18 -62 -36 -65 -40
-3 -4 -30 -22 -60 -41 -30 -18 -57 -36 -60 -39 -3 -4 -32 -24 -65 -45 -33 -21
-80 -55 -105 -76 -26 -22 -51 -39 -58 -39 -6 0 -15 -6 -19 -13 -4 -7 -28 -29
-53 -47 -25 -19 -63 -51 -86 -70 -22 -19 -67 -57 -100 -85 -112 -95 -473 -466
-522 -536 -20 -30 -100 -129 -118 -147 -8 -7 -19 -23 -25 -34 -6 -11 -17 -27
-24 -36 -8 -9 -37 -48 -64 -87 -28 -38 -55 -75 -61 -82 -5 -7 -10 -16 -10 -21
0 -5 -11 -21 -25 -36 -14 -15 -25 -31 -25 -36 0 -11 -62 -104 -72 -108 -5 -2
-8 -10 -8 -18 0 -8 -18 -41 -40 -73 -22 -32 -40 -65 -41 -72 0 -8 -9 -27 -19
-44 -20 -32 -67 -125 -95 -190 -10 -22 -21 -42 -24 -45 -3 -3 -14 -23 -25 -45
-10 -22 -22 -48 -27 -57 -5 -10 -9 -23 -9 -30 0 -11 -27 -73 -66 -151 -8 -16
-14 -40 -14 -53 0 -13 -4 -24 -10 -24 -5 0 -10 -10 -10 -22 0 -19 -23 -79 -51
-130 -5 -10 -9 -29 -9 -42 0 -14 -5 -28 -10 -31 -5 -3 -10 -19 -10 -34 0 -16
-7 -42 -15 -57 -8 -16 -15 -37 -15 -47 0 -10 -5 -28 -12 -40 -6 -12 -16 -42
-20 -67 -5 -25 -14 -67 -19 -95 -6 -27 -13 -72 -16 -100 -3 -27 -11 -59 -19
-70 -8 -11 -14 -36 -14 -57 0 -20 -5 -49 -11 -65 -15 -38 -35 -239 -55 -548
-4 -60 -10 -112 -14 -115 -5 -3 -5 -25 0 -50 4 -25 9 -121 9 -214 1 -92 4
-173 8 -179 3 -6 10 -65 14 -131 11 -179 28 -325 39 -346 5 -10 10 -35 10 -55
0 -20 5 -46 12 -58 7 -12 15 -44 20 -72 4 -27 12 -72 17 -100 6 -27 14 -74 20
-103 6 -30 14 -59 19 -65 6 -7 13 -31 17 -54 4 -24 11 -43 16 -43 5 0 9 -10 9
-22 0 -25 12 -64 51 -169 16 -42 29 -83 29 -92 0 -9 4 -19 10 -22 5 -3 10 -15
10 -26 0 -10 4 -27 9 -37 44 -89 71 -149 71 -160 0 -12 4 -21 33 -77 33 -64
47 -92 77 -155 17 -36 45 -92 62 -125 16 -33 37 -73 45 -90 9 -16 21 -34 27
-40 7 -5 20 -26 29 -46 9 -21 33 -60 52 -89 19 -29 35 -56 35 -60 0 -5 4 -10
8 -12 4 -1 27 -34 51 -73 25 -38 63 -94 85 -124 23 -29 53 -71 67 -93 15 -22
31 -43 36 -47 5 -3 29 -33 53 -66 24 -33 53 -69 65 -81 11 -12 42 -48 70 -80
65 -78 375 -388 444 -445 30 -24 70 -59 90 -78 20 -18 56 -47 81 -64 25 -17
47 -34 50 -38 22 -32 490 -349 515 -349 2 0 21 -12 42 -26 21 -14 54 -33 73
-42 19 -9 39 -22 43 -29 4 -7 14 -13 22 -13 7 0 37 -12 67 -26 29 -15 64 -31
78 -37 14 -6 32 -16 40 -22 8 -7 47 -24 85 -40 39 -15 93 -38 120 -50 28 -13
70 -31 95 -40 25 -9 52 -21 60 -25 9 -4 30 -11 48 -15 18 -3 32 -11 32 -16 0
-5 8 -9 18 -9 18 0 106 -27 134 -41 10 -5 28 -9 40 -9 13 0 32 -7 42 -15 11
-8 32 -15 47 -15 15 0 31 -4 34 -10 3 -5 19 -10 34 -10 16 0 45 -7 64 -15 20
-8 52 -15 71 -15 19 0 38 -4 41 -10 3 -5 26 -10 49 -10 27 0 48 -6 56 -15 8
-9 30 -15 60 -15 26 0 60 -4 76 -10 32 -11 147 -27 294 -42 127 -12 870 -25
892 -15 10 4 50 11 90 15 l73 7 3 432 2 433 44 0 c25 0 57 5 73 11 15 6 55 15
88 20 178 28 265 48 282 65 8 8 27 14 43 14 16 0 32 5 35 10 3 6 21 10 40 10
19 0 36 4 39 9 3 5 20 11 38 14 42 6 105 30 120 45 7 7 22 12 34 12 13 0 26 5
29 10 3 6 15 10 26 10 10 0 27 4 37 9 9 4 35 16 57 26 22 9 47 21 55 26 8 5
22 12 30 15 38 15 67 27 85 37 11 6 58 30 105 54 47 25 99 53 115 63 17 11 46
27 65 37 19 9 58 34 86 55 28 21 54 38 59 38 4 0 31 17 59 39 28 21 74 54 102
72 59 39 158 114 183 138 10 9 48 43 86 76 119 104 194 177 293 285 135 149
153 169 192 220 19 25 43 54 53 65 11 11 44 57 74 102 30 46 58 83 63 83 6 0
17 17 25 37 9 20 33 60 53 88 21 27 46 68 56 90 11 21 34 63 52 92 19 28 34
59 34 68 0 8 5 15 10 15 6 0 10 9 10 20 0 10 6 23 13 27 7 4 21 28 31 53 10
25 29 68 42 96 13 28 24 55 24 59 0 5 6 16 13 24 7 9 19 36 26 61 7 25 18 56
24 70 22 55 40 96 53 123 8 16 14 41 14 57 0 16 5 32 10 35 6 3 10 15 10 27 0
22 27 112 43 143 13 25 31 114 55 275 6 36 15 85 21 110 23 101 32 185 42 396
15 317 -2 657 -42 836 -6 26 -15 73 -20 105 -12 69 -26 150 -37 215 -5 26 -14
54 -21 62 -7 8 -13 32 -14 54 0 23 -6 40 -11 39 -6 -1 -12 9 -13 23 -6 47 -31
127 -68 215 -26 61 -33 81 -50 138 -9 31 -21 57 -26 57 -5 0 -9 8 -9 19 0 10
-7 24 -15 31 -8 7 -15 21 -15 31 0 10 -4 21 -10 24 -5 3 -10 13 -10 22 0 9
-14 38 -30 65 -16 26 -30 54 -30 61 0 6 -9 23 -20 37 -11 14 -20 33 -20 43 0
10 -7 20 -15 23 -8 4 -15 15 -15 25 0 10 -4 19 -9 19 -5 0 -13 10 -16 23 -4
12 -18 36 -31 54 -13 17 -24 35 -24 38 0 3 -11 21 -25 39 -14 18 -25 36 -25
40 0 8 -209 297 -225 311 -6 6 -29 33 -51 60 -119 153 -411 437 -585 570 -131
101 -179 135 -188 135 -6 0 -11 6 -11 14 0 7 -8 16 -17 19 -25 8 -97 50 -101
60 -2 4 -10 7 -18 7 -8 0 -14 5 -14 10 0 6 -10 15 -22 20 -13 5 -45 23 -73 39
-45 27 -162 89 -270 143 -22 11 -52 27 -67 34 -14 8 -33 14 -42 14 -9 0 -16 4
-16 9 0 5 -8 11 -17 14 -52 16 -159 59 -167 67 -6 6 -20 10 -32 10 -13 0 -29
7 -38 15 -8 8 -26 15 -40 15 -14 0 -28 5 -31 10 -3 6 -18 10 -33 10 -15 1 -38
7 -52 15 -14 8 -37 14 -52 15 -15 0 -30 5 -33 10 -3 6 -18 10 -33 10 -15 0
-36 6 -47 14 -11 7 -38 16 -60 19 -22 3 -74 13 -115 22 -41 9 -86 17 -100 18
l-25 2 4 -110 c2 -67 8 -113 15 -117 6 -4 32 -8 57 -8 28 0 51 -6 58 -14 7 -8
31 -16 54 -19 74 -9 230 -52 302 -82 17 -7 50 -19 75 -26 25 -7 56 -18 70 -24
14 -7 43 -20 65 -30 22 -9 48 -21 57 -26 10 -5 22 -9 28 -9 11 0 121 -51 150
-70 8 -5 42 -22 75 -37 33 -15 74 -37 90 -48 17 -12 56 -34 88 -50 31 -16 57
-33 57 -37 0 -4 17 -15 38 -25 36 -17 203 -133 230 -160 7 -7 17 -13 21 -13 8
0 37 -24 191 -158 93 -81 275 -260 306 -302 16 -22 35 -40 42 -40 6 0 12 -3
12 -7 0 -5 16 -26 35 -48 19 -22 35 -45 35 -51 0 -7 11 -19 24 -27 13 -9 34
-33 47 -54 12 -21 38 -56 56 -77 18 -22 33 -43 33 -48 0 -5 11 -21 25 -36 14
-15 25 -31 25 -35 0 -5 11 -23 25 -41 14 -18 25 -36 25 -39 0 -4 15 -28 34
-54 37 -53 66 -110 66 -128 0 -7 6 -15 14 -18 8 -3 26 -32 40 -64 15 -32 31
-66 36 -75 6 -10 10 -25 10 -33 0 -8 3 -15 8 -15 6 0 36 -60 64 -130 6 -14 14
-33 19 -42 5 -10 9 -26 9 -37 0 -11 6 -26 13 -33 7 -7 16 -22 19 -33 4 -11 12
-36 19 -55 6 -19 15 -44 19 -55 4 -11 13 -36 19 -55 7 -19 17 -51 21 -70 15
-62 27 -104 39 -133 6 -16 11 -41 11 -56 0 -15 5 -32 12 -39 12 -12 20 -55 37
-193 4 -36 10 -70 13 -75 4 -5 9 -49 13 -98 4 -50 11 -104 16 -120 12 -41 11
-659 -1 -711 -4 -22 -12 -76 -15 -120 -4 -44 -10 -84 -13 -89 -3 -5 -9 -39
-13 -75 -17 -138 -25 -181 -37 -193 -7 -7 -12 -28 -12 -48 0 -20 -4 -40 -10
-46 -9 -9 -21 -53 -37 -139 -3 -16 -12 -39 -19 -50 -8 -11 -14 -29 -14 -42 0
-12 -4 -25 -10 -28 -5 -3 -10 -16 -10 -29 0 -12 -7 -31 -15 -42 -8 -10 -15
-27 -15 -36 0 -10 -11 -41 -24 -70 -13 -29 -36 -84 -52 -123 -15 -38 -34 -74
-41 -78 -7 -4 -13 -17 -13 -27 0 -10 -4 -22 -10 -25 -5 -3 -10 -14 -10 -24 0
-10 -7 -24 -15 -31 -8 -7 -15 -19 -15 -27 0 -8 -16 -39 -35 -69 -19 -30 -35
-58 -35 -63 0 -5 -7 -14 -15 -21 -8 -7 -15 -19 -15 -27 0 -7 -9 -23 -20 -35
-11 -12 -29 -40 -41 -62 -22 -42 -184 -273 -204 -291 -6 -5 -24 -28 -40 -50
-16 -22 -43 -53 -60 -70 -17 -16 -42 -46 -57 -65 -14 -19 -70 -80 -125 -135
-86 -87 -135 -132 -243 -222 -14 -12 -46 -38 -71 -59 -115 -96 -329 -243 -438
-301 -35 -19 -70 -41 -78 -49 -8 -8 -21 -14 -29 -14 -8 0 -14 -4 -14 -10 0 -5
-7 -10 -14 -10 -8 0 -36 -11 -62 -25 -26 -14 -53 -25 -59 -25 -7 0 -15 -7 -19
-15 -3 -8 -12 -15 -21 -15 -8 0 -23 -4 -33 -9 -9 -5 -30 -14 -47 -21 -16 -7
-45 -19 -63 -28 -19 -9 -41 -17 -50 -18 -9 -2 -18 -8 -20 -13 -2 -6 -10 -11
-18 -11 -23 0 -177 -51 -199 -66 -11 -8 -32 -14 -47 -14 -15 0 -29 -4 -32 -9
-3 -5 -23 -11 -43 -14 -67 -9 -137 -27 -147 -37 -6 -6 -25 -10 -44 -10 -19 0
-48 -6 -65 -14 -18 -8 -57 -17 -87 -20 -30 -3 -72 -8 -92 -11 l-38 -7 0 761 0
761 23 0 c12 1 33 7 47 15 14 8 37 14 52 15 15 0 30 5 33 10 3 6 15 10 26 10
11 0 50 14 87 31 37 17 76 35 87 39 45 18 100 43 105 49 3 4 24 15 47 26 24
11 43 23 43 28 0 4 7 7 15 7 9 0 39 17 68 38 29 21 64 44 80 52 15 7 27 17 27
21 0 5 28 27 63 51 74 50 315 289 377 373 24 33 47 62 51 65 3 3 26 37 49 75
23 39 49 74 56 78 8 4 14 16 14 27 0 10 3 20 8 22 4 2 33 57 65 123 33 66 62
127 67 135 4 9 11 30 15 48 3 18 10 32 15 32 4 0 10 15 13 33 11 70 29 127 38
121 5 -3 9 15 9 39 0 26 6 49 14 56 8 7 16 33 19 59 3 26 11 103 19 172 26
245 3 678 -40 757 -7 12 -12 34 -12 50 -1 15 -7 39 -15 53 -8 14 -14 37 -15
52 0 15 -4 30 -10 33 -5 3 -10 17 -10 30 0 13 -6 36 -14 52 -8 15 -21 44 -29
63 -30 69 -59 135 -68 150 -4 8 -19 35 -31 60 -13 25 -25 47 -28 50 -10 10
-31 45 -36 63 -4 9 -9 17 -13 17 -4 0 -15 17 -26 38 -35 66 -213 278 -315 375
-95 90 -259 222 -311 249 -13 7 -40 24 -59 38 -44 32 -212 120 -265 140 -11 4
-40 16 -65 28 -25 11 -63 25 -85 32 -22 7 -48 16 -57 21 -10 5 -31 9 -47 9
-16 0 -33 6 -39 13 -6 7 -26 14 -44 15 -18 1 -42 6 -53 12 -34 16 -142 30
-314 41 -222 15 -575 -8 -646 -41 -11 -6 -35 -11 -53 -12 -18 -1 -38 -8 -44
-15 -6 -7 -23 -13 -39 -13 -16 0 -37 -4 -47 -9 -9 -5 -35 -14 -57 -21 -22 -7
-60 -21 -85 -32 -25 -12 -54 -24 -65 -28 -11 -4 -42 -19 -70 -33 -27 -14 -78
-40 -112 -57 -34 -17 -75 -41 -90 -54 -15 -12 -35 -25 -43 -28 -25 -10 -181
-128 -259 -197 -123 -109 -177 -169 -329 -361 -15 -19 -36 -52 -47 -72 -11
-21 -23 -38 -27 -38 -5 0 -8 -5 -8 -11 0 -6 -11 -25 -24 -42 -13 -18 -27 -42
-31 -54 -3 -13 -11 -23 -16 -23 -5 0 -9 -8 -9 -19 0 -10 -7 -24 -15 -31 -8 -7
-15 -21 -15 -31 0 -11 -4 -19 -10 -19 -5 0 -10 -7 -10 -15 0 -8 -4 -23 -10
-33 -5 -9 -16 -35 -25 -57 -9 -22 -23 -53 -31 -68 -8 -16 -14 -39 -14 -52 0
-13 -4 -27 -10 -30 -5 -3 -10 -16 -10 -28 0 -12 -7 -35 -15 -51 -8 -15 -15
-43 -15 -61 0 -18 -6 -38 -14 -44 -8 -7 -17 -35 -19 -64 -3 -29 -11 -104 -18
-167 -23 -201 -16 -456 19 -703 4 -31 13 -62 20 -69 7 -7 12 -26 12 -43 0 -17
4 -35 9 -40 6 -6 14 -28 20 -50 5 -22 14 -57 20 -79 5 -21 14 -43 20 -49 6 -6
11 -21 11 -34 0 -13 5 -23 10 -23 6 0 10 -6 10 -12 0 -11 39 -100 61 -138 4
-8 23 -44 40 -80 18 -36 42 -76 55 -90 12 -14 34 -47 49 -75 14 -27 32 -54 38
-60 7 -5 32 -37 56 -70 55 -75 287 -308 363 -363 31 -23 69 -53 84 -67 15 -14
31 -25 37 -25 6 0 33 -17 61 -38 28 -21 68 -46 88 -55 20 -10 40 -22 43 -27 3
-6 14 -10 25 -10 10 0 20 -7 24 -15 3 -8 12 -15 21 -15 8 0 23 -4 33 -9 9 -5
28 -13 42 -19 14 -5 55 -24 92 -41 37 -17 76 -31 87 -31 11 0 23 -4 26 -10 3
-6 18 -10 33 -10 15 -1 38 -7 52 -15 14 -8 35 -14 48 -15 l22 0 0 -761 0 -761
-42 6 c-24 4 -70 10 -103 14 -33 4 -70 13 -82 20 -12 7 -40 12 -62 12 -21 0
-41 5 -43 11 -2 6 -25 13 -51 16 -26 3 -50 10 -53 14 -3 5 -20 9 -39 9 -19 0
-37 5 -40 10 -3 6 -17 10 -30 10 -12 0 -47 11 -77 25 -29 14 -70 28 -91 31
-20 4 -40 11 -43 15 -3 5 -14 9 -24 9 -10 0 -47 14 -82 32 -35 17 -74 35 -88
41 -14 5 -33 13 -42 18 -10 5 -25 9 -33 9 -9 0 -18 7 -21 15 -4 8 -11 15 -17
15 -10 0 -53 19 -154 69 -18 8 -33 18 -33 21 0 3 -26 19 -57 35 -87 45 -384
247 -453 308 -13 12 -34 29 -46 37 -70 48 -307 277 -409 396 -33 38 -62 71
-65 74 -4 3 -19 23 -35 45 -16 22 -34 45 -39 50 -6 6 -31 37 -55 70 -25 33
-48 62 -53 63 -4 2 -8 8 -8 14 0 6 -14 29 -30 52 -47 63 -100 147 -100 157 0
5 -4 9 -10 9 -5 0 -10 8 -10 19 0 10 -7 24 -15 31 -8 7 -15 17 -15 23 0 5 -10
24 -23 41 -12 17 -35 58 -51 91 -15 33 -32 68 -37 77 -5 10 -9 25 -9 33 0 8
-5 15 -10 15 -6 0 -15 11 -20 25 -5 14 -19 44 -30 67 -11 23 -20 48 -20 55 0
7 -4 21 -9 31 -8 16 -17 37 -55 125 -9 21 -16 46 -16 57 0 10 -4 22 -10 25 -5
3 -10 16 -10 29 0 12 -7 31 -15 42 -8 10 -15 29 -15 42 0 12 -4 30 -9 40 -10
20 -29 90 -40 147 -4 22 -13 50 -19 62 -7 12 -12 39 -12 60 0 22 -4 43 -9 49
-5 5 -11 34 -14 64 -3 30 -13 111 -23 180 -27 182 -27 768 0 950 10 69 20 150
23 180 3 30 9 59 14 65 5 5 9 24 9 41 0 18 5 45 11 61 7 15 15 46 20 68 4 22
15 65 25 95 9 30 19 69 21 85 3 17 12 39 19 50 8 11 14 29 14 42 0 12 5 25 10
28 6 3 10 18 10 33 0 15 7 36 15 46 8 11 15 28 15 38 0 10 7 21 15 24 8 4 15
19 15 34 0 16 5 32 10 35 6 3 10 17 10 31 0 13 5 24 10 24 6 0 10 8 11 18 0 9
10 36 22 58 26 49 52 103 79 161 11 23 27 52 37 65 9 13 25 41 35 63 10 22 34
61 52 88 19 26 34 49 34 52 0 11 128 201 143 214 9 7 28 32 42 56 14 24 33 50
43 57 9 7 25 26 35 41 21 32 47 63 97 116 19 20 59 62 88 94 57 61 162 161
253 239 133 115 173 148 180 148 4 0 14 6 21 13 27 27 194 143 231 160 20 10
37 21 37 26 0 4 35 25 78 47 42 21 78 42 80 46 2 4 33 21 70 38 37 17 74 35
82 40 28 18 139 70 150 70 6 0 18 4 28 9 9 5 35 17 57 26 22 10 51 23 65 30
14 6 45 17 70 24 25 7 59 19 75 26 17 7 50 18 75 25 25 7 56 17 70 23 24 9 55
17 154 35 25 5 51 14 58 20 8 6 37 12 66 13 63 3 64 5 60 139 -3 109 8 102
-118 74 -41 -8 -93 -18 -115 -21 -22 -3 -49 -12 -60 -19 -11 -8 -32 -14 -47
-14 -15 0 -30 -4 -33 -10 -3 -5 -18 -10 -33 -10 -15 -1 -38 -7 -52 -15 -14 -8
-37 -14 -52 -15 -15 0 -30 -4 -33 -10 -3 -5 -19 -10 -36 -10 -16 0 -29 -4 -29
-10 0 -5 -12 -12 -27 -16 -16 -3 -51 -17 -80 -30 -28 -13 -57 -24 -64 -24 -19
0 -89 -33 -89 -42 0 -4 -11 -8 -24 -8 -13 0 -29 -7 -36 -15 -7 -8 -20 -15 -29
-16 -9 0 -29 -9 -46 -20 -16 -10 -37 -21 -45 -25 -8 -3 -24 -10 -35 -16 -11
-6 -45 -24 -75 -40 -30 -16 -68 -37 -85 -48 -16 -11 -49 -29 -72 -40 -24 -11
-43 -25 -43 -30 0 -6 -4 -10 -10 -10 -5 0 -34 -16 -64 -35 -30 -19 -60 -35
-66 -35 -5 0 -10 -7 -10 -15 0 -8 -5 -15 -10 -15 -19 0 -265 -189 -364 -280
-149 -137 -348 -342 -411 -425 -16 -21 -38 -47 -48 -57 -26 -28 -247 -334
-247 -344 0 -4 -7 -15 -16 -25 -19 -22 -51 -75 -65 -111 -6 -16 -15 -28 -20
-28 -5 0 -9 -6 -9 -14 0 -7 -7 -19 -15 -26 -8 -7 -15 -21 -15 -31 0 -11 -3
-19 -8 -19 -4 0 -13 -15 -20 -32 -7 -18 -17 -40 -22 -48 -9 -15 -34 -65 -76
-155 -13 -28 -24 -56 -24 -63 0 -6 -4 -12 -9 -12 -5 0 -17 -26 -26 -57 -18
-63 -32 -99 -46 -123 -5 -8 -11 -19 -13 -25 -1 -5 -9 -26 -15 -45 -14 -38 -27
-84 -41 -140 -22 -91 -34 -126 -45 -140 -7 -8 -15 -33 -19 -55 -3 -22 -9 -65
-15 -95 -5 -30 -14 -86 -20 -125 -7 -38 -16 -83 -21 -100 -24 -81 -51 -399
-51 -615 0 -224 27 -545 53 -629 11 -37 25 -120 34 -214 4 -31 10 -60 15 -63
5 -3 9 -22 9 -43 0 -21 6 -44 14 -50 7 -6 17 -30 20 -53 4 -23 11 -47 15 -53
5 -5 11 -23 14 -40 16 -83 26 -118 50 -167 13 -29 31 -71 37 -93 16 -50 30
-86 41 -105 5 -8 12 -22 15 -30 3 -8 11 -28 18 -45 16 -36 32 -74 40 -95 4 -8
15 -28 26 -45 11 -16 22 -37 26 -45 3 -8 10 -23 15 -32 5 -10 9 -25 9 -33 0
-8 5 -15 10 -15 6 0 10 -5 10 -11 0 -6 11 -25 24 -42 13 -18 33 -53 45 -78 11
-26 31 -60 45 -76 13 -15 35 -49 50 -75 14 -26 37 -59 51 -74 14 -15 25 -33
25 -40 0 -7 4 -14 9 -16 5 -1 18 -18 29 -37 11 -18 34 -50 51 -70 16 -20 65
-78 108 -130 76 -93 338 -363 418 -431 163 -139 232 -193 310 -244 33 -21 64
-44 70 -51 5 -7 32 -25 60 -40 27 -15 62 -38 78 -51 15 -13 45 -31 65 -41 20
-9 49 -25 65 -36 23 -16 66 -39 233 -125 11 -5 33 -15 49 -22 17 -7 37 -16 45
-21 8 -5 22 -12 30 -15 20 -8 81 -35 102 -45 10 -5 27 -9 37 -9 11 0 23 -5 26
-10 3 -6 17 -10 31 -10 13 0 24 -4 24 -9 0 -10 81 -41 128 -48 18 -3 35 -9 38
-14 3 -5 20 -9 39 -9 19 0 37 -4 40 -10 3 -5 19 -10 35 -10 16 0 35 -6 43 -14
16 -17 89 -34 280 -65 28 -4 72 -13 97 -19 107 -26 180 -37 250 -37 l75 0 3
964 c1 664 -1 968 -8 977 -6 6 -34 14 -63 16 -55 5 -140 24 -169 39 -10 5 -28
9 -42 9 -13 0 -29 7 -36 15 -7 8 -20 15 -30 15 -31 0 -141 47 -275 118 -78 41
-214 128 -230 146 -5 7 -26 22 -45 35 -19 13 -45 34 -56 45 -12 12 -57 55
-100 97 -100 97 -174 178 -174 191 0 6 -11 21 -23 32 -26 24 -97 131 -97 145
0 5 -7 14 -15 21 -14 11 -65 107 -65 121 0 5 -13 28 -30 52 -16 25 -30 54 -30
64 0 11 -3 23 -7 27 -11 10 -33 79 -33 102 0 12 -7 24 -15 28 -8 3 -15 18 -15
34 0 15 -7 37 -15 48 -8 10 -15 36 -15 56 0 20 -4 40 -10 43 -5 3 -10 28 -10
54 0 27 -7 68 -15 91 -22 62 -22 528 0 590 8 23 15 64 15 91 0 26 5 51 10 54
6 3 10 21 10 38 1 18 7 43 15 57 8 14 14 35 15 46 0 12 7 27 15 34 8 7 15 22
15 34 1 32 46 160 59 164 6 2 11 12 11 22 0 9 7 23 15 30 8 7 15 18 15 25 0
18 29 75 66 128 19 26 34 49 34 52 0 10 71 114 82 122 7 4 19 20 27 35 19 37
243 261 311 311 30 23 60 45 65 50 50 42 247 157 270 157 7 0 18 7 25 15 17
20 57 38 160 72 47 15 91 33 98 40 7 7 26 13 41 13 15 0 31 4 36 9 6 5 28 11
50 14 140 20 190 29 206 37 25 14 525 13 550 -1 11 -6 53 -15 92 -20 40 -5 90
-12 112 -15 22 -4 44 -10 50 -15 5 -5 20 -9 34 -9 13 0 32 -6 40 -13 9 -8 54
-26 101 -41 102 -33 143 -51 160 -71 7 -8 18 -15 25 -15 17 0 99 -43 139 -73
19 -15 38 -27 42 -27 8 0 127 -84 148 -105 8 -8 17 -15 21 -15 13 0 185 -167
247 -241 58 -67 58 -68 58 -74 0 -3 11 -16 25 -29 14 -13 25 -26 25 -30 0 -4
11 -22 25 -40 14 -18 25 -36 25 -40 0 -4 11 -22 25 -40 14 -18 25 -38 25 -43
0 -6 7 -16 15 -23 8 -7 15 -21 15 -31 0 -11 5 -19 10 -19 6 0 10 -8 10 -19 0
-10 7 -24 15 -31 8 -7 15 -19 15 -27 0 -8 6 -20 13 -27 7 -8 19 -33 26 -57 7
-24 17 -52 22 -61 5 -10 9 -28 9 -42 0 -13 7 -29 15 -36 8 -7 15 -24 15 -39 0
-15 5 -32 12 -39 12 -12 24 -68 37 -167 4 -33 13 -73 19 -88 16 -39 16 -525 0
-564 -6 -15 -15 -55 -19 -88 -13 -104 -29 -165 -64 -250 -7 -16 -18 -48 -24
-70 -14 -45 -29 -83 -42 -105 -5 -8 -12 -22 -15 -30 -18 -43 -88 -177 -100
-191 -8 -8 -14 -19 -14 -22 0 -13 -73 -121 -97 -143 -12 -11 -23 -26 -23 -32
0 -25 -236 -262 -325 -327 -22 -16 -44 -34 -50 -40 -14 -16 -123 -85 -135 -85
-5 0 -13 -6 -17 -13 -4 -8 -37 -29 -73 -46 -36 -18 -83 -42 -105 -53 -22 -12
-49 -24 -60 -29 -76 -31 -100 -39 -115 -39 -10 0 -23 -7 -30 -15 -7 -8 -23
-15 -36 -15 -14 0 -32 -4 -42 -9 -28 -14 -148 -41 -184 -41 -19 0 -39 -5 -46
-12 -9 -9 -12 -311 -12 -1299 l0 -1288 -42 -6 c-56 -8 -536 1 -703 13 -71 5
-143 14 -160 20 -29 11 -115 25 -240 42 -119 15 -188 31 -280 62 -43 14 -104
29 -148 35 -20 3 -40 9 -43 14 -3 5 -20 9 -38 9 -19 0 -39 6 -45 14 -13 16
-99 46 -130 46 -11 0 -23 4 -26 10 -3 5 -17 10 -30 10 -13 0 -26 4 -30 9 -3 5
-18 12 -34 16 -16 3 -35 13 -42 21 -6 8 -22 14 -35 14 -12 0 -26 5 -29 10 -3
6 -14 10 -23 10 -9 0 -39 12 -67 25 -27 14 -56 25 -62 25 -7 0 -13 4 -13 9 0
5 -10 13 -22 16 -27 8 -130 58 -173 85 -16 10 -38 19 -47 19 -10 1 -18 5 -18
10 0 5 -8 11 -17 15 -10 3 -40 19 -68 36 -27 17 -67 38 -87 48 -21 9 -38 20
-38 23 0 4 -35 28 -77 53 -71 42 -268 181 -318 224 -11 10 -38 31 -60 47 -22
16 -44 34 -50 39 -5 6 -55 50 -110 97 -114 99 -316 298 -383 379 -26 30 -70
81 -99 112 -29 31 -53 60 -53 65 0 4 -15 24 -33 44 -46 51 -87 106 -87 118 0
6 -4 11 -8 11 -5 0 -30 33 -56 74 -26 41 -55 83 -64 93 -10 10 -30 43 -46 73
-16 30 -34 60 -40 65 -7 6 -32 46 -55 90 -24 44 -51 91 -60 105 -9 14 -43 79
-75 145 -32 66 -62 127 -67 135 -5 8 -12 22 -15 30 -25 65 -55 135 -64 152 -6
10 -10 26 -10 37 0 10 -7 24 -15 31 -8 7 -15 19 -15 26 0 8 -4 22 -9 32 -12
21 -61 183 -61 198 0 6 -7 17 -15 24 -8 7 -15 23 -15 36 0 13 -4 33 -9 46 -5
13 -17 59 -26 103 -10 44 -22 84 -26 90 -5 5 -9 24 -9 43 0 18 -5 43 -12 55
-7 12 -16 47 -20 77 -5 30 -13 80 -17 110 -5 30 -14 96 -20 145 -6 50 -15 104
-20 120 -6 17 -13 80 -16 140 -3 61 -10 154 -15 209 -12 124 -13 266 -1 376 5
47 12 139 16 204 3 66 9 124 12 129 3 5 12 57 20 116 8 58 18 135 24 171 6 36
13 88 16 115 3 28 9 53 14 56 6 3 14 28 19 55 14 79 51 227 61 246 5 10 9 31
9 48 0 16 4 30 10 30 5 0 12 12 16 28 3 15 9 36 13 47 19 49 41 124 41 139 0
9 5 16 10 16 6 0 10 11 10 24 0 13 7 29 15 36 8 7 15 21 15 31 0 11 4 27 10
37 5 9 16 35 26 57 9 22 27 63 40 90 13 28 24 55 24 61 0 7 7 17 15 24 8 7 15
21 15 31 0 11 5 19 10 19 6 0 10 6 10 14 0 17 32 80 43 84 4 2 7 12 7 22 0 10
5 22 11 25 5 4 15 17 20 28 5 12 28 54 50 92 22 39 42 78 46 88 3 9 10 17 15
17 5 0 18 20 29 45 11 25 24 45 29 45 6 0 10 8 10 19 0 10 11 29 24 42 12 13
36 44 51 69 16 24 34 51 42 58 7 7 13 17 13 20 0 4 16 25 35 47 19 22 35 43
35 48 0 4 17 26 38 50 21 23 50 58 64 78 31 42 210 239 289 319 99 99 268 250
359 321 30 23 66 53 79 65 12 13 32 26 42 29 10 4 19 11 19 16 0 5 7 9 15 9 7
0 18 6 22 13 12 18 73 61 111 78 17 8 32 20 32 26 0 7 5 13 11 13 6 0 25 10
42 23 18 13 49 32 70 42 20 11 37 22 37 26 0 3 28 20 63 38 71 37 100 53 107
62 3 4 25 16 50 28 54 26 119 60 140 72 8 5 22 12 30 15 8 3 23 10 32 15 10 5
25 9 33 9 9 0 18 7 21 15 4 8 14 15 23 15 9 0 21 4 26 9 6 4 35 17 65 27 30
10 64 24 75 31 11 7 27 13 37 13 10 0 18 5 18 10 0 6 11 10 23 10 13 0 27 3
30 6 9 10 109 43 128 44 9 0 22 7 29 15 7 8 25 15 41 15 15 0 31 5 34 10 3 6
15 10 27 10 11 0 43 7 72 16 93 29 112 34 138 34 14 0 31 7 38 15 7 9 29 15
55 15 23 0 45 3 49 8 8 7 106 26 217 41 37 4 71 11 77 15 5 3 38 8 73 11 35 3
84 10 109 15 25 5 117 11 205 14 88 3 170 9 183 12 l22 6 0 -746 0 -746 -69 0
c-38 0 -82 -5 -98 -11 -15 -6 -68 -15 -118 -20 -126 -11 -221 -26 -244 -39
-11 -5 -37 -10 -58 -10 -21 0 -47 -7 -57 -15 -11 -8 -34 -15 -52 -15 -18 0
-36 -4 -39 -10 -3 -5 -17 -10 -30 -10 -13 0 -39 -6 -57 -14 -18 -8 -59 -22
-90 -31 -32 -9 -58 -21 -58 -26 0 -5 -9 -9 -20 -9 -11 0 -28 -4 -38 -9 -9 -5
-37 -17 -62 -26 -25 -9 -52 -21 -60 -26 -8 -5 -31 -16 -50 -25 -136 -65 -188
-92 -200 -104 -3 -3 -28 -17 -55 -32 -65 -35 -189 -117 -193 -129 -2 -5 -10
-9 -18 -9 -8 0 -14 -4 -14 -8 0 -4 -12 -15 -27 -24 -16 -9 -41 -28 -58 -43
-16 -15 -46 -37 -65 -49 -52 -34 -347 -329 -416 -416 -32 -41 -67 -84 -76 -94
-20 -23 -105 -144 -131 -190 -11 -17 -27 -40 -36 -51 -10 -11 -30 -46 -45 -77
-15 -32 -31 -58 -35 -58 -4 0 -20 -28 -35 -62 -45 -102 -60 -132 -73 -146 -7
-7 -13 -19 -13 -26 0 -14 -44 -130 -60 -158 -6 -10 -10 -26 -10 -35 0 -10 -7
-27 -15 -37 -8 -11 -15 -30 -15 -42 0 -13 -4 -26 -10 -29 -5 -3 -10 -21 -10
-38 -1 -18 -7 -43 -15 -57 -8 -14 -14 -37 -15 -51 0 -15 -6 -32 -14 -38 -8 -7
-17 -33 -20 -59 -11 -101 -23 -180 -29 -189 -3 -5 -9 -45 -12 -88 -4 -44 -11
-90 -16 -103 -12 -32 -11 -584 1 -617 5 -14 13 -61 16 -103 3 -42 8 -84 11
-92 6 -15 20 -99 29 -182 3 -26 12 -52 20 -59 8 -6 14 -26 14 -43 0 -18 7 -41
15 -52 8 -10 15 -33 15 -51 0 -17 5 -35 10 -38 6 -3 10 -19 10 -34 0 -16 7
-34 15 -41 8 -7 15 -25 15 -41 0 -16 4 -29 8 -29 4 0 16 -26 27 -57 10 -32 22
-62 27 -68 4 -5 8 -19 8 -32 0 -13 7 -26 15 -29 8 -4 15 -15 15 -25 0 -10 4
-19 8 -19 5 0 16 -19 26 -42 39 -93 49 -113 62 -121 8 -4 14 -17 14 -27 0 -11
3 -20 8 -20 4 0 14 -14 21 -32 8 -18 32 -55 53 -83 21 -27 38 -55 38 -60 0 -6
10 -21 22 -35 13 -14 34 -41 48 -61 114 -165 403 -472 535 -569 33 -24 62 -46
65 -50 13 -16 159 -120 169 -120 6 0 11 -4 11 -10 0 -5 5 -10 11 -10 6 0 28
-13 48 -28 20 -16 62 -41 94 -56 31 -15 57 -31 57 -34 0 -4 28 -20 63 -35 114
-53 132 -62 140 -74 4 -7 18 -13 30 -13 13 0 27 -4 32 -9 6 -5 29 -12 53 -16
l42 -7 0 105 c0 71 -4 108 -12 115 -22 18 -110 62 -124 62 -8 0 -14 5 -14 10
0 6 -9 10 -19 10 -11 0 -22 4 -26 9 -3 5 -36 24 -73 42 -37 18 -76 41 -87 52
-11 10 -39 28 -63 40 -24 11 -60 35 -80 52 -20 17 -49 37 -64 44 -15 8 -40 26
-55 40 -15 15 -44 39 -64 53 -20 15 -50 40 -66 55 -16 15 -57 54 -91 87 -109
101 -313 334 -338 386 -9 16 -20 32 -25 35 -9 6 -79 111 -79 119 0 2 -18 31
-40 64 -22 33 -40 66 -40 75 0 8 -7 18 -16 21 -8 3 -13 10 -10 14 3 5 -1 18
-9 28 -8 10 -15 26 -15 35 0 9 -7 19 -15 23 -8 3 -15 14 -15 25 0 11 -4 23
-10 26 -5 3 -10 15 -10 26 0 11 -7 22 -15 25 -8 4 -15 14 -15 24 0 15 -17 59
-41 102 -5 10 -9 29 -9 42 0 14 -4 28 -10 31 -5 3 -10 17 -10 30 0 13 -6 30
-14 37 -7 8 -16 27 -19 43 -3 17 -13 57 -22 90 -10 33 -20 80 -22 105 -3 25
-10 51 -16 59 -13 15 -23 81 -37 239 -5 56 -12 107 -16 113 -10 18 -13 349 -3
414 5 33 14 103 19 155 16 163 25 219 38 232 7 7 12 28 12 47 0 35 4 51 34
147 9 29 16 61 16 72 0 11 7 22 15 26 8 3 15 17 15 31 0 14 4 33 9 43 5 9 17
43 27 75 10 31 22 57 26 57 4 0 8 11 8 24 0 13 7 29 15 36 8 7 15 19 15 26 0
13 6 28 31 74 5 8 23 44 41 80 17 36 41 78 52 95 24 34 42 63 52 85 7 14 43
69 99 150 103 151 411 477 518 548 20 13 37 28 37 33 0 4 21 20 48 36 26 15
60 39 75 53 15 15 40 33 55 41 15 7 52 29 82 49 61 39 105 64 200 110 36 18
73 36 82 41 10 5 23 9 29 9 6 0 17 7 25 15 9 8 24 15 33 15 10 0 24 7 31 15 7
8 23 15 36 15 12 0 26 5 29 10 3 6 15 10 25 10 17 0 66 18 112 41 32 16 170
48 240 56 26 3 52 11 59 19 7 8 30 14 55 14 23 0 55 5 71 11 40 16 263 32 448
32 185 0 408 -16 448 -32 16 -6 48 -11 71 -11 25 0 48 -6 55 -14 7 -8 33 -16
59 -19 70 -8 208 -40 240 -56 42 -21 94 -41 107 -41 9 0 23 -4 33 -9 9 -4 35
-16 57 -26 22 -9 47 -21 55 -26 8 -5 22 -12 30 -15 45 -18 61 -24 120 -54 99
-48 173 -89 195 -109 11 -10 37 -26 59 -35 21 -10 54 -32 75 -50 20 -18 55
-43 79 -56 23 -13 42 -27 42 -31 0 -5 21 -23 48 -41 55 -38 412 -392 412 -409
0 -7 19 -33 43 -59 23 -25 50 -59 59 -76 10 -16 31 -47 48 -69 16 -22 37 -53
45 -70 29 -52 40 -73 52 -87 6 -7 29 -47 51 -88 21 -41 43 -84 49 -95 6 -11
16 -33 23 -50 7 -16 16 -37 21 -45 5 -8 12 -22 15 -30 3 -8 9 -24 14 -35 4
-11 15 -37 24 -58 9 -21 16 -46 16 -57 0 -10 5 -22 10 -25 6 -3 10 -19 10 -35
0 -16 6 -33 14 -37 7 -4 16 -21 19 -38 3 -16 13 -57 22 -90 9 -33 20 -84 24
-113 4 -28 12 -57 19 -64 7 -7 12 -36 12 -64 0 -29 5 -56 10 -59 6 -3 10 -34
10 -68 0 -34 7 -102 14 -152 17 -115 20 -308 5 -405 -6 -41 -15 -115 -20 -165
-12 -129 -23 -197 -37 -222 -7 -12 -12 -39 -12 -61 0 -21 -3 -42 -7 -46 -7 -7
-23 -68 -40 -151 -3 -16 -12 -35 -19 -43 -8 -7 -14 -24 -14 -37 0 -13 -4 -27
-10 -30 -5 -3 -10 -17 -10 -30 0 -13 -4 -27 -10 -30 -5 -3 -10 -13 -10 -22 0
-15 -24 -75 -41 -103 -5 -8 -12 -22 -15 -30 -15 -38 -27 -67 -37 -85 -6 -11
-28 -53 -49 -94 -21 -41 -52 -94 -68 -118 -17 -24 -30 -46 -30 -48 0 -4 -41
-67 -95 -145 -35 -51 -93 -125 -144 -184 -68 -78 -311 -318 -356 -351 -22 -16
-51 -40 -65 -53 -13 -13 -38 -31 -55 -39 -16 -9 -46 -30 -67 -47 -20 -17 -54
-40 -75 -51 -21 -11 -58 -34 -83 -51 -25 -18 -65 -41 -90 -53 -25 -12 -63 -31
-85 -43 -22 -11 -52 -27 -67 -34 -14 -8 -31 -14 -37 -14 -5 0 -22 -11 -36 -24
-25 -23 -26 -28 -23 -122 l3 -99 40 3 c22 2 44 8 50 13 5 5 17 9 26 9 10 0 24
6 31 13 7 8 29 21 48 29 119 53 160 74 160 80 0 3 26 19 58 34 31 15 73 40 93
56 20 15 42 28 48 28 6 0 11 5 11 10 0 6 5 10 12 10 10 0 155 104 168 120 3 4
31 26 64 49 32 24 134 118 225 210 145 145 216 226 308 355 12 17 33 44 45 60
12 15 28 40 36 55 7 14 25 42 40 61 15 19 39 61 55 92 15 32 31 58 35 58 5 0
15 17 24 38 9 20 24 56 34 80 10 23 21 42 26 42 4 0 8 9 8 19 0 10 7 21 15 25
8 3 15 15 15 26 0 11 4 28 9 38 5 9 17 37 26 62 9 25 21 53 26 62 5 10 9 26 9
37 0 10 7 24 15 31 8 7 15 25 15 41 0 15 5 31 10 34 6 3 10 21 10 39 0 19 7
39 15 46 8 7 15 29 15 50 0 21 6 43 14 49 8 7 17 33 20 59 9 83 23 167 29 182
3 8 8 50 11 92 3 42 11 89 16 103 13 34 13 585 1 619 -6 13 -13 58 -16 98 -4
40 -9 80 -12 88 -6 14 -17 85 -29 192 -3 26 -12 52 -20 59 -8 6 -14 26 -14 43
0 17 -7 40 -15 50 -8 11 -15 34 -15 52 0 18 -4 36 -10 39 -5 3 -10 20 -10 37
0 17 -6 36 -13 42 -7 6 -21 36 -31 66 -11 30 -22 60 -26 65 -3 6 -13 30 -20
55 -7 25 -18 52 -24 60 -11 15 -28 50 -61 125 -10 21 -32 62 -49 90 -17 27
-38 64 -46 80 -8 17 -27 46 -42 65 -16 19 -28 39 -28 46 0 6 -11 21 -25 34
-14 13 -25 27 -25 32 0 5 -5 14 -10 21 -6 7 -24 30 -40 52 -16 22 -33 45 -38
50 -4 6 -34 44 -67 85 -84 107 -327 347 -431 426 -27 21 -53 43 -59 49 -5 7
-27 22 -48 35 -21 12 -46 30 -55 39 -22 22 -99 71 -111 71 -5 0 -11 6 -14 13
-2 7 -31 26 -63 42 -33 16 -61 32 -64 35 -11 12 -61 38 -200 104 -19 9 -42 20
-50 25 -8 5 -35 17 -60 26 -25 9 -53 21 -62 26 -10 5 -27 9 -38 9 -11 0 -20 4
-20 9 0 5 -26 17 -57 26 -32 9 -69 22 -83 27 -24 10 -52 18 -141 37 -22 5 -46
14 -52 20 -6 6 -28 11 -50 11 -21 0 -47 5 -58 10 -22 12 -115 27 -244 40 -49
4 -106 13 -125 19 -19 6 -59 11 -87 11 l-53 0 0 746 0 746 23 -6 c12 -4 90 -9
172 -12 83 -3 168 -9 190 -14 22 -5 71 -12 108 -15 38 -2 74 -8 80 -12 7 -4
39 -11 72 -14 103 -12 210 -31 220 -40 5 -5 25 -9 45 -9 19 0 44 -7 54 -15 11
-8 31 -15 45 -15 25 0 44 -5 137 -34 29 -9 61 -16 72 -16 12 0 24 -4 27 -10 3
-5 19 -10 34 -10 16 0 34 -7 41 -15 7 -8 20 -15 29 -15 19 -1 119 -34 128 -44
3 -3 17 -6 30 -6 13 0 23 -4 23 -10 0 -5 7 -10 16 -10 9 0 28 -6 42 -14 15 -8
47 -22 72 -31 49 -19 96 -40 120 -54 8 -5 42 -21 75 -36 33 -15 76 -35 95 -45
19 -11 54 -28 77 -39 23 -12 45 -25 48 -31 3 -5 15 -10 26 -10 10 0 19 -4 19
-9 0 -5 29 -24 65 -42 36 -18 65 -35 65 -38 0 -3 36 -26 80 -51 44 -25 80 -50
80 -55 0 -6 17 -18 38 -27 20 -9 47 -26 59 -37 12 -12 26 -21 32 -21 5 0 11
-7 15 -15 3 -8 12 -15 21 -15 8 0 15 -4 15 -8 0 -4 15 -16 33 -27 17 -10 37
-24 42 -30 6 -7 44 -39 85 -71 41 -32 88 -72 104 -89 16 -16 43 -40 60 -53 36
-26 220 -206 286 -279 85 -93 171 -192 198 -227 15 -19 47 -61 72 -93 24 -32
52 -67 62 -77 10 -11 18 -25 18 -30 0 -6 10 -21 23 -32 12 -12 31 -39 42 -60
11 -22 30 -48 43 -60 12 -12 22 -29 22 -38 0 -9 4 -16 8 -16 5 0 17 -18 27
-40 10 -23 23 -44 29 -48 12 -8 24 -28 68 -112 16 -30 37 -68 48 -85 11 -16
23 -37 26 -45 22 -53 36 -80 44 -85 6 -3 10 -15 10 -26 0 -10 5 -19 10 -19 6
0 10 -5 10 -12 0 -7 18 -48 39 -93 21 -44 46 -98 55 -120 10 -22 21 -48 26
-57 6 -10 10 -26 10 -37 0 -10 7 -24 15 -31 8 -7 15 -22 15 -34 0 -12 4 -26 8
-32 5 -5 17 -36 26 -69 9 -33 21 -68 27 -77 5 -10 9 -29 9 -43 0 -14 7 -28 15
-31 9 -4 15 -19 15 -35 0 -16 4 -37 9 -47 10 -19 47 -167 61 -246 5 -27 13
-52 19 -55 5 -3 11 -28 14 -56 4 -27 10 -77 15 -110 6 -33 15 -103 21 -155 7
-52 16 -108 21 -125 5 -16 12 -82 15 -145 3 -63 10 -155 15 -205 12 -116 12
-270 1 -370 -6 -44 -12 -129 -15 -188 -3 -60 -13 -145 -21 -190 -8 -45 -19
-122 -25 -172 -6 -49 -15 -104 -21 -121 -5 -17 -9 -48 -9 -70 0 -22 -5 -45
-12 -52 -6 -6 -15 -30 -19 -54 -13 -72 -50 -222 -60 -240 -5 -10 -9 -31 -9
-47 0 -16 -7 -34 -15 -41 -8 -7 -15 -18 -15 -25 0 -17 -48 -166 -60 -187 -6
-10 -10 -26 -10 -37 0 -10 -7 -24 -15 -31 -8 -7 -15 -21 -15 -30 0 -10 -6 -31
-14 -47 -8 -15 -19 -39 -24 -53 -5 -14 -25 -59 -45 -100 -19 -41 -43 -93 -53
-115 -10 -22 -42 -85 -72 -140 -30 -55 -71 -129 -90 -165 -20 -36 -41 -69 -48
-75 -6 -5 -24 -35 -40 -65 -16 -30 -39 -65 -51 -77 -13 -12 -23 -25 -23 -28 0
-8 -64 -107 -81 -125 -21 -23 -69 -88 -69 -95 0 -3 -15 -22 -32 -41 -18 -20
-37 -43 -42 -52 -5 -10 -28 -37 -51 -62 -23 -25 -69 -76 -102 -115 -82 -96
-236 -248 -373 -369 -63 -55 -116 -104 -118 -108 -2 -5 -8 -8 -13 -8 -8 0 -42
-26 -74 -56 -6 -7 -63 -48 -126 -93 -63 -45 -127 -91 -143 -104 -16 -12 -49
-33 -75 -47 -25 -14 -62 -37 -81 -51 -19 -14 -51 -33 -70 -43 -19 -9 -48 -25
-65 -36 -16 -10 -59 -33 -95 -51 -36 -18 -67 -35 -70 -38 -6 -7 -57 -32 -117
-57 -24 -10 -43 -21 -43 -26 0 -4 -6 -8 -14 -8 -8 0 -29 -8 -48 -17 -60 -30
-68 -33 -83 -33 -14 0 -34 -9 -75 -32 -8 -4 -26 -13 -40 -18 -14 -6 -34 -14
-45 -19 -11 -5 -40 -14 -65 -21 -89 -25 -133 -41 -153 -55 -12 -8 -34 -15 -49
-15 -15 0 -29 -4 -32 -9 -3 -5 -23 -11 -43 -14 -81 -11 -127 -26 -140 -43 -10
-13 -13 -46 -11 -114 l3 -95 30 1 c48 2 206 41 220 55 5 5 21 9 35 9 14 0 30
4 35 8 6 5 39 17 75 27 36 10 70 22 75 26 15 11 98 39 116 39 9 0 22 7 29 15
7 8 23 15 35 15 12 0 28 7 35 15 7 8 19 15 26 15 8 0 22 4 32 9 9 5 35 17 57
26 22 9 48 20 57 25 10 6 24 10 32 10 8 0 16 7 20 15 3 8 11 15 19 15 14 0 96
37 157 70 19 11 64 35 100 55 36 19 83 47 105 60 22 14 57 34 77 45 20 11 63
38 95 60 32 22 65 45 73 50 8 5 49 34 90 65 41 30 93 67 115 81 22 15 51 38
65 52 14 13 41 35 60 47 19 13 46 34 60 47 14 12 57 50 95 82 83 70 395 382
445 445 19 24 43 52 53 63 9 10 17 22 17 27 0 5 7 11 15 14 8 4 27 25 42 49
15 24 37 52 49 63 12 11 33 38 48 60 14 22 42 60 61 85 18 25 55 79 81 120 27
41 52 77 56 78 4 2 8 9 8 16 0 6 13 27 28 46 15 19 39 58 52 85 14 28 30 55
37 60 6 6 30 48 53 95 23 47 52 103 64 125 12 22 30 60 40 85 10 25 21 47 24
50 4 3 15 23 26 45 10 22 22 48 27 57 5 10 9 24 9 32 0 8 11 36 24 63 35 69
56 122 56 144 0 11 5 19 10 19 6 0 10 7 10 17 0 9 13 50 29 92 37 98 51 144
51 163 0 9 7 29 15 44 8 16 15 37 15 47 0 10 5 28 12 40 13 24 26 85 35 157 3
25 9 49 14 55 5 5 9 29 9 55 0 25 7 54 15 64 8 11 15 37 15 57 0 21 5 50 11
66 18 45 43 330 59 653 5 107 12 210 16 228 4 19 2 32 -4 32 -5 0 -12 48 -16
108 -21 323 -38 492 -56 552 -5 19 -10 48 -10 65 0 16 -7 43 -15 59 -8 15 -15
47 -15 70 0 23 -4 46 -9 52 -5 5 -11 27 -14 49 -12 82 -26 142 -52 220 -37
113 -45 139 -45 157 0 9 -7 29 -15 44 -8 16 -15 37 -15 47 0 9 -4 17 -10 17
-5 0 -12 12 -16 28 -3 15 -9 36 -13 47 -5 11 -16 45 -26 75 -10 30 -29 74 -42
97 -13 23 -23 51 -23 62 0 11 -4 23 -10 26 -5 3 -10 17 -10 29 0 13 -7 29 -15
36 -8 7 -15 19 -15 26 0 8 -4 14 -8 14 -5 0 -16 19 -26 43 -17 40 -50 109 -71
148 -5 11 -13 19 -17 19 -5 0 -8 6 -8 13 0 19 -28 76 -56 114 -13 17 -24 36
-24 42 0 6 -4 11 -10 11 -5 0 -10 11 -10 24 0 13 -3 26 -7 28 -9 4 -73 96 -73
105 0 3 -11 21 -25 39 -14 18 -25 35 -25 39 0 3 -5 11 -10 18 -15 17 -62 81
-120 162 -56 78 -90 121 -136 174 -17 20 -35 44 -40 53 -45 83 -521 549 -702
685 -26 20 -49 39 -52 42 -3 3 -27 22 -55 41 -27 19 -57 42 -65 50 -9 9 -44
33 -78 54 -34 21 -62 40 -62 44 0 4 -18 16 -40 26 -22 10 -48 27 -58 36 -10
10 -45 32 -78 50 -32 18 -73 43 -91 56 -17 13 -38 24 -45 25 -7 0 -26 9 -43
20 -16 10 -40 23 -52 29 -13 5 -23 14 -23 20 0 5 -7 10 -15 10 -8 0 -23 4 -33
9 -9 5 -46 24 -82 41 -36 17 -72 35 -80 39 -8 5 -28 14 -45 21 -67 28 -101 43
-115 52 -8 4 -22 11 -30 14 -8 3 -23 10 -32 15 -10 5 -27 9 -37 9 -11 0 -23 5
-26 10 -3 6 -16 10 -29 10 -12 0 -31 7 -42 15 -10 8 -29 15 -40 15 -12 0 -27
7 -34 15 -7 8 -25 15 -41 15 -15 0 -31 5 -34 10 -3 6 -17 10 -29 10 -13 0 -37
7 -52 15 -16 8 -38 15 -50 15 -11 0 -25 5 -31 11 -6 6 -31 16 -55 21 -24 5
-63 14 -88 19 -25 5 -69 14 -99 19 -29 5 -58 13 -64 19 -6 6 -23 11 -38 11
-15 0 -40 5 -56 12 -29 12 -107 23 -253 36 -47 4 -90 11 -95 14 -6 4 -62 10
-125 13 -63 4 -125 11 -138 16 -29 11 -610 11 -637 0z"/>
<path d="M7130 8885 l0 -105 60 0 60 0 0 105 0 105 -60 0 -60 0 0 -105z"/>
<path d="M6718 8868 c-40 -21 -49 -47 -24 -68 8 -6 23 -31 32 -56 9 -24 20
-44 25 -44 4 0 11 -9 14 -20 6 -20 45 -29 45 -11 0 5 16 15 35 22 42 16 43 26
7 72 -15 19 -37 56 -47 81 -21 51 -30 54 -87 24z"/>
<path d="M7590 8858 c-14 -18 -25 -35 -25 -38 0 -3 -10 -21 -21 -40 -30 -49
-39 -80 -22 -80 7 0 24 -9 38 -20 31 -24 56 -25 63 -2 4 9 24 46 47 81 22 36
40 70 40 77 0 10 -78 54 -94 54 -1 0 -13 -15 -26 -32z"/>
<path d="M7144 8715 c-110 -35 -164 -87 -192 -188 -18 -64 -18 -70 1 -132 20
-73 55 -119 112 -154 l51 -31 -6 -50 c-5 -46 -8 -51 -53 -80 l-48 -30 -358 0
c-249 0 -368 -4 -392 -12 -37 -13 -129 -94 -129 -114 0 -7 -6 -14 -12 -16 -9
-3 -14 -37 -16 -111 l-4 -107 -50 -15 c-28 -8 -56 -19 -62 -23 -6 -5 -35 -17
-63 -27 l-53 -19 0 -276 0 -276 68 -31 c37 -17 88 -36 115 -43 l47 -13 0 -88
c0 -102 7 -125 58 -187 57 -70 93 -82 250 -82 l132 0 0 -55 c0 -33 -4 -55 -11
-55 -6 0 -42 -18 -80 -40 -133 -78 -247 -216 -289 -348 -20 -62 -25 -69 -76
-100 -29 -18 -65 -48 -78 -65 -28 -38 -56 -116 -56 -157 l0 -30 100 0 c97 0
100 1 100 23 1 32 34 67 63 67 28 0 67 -41 67 -71 0 -17 9 -19 99 -19 55 0
102 4 105 8 8 13 -18 101 -43 150 -18 36 -68 82 -119 111 -18 10 17 98 64 163
34 45 127 128 145 128 5 0 9 -115 9 -255 l0 -255 665 0 665 0 0 255 c0 163 4
255 10 255 18 0 165 -155 183 -192 36 -75 33 -89 -23 -128 -30 -20 -60 -52
-72 -75 -11 -22 -25 -43 -30 -46 -5 -3 -12 -31 -15 -62 l-6 -57 107 0 c105 0
106 0 106 23 0 32 32 67 60 67 27 0 70 -43 70 -71 0 -18 8 -19 101 -19 l102 0
-7 51 c-9 68 -44 132 -92 169 -22 17 -48 37 -59 45 -10 8 -24 15 -30 15 -6 0
-18 30 -28 68 -29 113 -161 279 -269 337 -29 15 -55 32 -58 35 -3 4 -15 10
-27 14 -20 6 -23 14 -23 62 l0 54 131 -1 c163 -1 200 14 265 106 l43 60 0 97
1 97 58 16 c31 9 83 29 114 43 l58 27 0 272 0 272 -32 15 c-90 40 -126 55
-163 65 l-40 10 0 99 c0 80 -3 102 -17 116 -10 10 -18 24 -18 31 0 18 -76 84
-117 101 -26 11 -109 14 -398 14 -340 0 -368 1 -393 19 -15 10 -39 26 -54 35
-24 14 -28 23 -28 59 1 40 3 43 55 75 81 49 117 107 123 196 6 95 -9 145 -61
201 -32 35 -58 52 -110 71 -76 27 -85 27 -143 9z m116 -180 c27 -14 30 -20 30
-68 0 -68 -32 -107 -89 -107 -83 0 -129 113 -67 167 32 27 83 30 126 8z m862
-672 c17 -15 18 -45 18 -539 l0 -523 -30 -16 c-26 -14 -134 -15 -919 -13 -839
3 -891 4 -908 21 -17 17 -18 52 -18 538 0 504 1 521 19 535 17 12 158 14 920
14 823 0 901 -1 918 -17z m-2025 -719 c-2 -2 -17 0 -33 6 l-29 10 0 168 0 167
30 11 30 11 3 -185 c1 -102 1 -187 -1 -188z m2251 360 c22 -6 22 -9 22 -174
l0 -168 -30 -11 -30 -10 0 185 c0 101 3 184 8 184 4 0 17 -3 30 -6z m-648
-1239 l0 -285 -500 0 -500 0 0 285 0 285 500 0 500 0 0 -285z"/>
<path d="M6444 7696 c-3 -7 -4 -137 -2 -287 3 -307 1 -296 81 -381 75 -80 68
-79 703 -76 l549 3 47 24 c33 17 61 43 90 85 l43 61 3 293 3 292 -756 0 c-632
0 -756 -2 -761 -14z m1414 -308 l-3 -213 -29 -43 c-51 -75 -22 -72 -620 -72
-596 0 -579 -2 -626 68 -24 35 -25 41 -28 254 l-3 218 656 0 657 0 -4 -212z"/>
<path d="M6707 7511 c-46 -30 -57 -63 -57 -166 0 -138 27 -175 130 -175 99 0
123 31 118 156 l-3 79 -45 0 -45 0 -5 60 c-5 58 -6 60 -35 63 -17 1 -42 -6
-58 -17z"/>
<path d="M7558 7513 c-40 -25 -48 -54 -48 -167 0 -161 17 -186 126 -186 50 0
59 3 85 31 29 31 30 34 27 123 l-3 91 -35 0 -35 0 -5 60 -5 60 -40 2 c-24 2
-51 -4 -67 -14z"/>
<path d="M6742 6263 l3 -168 313 -3 312 -2 0 170 0 170 -315 0 -315 0 2 -167z
m520 2 l-4 -55 -199 0 -199 0 0 55 0 55 203 0 202 0 -3 -55z"/>
<path d="M7495 6398 c-33 -19 -74 -66 -81 -93 -11 -42 3 -105 28 -132 57 -61
123 -69 186 -23 52 37 62 57 62 120 0 48 -3 56 -37 87 -57 53 -112 67 -158 41z"/>
</g>
</svg>
