<?xml version="1.0" standalone="no"?>
<!DOCTYPE svg PUBLIC "-//W3C//DTD SVG 20010904//EN"
 "http://www.w3.org/TR/2001/REC-SVG-20010904/DTD/svg10.dtd">
<svg version="1.0" xmlns="http://www.w3.org/2000/svg"
 width="1136.000000pt" height="1136.000000pt" viewBox="0 0 1136.000000 1136.000000"
 preserveAspectRatio="xMidYMid meet">
<metadata>
Created by potrace 1.15, written by Peter Selinger 2001-2017
</metadata>
<g transform="translate(0.000000,1136.000000) scale(0.100000,-0.100000)"
fill="#000000" stroke="none">
<path d="M5940 8916 c-83 -34 -136 -74 -245 -187 -55 -56 -156 -159 -225 -230
-69 -70 -201 -207 -295 -305 -93 -97 -230 -238 -304 -313 -73 -75 -161 -166
-196 -203 l-63 -68 -81 12 c-166 23 -333 -38 -453 -165 -32 -34 -58 -67 -58
-74 0 -6 -7 -18 -14 -26 -17 -17 -56 -126 -56 -156 0 -11 -4 -23 -10 -26 -5
-3 -10 -37 -10 -75 0 -38 5 -72 10 -75 6 -3 10 -14 10 -24 0 -24 38 -144 48
-151 4 -3 17 -19 27 -37 27 -43 74 -91 279 -288 98 -93 231 -222 296 -285 65
-63 207 -200 316 -305 109 -104 225 -217 260 -251 l62 -61 -37 -44 c-48 -57
-94 -141 -112 -204 -19 -69 -17 -225 5 -305 9 -35 20 -67 24 -70 5 -3 18 -25
30 -49 13 -24 28 -49 35 -56 7 -7 72 -74 146 -149 l134 -136 -916 0 -917 0 0
-465 0 -465 151 0 150 0 -35 -38 c-20 -20 -44 -53 -53 -72 -10 -19 -22 -38
-28 -42 -5 -4 -6 -8 -1 -8 5 0 4 -6 -2 -13 -6 -7 -16 -43 -23 -79 -43 -232
133 -459 420 -543 l83 -25 1606 0 1606 0 80 25 c45 13 111 40 147 60 74 39
187 142 214 195 10 19 22 38 27 41 5 3 16 45 25 93 16 82 16 93 1 168 -10 45
-21 84 -25 87 -5 3 -14 18 -20 33 -7 16 -31 48 -54 73 l-42 45 102 0 101 0 0
465 0 465 -399 0 -399 0 147 149 c80 82 155 166 166 187 11 22 23 41 27 45 16
11 39 108 45 191 7 100 -9 215 -38 268 -10 19 -25 50 -34 68 -9 18 -208 225
-443 460 -460 460 -494 488 -621 521 -39 9 -74 20 -78 24 -10 11 -141 8 -148
-3 -3 -5 -14 -10 -24 -10 -23 0 -144 -40 -151 -49 -3 -4 -24 -18 -47 -31 -24
-13 -43 -27 -43 -31 0 -5 -9 -13 -21 -19 -18 -10 -30 -2 -107 73 -273 266
-352 343 -436 423 l-93 88 91 93 c50 51 183 188 296 304 113 116 271 279 353
363 l148 151 57 -61 c113 -119 229 -242 337 -358 61 -65 142 -150 180 -190 39
-40 105 -110 148 -155 l77 -81 0 -105 0 -105 100 0 100 0 19 -37 c11 -21 32
-63 46 -93 14 -30 32 -61 40 -70 7 -8 21 -35 31 -60 10 -25 21 -47 24 -50 4
-3 14 -19 23 -36 14 -27 14 -35 2 -70 -8 -21 -14 -49 -15 -61 0 -12 -4 -25
-10 -28 -5 -3 -10 -28 -10 -55 0 -27 5 -52 10 -55 6 -3 10 -17 10 -30 0 -30
40 -135 51 -135 5 0 9 -6 9 -13 0 -16 58 -71 120 -115 47 -32 140 -62 197 -62
l33 0 0 79 c0 78 0 79 -28 84 -15 3 -54 15 -86 27 -50 19 -62 29 -93 78 -20
31 -40 73 -45 95 -11 52 -1 121 23 148 10 12 19 28 19 34 0 20 83 82 125 94
78 21 162 8 214 -34 40 -33 61 -58 61 -72 0 -7 4 -13 9 -13 12 0 31 -56 31
-91 l0 -29 80 0 80 0 0 53 c0 172 -175 348 -363 363 l-72 6 3 74 4 74 54 0 54
0 0 430 0 430 -281 0 -281 0 -101 104 c-132 134 -423 436 -532 550 l-85 89 0
59 c0 32 -4 58 -10 58 -5 0 -10 8 -10 18 0 31 -37 128 -62 164 -61 88 -147
157 -241 194 -53 21 -77 24 -181 23 -101 -1 -130 -4 -176 -23z m283 -147 c20
-5 37 -14 37 -18 0 -5 11 -12 24 -15 26 -6 116 -94 116 -113 0 -6 6 -18 13
-25 24 -24 40 -106 34 -172 -9 -95 -48 -159 -175 -289 -378 -388 -808 -830
-928 -954 -49 -51 -94 -93 -100 -93 -10 0 -98 82 -385 362 l-90 86 133 137
c73 75 192 197 263 270 72 73 236 242 365 375 129 134 269 278 310 320 71 72
140 121 185 133 37 9 160 7 198 -4z m741 -944 c123 -126 133 -140 111 -143
l-25 -3 0 -202 0 -202 -113 116 c-61 64 -141 148 -177 186 -58 62 -309 329
-367 390 -13 13 -23 26 -23 29 0 3 30 35 66 72 69 69 124 142 124 163 0 7 61
-50 134 -127 74 -76 196 -202 270 -279z m771 -565 l0 -260 -262 0 -263 0 0
260 0 260 263 0 262 0 0 -260z m-3195 190 c0 -5 10 -10 23 -10 41 -1 108 -39
169 -97 64 -61 102 -98 428 -413 237 -229 477 -461 609 -589 l95 -91 -255
-254 -254 -255 -125 121 c-69 66 -198 190 -287 276 -88 87 -252 245 -363 352
-387 373 -403 389 -433 448 -16 31 -32 82 -37 112 -8 55 4 170 19 180 4 3 11
18 15 34 4 16 35 56 70 91 48 47 73 64 112 75 27 7 53 17 59 21 13 13 155 11
155 -1z m3080 -733 c0 -103 0 -104 -27 -116 -20 -9 -29 -9 -31 -2 -2 6 -9 17
-16 24 -7 6 -23 35 -36 62 -13 28 -27 52 -31 55 -4 3 -14 22 -22 43 l-16 37
90 0 89 0 0 -103z m-1103 -397 c36 -17 81 -45 99 -63 77 -71 774 -774 799
-804 38 -46 69 -146 69 -223 0 -65 -17 -129 -54 -198 -15 -30 -804 -825 -863
-870 -40 -30 -104 -45 -197 -46 -103 -1 -164 13 -200 44 -13 11 -27 20 -32 20
-5 0 -193 185 -419 410 -483 484 -464 458 -463 640 1 123 10 163 54 221 14 18
208 216 431 439 334 334 413 408 447 419 23 8 42 18 42 22 0 11 35 16 133 18
79 1 96 -2 154 -29z m-703 -2059 c207 -206 252 -245 301 -261 19 -6 35 -15 35
-19 0 -4 34 -15 75 -24 140 -31 266 -18 378 39 86 44 85 44 304 262 l183 182
400 0 400 0 0 -300 0 -300 -175 0 c-110 0 -175 4 -175 10 0 7 -555 10 -1645
10 -1090 0 -1645 -3 -1645 -10 0 -6 -82 -10 -225 -10 l-225 0 0 300 0 300 917
0 916 0 181 -179z m1684 -604 c96 -26 128 -45 194 -112 55 -56 70 -96 70 -185
0 -90 -15 -128 -74 -190 -73 -76 -82 -80 -234 -119 -58 -15 -3060 -15 -3118 0
-152 39 -161 43 -234 119 -60 62 -75 100 -75 190 0 89 15 129 71 185 67 69
101 88 193 109 33 8 64 17 67 20 3 4 697 5 1541 3 1422 -2 1541 -4 1599 -20z"/>
<path d="M6091 5873 c-5 -21 -15 -63 -21 -93 -7 -30 -16 -59 -20 -65 -4 -5
-17 -59 -29 -120 -12 -60 -26 -114 -32 -119 -5 -6 -9 -18 -9 -28 0 -17 21 -18
399 -18 220 0 407 -3 416 -6 13 -5 15 -2 9 22 -4 16 -11 34 -16 40 -5 7 -18
58 -28 115 -11 57 -25 113 -30 124 -5 11 -18 56 -28 100 l-18 80 -291 3 -292
2 -10 -37z m553 -140 c10 -49 22 -97 26 -108 5 -11 15 -44 23 -72 l15 -53
-315 0 c-295 0 -314 1 -309 18 2 9 8 33 12 52 3 19 10 41 14 50 10 19 40 159
40 183 0 16 18 17 238 17 l239 0 17 -87z"/>
<path d="M5695 5298 c-4 -18 -11 -35 -14 -38 -4 -3 -20 -66 -35 -140 -15 -74
-31 -139 -36 -145 -5 -6 -13 -35 -18 -65 l-8 -55 809 3 c762 2 808 3 803 20
-3 9 -8 35 -12 57 -4 22 -10 45 -15 50 -4 6 -20 71 -35 145 -15 74 -30 137
-34 140 -4 3 -10 17 -14 33 l-6 27 -290 0 -290 0 -6 -27 c-4 -16 -10 -30 -13
-33 -4 -3 -15 -48 -25 -100 -10 -52 -25 -108 -32 -124 -8 -15 -17 -51 -20 -78
-8 -57 -20 -48 -30 22 -4 25 -10 50 -15 56 -5 6 -18 57 -30 115 -11 57 -28
119 -36 137 l-14 32 -289 0 -288 0 -7 -32z m529 -60 c10 -11 39 -124 62 -248
3 -19 11 -41 16 -47 8 -10 -56 -13 -313 -13 -178 0 -319 4 -312 8 6 4 21 54
33 112 12 58 26 110 30 115 4 6 10 27 14 48 l7 37 225 0 c167 0 229 -3 238
-12z m800 -4 c3 -9 6 -24 6 -34 0 -10 4 -20 8 -22 4 -1 18 -52 31 -113 13 -60
28 -116 33 -122 8 -10 -55 -13 -310 -13 l-321 0 15 28 c7 15 14 35 14 44 0 26
39 189 53 221 l12 27 226 0 c198 0 228 -2 233 -16z"/>
<path d="M4475 3621 c-96 -20 -202 -97 -239 -175 -23 -48 -21 -132 5 -181 26
-52 84 -105 140 -130 24 -11 47 -24 51 -30 4 -6 55 -10 123 -10 68 0 119 4
123 10 4 6 26 19 50 30 43 18 122 86 122 104 0 5 8 17 18 27 23 23 25 162 2
187 -8 9 -28 34 -45 56 -44 58 -151 109 -241 115 -38 3 -87 1 -109 -3z m177
-191 c38 -47 35 -104 -7 -146 -21 -21 -34 -24 -91 -24 -62 0 -68 2 -100 34
-43 43 -45 81 -6 124 36 39 45 42 122 38 52 -3 68 -8 82 -26z"/>
<path d="M5820 3621 c-94 -20 -199 -94 -239 -169 -21 -39 -19 -149 3 -192 24
-46 87 -103 139 -126 23 -10 45 -23 49 -29 4 -6 55 -10 123 -10 68 0 119 4
123 10 4 6 26 19 49 29 52 23 115 80 139 126 23 46 24 153 1 197 -61 115 -247
194 -387 164z m149 -176 c35 -17 61 -70 54 -108 -3 -15 -19 -38 -35 -52 -25
-21 -40 -25 -93 -25 -53 0 -68 4 -93 25 -16 14 -32 37 -35 52 -7 36 19 90 52
108 34 19 115 19 150 0z"/>
<path d="M7165 3621 c-65 -11 -167 -68 -200 -112 -16 -22 -36 -46 -43 -55 -8
-8 -16 -41 -19 -74 -5 -51 -2 -66 22 -112 33 -62 80 -108 138 -134 23 -10 45
-23 49 -29 9 -13 236 -13 246 0 4 6 28 20 55 32 126 60 182 171 147 293 -26
91 -165 185 -287 194 -37 2 -86 1 -108 -3z m176 -200 c40 -46 38 -84 -5 -127
-32 -32 -38 -34 -101 -34 -62 0 -69 2 -96 31 -32 34 -38 77 -15 118 22 39 54
52 124 48 58 -3 67 -6 93 -36z"/>
</g>
</svg>
