<?xml version="1.0" standalone="no"?>
<!DOCTYPE svg PUBLIC "-//W3C//DTD SVG 20010904//EN"
 "http://www.w3.org/TR/2001/REC-SVG-20010904/DTD/svg10.dtd">
<svg version="1.0" xmlns="http://www.w3.org/2000/svg"
 width="1432.000000pt" height="1432.000000pt" viewBox="0 0 1432.000000 1432.000000"
 preserveAspectRatio="xMidYMid meet">
<metadata>
Created by potrace 1.15, written by Peter Selinger 2001-2017
</metadata>
<g transform="translate(0.000000,1432.000000) scale(0.100000,-0.100000)"
fill="#000000" stroke="none">
<path d="M6100 13498 c-14 -6 -42 -20 -64 -30 -21 -11 -45 -17 -52 -14 -8 3
-14 1 -14 -4 0 -5 -7 -7 -15 -4 -8 4 -15 2 -15 -3 0 -5 -10 -9 -22 -10 -11 -1
-24 -6 -27 -11 -7 -12 -38 -21 -86 -27 -20 -3 -43 -11 -50 -19 -8 -8 -37 -19
-65 -26 -27 -7 -50 -16 -50 -22 0 -5 -4 -7 -9 -4 -10 7 -103 -25 -112 -38 -4
-5 -11 -6 -17 -2 -6 3 -12 2 -14 -4 -1 -5 -21 -12 -43 -16 -22 -3 -43 -10 -46
-15 -3 -5 -14 -7 -24 -3 -13 5 -16 4 -10 -5 6 -10 2 -11 -15 -6 -17 5 -21 4
-15 -6 6 -9 3 -11 -8 -6 -10 3 -17 2 -17 -3 0 -6 -13 -10 -29 -10 -16 0 -31
-5 -33 -11 -2 -7 -18 -12 -35 -13 -17 0 -29 -5 -25 -10 3 -5 -5 -7 -16 -4 -14
4 -20 2 -15 -5 4 -6 0 -8 -10 -4 -10 3 -17 3 -17 -1 0 -12 -109 -44 -122 -36
-8 5 -9 2 -5 -10 6 -14 3 -16 -14 -11 -16 5 -19 4 -14 -6 6 -9 3 -11 -8 -6
-10 3 -17 2 -17 -4 0 -6 -5 -7 -10 -4 -6 4 -29 -3 -52 -15 -22 -11 -47 -19
-55 -16 -9 4 -11 2 -7 -6 5 -7 0 -9 -14 -6 -12 4 -22 3 -22 -1 0 -4 -10 -7
-22 -8 -11 -1 -24 -6 -27 -11 -3 -6 -26 -16 -51 -23 -25 -7 -47 -15 -50 -19
-3 -3 -9 -5 -15 -6 -25 -1 -105 -29 -105 -36 0 -4 -7 -4 -17 -1 -11 4 -14 3
-9 -5 4 -7 0 -13 -11 -13 -38 -4 -49 -5 -75 -13 -16 -5 -28 -13 -28 -18 0 -6
-9 -8 -20 -5 -10 3 -20 1 -22 -5 -2 -5 -22 -12 -46 -15 -23 -3 -42 -9 -42 -13
0 -6 -83 -36 -122 -44 -7 -2 -26 -8 -42 -15 -16 -6 -36 -9 -43 -7 -8 3 -11 1
-8 -4 3 -6 0 -10 -9 -10 -8 0 -17 -6 -19 -12 -4 -10 -8 -9 -16 2 -9 13 -11 12
-11 -4 0 -12 -5 -16 -15 -12 -8 3 -15 1 -15 -4 0 -6 -3 -9 -7 -8 -21 5 -92
-15 -87 -24 4 -6 -2 -8 -16 -3 -17 5 -21 4 -15 -6 6 -9 3 -11 -8 -6 -10 3 -17
3 -17 -2 0 -5 -12 -8 -26 -8 -15 0 -29 -5 -33 -10 -9 -15 -79 -35 -92 -27 -8
5 -9 3 -5 -5 5 -8 3 -11 -5 -10 -8 1 -30 -5 -50 -14 -19 -9 -47 -19 -62 -22
-15 -4 -27 -11 -27 -17 0 -5 -10 -6 -21 -3 -13 4 -19 3 -15 -3 3 -5 -5 -9 -17
-9 -13 0 -49 -13 -80 -28 -32 -15 -64 -24 -72 -21 -8 3 -15 2 -15 -2 0 -4 -10
-8 -22 -9 -11 -1 -24 -6 -27 -11 -8 -13 -103 -40 -118 -35 -7 3 -13 0 -13 -5
0 -6 -13 -13 -30 -17 -34 -7 -42 -17 -34 -38 6 -16 54 -30 54 -16 0 5 12 4 26
-1 14 -6 23 -6 20 -1 -3 4 44 8 104 7 61 0 110 2 110 6 0 4 11 3 25 -2 20 -8
25 -6 25 6 0 14 3 14 15 4 12 -10 18 -10 30 0 12 10 18 10 30 0 12 -10 18 -10
30 0 11 9 19 10 28 1 10 -8 17 -7 25 1 10 10 17 10 32 0 14 -8 20 -9 20 -1 0
7 10 9 25 5 14 -4 25 -2 25 2 0 10 75 8 105 -3 16 -5 17 -5 5 4 -11 9 -1 10
43 8 31 -2 57 -1 57 2 0 9 85 5 101 -4 7 -5 10 -4 6 2 -4 7 30 10 103 9 61 0
110 2 110 6 0 4 11 3 25 -2 14 -5 25 -6 25 -2 0 4 57 8 126 9 93 1 129 5 135
15 7 10 9 10 9 1 0 -7 9 -13 19 -13 11 0 21 6 24 13 4 10 7 10 18 0 7 -7 22
-13 34 -13 16 0 17 2 5 10 -13 8 -13 10 2 10 9 0 18 -5 20 -11 3 -8 11 -8 27
2 19 11 25 11 28 1 4 -10 8 -10 19 -1 8 6 23 9 34 6 11 -3 22 -1 25 4 3 4 17
4 31 -1 31 -12 44 -13 26 -2 -7 5 37 8 98 8 60 -1 110 2 110 6 0 4 11 3 25 -2
14 -5 25 -6 25 -2 0 4 71 8 158 10 89 1 158 6 160 12 2 5 11 4 23 -3 16 -10
22 -9 30 3 8 11 12 12 16 3 6 -15 33 -17 33 -3 0 14 28 12 33 -2 3 -10 7 -10
18 -2 8 6 37 10 66 9 28 0 50 2 47 7 -3 4 7 3 21 -2 31 -12 38 -12 32 -2 -3 4
38 7 90 8 l95 1 -7 -51 c-3 -28 -7 -64 -8 -81 -1 -16 -6 -36 -10 -43 -5 -7
-11 -34 -13 -60 -2 -26 -5 -70 -8 -98 -2 -28 -9 -60 -15 -72 -14 -26 -15 -54
-1 -32 15 22 12 4 -5 -37 -10 -24 -12 -40 -5 -48 6 -7 6 -15 -1 -22 -6 -6 -13
-33 -15 -59 -2 -27 -6 -74 -8 -104 -2 -30 -9 -56 -15 -58 -15 -5 -14 -52 2
-52 9 0 8 -3 -2 -9 -7 -5 -15 -30 -17 -57 -2 -27 -6 -76 -9 -108 -3 -33 -10
-65 -16 -72 -6 -8 -8 -25 -5 -39 4 -14 3 -31 -1 -38 -7 -10 -28 -148 -36 -242
-2 -16 -6 -37 -9 -45 -8 -19 -30 -216 -29 -254 0 -16 -3 -34 -8 -40 -5 -6 -15
-69 -21 -141 -7 -71 -19 -142 -26 -156 -7 -15 -9 -31 -4 -39 5 -8 5 -22 -1
-32 -9 -17 -21 -112 -20 -157 1 -12 -7 -39 -16 -59 -12 -26 -14 -37 -5 -40 15
-5 16 -29 2 -34 -6 -2 -13 -28 -15 -58 -3 -30 -7 -74 -9 -97 -3 -24 -10 -58
-16 -78 -6 -19 -8 -39 -5 -45 4 -6 2 -17 -4 -24 -6 -8 -11 -27 -11 -42 2 -55
-19 -222 -30 -249 -5 -11 -14 -78 -21 -150 -6 -71 -16 -136 -22 -143 -5 -6 -7
-25 -4 -41 3 -16 3 -32 -1 -36 -6 -6 -26 -147 -36 -250 -2 -16 -4 -32 -6 -35
-3 -6 -30 -210 -34 -255 -1 -16 -5 -37 -8 -45 -9 -21 -21 -110 -20 -142 1 -28
-13 -38 -21 -15 -3 9 -9 9 -28 -2 -16 -10 -24 -10 -27 -2 -2 6 -13 11 -23 11
-11 0 -17 -4 -14 -10 3 -5 0 -10 -9 -10 -8 0 -16 5 -18 11 -3 8 -10 8 -26 -2
-19 -12 -24 -12 -32 0 -7 12 -11 12 -24 2 -13 -11 -19 -11 -32 0 -13 10 -17
10 -24 -2 -8 -11 -13 -12 -30 -1 -12 7 -20 8 -20 2 0 -14 -33 -13 -48 2 -9 9
-12 9 -12 0 0 -8 -18 -11 -60 -8 -33 2 -60 -1 -60 -5 0 -5 -11 -4 -24 1 -16 6
-26 5 -28 -1 -2 -6 -15 -6 -36 0 -20 6 -30 6 -27 0 8 -12 3 -11 -30 1 -14 5
-24 6 -21 1 7 -10 -79 -7 -109 4 -15 5 -17 4 -5 -3 17 -13 -90 -9 -111 3 -7 5
-10 4 -6 -2 4 -6 -55 -10 -156 -11 -89 -1 -180 -4 -202 -5 -22 -2 -50 0 -62 4
-13 5 -23 5 -23 0 0 -10 -93 -7 -110 4 -8 5 -11 4 -7 -2 8 -13 -72 -14 -97 -1
-11 6 -16 6 -13 0 4 -5 -57 -9 -159 -10 -91 0 -168 -2 -170 -5 -3 -3 -19 -1
-35 3 -16 5 -29 5 -29 0 0 -4 -9 -6 -21 -3 -12 4 -25 0 -31 -8 -7 -11 -11 -11
-15 -1 -2 6 -13 12 -23 12 -10 0 -21 -6 -23 -12 -4 -10 -8 -9 -16 2 -8 12 -14
12 -28 4 -13 -8 -23 -8 -36 0 -13 8 -20 8 -27 -3 -7 -13 -11 -13 -25 -1 -14
12 -18 12 -25 -1 -8 -12 -13 -12 -31 -1 -18 12 -23 12 -30 0 -7 -11 -12 -11
-30 0 -18 12 -23 12 -30 0 -7 -10 -12 -11 -29 0 -12 7 -20 8 -20 2 0 -14 -38
-12 -43 3 -3 9 -7 9 -18 0 -8 -6 -34 -10 -59 -9 -25 2 -48 -1 -51 -6 -3 -5
-17 -4 -32 1 -18 7 -27 7 -29 -1 -3 -8 -10 -7 -26 1 -16 9 -22 9 -22 0 0 -11
-16 -9 -54 7 -12 5 -17 4 -13 -3 7 -11 -85 -9 -104 3 -7 4 -9 3 -6 -2 3 -6
-60 -10 -166 -11 -95 -1 -188 -2 -207 -4 -19 -1 -46 1 -59 5 -14 5 -21 4 -18
-1 7 -11 -86 -9 -104 3 -7 4 -9 3 -6 -3 8 -12 -203 -12 -222 1 -9 6 -12 5 -7
-2 4 -7 -19 -10 -79 -9 -51 1 -85 -2 -86 -8 -1 -5 -3 -38 -5 -72 -3 -50 -1
-61 10 -57 8 3 34 -4 58 -15 25 -11 54 -18 64 -15 11 3 39 -1 62 -9 22 -8 53
-12 68 -9 14 2 29 0 33 -7 4 -6 32 -13 62 -15 30 -3 66 -9 80 -15 15 -5 36 -7
47 -4 11 2 35 -2 54 -10 31 -14 85 -23 187 -31 25 -1 47 -8 49 -14 2 -7 22
-12 45 -12 23 0 64 -7 90 -15 26 -8 45 -10 42 -4 -9 13 43 1 73 -18 18 -11 26
-12 38 -2 9 8 18 8 27 1 16 -13 76 -26 105 -23 12 1 36 -5 54 -13 35 -18 62
-21 53 -6 -3 6 -1 10 4 10 6 0 11 -4 11 -9 0 -9 75 -27 97 -22 7 1 32 -3 55
-10 24 -6 53 -13 65 -14 11 -2 31 -6 43 -10 12 -4 43 -8 69 -9 26 -2 61 -10
78 -18 22 -11 34 -13 42 -5 7 7 17 7 33 -1 35 -18 88 -32 88 -22 0 9 70 -7 84
-20 5 -5 17 -3 28 3 14 9 20 9 26 -1 5 -6 43 -16 85 -22 43 -5 86 -14 97 -20
24 -13 33 -13 24 1 -7 12 33 3 52 -12 5 -5 35 -10 65 -13 30 -2 66 -9 80 -15
15 -5 37 -7 49 -4 12 3 25 1 30 -6 4 -7 31 -14 61 -16 30 -1 73 -10 96 -18 24
-8 40 -11 37 -6 -9 15 31 10 52 -6 10 -8 38 -15 60 -15 23 0 61 -7 84 -15 50
-18 61 -19 40 -4 -11 8 -8 9 15 4 16 -4 33 -11 36 -17 4 -6 25 -10 48 -10 23
1 62 -5 86 -13 25 -7 45 -10 45 -5 0 4 11 5 25 2 14 -2 25 -8 25 -13 0 -5 9
-9 20 -9 11 0 20 4 20 9 0 5 20 8 44 7 24 -1 43 1 41 4 -4 6 33 9 127 13 27 1
48 5 48 9 0 3 9 4 20 1 12 -3 20 0 20 7 0 7 8 9 20 5 11 -3 20 -3 20 2 0 4 27
9 59 10 58 2 59 2 56 -25 -1 -15 -4 -34 -7 -42 -5 -13 -24 -165 -32 -250 -1
-14 -5 -32 -8 -40 -4 -8 -14 -78 -23 -155 -9 -77 -18 -156 -21 -175 -2 -19
-11 -83 -18 -142 -7 -60 -19 -115 -27 -124 -10 -13 -10 -17 1 -24 11 -7 12
-14 3 -32 -6 -13 -16 -68 -22 -122 -5 -55 -15 -104 -21 -110 -15 -15 -13 -49
3 -40 9 6 9 4 -1 -8 -7 -9 -15 -44 -18 -79 -2 -35 -7 -81 -9 -101 -3 -21 -7
-55 -8 -76 -2 -21 -9 -47 -15 -59 -16 -29 -15 -43 2 -43 8 0 16 -4 18 -10 2
-6 70 -11 170 -13 92 -1 170 -6 174 -10 4 -4 -469 -7 -1050 -7 l-1058 0 -39
-37 -39 -37 0 -2136 1 -2135 24 -28 c14 -16 40 -33 58 -38 18 -5 350 -9 778
-9 l746 0 -13 -62 c-8 -35 -16 -90 -19 -123 -4 -33 -10 -69 -15 -80 -13 -29
-29 -204 -23 -242 3 -17 18 -43 34 -57 l29 -26 3669 0 3670 0 23 23 c13 12 29
30 36 39 21 26 41 193 53 433 5 121 15 236 21 256 5 19 18 175 29 345 10 170
25 383 33 474 8 91 15 200 15 242 1 42 5 79 10 82 4 3 11 63 15 133 13 261 32
538 38 553 4 8 9 67 12 130 11 238 19 331 27 336 5 3 9 44 9 92 0 48 5 134 10
192 6 58 15 173 21 255 15 235 18 268 35 482 l16 202 -21 34 c-44 71 8 67
-783 67 l-713 0 3 267 c3 286 2 292 -48 345 l-25 27 -596 1 -597 0 -22 53
c-12 28 -30 70 -41 93 -10 22 -19 47 -19 55 0 8 -6 23 -14 34 -7 11 -17 31
-21 45 -4 14 -19 50 -32 80 -14 30 -34 75 -45 100 -40 92 -74 154 -99 181 -14
15 -36 41 -50 59 -13 18 -34 43 -46 56 -13 12 -23 27 -23 32 0 6 -7 12 -15 16
-8 3 -15 12 -15 21 0 8 -4 15 -9 15 -5 0 -35 34 -66 75 -32 41 -62 75 -66 75
-5 0 -9 5 -9 10 0 6 -10 22 -22 35 -33 35 -48 53 -48 59 0 3 -10 16 -22 29
-13 13 -34 39 -47 56 -14 18 -37 47 -53 63 -15 17 -28 33 -28 38 0 4 -12 20
-27 36 -43 46 -165 197 -170 210 -7 18 37 105 50 97 5 -3 7 -1 3 5 -3 6 -2 13
4 17 5 3 10 15 10 26 0 10 5 19 10 19 6 0 10 8 10 18 0 17 8 35 62 134 15 27
29 62 33 79 4 18 15 33 25 36 11 3 21 18 25 39 3 19 9 34 13 34 4 0 13 21 20
47 7 26 22 53 32 60 11 8 22 29 26 48 3 19 10 35 14 35 4 0 10 13 13 29 4 16
15 38 25 48 11 10 23 29 27 43 14 45 58 140 66 140 4 0 15 22 23 48 22 66 53
125 58 111 2 -7 14 18 26 55 13 38 35 87 51 110 15 22 36 64 45 92 9 28 24 59
34 70 20 22 52 86 52 104 0 7 14 35 30 62 17 26 30 53 30 58 0 6 4 10 9 10 5
0 12 17 16 38 3 21 17 50 31 65 13 14 24 32 24 39 0 8 6 22 14 33 7 11 16 33
20 49 4 16 17 43 30 60 13 17 34 58 47 91 13 33 31 68 41 78 10 10 18 23 18
30 1 7 9 30 20 52 11 22 19 45 20 51 0 6 11 24 25 40 14 16 25 36 25 44 0 9 6
24 14 35 7 11 19 37 25 58 7 20 16 35 21 32 5 -3 14 12 20 32 20 62 57 138 73
151 8 7 21 35 27 62 6 27 18 54 26 61 8 6 14 18 14 27 0 8 3 12 7 9 8 -9 26
27 42 85 8 26 20 53 28 59 15 13 44 72 62 131 7 20 19 42 27 49 18 15 49 82
58 125 4 18 16 40 27 50 23 21 53 83 63 131 4 17 13 34 21 37 14 5 47 71 58
118 4 15 14 34 22 42 13 12 44 72 50 96 9 33 39 89 46 85 5 -3 11 7 15 22 3
15 12 37 19 48 6 11 18 37 24 58 7 20 16 35 21 32 8 -5 25 31 36 78 3 15 10
27 14 27 4 0 10 12 13 28 3 15 15 38 27 52 12 13 26 44 33 67 6 24 15 43 19
43 4 0 8 9 8 20 0 10 6 23 13 27 12 7 47 73 47 88 0 13 41 95 48 95 8 0 32 48
32 64 0 24 43 96 53 89 7 -3 9 -3 5 1 -3 4 5 31 18 59 13 29 24 60 24 70 0 9
4 17 8 17 9 0 66 110 77 150 4 14 15 34 25 45 22 26 47 77 55 115 6 29 4 32
-34 47 -23 9 -41 20 -41 25 0 4 -7 8 -15 8 -17 0 -55 -35 -55 -50 0 -5 -9 -15
-20 -22 -11 -7 -20 -16 -20 -20 0 -12 -112 -158 -121 -158 -5 0 -9 -9 -9 -19
0 -11 -9 -23 -20 -26 -11 -3 -20 -15 -20 -25 0 -11 -8 -24 -19 -29 -10 -6 -22
-22 -25 -36 -4 -14 -11 -25 -16 -25 -5 0 -16 -13 -25 -30 -9 -16 -22 -30 -29
-30 -7 0 -16 -14 -20 -30 -3 -17 -11 -29 -17 -28 -6 2 -16 -11 -23 -28 -6 -18
-16 -29 -24 -27 -7 3 -12 1 -11 -4 2 -16 -13 -53 -21 -48 -4 3 -15 -11 -24
-30 -9 -19 -22 -34 -28 -32 -7 1 -14 -7 -16 -18 -2 -11 -15 -31 -28 -44 -13
-13 -24 -30 -24 -37 0 -7 -9 -18 -20 -24 -11 -6 -20 -17 -20 -25 0 -8 -9 -19
-20 -25 -11 -6 -20 -17 -20 -25 0 -8 -9 -19 -20 -25 -11 -6 -20 -17 -20 -26 0
-8 -7 -17 -15 -20 -8 -4 -12 -10 -9 -15 3 -5 -2 -12 -10 -15 -9 -3 -16 -12
-16 -20 0 -8 -9 -19 -20 -26 -11 -7 -20 -21 -20 -30 0 -10 -9 -22 -20 -28 -11
-6 -20 -17 -20 -25 0 -8 -6 -18 -12 -22 -18 -11 -78 -90 -78 -102 0 -6 -9 -15
-20 -21 -11 -6 -18 -15 -15 -20 3 -5 -3 -15 -15 -22 -11 -7 -20 -16 -20 -20 0
-11 -70 -102 -81 -106 -5 -2 -9 -10 -9 -18 0 -7 -9 -19 -20 -26 -11 -7 -20
-18 -20 -25 0 -6 -8 -18 -17 -25 -10 -7 -22 -20 -28 -29 -41 -65 -67 -99 -75
-99 -6 0 -10 -9 -10 -19 0 -11 -9 -23 -20 -26 -11 -3 -20 -15 -20 -25 0 -11
-9 -24 -20 -30 -11 -6 -20 -16 -20 -21 0 -11 -33 -56 -69 -94 -10 -11 -22 -30
-26 -43 -3 -12 -11 -20 -16 -16 -5 3 -14 -8 -20 -25 -6 -17 -17 -31 -24 -31
-7 0 -16 -14 -20 -30 -4 -17 -10 -28 -15 -25 -4 3 -15 -11 -24 -30 -9 -19 -23
-35 -31 -35 -9 0 -15 -9 -15 -21 0 -12 -8 -23 -20 -26 -11 -3 -20 -11 -20 -18
0 -6 -11 -25 -25 -41 -14 -16 -25 -34 -25 -41 0 -7 -9 -17 -20 -23 -11 -6 -20
-17 -20 -25 0 -8 -9 -19 -20 -25 -11 -6 -20 -17 -20 -26 0 -8 -7 -17 -15 -20
-8 -4 -15 -12 -15 -20 0 -8 -4 -14 -10 -14 -5 0 -10 -7 -10 -15 0 -8 -9 -20
-20 -27 -11 -7 -20 -20 -20 -28 0 -8 -9 -21 -20 -28 -12 -7 -18 -17 -15 -22 3
-5 -3 -15 -15 -22 -11 -7 -20 -17 -20 -22 0 -8 -39 -57 -75 -97 -8 -9 -15 -21
-15 -27 0 -7 -9 -17 -20 -24 -11 -7 -20 -18 -20 -25 0 -7 -9 -18 -20 -25 -11
-7 -20 -16 -20 -20 0 -11 -70 -102 -81 -106 -5 -2 -9 -10 -9 -18 0 -7 -9 -19
-20 -26 -11 -7 -20 -18 -20 -25 0 -7 -10 -23 -22 -36 -39 -41 -68 -81 -68 -94
0 -6 -9 -15 -20 -18 -11 -4 -20 -15 -20 -27 0 -11 -8 -22 -20 -25 -11 -3 -20
-12 -20 -20 0 -8 -11 -29 -25 -47 -14 -17 -34 -42 -43 -54 -9 -13 -26 -33 -38
-45 -12 -12 -24 -32 -28 -44 -4 -13 -14 -23 -22 -23 -8 0 -14 -6 -14 -13 0 -8
-11 -27 -25 -43 -14 -16 -25 -34 -25 -41 0 -7 -9 -17 -20 -23 -11 -6 -20 -17
-20 -25 0 -8 -9 -19 -20 -25 -11 -6 -20 -16 -20 -22 0 -6 -10 -21 -22 -33 -35
-35 -50 -55 -41 -55 4 0 0 -5 -9 -11 -10 -5 -18 -16 -18 -24 0 -8 -8 -20 -17
-27 -10 -7 -22 -20 -28 -29 -41 -65 -67 -99 -75 -99 -6 0 -10 -4 -10 -9 0 -14
-52 -91 -62 -91 -4 0 -8 -5 -8 -12 0 -7 -9 -21 -20 -33 -11 -11 -29 -31 -39
-44 l-18 -25 -46 80 c-25 43 -49 84 -54 89 -4 6 -17 26 -28 46 -11 20 -42 76
-70 124 -27 47 -56 98 -64 113 -8 15 -17 29 -20 32 -6 5 -24 37 -65 115 -12
21 -27 45 -33 53 -7 7 -13 17 -13 22 0 5 -6 15 -12 22 -12 12 -49 82 -54 101
-1 4 -2 9 -3 11 0 3 -25 -8 -53 -24 -29 -16 -68 -37 -85 -47 -18 -9 -33 -23
-33 -31 0 -8 -6 -12 -15 -8 -8 3 -15 0 -15 -6 0 -6 -3 -8 -7 -5 -3 4 -12 -2
-20 -12 -7 -11 -29 -25 -48 -31 -19 -6 -35 -16 -35 -21 0 -5 -12 -15 -27 -22
-16 -6 -37 -20 -47 -29 -11 -10 -26 -18 -33 -18 -7 0 -13 -7 -13 -15 0 -9 -6
-12 -15 -9 -8 4 -15 1 -15 -6 0 -6 -4 -9 -9 -5 -5 3 -16 -4 -24 -15 -7 -11
-17 -17 -20 -13 -4 3 -7 1 -7 -6 0 -8 -6 -11 -16 -7 -8 3 -12 2 -9 -3 3 -5 -4
-12 -15 -16 -11 -3 -20 -11 -20 -17 0 -5 -7 -7 -16 -4 -8 3 -12 2 -9 -4 3 -5
-6 -12 -20 -16 -14 -3 -25 -10 -25 -15 0 -5 -12 -14 -26 -20 -15 -5 -44 -23
-66 -40 l-38 -31 0 1830 1 1830 -59 114 c-32 62 -64 129 -72 148 -8 19 -17 37
-20 40 -3 3 -21 37 -40 75 -19 39 -38 72 -42 73 -5 2 -8 9 -8 16 0 7 -16 43
-35 82 -19 38 -35 72 -35 76 0 3 -16 34 -35 68 -19 34 -35 68 -35 75 0 26 -24
34 -68 23 -23 -6 -42 -15 -42 -20 0 -7 -4 -7 -13 0 -8 7 -18 6 -31 -4 -33 -24
-54 -17 -78 27 -44 80 -65 110 -77 108 -3 0 -17 -5 -31 -11z m194 -300 c-2
-18 -5 -56 -7 -84 -2 -27 -9 -59 -15 -70 -6 -12 -7 -26 -2 -34 5 -8 6 -19 2
-25 -8 -11 -33 -204 -33 -247 0 -15 -4 -30 -9 -33 -6 -4 -10 -15 -10 -27 0
-17 -4 -19 -26 -14 -14 4 -23 3 -20 -2 7 -11 -86 -8 -104 3 -8 5 -11 4 -7 -2
4 -6 -23 -10 -70 -11 -41 0 -77 -3 -80 -5 -2 -3 -18 -1 -34 3 -16 5 -27 6 -25
2 2 -4 -44 -8 -102 -9 -173 -3 -202 -5 -208 -14 -3 -5 -14 -3 -25 4 -16 10
-21 9 -29 -2 -7 -13 -11 -13 -25 -1 -14 12 -18 12 -25 -1 -8 -11 -13 -12 -29
-2 -11 7 -22 9 -25 4 -3 -4 -30 -7 -60 -6 -35 1 -53 -2 -49 -8 6 -10 2 -9 -46
11 -8 3 -12 1 -8 -5 5 -7 -29 -10 -102 -9 -60 0 -107 -2 -104 -6 6 -10 -1 -10
-32 2 -14 5 -24 7 -21 2 2 -4 -41 -8 -97 -10 -56 -1 -120 -3 -142 -5 -22 -2
-50 0 -63 5 -13 4 -21 4 -18 0 3 -5 -43 -9 -101 -10 -59 -1 -109 -4 -111 -7
-2 -2 -15 1 -29 6 -21 8 -24 7 -19 -6 6 -18 -5 -20 -22 -3 -8 8 -15 8 -27 -2
-12 -10 -18 -10 -32 1 -13 11 -17 11 -20 2 -3 -7 -11 -13 -18 -13 -7 0 -15 6
-18 13 -3 9 -7 9 -20 -1 -9 -8 -25 -11 -37 -7 -11 4 -20 2 -20 -4 0 -7 -8 -7
-25 -1 -14 5 -25 6 -25 2 0 -4 -39 -7 -88 -8 -48 0 -70 1 -49 3 20 2 37 9 37
15 0 6 9 8 20 5 13 -3 18 -1 13 6 -4 6 0 8 10 4 9 -3 36 0 59 9 23 8 48 12 55
10 7 -3 13 0 13 7 0 11 22 17 82 20 14 1 24 6 20 11 -3 5 2 7 11 3 12 -4 17
-1 17 11 0 15 2 15 10 2 8 -13 11 -13 19 -1 5 8 23 14 40 15 17 0 31 4 31 9 0
4 16 7 35 7 19 0 35 5 35 11 0 6 7 9 15 5 8 -3 15 -1 15 5 0 6 7 9 15 5 8 -3
15 -1 15 5 0 5 6 9 13 8 24 -5 97 13 91 22 -3 5 1 9 8 10 7 1 27 2 45 4 17 1
45 9 61 18 22 10 33 12 41 4 8 -8 11 -6 11 7 0 9 4 15 9 12 5 -4 21 -2 36 4
14 5 45 12 68 15 22 3 44 10 47 16 4 6 23 11 42 12 20 1 34 5 32 8 -2 3 11 6
28 7 17 0 34 6 39 13 4 6 14 9 24 6 10 -4 14 -3 9 4 -4 8 1 9 16 4 14 -4 20
-3 17 2 -4 6 8 10 25 11 17 0 34 6 38 12 4 6 15 8 25 4 13 -5 16 -4 10 5 -5
10 -2 11 14 6 11 -3 21 -2 21 3 0 5 15 8 34 7 19 0 32 3 30 7 -3 4 4 8 15 8
12 0 21 6 21 13 0 9 3 8 9 -2 5 -8 11 -9 15 -3 3 6 29 16 56 23 28 7 50 17 50
22 0 5 6 4 14 -2 9 -8 16 -9 21 -2 6 11 71 31 113 37 13 1 39 10 58 19 20 9
42 14 50 11 8 -3 14 -2 14 2 0 4 12 9 27 10 15 1 30 7 34 14 4 6 14 8 24 5 10
-5 14 -3 9 5 -5 7 0 9 14 6 12 -4 22 -3 22 1 0 6 30 12 78 15 12 0 22 6 22 11
0 11 11 13 75 17 23 1 31 5 22 11 -8 6 -4 7 11 4 16 -4 22 0 23 11 0 11 2 13
6 4 3 -8 9 -10 16 -3 10 7 64 26 88 30 3 1 4 -14 3 -31z m175 -188 c6 -14 16
-32 21 -40 6 -8 15 -26 20 -39 18 -42 164 -336 170 -341 8 -8 4 -383 -4 -405
-5 -11 -4 -15 1 -8 10 13 8 -370 -2 -407 -4 -14 -3 -20 2 -13 10 14 9 -210 -2
-227 -5 -8 -4 -11 1 -7 11 7 10 -129 -2 -157 -4 -11 -4 -17 2 -14 11 7 11
-213 0 -231 -4 -6 -4 -11 1 -11 10 0 9 -187 -2 -219 -4 -13 -3 -21 2 -18 10 6
9 -130 -2 -163 -4 -13 -3 -20 2 -17 10 6 9 -170 -2 -218 -4 -17 -3 -25 2 -18
10 14 9 -184 -2 -216 -3 -11 -3 -21 2 -21 10 0 8 -128 -2 -151 -3 -10 -2 -20
4 -23 7 -5 7 -15 1 -32 -12 -30 -12 -37 -2 -31 9 6 7 -118 -3 -157 -5 -18 -4
-27 2 -23 5 3 9 -9 9 -28 0 -19 -4 -31 -10 -28 -5 3 -6 1 -2 -5 7 -12 7 -27 5
-235 -1 -59 1 -111 4 -114 4 -3 2 -14 -3 -24 -7 -11 -7 -33 -1 -58 5 -22 7
-42 5 -44 -8 -7 -11 -169 -4 -200 4 -18 3 -43 -1 -55 -5 -12 -4 -24 1 -27 6
-3 5 -16 0 -31 -6 -14 -8 -29 -6 -33 6 -9 6 -60 4 -398 -1 -207 -4 -263 -15
-267 -7 -3 -13 -12 -13 -20 0 -9 -9 -20 -20 -26 -11 -6 -20 -17 -20 -25 0 -8
-8 -20 -19 -27 -10 -7 -21 -23 -25 -35 -4 -13 -13 -23 -21 -23 -8 0 -17 -10
-21 -22 -4 -13 -15 -29 -25 -36 -11 -7 -19 -17 -19 -22 0 -5 -10 -20 -22 -33
-34 -35 -71 -79 -90 -107 -16 -25 -60 -76 -98 -115 -11 -12 -20 -27 -20 -36 0
-8 -15 -38 -34 -66 -19 -29 -40 -69 -46 -90 -20 -60 -50 -124 -70 -145 -10
-11 -23 -38 -29 -61 -6 -23 -22 -62 -35 -87 -43 -80 -77 -154 -93 -199 -8 -24
-21 -51 -29 -58 -8 -8 -17 -25 -20 -39 -3 -13 -10 -24 -15 -24 -5 0 -8 -3 -7
-7 0 -5 -1 -15 -5 -23 -3 -8 -10 -31 -16 -51 -7 -20 -19 -44 -29 -55 -21 -23
-36 -55 -56 -114 -19 -60 -46 -113 -62 -123 -7 -4 -15 -22 -19 -40 -4 -17 -13
-41 -19 -52 -7 -11 -18 -37 -25 -57 -7 -21 -17 -38 -22 -38 -6 0 -8 -4 -5 -9
3 -5 -1 -11 -9 -15 -8 -3 -15 -13 -15 -22 0 -9 -7 -30 -15 -47 -8 -18 -24 -58
-35 -89 -12 -32 -26 -60 -31 -64 -6 -3 -3 10 5 30 8 19 18 70 22 113 3 43 8
94 10 113 2 19 5 58 8 86 2 28 10 61 18 73 11 18 11 23 -2 31 -12 8 -12 12 -2
18 7 5 15 37 18 73 2 35 7 82 10 104 3 22 7 54 8 70 2 17 4 32 6 35 1 3 11 73
21 155 26 197 26 201 45 335 9 63 16 126 16 140 0 14 3 30 8 35 4 6 11 51 15
100 4 50 8 108 10 130 1 22 8 53 14 68 13 35 14 47 1 27 -15 -23 -13 6 2 33 7
12 14 38 15 57 1 19 4 60 7 90 4 30 8 73 9 95 2 22 9 49 15 61 8 15 8 24 0 32
-8 8 -8 15 -1 24 6 7 16 74 23 148 7 74 16 140 20 145 4 6 16 89 25 185 10 96
21 180 26 185 6 9 12 58 23 222 2 18 9 45 16 59 11 20 11 27 2 33 -9 6 -9 15
4 40 9 17 14 38 11 45 -3 8 -1 47 5 87 6 41 12 90 14 109 7 57 14 109 30 225
9 61 17 124 18 140 1 17 5 37 8 45 7 16 16 96 24 208 3 36 9 71 14 77 5 6 9
25 9 41 0 16 2 52 6 79 8 66 15 140 19 193 2 24 9 48 16 52 11 7 11 14 2 34
-6 14 -7 28 -3 30 5 3 11 32 15 63 14 133 17 169 17 193 1 14 4 27 8 30 7 5
43 288 43 340 0 14 3 30 8 35 7 9 17 91 26 214 2 30 8 59 13 65 5 6 13 52 16
101 4 50 9 104 11 120 1 17 5 56 8 87 2 31 9 66 15 77 7 13 8 22 1 26 -7 4 -6
13 1 27 11 20 20 100 19 162 0 15 5 34 11 42 6 8 8 26 4 44 -4 16 -3 30 2 30
9 0 35 198 34 254 0 16 3 34 8 40 8 11 19 99 27 219 2 32 7 63 10 69 4 7 9 28
11 47 2 20 5 50 8 66 2 17 4 44 5 60 l1 30 19 -35 c10 -19 24 -46 29 -60z
m-269 -514 c-5 -13 -6 -33 -3 -45 3 -12 1 -27 -5 -34 -8 -11 -16 -72 -28 -228
-2 -25 -8 -58 -14 -73 -13 -34 -13 -46 0 -26 15 23 13 -7 -2 -33 -7 -12 -13
-35 -14 -52 -1 -16 -4 -57 -8 -90 -3 -33 -7 -79 -9 -103 -3 -24 -9 -48 -15
-54 -7 -7 -7 -18 1 -35 7 -17 8 -27 0 -31 -10 -7 -19 -68 -28 -197 -3 -38 -10
-82 -16 -97 -6 -15 -8 -35 -5 -44 4 -9 2 -22 -2 -28 -5 -6 -15 -72 -22 -146
-7 -74 -16 -140 -21 -145 -4 -6 -11 -51 -14 -100 -4 -50 -9 -103 -11 -120 -2
-16 -6 -49 -8 -71 -2 -23 -7 -47 -11 -54 -4 -7 -9 -35 -11 -64 -1 -28 -6 -73
-10 -101 -8 -61 -13 -108 -17 -160 -1 -22 -6 -45 -10 -52 -4 -6 -10 -47 -12
-90 -3 -43 -10 -93 -16 -110 -6 -18 -7 -38 -4 -44 4 -6 3 -21 -3 -32 -9 -18
-35 -206 -46 -332 -1 -16 -5 -37 -9 -45 -3 -8 -6 -26 -6 -40 0 -14 -2 -47 -5
-75 -3 -27 -8 -74 -10 -104 -2 -30 -10 -57 -17 -62 -10 -6 -10 -13 -2 -32 7
-15 8 -28 2 -34 -4 -4 -11 -33 -14 -63 -3 -30 -8 -77 -10 -105 -3 -27 -7 -63
-8 -80 -1 -16 -7 -39 -14 -50 -7 -13 -8 -25 -2 -37 6 -10 6 -24 2 -31 -7 -11
-32 -182 -36 -252 -1 -16 -5 -34 -8 -40 -6 -9 -13 -69 -25 -215 -2 -35 -9 -67
-14 -70 -5 -3 -11 -44 -14 -91 -3 -47 -10 -97 -15 -113 -14 -35 -14 -45 0 -26
9 12 10 11 4 -5 -4 -11 -9 -44 -11 -74 -3 -30 -10 -61 -16 -68 -8 -10 -8 -17
0 -25 7 -7 8 -16 2 -23 -5 -6 -12 -40 -15 -76 -3 -35 -8 -80 -11 -99 -3 -19
-6 -51 -8 -70 -1 -19 -5 -42 -8 -50 -6 -13 -20 -123 -34 -255 -2 -22 -6 -56
-9 -75 -2 -19 -12 -84 -20 -145 -9 -60 -16 -123 -16 -140 0 -16 -4 -32 -8 -35
-5 -3 -12 -46 -16 -95 -4 -50 -8 -111 -10 -137 -2 -25 -8 -56 -14 -67 -14 -26
-15 -52 -1 -31 14 22 12 8 -4 -32 -9 -21 -11 -39 -6 -48 5 -8 5 -19 -1 -26 -5
-7 -12 -52 -15 -100 -3 -49 -12 -102 -20 -118 -11 -24 -12 -31 -2 -38 10 -6
11 -11 1 -28 -7 -11 -13 -34 -13 -52 0 -70 -7 -77 -64 -74 -28 2 -60 7 -70 11
-15 6 -17 5 -11 -5 8 -14 -6 -12 -49 6 -14 5 -17 4 -11 -5 5 -9 2 -12 -11 -9
-12 2 -18 11 -16 23 1 11 4 41 6 67 2 26 9 55 16 63 10 12 10 19 2 27 -8 8 -8
15 -1 24 6 7 13 39 16 71 2 32 6 74 9 93 2 19 6 55 8 80 3 25 6 46 7 48 1 1 2
5 3 10 1 4 5 12 9 19 4 6 7 24 7 40 -1 37 20 214 28 233 8 20 33 217 32 254 0
16 3 32 8 35 7 5 14 50 37 256 3 22 7 56 9 75 2 19 6 42 9 50 3 8 8 42 12 75
3 33 8 78 11 100 3 22 6 54 7 70 1 17 6 36 10 43 5 7 11 38 13 70 3 31 7 71 9
87 2 17 6 56 9 88 3 31 9 63 13 70 4 6 8 23 9 37 1 14 5 50 9 80 3 30 8 73 9
95 2 23 8 50 14 61 6 11 14 60 17 110 11 146 14 164 22 177 4 6 18 95 31 197
12 102 29 232 38 290 8 58 15 118 15 135 0 16 3 32 8 35 7 4 24 140 34 265 2
22 9 50 15 62 8 15 9 24 2 28 -7 4 -7 11 -2 18 10 13 23 111 22 166 0 19 7 45
16 58 12 19 13 27 3 39 -8 10 -9 17 0 28 6 7 14 40 17 72 3 33 8 75 10 94 2
19 5 55 7 80 2 25 9 55 15 67 7 12 12 32 11 45 0 13 2 43 5 68 3 25 8 70 11
100 4 30 10 64 15 75 9 21 32 193 31 235 0 14 3 32 6 40 6 14 41 270 46 335 1
17 6 35 10 42 4 7 10 51 13 99 3 47 10 97 15 111 5 14 7 34 3 45 -3 10 -1 25
5 32 6 7 13 50 16 97 3 46 10 99 16 116 6 18 7 38 4 44 -4 6 1 29 11 52 14 31
16 41 6 45 -10 3 -10 7 -2 17 6 8 13 41 15 74 2 33 8 69 14 80 6 11 11 26 10
33 0 7 -5 4 -10 -7 -7 -16 -8 -14 -3 10 3 17 10 32 15 33 12 5 11 39 -1 47 -8
5 -7 12 1 21 7 9 14 41 16 72 4 50 8 93 12 127 0 6 37 11 86 13 l85 2 -10 -24z
m4584 -488 c-36 -54 -63 -108 -64 -129 0 -9 -10 -28 -23 -43 -13 -15 -36 -60
-52 -101 -15 -41 -31 -75 -35 -75 -7 0 -70 -133 -70 -148 0 -5 -9 -17 -20 -27
-11 -10 -20 -23 -20 -29 0 -6 -6 -23 -14 -38 -8 -14 -19 -42 -26 -62 -6 -20
-15 -34 -20 -31 -8 5 -25 -31 -36 -77 -3 -16 -10 -28 -16 -28 -5 0 -8 -6 -7
-12 3 -18 -22 -68 -32 -63 -4 3 -13 -12 -19 -32 -18 -56 -50 -125 -66 -140 -7
-8 -21 -38 -30 -68 -10 -30 -21 -55 -25 -55 -4 0 -10 -11 -13 -25 -4 -14 -10
-24 -15 -21 -4 3 -18 -25 -31 -62 -13 -37 -36 -85 -51 -107 -14 -22 -34 -63
-43 -92 -9 -28 -24 -57 -32 -64 -18 -15 -49 -82 -59 -126 -3 -18 -11 -35 -16
-39 -18 -11 -55 -78 -68 -124 -7 -24 -21 -50 -31 -57 -10 -7 -21 -28 -24 -48
-4 -19 -10 -35 -14 -35 -4 0 -14 -20 -21 -44 -10 -34 -17 -43 -29 -39 -9 4
-13 2 -8 -5 3 -6 2 -13 -4 -17 -5 -3 -10 -14 -10 -23 0 -9 -7 -30 -15 -46 -8
-15 -15 -33 -15 -40 0 -6 -11 -24 -25 -40 -14 -16 -25 -33 -25 -38 0 -5 -9
-28 -20 -50 -11 -23 -20 -48 -20 -55 0 -7 -9 -17 -20 -23 -11 -6 -18 -15 -15
-20 3 -5 1 -11 -4 -14 -5 -3 -12 -18 -15 -33 -11 -44 -46 -111 -61 -116 -7 -3
-16 -21 -20 -39 -10 -48 -44 -120 -54 -114 -5 3 -19 -28 -32 -69 -13 -41 -27
-75 -31 -75 -5 0 -8 -7 -8 -15 0 -9 -7 -18 -15 -21 -8 -4 -15 -14 -15 -24 0
-11 -4 -21 -9 -24 -5 -3 -13 -25 -19 -48 -7 -24 -25 -59 -41 -77 -17 -19 -35
-56 -41 -82 -7 -27 -23 -61 -36 -76 -13 -15 -24 -34 -24 -40 0 -7 -4 -13 -8
-13 -5 0 -14 -23 -21 -50 -7 -29 -22 -56 -34 -65 -12 -8 -17 -15 -12 -15 5 0
4 -5 -3 -12 -7 -7 -12 -20 -12 -30 0 -10 -4 -18 -8 -18 -4 0 -13 -20 -20 -45
-7 -25 -16 -45 -20 -45 -5 0 -17 -19 -28 -42 -10 -24 -21 -45 -24 -48 -3 -3
-12 -24 -18 -47 -7 -24 -19 -43 -26 -43 -7 0 -18 -22 -25 -50 -7 -27 -17 -50
-22 -50 -5 0 -9 -9 -9 -19 0 -11 -11 -32 -25 -47 -13 -14 -27 -42 -31 -60 -3
-19 -10 -34 -15 -34 -5 0 -8 -3 -8 -7 3 -16 -23 -72 -35 -76 -8 -3 -17 -18
-20 -33 -10 -40 -45 -115 -67 -142 -10 -13 -21 -36 -24 -52 -8 -34 -18 -28
-51 30 -10 19 -25 41 -31 48 -7 7 -13 20 -13 27 0 7 -6 20 -14 27 -7 8 -22 29
-32 48 -11 18 -31 54 -46 79 -15 25 -32 58 -38 74 -7 15 -16 27 -20 27 -5 0
-14 16 -21 35 -7 19 -17 35 -23 35 -5 0 -7 3 -3 6 3 3 1 11 -4 18 -19 21 -79
121 -100 166 -12 25 -26 47 -30 48 -5 2 -9 8 -9 12 0 5 -13 31 -30 57 -35 55
-38 88 -10 105 11 7 20 18 20 25 0 6 11 25 25 41 14 17 25 34 25 40 0 5 7 12
15 16 8 3 20 17 25 31 5 14 14 25 19 25 8 0 31 32 68 94 6 10 19 23 27 28 9 5
16 15 16 23 0 8 9 19 20 25 11 6 20 17 20 25 0 8 6 18 14 22 8 4 24 25 36 46
12 20 26 37 30 37 4 0 11 8 14 18 13 34 37 72 47 72 5 0 14 11 19 25 5 14 14
25 19 25 8 0 31 32 68 94 6 10 19 23 27 28 9 5 16 15 16 23 0 8 9 20 20 27 11
7 20 16 20 21 0 11 61 90 78 100 6 4 12 14 12 22 0 8 8 20 19 27 10 7 21 23
25 36 4 12 14 22 22 22 8 0 14 6 14 14 0 7 11 25 25 40 14 15 25 33 25 41 0 8
9 19 20 25 11 6 20 17 20 25 0 8 9 19 20 25 11 6 20 17 20 25 0 8 8 19 19 24
10 6 24 24 31 40 6 16 18 32 26 35 8 3 14 12 14 20 0 9 9 20 20 26 11 6 20 17
20 25 0 8 9 19 20 25 11 6 20 17 20 24 0 7 11 26 25 42 14 16 25 34 25 39 0 6
9 16 20 23 11 7 20 17 20 23 0 7 10 22 23 34 12 12 31 34 42 50 11 16 30 41
43 56 12 15 22 32 22 38 0 5 9 15 20 21 11 6 20 17 20 25 0 8 6 18 13 22 7 4
24 24 37 43 13 19 30 41 36 47 7 7 18 26 26 43 7 17 21 33 30 36 10 3 18 14
18 24 0 11 9 24 20 30 11 6 20 17 20 25 0 8 8 20 18 27 11 7 25 24 32 38 7 14
19 29 26 33 8 4 14 14 14 22 0 8 9 19 20 25 11 6 20 17 20 25 0 8 9 20 20 27
11 7 20 18 20 24 0 11 28 47 70 90 11 12 20 29 20 38 0 10 9 20 20 23 11 3 20
11 20 18 0 11 8 22 68 92 12 14 22 32 22 39 0 7 9 18 20 24 11 6 20 16 20 22
0 6 10 21 23 33 12 12 33 39 47 60 14 20 33 44 43 53 9 9 17 22 17 29 0 7 9
17 20 23 11 6 20 17 20 25 0 7 6 20 13 27 25 28 77 97 77 104 0 4 10 17 23 29
12 12 31 34 42 50 11 16 25 33 31 39 6 6 19 25 29 41 11 17 25 34 32 38 7 4
13 13 13 19 0 6 7 18 15 27 48 53 55 62 55 71 0 6 5 10 12 10 6 0 9 3 6 6 -6
6 1 16 48 68 13 15 24 33 24 41 0 8 9 19 20 25 11 6 20 15 20 21 0 13 34 58
39 53 2 -2 -9 -23 -25 -46z m-3164 -2870 c11 -24 32 -61 45 -83 13 -22 35 -58
47 -79 13 -22 35 -60 50 -85 15 -25 32 -58 38 -73 7 -16 15 -28 20 -28 4 0 13
-15 21 -32 7 -18 22 -46 33 -63 29 -42 42 -64 66 -110 11 -22 29 -53 40 -70
11 -16 30 -49 42 -72 12 -24 26 -43 30 -43 4 0 8 -6 8 -14 0 -8 7 -22 16 -30
8 -9 12 -16 8 -16 -4 0 0 -8 8 -17 9 -10 19 -28 22 -40 4 -13 11 -23 16 -23 4
0 15 -17 24 -37 9 -21 30 -58 46 -83 16 -25 38 -63 49 -85 12 -22 30 -53 41
-70 10 -16 27 -43 36 -60 9 -16 22 -37 29 -45 6 -8 18 -31 25 -50 8 -19 16
-37 19 -40 13 -11 60 -87 75 -121 10 -20 26 -46 37 -58 l20 -21 -46 0 c-28 0
-44 -4 -40 -10 9 -14 -9 -12 -23 2 -10 10 -15 10 -22 -2 -8 -12 -13 -13 -30
-2 -14 9 -20 9 -20 1 0 -7 -11 -9 -30 -5 -17 3 -29 2 -26 -2 2 -4 -28 -7 -67
-7 -40 0 -87 -3 -106 -7 -18 -3 -45 -2 -58 3 -13 5 -22 5 -19 0 3 -5 -30 -8
-74 -7 -44 0 -80 -2 -80 -6 0 -3 -8 -4 -19 -1 -10 3 -22 0 -26 -7 -5 -8 -10
-8 -21 1 -9 8 -18 8 -26 2 -7 -6 -34 -10 -60 -9 -25 0 -44 -2 -41 -6 6 -10 -1
-10 -32 2 -19 7 -24 7 -19 -1 7 -12 -13 -9 -63 7 -15 5 -16 4 -3 -6 12 -9 9
-10 -15 -5 -16 4 -33 11 -36 17 -4 6 -25 10 -48 10 -23 -1 -62 5 -86 13 -25 7
-42 9 -39 4 7 -12 -49 0 -56 12 -5 8 -73 17 -166 23 -22 2 -54 10 -71 18 -22
11 -35 12 -42 5 -7 -7 -21 -4 -46 8 -20 9 -45 15 -56 12 -25 -7 -99 13 -99 26
0 7 -4 7 -12 -1 -15 -15 -45 -16 -50 -1 -2 6 -28 12 -58 14 -30 2 -67 8 -81
14 -15 5 -36 7 -47 4 -11 -2 -36 3 -56 12 -20 10 -43 15 -51 11 -8 -3 -21 -3
-29 0 -10 4 -7 12 13 34 14 15 35 40 46 55 11 15 30 37 43 48 12 11 22 25 22
31 0 6 9 17 20 24 11 7 20 18 20 25 0 7 9 18 20 25 11 7 20 19 20 26 0 8 4 16
9 18 5 2 41 44 80 93 39 50 77 97 86 106 8 9 15 19 15 24 0 4 10 18 23 30 12
12 31 34 42 48 11 15 30 39 43 54 12 16 26 33 30 38 19 25 154 192 167 206 8
9 15 21 15 27 0 6 9 16 20 22 11 6 20 17 20 25 0 8 9 19 20 25 11 6 20 17 20
25 0 7 9 17 20 20 11 3 20 13 20 20 0 8 9 19 20 25 11 6 20 17 20 25 0 8 9 19
20 25 11 6 20 17 20 25 0 8 9 19 20 25 11 6 20 15 20 21 0 5 29 45 65 88 35
43 61 82 57 86 -4 5 1 5 10 2 10 -3 17 -3 16 1 -3 18 39 77 58 82 1 0 12 -19
24 -42z m-236 3 c-10 -11 -28 -31 -39 -45 -11 -15 -24 -32 -30 -39 -16 -20
-89 -111 -100 -125 -5 -7 -18 -21 -27 -30 -10 -9 -18 -22 -18 -29 0 -7 -9 -17
-20 -23 -11 -6 -20 -17 -20 -25 0 -8 -9 -19 -20 -25 -11 -6 -20 -17 -20 -26 0
-8 -7 -17 -16 -21 -8 -3 -20 -16 -25 -29 -4 -13 -15 -24 -24 -24 -8 0 -15 -7
-15 -15 0 -8 -9 -20 -20 -27 -11 -7 -20 -18 -20 -25 0 -7 -9 -17 -20 -23 -11
-6 -19 -14 -17 -19 3 -10 -40 -68 -70 -95 -13 -11 -23 -26 -23 -33 0 -7 -4
-13 -10 -13 -9 0 -12 40 -12 165 0 171 0 171 30 186 15 8 36 22 46 32 11 9 25
17 31 17 6 0 21 12 34 26 12 14 29 23 37 20 8 -3 14 1 14 10 0 8 4 13 9 10 5
-4 11 -3 13 1 7 17 69 53 80 47 7 -4 8 -3 4 4 -4 7 -3 12 3 12 5 0 16 6 23 13
7 7 32 24 56 37 23 13 42 28 42 32 0 5 5 6 11 3 5 -4 21 5 35 20 13 14 29 23
34 20 6 -3 10 -1 10 4 0 6 6 11 13 11 7 0 18 9 25 20 7 11 17 20 24 20 6 0 3
-9 -8 -19z m-2445 -875 c6 -4 11 -3 11 2 0 11 92 8 110 -3 8 -5 11 -4 7 2 -4
6 40 9 119 9 68 0 119 -3 113 -6 -8 -6 -8 -13 0 -28 8 -15 8 -21 0 -24 -10 -3
-16 -42 -23 -158 -1 -25 -8 -55 -14 -67 -15 -26 -16 -56 -2 -48 6 3 10 2 10
-4 0 -5 -5 -11 -12 -13 -6 -2 -11 -24 -11 -49 l0 -46 -38 1 c-20 1 -36 -1 -34
-4 4 -6 -43 -11 -127 -13 -35 -2 -48 -6 -48 -17 0 -13 -2 -13 -9 -1 -8 12 -12
12 -25 2 -9 -7 -23 -11 -31 -7 -8 3 -15 2 -15 -2 0 -4 -20 -7 -45 -7 -25 0
-45 -3 -45 -6 0 -6 -95 -4 -193 4 -27 2 -52 9 -56 16 -4 6 -30 13 -57 15 -100
9 -180 23 -209 39 -28 15 -30 15 -36 0 -3 -10 -8 -13 -12 -6 -8 12 -72 27
-104 24 -12 -1 -37 4 -55 12 -31 14 -117 29 -163 29 -34 0 -105 20 -105 31 0
5 -7 4 -15 -3 -12 -10 -21 -10 -38 -2 -43 21 -88 32 -81 20 9 -13 -37 -3 -80
18 -22 11 -31 11 -37 3 -5 -9 -16 -8 -42 4 -19 10 -54 17 -76 17 -23 0 -58 7
-78 15 -41 17 -57 19 -48 5 3 -5 1 -10 -4 -10 -6 0 -11 4 -11 9 0 10 -66 26
-96 23 -11 -1 -42 4 -68 12 -26 8 -54 12 -62 9 -8 -3 -20 0 -28 6 -7 6 -38 13
-67 15 -30 3 -65 9 -80 14 -14 6 -37 8 -52 5 -15 -3 -27 -1 -27 5 0 14 -119
34 -195 33 -16 0 -39 6 -52 14 -12 8 -40 15 -61 15 -22 0 -58 6 -80 14 -29 10
-42 11 -44 4 -3 -8 -15 -6 -38 5 -18 9 -65 19 -104 23 -39 3 -73 7 -75 10 -8
8 206 -3 219 -11 8 -5 11 -4 7 2 -4 6 46 10 136 11 78 0 174 2 213 3 39 1 76
-1 82 -5 7 -4 12 -3 12 1 0 5 75 8 166 8 91 0 168 3 171 8 2 4 14 2 25 -4 15
-8 22 -8 28 1 5 9 13 9 27 2 11 -6 25 -7 33 -2 8 5 21 5 31 -1 11 -6 20 -5 24
1 3 5 33 8 65 6 39 -3 58 -1 54 6 -4 6 2 6 14 -1 27 -14 45 -14 36 1 -5 7 -2
9 7 6 48 -18 61 -20 54 -7 -6 8 -4 11 6 7 49 -20 52 -21 46 -11 -8 12 74 11
108 -2 14 -5 16 -4 7 2 -8 6 49 10 158 9 95 -1 174 2 176 6 3 4 16 3 29 -2 14
-5 25 -6 25 -2 0 10 93 7 110 -3 8 -5 11 -4 7 1 -7 12 144 11 163 -1 8 -5 11
-4 7 2 -4 6 56 10 159 10 91 1 167 3 169 5 6 6 152 1 164 -6z m1512 -688 c4
-6 17 -8 28 -5 12 3 36 1 54 -4 18 -6 57 -12 87 -14 30 -2 56 -8 58 -14 5 -15
42 -14 42 2 0 8 2 9 8 1 8 -14 67 -28 103 -26 14 1 45 -4 67 -12 28 -10 42
-11 44 -4 3 7 17 5 40 -6 20 -10 56 -19 80 -21 128 -12 152 -16 159 -27 5 -7
25 -12 49 -11 22 1 58 -4 80 -12 26 -9 40 -10 42 -3 3 7 21 3 50 -10 34 -15
49 -17 57 -9 9 9 17 8 31 -1 11 -6 27 -12 35 -12 8 0 15 -4 15 -9 0 -5 6 -16
13 -23 7 -7 35 -46 62 -86 71 -106 78 -116 92 -130 7 -7 13 -17 13 -21 0 -4
11 -21 25 -37 14 -16 25 -32 25 -36 0 -5 8 -17 18 -27 31 -35 43 -51 37 -51
-3 0 17 -29 45 -64 27 -35 50 -69 50 -75 0 -6 4 -11 9 -11 5 0 12 -9 16 -19 3
-11 21 -36 40 -57 19 -21 35 -43 35 -49 0 -6 13 -26 30 -45 16 -19 29 -39 30
-43 0 -5 6 -14 13 -22 26 -27 47 -56 47 -63 0 -4 13 -23 30 -42 16 -19 29 -39
30 -44 0 -4 14 -25 30 -46 17 -21 30 -43 30 -49 0 -6 5 -11 10 -11 6 0 15 -11
20 -25 5 -14 14 -25 19 -25 5 0 14 -13 21 -30 7 -16 15 -30 19 -30 4 0 15 -15
26 -32 10 -18 21 -35 24 -38 4 -3 26 -35 51 -72 24 -38 47 -68 51 -68 4 0 9
-8 13 -17 5 -16 38 -66 64 -98 4 -5 23 -32 42 -60 19 -27 40 -53 45 -57 6 -5
6 -8 1 -8 -6 0 -1 -9 10 -19 10 -11 39 -49 64 -85 25 -37 65 -95 90 -130 25
-35 52 -74 60 -86 16 -24 64 -88 80 -107 6 -7 8 -13 5 -13 -4 0 10 -20 29 -44
20 -23 36 -48 36 -54 0 -6 4 -12 8 -14 4 -1 28 -32 52 -68 25 -36 48 -66 53
-68 4 -2 7 -8 7 -14 0 -6 14 -27 30 -48 17 -21 30 -42 30 -48 0 -5 6 -12 14
-15 8 -3 22 -21 31 -40 9 -20 25 -43 36 -53 10 -9 19 -23 19 -29 0 -7 7 -15
15 -19 8 -3 15 -12 15 -20 0 -8 6 -21 13 -28 25 -28 77 -97 77 -104 0 -4 19
-32 42 -62 23 -30 47 -63 53 -72 15 -25 97 -144 104 -150 4 -3 24 -32 46 -65
22 -33 46 -66 53 -73 6 -7 12 -17 12 -21 0 -4 8 -16 18 -27 34 -38 69 -89 76
-111 4 -13 11 -23 16 -23 4 0 23 -24 41 -52 18 -29 37 -57 43 -63 18 -16 51
-69 48 -77 -1 -5 2 -8 6 -8 5 0 26 -27 48 -60 21 -33 42 -60 47 -60 4 0 7 -6
7 -12 0 -7 11 -26 25 -42 14 -16 25 -33 25 -37 0 -4 6 -14 13 -21 7 -7 30 -37
50 -66 20 -29 49 -70 64 -90 15 -20 33 -45 38 -54 19 -32 150 -220 163 -233 6
-8 12 -18 12 -23 0 -6 4 -12 8 -14 12 -4 100 -130 123 -175 7 -13 16 -23 21
-23 4 0 8 -5 8 -10 0 -11 10 -24 43 -61 9 -10 17 -22 17 -26 0 -5 14 -24 30
-43 16 -19 30 -39 30 -45 0 -5 12 -21 25 -34 14 -13 24 -26 22 -28 -3 -2 -23
13 -45 34 -80 76 -154 143 -157 143 -2 0 -21 17 -44 38 -22 20 -53 48 -68 62
-109 95 -180 158 -198 178 -12 12 -27 22 -34 22 -6 0 -11 7 -11 15 0 8 -4 15
-10 15 -5 0 -34 25 -65 55 -31 30 -61 55 -66 55 -4 0 -13 9 -19 20 -6 11 -17
20 -25 20 -7 0 -17 9 -20 20 -3 11 -11 20 -17 20 -6 0 -28 18 -49 40 -22 22
-42 40 -45 40 -3 0 -19 14 -34 30 -15 17 -32 30 -37 30 -4 0 -24 18 -43 40
-19 22 -38 40 -43 40 -7 0 -78 65 -161 146 -17 16 -39 33 -48 37 -10 3 -18 13
-18 22 0 8 -7 15 -15 15 -8 0 -19 9 -25 20 -6 11 -17 20 -25 20 -7 0 -17 9
-20 20 -3 11 -11 20 -16 20 -9 0 -47 31 -101 83 -16 15 -33 27 -38 27 -6 0
-10 7 -10 15 0 8 -5 15 -11 15 -6 0 -28 17 -48 38 -20 20 -60 56 -88 78 -29
23 -50 44 -46 47 3 4 -6 11 -21 16 -14 6 -26 15 -26 21 0 6 -11 15 -25 22 -13
6 -22 15 -19 20 3 4 -3 11 -13 15 -18 7 -51 35 -121 104 -20 19 -45 38 -54 42
-10 3 -18 13 -18 22 0 8 -5 15 -11 15 -7 0 -22 10 -33 23 -26 26 -96 87 -101
87 -2 0 -22 18 -44 40 -22 22 -45 40 -51 40 -5 0 -10 6 -10 14 0 8 -9 18 -20
21 -11 4 -18 11 -15 16 4 5 -6 14 -20 19 -14 5 -23 14 -20 20 3 5 0 10 -7 10
-7 0 -33 18 -58 41 -25 22 -73 66 -108 97 -35 31 -79 72 -99 90 -19 17 -36 32
-38 32 -2 0 -22 18 -45 40 -23 22 -46 40 -51 40 -5 0 -9 7 -9 15 0 8 -5 15
-10 15 -6 0 -26 16 -46 35 -19 19 -37 35 -40 35 -2 0 -20 15 -38 33 -19 17
-57 52 -84 77 -28 25 -76 69 -107 98 -31 28 -59 52 -61 52 -2 0 -21 18 -43 40
-21 22 -41 40 -44 40 -4 0 -17 10 -30 23 -13 12 -56 51 -97 87 -40 36 -83 75
-95 88 -12 12 -25 22 -28 22 -3 0 -38 32 -78 70 -39 39 -76 70 -80 70 -5 0
-13 9 -19 20 -6 11 -17 20 -25 20 -7 0 -17 9 -20 20 -3 11 -11 20 -17 20 -6 0
-28 18 -49 40 -22 22 -41 40 -44 40 -6 0 -56 44 -109 96 -22 22 -49 43 -58 47
-10 3 -18 13 -18 22 0 8 -5 15 -11 15 -7 0 -30 17 -52 38 -21 20 -54 51 -73
68 -18 17 -40 34 -49 37 -8 4 -15 13 -15 22 0 8 -7 15 -15 15 -9 0 -18 7 -22
16 -3 8 -16 20 -29 25 -13 4 -24 15 -24 24 0 8 -6 15 -14 15 -15 0 -23 29 -25
89 -1 19 -6 40 -11 46 -5 6 -11 33 -14 60 -7 75 -17 148 -23 165 -3 8 -7 24
-8 35 -1 11 -7 51 -14 89 -7 38 -14 94 -17 125 -4 31 -10 61 -15 67 -5 6 -11
30 -13 55 -11 103 -19 155 -28 166 -5 7 -5 14 1 18 7 4 6 13 -3 28 -8 12 -16
46 -19 75 l-4 54 30 -6 c17 -4 34 -11 38 -18z m-167 -230 c-2 -3 0 -17 5 -30
5 -14 12 -55 16 -94 3 -38 10 -73 15 -79 4 -5 11 -37 14 -70 4 -33 10 -82 15
-110 5 -27 7 -54 4 -58 -3 -4 1 -15 8 -24 8 -8 13 -41 14 -73 0 -32 3 -54 6
-48 4 5 10 -28 14 -74 4 -45 11 -86 16 -89 5 -3 11 -33 12 -67 2 -53 5 -63 25
-74 13 -7 28 -20 33 -30 5 -10 16 -18 24 -18 8 0 15 -7 15 -15 0 -8 4 -15 10
-15 5 0 26 -16 46 -35 19 -19 37 -35 39 -35 3 0 23 -18 45 -40 22 -22 43 -40
45 -40 2 0 21 -17 42 -37 22 -21 53 -49 70 -63 18 -13 29 -28 27 -32 -3 -4 2
-8 10 -8 9 0 21 -9 28 -20 7 -11 18 -20 25 -20 6 0 14 -9 18 -19 3 -11 16 -22
28 -24 12 -2 -293 -5 -678 -5 -627 -1 -698 0 -680 14 11 8 20 19 20 24 0 4 3
12 8 16 4 4 7 14 7 22 0 22 51 134 71 157 10 11 21 34 25 50 3 17 17 54 30 83
13 29 24 57 24 62 0 6 5 10 10 10 10 0 60 99 60 119 0 22 42 101 51 95 5 -3 9
-2 7 3 -1 4 5 24 14 44 9 20 19 47 22 60 13 45 51 119 61 119 5 0 17 24 27 53
32 101 49 141 68 154 10 7 22 28 25 46 4 17 11 37 15 42 5 6 9 15 10 20 11 50
35 95 48 90 7 -3 11 -1 8 4 -3 5 5 30 19 56 13 26 27 66 31 89 l7 41 12 -60
c7 -33 11 -63 9 -67z m2317 103 c7 11 9 11 9 -3 0 -10 7 -18 15 -18 8 0 15 -5
15 -10 0 -6 11 -20 25 -32 14 -12 25 -25 25 -30 0 -4 8 -16 18 -26 18 -21 21
-23 101 -127 30 -39 62 -77 70 -86 34 -35 61 -70 61 -78 0 -5 4 -11 8 -13 5
-1 28 -28 53 -58 76 -93 83 -102 102 -119 9 -8 17 -19 17 -24 0 -4 10 -18 23
-31 12 -13 47 -56 77 -95 30 -39 58 -71 62 -71 5 0 8 -6 8 -14 0 -7 11 -22 25
-32 14 -10 25 -24 25 -31 0 -7 4 -13 9 -13 12 0 66 -115 63 -132 -1 -5 2 -8 7
-8 5 0 13 -15 16 -32 7 -31 16 -53 81 -195 13 -28 24 -59 24 -67 0 -9 4 -16 9
-16 5 0 15 -20 22 -45 7 -25 16 -45 20 -45 3 0 12 -19 18 -42 7 -24 22 -63 33
-88 11 -25 29 -65 40 -90 11 -25 30 -67 43 -95 12 -27 25 -61 29 -75 4 -14 14
-38 21 -55 8 -16 28 -64 46 -105 17 -41 39 -94 50 -117 57 -129 70 -161 66
-166 -1 -1 6 -13 16 -27 9 -13 17 -30 17 -38 0 -13 36 -97 64 -152 8 -14 19
-43 26 -65 7 -22 19 -49 25 -60 7 -11 16 -31 20 -45 4 -14 15 -43 25 -65 16
-36 30 -70 35 -85 1 -3 11 -25 22 -50 59 -129 92 -208 99 -235 4 -16 13 -36
21 -43 7 -7 13 -19 13 -26 0 -12 34 -92 81 -192 10 -22 19 -48 19 -57 0 -9 4
-17 8 -17 5 0 15 -19 21 -42 13 -42 30 -83 77 -184 13 -28 24 -56 24 -62 0 -7
4 -12 9 -12 4 0 16 -24 25 -54 10 -30 26 -72 37 -92 10 -21 19 -43 19 -49 0
-6 9 -29 19 -51 11 -22 23 -52 26 -67 4 -15 11 -27 16 -27 4 0 14 -19 21 -42
7 -24 18 -49 25 -56 7 -7 13 -20 13 -28 0 -21 61 -176 76 -194 7 -8 16 -27 19
-43 4 -15 11 -29 15 -32 5 -3 16 -30 25 -60 8 -30 20 -55 25 -55 6 0 10 -6 10
-12 -1 -11 -15 3 -60 59 -6 7 -15 24 -22 38 -6 14 -14 25 -17 25 -4 0 -15 15
-26 33 -10 17 -23 37 -27 42 -12 14 -101 138 -113 156 -10 16 -91 134 -123
179 -9 14 -20 27 -24 28 -5 2 -8 9 -8 16 0 6 -9 18 -20 26 -11 8 -20 19 -20
25 0 6 -13 26 -30 45 -16 19 -29 41 -30 48 0 6 -4 12 -10 12 -5 0 -10 6 -10
13 0 8 -9 22 -20 32 -11 10 -20 22 -20 27 0 5 -12 21 -26 36 -14 15 -32 41
-41 57 -9 17 -25 42 -37 56 -12 14 -28 36 -36 49 -8 12 -27 40 -42 61 -16 21
-28 43 -28 49 0 5 -5 10 -12 10 -6 0 -9 3 -5 6 3 3 -2 14 -11 24 -10 10 -28
34 -42 55 -14 20 -29 42 -35 48 -25 30 -75 106 -75 114 0 4 -9 14 -20 21 -11
7 -20 19 -20 26 0 8 -3 16 -7 18 -5 2 -34 42 -66 90 -32 48 -69 99 -83 115
-13 15 -24 34 -24 41 0 7 -7 15 -15 18 -8 4 -15 11 -15 18 -1 6 -14 27 -30 46
-17 19 -30 40 -30 47 0 7 -3 13 -7 13 -5 0 -24 25 -43 55 -19 30 -38 54 -42
55 -5 0 -8 6 -8 14 0 8 -3 16 -7 18 -5 2 -24 26 -43 53 -19 28 -38 55 -43 60
-7 9 -17 24 -59 90 -7 11 -18 24 -24 30 -6 5 -20 25 -30 44 -11 19 -30 46 -43
60 -12 14 -31 42 -42 63 -10 20 -22 38 -26 40 -5 1 -16 14 -25 28 -38 54 -114
164 -123 179 -5 9 -12 18 -15 21 -3 3 -25 34 -49 70 -24 36 -48 67 -53 68 -4
2 -8 9 -8 16 0 6 -13 27 -30 46 -16 19 -29 41 -30 48 0 6 -5 12 -10 12 -6 0
-14 8 -17 18 -6 15 -82 123 -113 160 -6 6 -7 12 -3 12 4 0 3 4 -2 8 -6 4 -28
32 -50 62 -22 30 -43 57 -47 58 -5 2 -8 9 -8 16 0 6 -13 27 -30 46 -16 19 -29
39 -30 43 0 4 -5 13 -10 20 -28 33 -110 149 -110 155 0 4 -14 23 -30 42 -16
19 -30 40 -30 45 0 6 -8 18 -17 27 -10 8 -38 46 -63 82 -25 37 -60 87 -78 111
-18 25 -33 48 -34 52 -1 5 -6 13 -10 18 -5 6 -22 28 -38 50 -16 22 -34 45 -40
52 -5 7 -10 17 -10 23 0 5 -4 10 -10 10 -5 0 -10 6 -10 14 0 8 -4 16 -8 18 -5
2 -23 26 -42 53 -18 28 -38 53 -44 57 -6 4 -7 8 -3 8 5 0 -15 29 -43 65 -28
36 -48 65 -43 65 4 0 3 4 -2 8 -6 4 -28 32 -50 62 -22 30 -43 57 -47 58 -5 2
-8 9 -8 16 0 6 -13 27 -30 46 -16 19 -29 39 -30 44 0 5 -7 14 -16 21 -14 9 -9
11 27 8 26 -2 46 2 52 9 7 10 10 10 14 1 2 -7 11 -13 18 -13 7 0 15 6 18 13 3
9 7 9 19 -1 12 -9 18 -10 23 -2 4 7 19 9 37 5 21 -5 28 -4 24 4 -5 8 0 8 19 1
32 -12 45 -13 26 -1 -9 6 8 9 45 9 80 1 247 12 252 16 2 2 17 0 33 -4 16 -5
27 -5 25 -1 -3 3 39 8 92 9 55 1 99 7 100 13 3 6 9 5 19 -2 12 -10 16 -10 24
2z m-1336 -1721 c3 -11 11 -20 16 -20 5 0 28 -18 51 -41 24 -22 53 -48 66 -56
12 -8 22 -21 22 -28 0 -8 10 -15 23 -17 12 -2 22 -9 22 -17 0 -8 7 -17 15 -20
15 -6 59 -44 126 -107 18 -17 40 -34 49 -37 8 -4 15 -13 15 -22 0 -8 7 -15 15
-15 9 0 18 -7 22 -16 3 -8 16 -20 29 -25 13 -4 24 -15 24 -24 0 -8 6 -15 13
-15 7 0 22 -10 34 -22 31 -35 94 -88 104 -88 5 0 9 -6 9 -14 0 -7 9 -16 21
-19 12 -3 18 -10 14 -16 -3 -6 5 -15 19 -21 14 -5 26 -13 26 -18 0 -4 23 -26
52 -47 29 -22 77 -65 108 -95 30 -31 63 -59 73 -63 9 -3 17 -13 17 -22 0 -8 7
-15 15 -15 9 0 18 -7 21 -15 4 -8 12 -15 20 -15 8 0 14 -4 14 -9 0 -5 20 -24
45 -42 24 -19 45 -40 45 -46 0 -7 5 -13 11 -13 6 0 30 -19 54 -42 24 -24 56
-53 72 -65 16 -12 52 -44 81 -72 29 -28 57 -51 63 -51 5 0 9 -7 9 -15 0 -8 5
-15 11 -15 7 0 26 -16 45 -35 18 -19 36 -35 41 -35 4 0 14 -9 21 -20 7 -11 16
-20 21 -20 5 0 36 -26 70 -57 89 -84 132 -123 136 -123 2 0 22 -18 44 -40 22
-22 45 -40 51 -40 6 0 9 -4 5 -9 -3 -6 4 -15 16 -22 12 -6 35 -24 50 -40 16
-16 33 -29 38 -29 5 0 13 -9 16 -20 3 -11 12 -20 18 -20 7 0 19 -9 27 -20 8
-11 18 -20 22 -20 5 0 25 -18 47 -40 21 -22 44 -40 50 -40 6 0 11 -7 11 -15 0
-8 4 -15 10 -15 5 0 26 -16 46 -35 19 -19 37 -35 39 -35 3 0 23 -18 45 -40 22
-22 43 -40 46 -40 3 0 23 -17 44 -37 21 -21 64 -60 96 -88 31 -27 66 -60 77
-72 11 -13 27 -23 34 -23 7 0 13 -7 13 -15 0 -9 8 -19 17 -22 10 -4 38 -26 63
-49 97 -91 112 -104 121 -104 5 0 9 -7 9 -15 0 -8 5 -15 11 -15 6 0 29 -18 50
-40 22 -22 41 -40 44 -40 5 0 91 -77 129 -116 12 -11 29 -23 39 -27 10 -4 15
-11 12 -17 -3 -6 2 -13 12 -17 16 -6 45 -31 129 -109 18 -17 40 -34 49 -37 8
-4 15 -13 15 -22 0 -8 7 -15 15 -15 9 0 18 -7 22 -16 3 -8 16 -20 29 -25 13
-4 24 -15 24 -24 0 -8 6 -15 13 -15 7 0 23 -11 35 -25 22 -25 22 -29 22 -410
l0 -385 -3667 0 -3668 0 0 1955 0 1955 1922 0 c1913 0 1922 0 1928 -20z m3485
-1046 c0 -687 -3 -1063 -10 -1059 -5 3 -15 24 -21 45 -7 22 -15 40 -19 40 -4
0 -13 19 -19 43 -7 23 -22 61 -32 84 -10 23 -19 45 -19 48 0 7 -37 90 -76 170
-13 28 -24 58 -24 67 0 9 -4 19 -8 22 -5 3 -26 51 -47 108 -22 57 -45 109 -52
116 -7 7 -13 19 -13 25 0 7 -9 28 -19 48 -11 20 -24 55 -31 77 -6 23 -15 42
-21 42 -6 0 -8 4 -4 9 3 5 1 12 -5 16 -5 3 -10 15 -10 26 0 11 -9 37 -19 57
-35 66 -58 116 -71 157 -7 22 -16 42 -19 45 -7 5 -42 93 -69 175 -9 28 -22 56
-29 63 -7 7 -13 19 -13 25 0 7 -11 33 -25 59 -14 26 -25 54 -25 63 0 8 -5 15
-12 15 -6 0 -8 3 -5 6 3 4 0 16 -8 28 -8 11 -15 27 -15 36 -1 8 -9 33 -20 55
-11 22 -20 45 -20 50 0 6 -14 37 -30 70 -17 33 -30 67 -30 77 0 10 -4 18 -9
18 -4 0 -19 28 -32 63 -13 34 -25 65 -27 70 -2 4 201 7 452 7 l456 0 0 -1066z
m1358 429 c-4 -8 -13 -29 -42 -95 -9 -20 -16 -41 -16 -47 0 -6 -8 -25 -19 -44
-10 -18 -22 -49 -26 -68 -4 -19 -13 -41 -20 -49 -7 -8 -18 -37 -24 -65 -7 -27
-18 -57 -26 -65 -7 -8 -16 -31 -20 -50 -4 -19 -13 -42 -20 -50 -6 -8 -18 -37
-25 -65 -7 -27 -19 -57 -26 -65 -7 -8 -13 -19 -14 -25 -3 -26 -14 -58 -31 -92
-10 -21 -19 -43 -19 -51 0 -7 -9 -33 -20 -58 -11 -24 -29 -63 -39 -86 -10 -24
-24 -63 -31 -88 -7 -25 -15 -49 -19 -55 -4 -5 -13 -29 -21 -52 -7 -23 -17 -40
-21 -37 -5 3 -9 -3 -9 -13 0 -23 -33 -117 -42 -121 -5 -2 -8 -12 -8 -22 0 -23
-20 -70 -30 -70 -4 0 -11 -17 -15 -37 -3 -20 -15 -55 -25 -77 -11 -23 -23 -57
-28 -76 -5 -19 -14 -34 -19 -33 -6 1 -13 -16 -17 -38 -4 -22 -15 -59 -26 -82
-10 -23 -23 -60 -29 -82 -6 -22 -17 -49 -25 -60 -9 -11 -16 -26 -16 -33 0 -7
-9 -31 -19 -53 -11 -22 -23 -54 -26 -72 -4 -18 -17 -54 -30 -82 -50 -107 -64
-141 -70 -177 -4 -21 -11 -38 -15 -38 -4 0 -10 -13 -13 -30 -9 -41 -25 -38
-43 8 -8 20 -21 51 -29 67 -30 66 -55 123 -75 175 l-22 55 3 1052 4 1053 553
0 c304 0 552 -3 550 -7z m108 -450 c-12 -82 -14 -113 -26 -293 -7 -96 -16
-236 -21 -310 -5 -74 -15 -235 -23 -357 -7 -121 -16 -225 -20 -231 -9 -14 -15
-86 -27 -302 -6 -107 -15 -240 -20 -295 -5 -55 -15 -206 -22 -335 -8 -130 -18
-247 -22 -260 -4 -14 -9 -59 -11 -100 -1 -41 -7 -133 -13 -205 -5 -71 -13
-183 -17 -248 -4 -65 -11 -120 -16 -123 -4 -3 -8 -38 -8 -78 0 -40 -3 -121 -7
-179 l-6 -107 -3493 0 -3494 0 6 48 c3 26 9 56 14 67 4 11 14 66 20 122 l12
103 2927 0 c1609 0 2940 4 2956 8 17 5 45 5 63 1 26 -6 32 -4 32 10 0 9 4 21
8 27 5 5 14 28 21 52 6 23 16 42 21 42 4 0 11 19 15 42 4 23 16 57 26 75 11
19 19 38 19 44 0 6 11 34 24 62 14 29 28 69 31 90 4 20 11 37 16 37 4 0 15 23
23 50 21 69 23 72 50 47 60 -57 93 -85 115 -96 23 -13 23 -12 17 15 -4 16 -18
51 -32 80 -13 28 -24 56 -24 62 0 6 -9 29 -21 51 -24 46 -21 72 17 157 13 30
24 61 24 69 0 8 3 15 8 15 4 0 16 28 26 63 10 34 22 67 26 72 5 6 14 29 21 53
6 23 16 42 20 42 4 0 10 18 14 39 4 22 13 45 21 52 7 6 12 15 9 19 -3 5 -1 11
5 15 5 3 10 14 10 23 0 10 9 35 20 57 11 21 23 54 26 73 4 18 12 36 19 38 7 3
16 22 20 42 3 20 15 55 25 77 10 22 23 57 30 78 6 20 16 37 21 37 5 0 8 3 7 8
-3 11 24 95 38 117 7 11 16 37 19 58 4 20 11 37 15 37 8 0 40 93 40 116 0 8 4
14 8 14 5 0 15 19 22 43 8 23 17 47 20 52 4 6 14 33 24 60 10 28 21 59 26 70
5 11 14 37 21 58 7 20 17 37 21 37 5 0 8 6 7 13 -2 13 6 41 22 69 5 10 9 25 9
33 0 8 4 15 9 15 5 0 12 15 15 33 3 18 15 51 26 72 11 22 20 46 20 55 0 8 9
29 19 46 10 17 22 46 26 65 4 19 14 42 22 51 8 9 12 22 8 27 -3 6 -1 11 4 11
6 0 11 8 11 18 0 10 9 35 19 56 11 21 23 52 27 69 7 35 36 107 43 107 2 0 1
-21 -3 -47z"/>
<path d="M4690 5446 c0 -4 451 -453 736 -734 l64 -63 0 -861 0 -861 -338 -336
c-186 -185 -366 -362 -400 -393 -69 -64 -82 -94 -32 -75 17 6 30 15 30 19 0 4
5 8 10 8 6 0 43 16 83 35 39 19 78 35 84 35 7 0 13 4 13 10 0 5 18 15 40 21
22 7 40 15 40 19 0 4 25 15 55 25 30 11 55 23 55 27 0 4 18 13 40 19 22 7 40
16 40 20 0 4 17 13 37 20 21 7 58 23 82 36 24 12 50 23 57 23 8 0 14 4 14 9 0
5 15 14 33 20 17 6 54 22 81 36 27 14 55 25 63 25 7 0 13 4 13 10 0 5 18 15
40 21 22 7 40 16 40 20 0 4 25 16 55 25 30 10 55 21 55 25 0 4 17 13 37 20 21
6 44 18 51 26 14 13 51 9 62 -7 3 -4 22 -13 43 -19 20 -7 37 -17 37 -22 0 -5
6 -9 13 -9 6 0 45 -16 84 -35 40 -19 77 -35 83 -35 5 0 10 -4 10 -10 0 -5 6
-10 13 -10 6 0 45 -16 84 -35 40 -19 77 -35 83 -35 5 0 10 -4 10 -8 0 -5 18
-14 40 -21 22 -6 40 -16 40 -21 0 -6 6 -10 13 -10 6 0 45 -16 84 -35 40 -19
77 -35 83 -35 5 0 10 -4 10 -10 0 -5 6 -10 13 -10 6 0 45 -16 84 -35 40 -19
77 -35 83 -35 5 0 10 -4 10 -10 0 -5 5 -10 10 -10 6 0 45 -16 86 -35 41 -19
79 -35 84 -35 6 0 10 -4 10 -9 0 -5 14 -14 30 -20 27 -9 30 -8 30 9 0 11 -10
24 -21 31 -12 6 -192 181 -400 388 l-379 377 0 863 0 863 372 369 c205 203
386 380 403 393 16 13 27 27 23 32 -8 8 -118 -26 -118 -36 0 -4 -18 -13 -40
-20 -22 -7 -40 -17 -40 -22 0 -4 -5 -8 -10 -8 -6 0 -43 -16 -83 -35 -39 -19
-78 -35 -84 -35 -7 0 -13 -4 -13 -8 0 -5 -18 -15 -40 -22 -22 -7 -40 -16 -40
-20 0 -4 -25 -15 -55 -25 -30 -11 -55 -22 -55 -26 0 -4 -15 -12 -32 -18 -18
-6 -55 -22 -82 -36 -27 -14 -55 -25 -63 -25 -7 0 -13 -4 -13 -10 0 -5 -18 -15
-40 -21 -22 -7 -40 -16 -40 -21 0 -4 -5 -8 -10 -8 -6 0 -43 -16 -83 -35 -39
-19 -78 -35 -84 -35 -7 0 -13 -4 -13 -9 0 -5 -17 -15 -37 -22 -21 -6 -40 -15
-43 -19 -3 -3 -23 -13 -45 -22 -35 -14 -44 -14 -82 -1 -24 8 -43 18 -43 22 0
4 -18 13 -40 20 -22 6 -40 16 -40 21 0 6 -6 10 -13 10 -8 0 -36 11 -63 25 -27
14 -64 30 -81 36 -18 6 -33 15 -33 20 0 5 -6 9 -14 9 -7 0 -33 11 -57 23 -24
13 -61 29 -82 36 -20 7 -37 16 -37 20 0 4 -18 13 -40 20 -22 6 -40 15 -40 20
0 4 -25 15 -55 25 -30 9 -55 21 -55 25 0 4 -18 13 -40 20 -22 6 -40 16 -40 21
0 6 -6 10 -13 10 -8 0 -36 11 -63 25 -27 14 -64 30 -81 36 -18 6 -33 14 -33
19 0 5 -14 11 -30 15 -17 4 -36 12 -43 19 -22 21 -127 56 -127 42z m688 -416
c6 0 12 -4 12 -9 0 -5 23 -17 50 -26 28 -9 50 -20 50 -25 0 -4 20 -13 45 -20
24 -7 42 -16 40 -20 -3 -4 7 -11 23 -15 31 -7 154 -65 162 -75 3 -4 16 -11 30
-15 14 -4 70 -29 126 -56 55 -27 106 -49 112 -49 7 0 12 -4 12 -9 0 -5 23 -17
50 -26 28 -9 50 -20 50 -24 0 -5 15 -12 33 -17 l32 -10 3 -278 2 -279 -302
300 c-351 349 -587 580 -710 697 l-86 82 126 -63 c70 -35 133 -63 140 -63z
m1068 -96 c-181 -180 -211 -205 -232 -200 -13 4 -24 11 -24 16 0 6 -6 10 -14
10 -7 0 -33 11 -57 23 -24 13 -62 30 -84 37 -39 13 -39 13 -15 24 14 5 57 25
97 43 40 18 77 33 83 33 5 0 10 5 10 10 0 6 5 10 10 10 6 0 43 16 83 35 39 19
78 35 84 35 7 0 13 4 13 8 0 5 18 15 40 22 22 7 40 17 40 22 0 4 6 8 13 9 6 0
44 15 82 34 39 19 72 34 74 35 2 0 -89 -93 -203 -206z m-690 -542 l70 -68
-123 -122 -123 -122 0 241 0 242 53 -51 c28 -29 84 -82 123 -120z m298 -297
l156 -154 0 -153 0 -153 -158 -157 -158 -157 -157 156 -157 155 0 155 0 155
153 153 c83 85 155 154 159 154 3 1 76 -69 162 -154z m-90 -980 c621 -609 698
-685 687 -685 -5 0 -16 6 -23 14 -8 7 -30 19 -51 27 -20 7 -37 17 -37 21 0 4
-6 8 -13 8 -6 0 -45 16 -84 35 -40 19 -77 35 -83 35 -5 0 -10 5 -10 10 0 6 -6
10 -13 10 -6 0 -45 16 -84 35 -40 19 -77 35 -83 35 -5 0 -10 5 -10 10 0 6 -5
10 -10 10 -6 0 -45 16 -86 35 -41 19 -79 35 -84 35 -6 0 -10 4 -10 8 0 5 -18
15 -40 22 -22 7 -40 16 -40 20 0 3 -25 14 -55 25 -30 10 -55 21 -55 25 0 4
-18 13 -40 20 -22 7 -40 16 -40 20 0 3 -17 12 -37 19 -89 31 -83 7 -83 313 0
267 0 271 19 252 10 -10 175 -172 365 -359z m246 135 l0 -240 -124 122 -124
121 117 118 c64 64 119 118 124 118 4 1 7 -107 7 -239z m-598 -427 c24 -9 45
-20 48 -23 3 -4 22 -13 43 -21 20 -7 37 -17 37 -21 0 -4 8 -8 18 -8 14 0 12
-4 -8 -20 -14 -11 -39 -24 -57 -30 -17 -6 -76 -33 -130 -60 -54 -28 -104 -50
-110 -50 -7 0 -13 -4 -13 -10 0 -5 -5 -10 -11 -10 -7 0 -45 -16 -85 -35 -40
-19 -77 -35 -83 -35 -6 0 -11 -4 -11 -10 0 -5 -5 -10 -11 -10 -6 0 -34 -12
-62 -26 -46 -23 -31 -5 156 180 114 113 214 206 222 206 8 0 34 -8 57 -17z"/>
</g>
</svg>
