<?xml version="1.0" standalone="no"?>
<!DOCTYPE svg PUBLIC "-//W3C//DTD SVG 20010904//EN"
 "http://www.w3.org/TR/2001/REC-SVG-20010904/DTD/svg10.dtd">
<svg version="1.0" xmlns="http://www.w3.org/2000/svg"
 width="2070.000000pt" height="2070.000000pt" viewBox="0 0 2070.000000 2070.000000"
 preserveAspectRatio="xMidYMid meet">
<metadata>
Created by potrace 1.15, written by Peter Selinger 2001-2017
</metadata>
<g transform="translate(0.000000,2070.000000) scale(0.100000,-0.100000)"
fill="#000000" stroke="none">
<path d="M9245 14723 c-82 -9 -151 -19 -153 -24 -2 -4 -30 -11 -63 -15 -32 -4
-59 -10 -59 -15 0 -4 -34 -13 -75 -20 -41 -7 -75 -16 -75 -20 0 -4 -25 -13
-55 -19 -30 -6 -55 -15 -55 -19 0 -4 -25 -14 -55 -21 -30 -7 -55 -16 -55 -20
0 -3 -20 -11 -45 -18 -25 -7 -45 -16 -45 -21 0 -5 -13 -12 -30 -16 -16 -4 -30
-11 -30 -15 0 -5 -18 -15 -40 -21 -22 -7 -40 -15 -40 -19 0 -3 -16 -12 -35
-19 -19 -7 -35 -16 -35 -21 0 -5 -10 -12 -22 -16 -13 -4 -33 -14 -44 -23 -12
-9 -30 -22 -40 -28 -11 -7 -36 -24 -57 -38 -21 -14 -42 -25 -47 -25 -5 0 -14
-9 -20 -20 -6 -11 -17 -20 -26 -20 -8 0 -17 -7 -20 -15 -3 -8 -14 -17 -23 -20
-10 -3 -35 -23 -57 -45 -21 -22 -42 -40 -46 -40 -9 0 -218 -211 -287 -289 -25
-28 -54 -65 -65 -83 -11 -18 -31 -44 -43 -57 -12 -14 -27 -38 -34 -53 -6 -15
-15 -28 -20 -28 -5 0 -9 -6 -9 -14 0 -8 -8 -21 -17 -28 -10 -7 -25 -26 -33
-43 -8 -16 -31 -57 -51 -90 -78 -131 -155 -307 -205 -470 -14 -44 -30 -93 -35
-110 -15 -42 -38 -148 -50 -225 -6 -36 -17 -102 -24 -147 -18 -97 -21 -577 -5
-633 6 -19 15 -80 21 -135 6 -55 14 -104 19 -110 5 -6 12 -35 16 -65 3 -30 13
-65 20 -77 8 -12 14 -34 14 -47 0 -58 134 -384 229 -555 31 -57 147 -229 183
-272 21 -26 38 -51 38 -56 0 -4 50 -61 110 -125 61 -64 110 -120 110 -124 0
-4 -378 -385 -840 -847 -462 -462 -840 -844 -840 -850 0 -6 -27 -34 -59 -64
-150 -136 -163 -338 -30 -475 70 -71 134 -98 234 -98 142 0 126 -12 670 531
265 263 488 479 497 479 9 0 47 14 85 30 64 29 93 56 479 442 l412 411 107
-52 c59 -28 113 -51 120 -51 8 0 17 -4 20 -10 3 -5 25 -14 48 -20 23 -6 56
-17 72 -24 17 -8 55 -21 85 -29 30 -9 78 -23 106 -31 28 -8 84 -20 125 -27 41
-6 79 -15 84 -19 16 -13 123 -20 405 -26 202 -4 293 -1 385 10 129 16 293 48
338 65 16 6 40 11 55 11 15 0 36 7 46 15 11 8 27 15 35 15 17 0 85 25 206 76
44 19 85 34 90 34 6 0 27 11 47 25 20 14 43 25 50 25 25 1 98 79 134 145 6 11
49 47 96 80 136 97 222 169 356 304 250 249 414 488 561 819 28 62 56 131 62
153 8 23 34 61 66 94 29 31 53 62 53 70 0 9 4 23 10 33 9 17 33 149 50 287 18
145 23 390 11 560 -7 94 -16 179 -21 190 -4 11 -15 63 -23 115 -8 52 -20 109
-25 125 -6 17 -30 90 -53 163 -23 73 -46 135 -51 138 -4 3 -8 12 -8 21 0 17
-14 48 -89 203 -56 114 -60 120 -108 192 -18 26 -33 50 -33 54 0 6 -70 103
-147 202 -91 118 -371 390 -472 458 -20 14 -54 38 -76 55 -22 16 -49 34 -60
40 -11 5 -47 27 -80 49 -33 21 -94 56 -135 78 -41 21 -84 43 -95 49 -11 6 -36
18 -55 26 -19 8 -56 24 -81 36 -25 12 -55 21 -65 21 -11 0 -28 6 -39 14 -11 7
-35 17 -53 21 -18 4 -45 13 -60 21 -15 8 -38 14 -52 14 -14 0 -45 6 -70 14
-216 70 -648 95 -1015 59z m630 -722 c5 -5 48 -14 95 -20 88 -13 164 -33 213
-57 16 -8 36 -14 45 -14 8 0 34 -8 56 -19 23 -10 61 -27 86 -37 48 -21 140
-70 205 -109 22 -13 47 -27 55 -32 8 -4 20 -11 25 -15 59 -47 116 -88 121 -88
17 0 314 -296 314 -313 0 -5 15 -27 33 -50 54 -68 131 -195 179 -297 51 -106
88 -199 88 -218 0 -7 6 -23 12 -35 30 -54 62 -213 79 -392 13 -138 13 -181 0
-330 -16 -183 -41 -293 -105 -470 -39 -106 -125 -285 -137 -285 -4 0 -10 -11
-13 -24 -3 -14 -12 -31 -19 -38 -6 -7 -19 -26 -27 -43 -8 -16 -22 -37 -30 -46
-8 -9 -22 -26 -30 -37 -60 -83 -96 -125 -178 -205 -113 -112 -176 -167 -191
-167 -6 0 -11 -5 -11 -10 0 -6 -11 -15 -25 -20 -14 -5 -25 -14 -25 -20 0 -6
-13 -16 -30 -21 -16 -6 -30 -14 -30 -19 0 -4 -13 -13 -30 -20 -16 -7 -30 -16
-30 -20 0 -4 -8 -10 -17 -14 -10 -3 -25 -9 -33 -14 -37 -22 -61 -32 -74 -32
-8 0 -16 -7 -19 -14 -3 -8 -22 -18 -41 -22 -20 -3 -36 -10 -36 -14 0 -4 -22
-13 -50 -20 -27 -7 -50 -16 -50 -20 0 -5 -18 -11 -40 -15 -22 -4 -40 -10 -40
-15 0 -4 -31 -14 -70 -21 -38 -7 -70 -15 -70 -19 0 -9 -68 -18 -187 -27 -46
-3 -83 -10 -83 -15 0 -11 -289 -4 -385 10 -38 6 -95 14 -125 18 -30 4 -59 10
-65 14 -5 4 -26 11 -45 15 -52 10 -176 53 -249 86 -35 16 -70 29 -77 29 -8 0
-14 4 -14 8 0 5 -18 16 -41 26 -58 26 -159 86 -206 124 -22 17 -45 32 -49 32
-15 0 -274 234 -274 246 0 4 -23 32 -52 63 -28 31 -58 67 -67 81 -9 14 -33 48
-54 77 -69 94 -163 279 -213 418 -49 134 -82 280 -100 440 -25 223 -26 235
-16 248 5 7 13 62 16 122 4 61 12 125 18 144 6 18 16 59 23 90 22 94 43 163
70 236 40 108 145 314 187 367 21 26 38 51 38 56 0 10 139 176 151 180 5 2 9
9 9 16 0 13 77 92 108 110 11 6 55 42 98 80 44 37 86 71 94 74 8 3 35 20 60
36 65 45 75 50 190 106 147 72 161 78 195 86 17 4 35 11 42 16 15 12 103 35
218 57 50 9 97 20 105 24 38 17 503 15 525 -2z"/>
<path d="M10838 12183 c12 -497 -116 -824 -410 -1043 -179 -133 -385 -206
-691 -246 -128 -17 -138 -20 -135 -39 6 -38 42 -44 183 -30 72 7 153 18 180
25 344 83 567 219 731 446 49 68 134 240 134 271 0 10 4 23 9 29 5 5 19 54 31
109 32 138 41 502 16 569 -9 24 -25 51 -34 59 -17 15 -17 7 -14 -150z"/>
<path d="M15250 11590 c0 -5 9 -12 20 -15 37 -12 23 -35 -20 -35 -37 0 -247
-38 -330 -60 -189 -49 -253 -68 -368 -106 -125 -41 -228 -79 -297 -109 -16 -7
-78 -33 -137 -59 -119 -51 -295 -138 -399 -197 -37 -21 -83 -47 -101 -57 -18
-11 -76 -45 -128 -78 -773 -477 -1514 -1184 -2192 -2094 -210 -282 -469 -662
-483 -710 -4 -14 -5 -23 -3 -20 3 3 54 64 113 135 158 191 248 289 360 392
206 188 437 361 735 551 30 20 67 44 82 54 15 10 30 18 34 18 3 0 18 8 32 19
73 50 407 225 592 308 30 14 62 29 70 34 8 5 22 12 30 15 8 3 34 15 58 25 24
11 83 33 132 48 149 49 145 53 -40 46 -282 -10 -443 -32 -700 -95 -75 -18
-108 -29 -205 -65 -55 -20 -111 -40 -125 -43 -22 -5 -24 -3 -11 11 7 10 18 17
24 17 6 0 119 107 252 239 266 265 306 302 481 452 599 514 1245 890 1889
1099 66 21 134 42 150 46 17 4 35 9 40 13 15 9 316 72 512 107 27 5 40 43 24
71 -10 20 -91 58 -91 43z"/>
<path d="M15293 9625 c21 -19 41 -35 44 -35 3 0 19 -11 37 -25 17 -14 41 -33
52 -43 12 -9 31 -24 44 -32 12 -8 57 -42 101 -75 159 -121 265 -201 299 -224
19 -13 42 -30 50 -37 14 -13 83 -66 156 -119 103 -75 382 -287 395 -300 9 -8
19 -15 24 -15 5 0 15 -7 24 -15 9 -9 37 -31 64 -51 26 -19 47 -41 47 -49 0 -8
-1 -15 -2 -15 -184 -12 -1018 -40 -1203 -40 -143 0 -352 -3 -465 -7 l-205 -6
40 -18 c22 -10 56 -19 75 -19 19 -1 73 -8 120 -16 102 -18 92 -18 850 1 624
16 813 26 836 46 8 6 14 26 14 44 0 31 -13 42 -247 218 -137 102 -452 339
-702 526 -249 188 -461 341 -470 341 -11 0 -4 -11 22 -35z"/>
<path d="M15416 8398 c10 -13 96 -92 193 -175 97 -84 199 -172 226 -196 28
-24 122 -106 210 -183 286 -247 367 -317 560 -485 105 -90 201 -172 214 -181
13 -9 29 -26 35 -37 21 -38 105 -159 114 -165 5 -3 18 -3 30 1 21 5 21 5 -4
31 -13 15 -24 29 -24 33 0 19 -90 120 -162 182 -46 39 -234 203 -418 362 -183
160 -406 353 -495 430 -89 77 -224 194 -301 261 -127 110 -172 144 -189 144
-3 0 2 -10 11 -22z"/>
<path d="M8250 7745 c-126 -12 -203 -22 -340 -45 -30 -5 -91 -14 -135 -20 -44
-7 -101 -18 -127 -26 -26 -8 -58 -14 -71 -14 -14 0 -60 -9 -103 -20 -44 -11
-90 -20 -104 -20 -14 0 -38 -7 -54 -15 -15 -8 -40 -15 -54 -15 -24 0 -59 -9
-127 -32 -16 -6 -48 -14 -70 -19 -22 -4 -58 -12 -80 -18 -22 -6 -59 -14 -83
-19 -24 -5 -49 -15 -55 -21 -6 -6 -26 -11 -43 -11 -18 0 -36 -4 -39 -10 -3 -5
-16 -10 -28 -10 -12 0 -35 -7 -51 -15 -15 -8 -41 -15 -57 -15 -15 0 -31 -4
-34 -10 -3 -5 -19 -10 -35 -10 -16 0 -35 -7 -44 -15 -8 -8 -28 -15 -45 -15
-17 0 -31 -4 -31 -10 0 -5 13 -10 29 -10 17 0 33 5 36 10 3 6 16 10 27 10 12
0 35 4 52 9 17 6 58 17 91 26 33 9 68 20 77 26 10 5 33 9 52 9 19 0 38 5 41
10 3 6 21 10 40 10 19 0 37 5 40 10 3 6 21 10 38 10 18 1 43 7 57 15 14 8 42
14 62 15 20 0 40 5 43 10 3 6 17 10 30 10 26 0 89 13 170 35 28 8 64 16 80 18
50 8 208 37 250 48 22 5 72 14 110 19 39 5 90 13 115 19 25 5 99 15 165 21 66
6 141 16 166 20 83 16 486 22 619 10 69 -6 151 -14 184 -17 46 -4 57 -2 54 9
-3 7 -22 15 -44 18 -21 3 -45 9 -52 14 -53 33 -462 45 -722 21z"/>
<path d="M11890 7660 c-47 -5 -141 -12 -210 -18 -150 -13 -317 -38 -381 -58
-26 -8 -56 -14 -68 -14 -32 0 -218 -51 -299 -81 -13 -5 -31 -9 -41 -9 -10 0
-24 -7 -31 -15 -7 -8 -23 -15 -35 -15 -12 0 -28 -7 -35 -15 -7 -8 -21 -15 -31
-15 -10 0 -21 -4 -24 -10 -4 -6 6 -10 24 -10 16 0 33 5 36 10 3 6 17 10 30 10
13 0 27 5 30 10 3 6 17 10 30 10 13 0 34 4 47 9 46 18 183 54 268 71 30 6 75
16 100 22 96 22 378 53 629 68 256 16 496 4 1024 -50 48 -5 93 -12 99 -16 5
-4 40 -10 77 -15 63 -8 104 -14 236 -38 105 -19 149 -28 200 -41 28 -6 66 -16
85 -21 19 -4 60 -13 90 -19 30 -6 69 -16 85 -22 17 -6 44 -12 60 -15 17 -2 39
-8 50 -13 11 -5 34 -11 50 -15 88 -18 108 -24 118 -34 6 -6 26 -11 43 -11 18
0 36 -4 39 -10 8 -13 65 -13 65 0 0 5 -12 12 -27 16 -16 3 -37 9 -48 14 -11 5
-31 11 -45 13 -28 6 -86 25 -112 38 -10 5 -30 9 -46 9 -15 0 -33 5 -39 11 -12
12 -68 26 -136 36 -20 3 -40 9 -43 14 -3 5 -22 9 -42 9 -21 0 -46 6 -57 14
-11 7 -38 16 -60 19 -54 8 -131 23 -180 35 -22 6 -67 15 -100 22 -33 6 -79 15
-103 20 -23 6 -55 10 -70 10 -15 0 -56 6 -92 15 -76 17 -372 52 -510 60 -52 3
-144 10 -205 15 -126 10 -321 10 -445 0z"/>
<path d="M8400 7374 c-14 -2 -86 -8 -160 -14 -122 -9 -192 -19 -345 -49 -27
-5 -57 -10 -64 -10 -11 -1 -12 -4 -4 -12 7 -7 29 -9 60 -5 345 46 653 58 883
35 58 -6 137 -14 175 -17 39 -4 76 -11 83 -15 7 -5 31 -10 55 -12 99 -10 143
-17 164 -27 11 -6 27 -8 35 -5 9 3 7 7 -7 12 -11 3 -29 11 -40 17 -21 12 -72
25 -145 37 -25 4 -51 10 -58 15 -37 23 -538 62 -632 50z"/>
<path d="M12438 7213 c-10 -2 -18 -8 -18 -13 0 -14 42 -20 145 -20 55 -1 174
-7 265 -16 91 -8 215 -18 275 -24 61 -5 137 -13 170 -19 33 -6 123 -17 200
-26 77 -8 185 -23 240 -31 55 -9 129 -20 165 -24 36 -5 77 -11 92 -15 15 -4
40 -4 55 0 26 7 26 8 8 15 -11 5 -34 9 -50 9 -17 1 -36 6 -42 12 -6 6 -35 14
-64 19 -96 15 -243 41 -294 52 -27 6 -77 14 -110 18 -33 4 -116 15 -185 24
-69 9 -177 23 -240 31 -108 14 -567 20 -612 8z"/>
<path d="M10235 7120 c-225 -33 -457 -162 -660 -369 -33 -34 -65 -61 -73 -61
-7 0 -30 9 -51 20 -117 59 -239 80 -476 80 -216 0 -321 -9 -790 -66 -71 -8
-168 -20 -215 -25 -47 -5 -96 -11 -109 -14 -14 -4 -59 -10 -100 -15 -76 -9
-139 -18 -326 -44 -261 -37 -336 -48 -415 -61 -47 -8 -150 -24 -230 -35 -80
-12 -165 -26 -190 -31 -48 -10 -481 -43 -789 -59 -101 -5 -197 -12 -215 -15
-31 -5 -248 -18 -591 -36 -99 -5 -263 -13 -365 -18 -102 -5 -295 -15 -430 -21
-135 -6 -251 -13 -258 -15 -7 -3 -153 -9 -325 -15 -306 -10 -432 -22 -451 -41
-6 -5 -22 -9 -37 -9 -48 0 -52 -16 -44 -170 5 -102 11 -143 22 -151 17 -15
393 -5 422 11 11 5 62 10 113 11 51 0 194 7 318 15 440 29 507 32 680 40 96 3
182 10 190 15 9 4 139 12 290 19 151 6 289 15 305 20 17 5 125 12 240 16 116
4 217 10 226 15 9 4 132 13 275 19 142 6 268 15 279 20 11 4 155 14 320 20
165 7 307 15 315 20 8 4 94 11 190 15 96 3 234 11 305 16 72 4 222 14 335 22
113 7 212 16 220 19 8 4 85 9 170 12 407 16 466 19 481 27 8 4 141 13 295 19
153 6 296 16 318 22 42 13 35 16 142 -57 207 -139 448 -237 649 -264 219 -30
499 -3 690 66 74 27 243 112 297 150 26 18 51 33 54 33 4 0 31 18 60 41 52 40
54 41 116 35 35 -4 169 -11 298 -16 424 -18 440 -20 440 -39 0 -10 3 -21 7
-25 13 -13 32 -166 33 -258 0 -47 3 -93 6 -102 6 -16 57 -22 88 -10 14 5 69
78 101 133 6 9 16 23 22 31 12 14 44 57 127 174 l40 55 45 -5 c48 -6 115 -45
202 -116 26 -21 52 -38 58 -38 6 0 11 -3 11 -7 0 -5 12 -16 28 -25 15 -10 49
-33 77 -53 70 -50 125 -45 125 12 0 24 -22 112 -39 156 -19 50 -15 60 22 52
37 -8 346 -24 1217 -65 113 -5 288 -14 390 -20 102 -5 289 -14 415 -20 372
-16 648 -30 830 -40 94 -6 292 -15 440 -20 149 -5 293 -14 320 -20 28 -5 216
-14 419 -20 204 -6 378 -16 387 -21 26 -14 82 -11 105 6 19 13 22 28 29 162 6
134 5 148 -11 160 -10 7 -27 13 -38 13 -14 1 -34 20 -59 56 -21 30 -55 65 -76
78 -24 15 -55 53 -84 99 -40 64 -62 87 -83 87 -11 0 -2 -32 19 -66 58 -98 70
-114 87 -114 27 0 50 -11 50 -22 0 -6 16 -33 35 -59 19 -27 35 -54 35 -59 0
-12 -28 -12 -182 0 -68 5 -247 14 -398 20 -151 6 -297 13 -325 15 -27 2 -153
9 -280 15 -126 5 -306 15 -400 20 -93 5 -285 14 -425 20 -140 6 -327 15 -415
21 -88 6 -259 14 -380 19 -407 17 -960 50 -1010 60 -27 5 -131 21 -230 35 -99
14 -209 29 -245 34 -36 6 -103 15 -150 21 -47 6 -131 18 -187 27 l-102 16 -45
57 c-24 32 -73 82 -108 111 -35 29 -62 56 -61 60 2 5 -16 13 -40 19 -23 6 -58
15 -78 20 -20 6 -57 10 -82 10 -25 0 -58 5 -73 10 -31 12 -646 16 -665 4 -22
-13 15 -24 82 -24 l67 0 76 -81 c42 -44 76 -85 76 -90 0 -5 -73 -9 -167 -9
-225 0 -349 -22 -464 -80 -21 -11 -44 -20 -51 -20 -7 0 -45 29 -83 65 -195
182 -398 302 -595 351 -69 18 -275 26 -355 14z"/>
<path d="M7470 6900 c-8 -5 -37 -10 -63 -10 -27 0 -76 -7 -110 -15 -34 -8
-109 -19 -167 -26 -58 -6 -118 -15 -134 -20 -16 -5 -45 -9 -65 -9 -20 0 -52
-4 -71 -10 -19 -5 -61 -12 -93 -15 -32 -2 -63 -8 -69 -12 -6 -3 -41 -10 -77
-14 -100 -11 -203 -28 -235 -39 -16 -6 -46 -10 -67 -10 -21 0 -48 -4 -61 -9
-13 -6 -44 -13 -70 -16 -27 -3 -48 -11 -48 -17 0 -10 33 -8 185 12 44 6 112
14 150 19 185 24 232 31 255 40 14 5 54 12 90 16 96 10 173 21 285 40 122 20
199 32 286 44 37 4 73 12 80 17 8 5 39 11 69 14 30 3 54 10 53 15 -4 13 -104
18 -123 5z"/>
<path d="M14625 6844 c-86 -22 -49 -31 180 -44 116 -6 287 -18 380 -26 94 -7
211 -14 261 -14 50 0 116 -5 145 -11 30 -6 113 -12 184 -14 72 -2 178 -7 238
-11 78 -5 107 -4 107 4 0 8 -21 12 -59 12 -32 0 -78 7 -101 15 -26 9 -79 15
-134 15 -50 0 -131 7 -179 15 -48 8 -94 12 -101 9 -7 -3 -77 2 -154 10 -78 9
-174 16 -215 16 -41 0 -96 4 -123 9 -56 11 -399 22 -429 15z"/>
</g>
</svg>
