<?xml version="1.0" standalone="no"?>
<!DOCTYPE svg PUBLIC "-//W3C//DTD SVG 20010904//EN"
 "http://www.w3.org/TR/2001/REC-SVG-20010904/DTD/svg10.dtd">
<svg version="1.0" xmlns="http://www.w3.org/2000/svg"
 width="2070.000000pt" height="2070.000000pt" viewBox="0 0 2070.000000 2070.000000"
 preserveAspectRatio="xMidYMid meet">
<metadata>
Created by potrace 1.15, written by Peter Selinger 2001-2017
</metadata>
<g transform="translate(0.000000,2070.000000) scale(0.100000,-0.100000)"
fill="#000000" stroke="none">
<path d="M10284 16245 c-2 -11 -3 -193 -2 -405 l3 -385 -709 3 c-473 1 -713
-1 -720 -8 -5 -5 -25 -10 -42 -10 -18 0 -39 -7 -48 -15 -8 -8 -26 -15 -41 -15
-15 0 -24 -4 -20 -10 3 -5 -1 -10 -9 -10 -29 0 -111 -77 -147 -137 -14 -24
-29 -40 -34 -36 -4 5 -5 3 -1 -4 10 -18 -4 -68 -15 -51 -6 8 -9 9 -9 1 0 -6
-3 -20 -6 -30 -5 -15 -4 -15 5 -3 17 23 13 2 -5 -24 -13 -21 -15 -65 -12 -313
l3 -288 33 -58 c42 -74 134 -172 187 -199 22 -11 43 -26 47 -32 4 -6 8 -43 8
-83 0 -112 20 -221 46 -261 13 -19 24 -38 24 -41 -1 -15 -18 -32 -31 -31 -26
4 -40 0 -34 -9 7 -12 -31 -25 -45 -16 -5 3 -10 -1 -10 -11 0 -11 -6 -15 -20
-11 -11 3 -20 1 -20 -5 0 -5 -4 -7 -9 -4 -5 3 -14 -1 -21 -9 -7 -8 -16 -13
-20 -10 -4 3 -18 -4 -31 -14 -13 -10 -30 -16 -36 -14 -7 3 -13 0 -13 -6 0 -6
-7 -11 -15 -11 -8 0 -15 -5 -15 -11 0 -6 -6 -9 -14 -6 -8 3 -16 2 -18 -3 -2
-5 -16 -11 -33 -14 -16 -3 -31 -10 -33 -16 -2 -5 -12 -10 -22 -10 -10 0 -22
-5 -25 -10 -4 -6 -10 -8 -15 -5 -5 3 -12 -1 -17 -8 -4 -7 -21 -18 -38 -24 -16
-6 -39 -15 -50 -19 -11 -4 -24 -6 -28 -5 -5 1 -6 -3 -3 -8 7 -10 -31 -27 -51
-23 -6 2 -14 -2 -18 -8 -3 -5 -17 -10 -31 -10 -13 0 -24 -4 -24 -10 0 -5 -7
-10 -15 -10 -8 0 -15 -4 -15 -9 0 -5 -15 -13 -32 -17 -18 -3 -37 -13 -43 -20
-5 -8 -22 -15 -37 -16 -15 -1 -24 -6 -22 -10 3 -4 -4 -8 -15 -8 -12 0 -21 -4
-21 -9 0 -5 -20 -14 -45 -20 -25 -6 -48 -18 -51 -26 -4 -8 -10 -12 -15 -9 -5
3 -9 1 -9 -5 0 -5 -14 -9 -32 -9 -18 1 -34 -4 -36 -10 -2 -7 -12 -12 -22 -12
-10 0 -21 -7 -24 -16 -4 -11 -13 -14 -27 -11 -14 4 -29 -2 -46 -19 -26 -26
-38 -31 -27 -11 4 6 -4 2 -17 -9 -13 -12 -30 -19 -36 -17 -7 3 -13 0 -13 -6 0
-6 -12 -11 -26 -11 -15 0 -32 -7 -38 -16 -6 -8 -18 -16 -26 -18 -25 -5 -55
-19 -61 -29 -4 -5 -18 -10 -33 -10 -14 -1 -26 -7 -26 -13 0 -6 -14 -11 -32
-12 -20 0 -40 -10 -55 -26 -24 -26 -40 -35 -28 -16 3 6 -1 7 -9 4 -9 -3 -16
-10 -16 -15 0 -4 -7 -6 -15 -3 -10 4 -15 0 -15 -11 0 -11 -5 -15 -15 -12 -8 4
-17 2 -20 -3 -3 -5 -12 -7 -20 -3 -8 3 -15 0 -15 -6 0 -6 -7 -11 -15 -11 -8 0
-15 -4 -15 -10 0 -5 -3 -9 -7 -8 -5 1 -24 -4 -43 -11 -19 -8 -39 -13 -43 -12
-5 1 -6 -3 -3 -8 4 -5 -8 -17 -25 -25 -29 -14 -143 -16 -1056 -16 l-1023 0
-40 -41 c-31 -32 -40 -49 -41 -78 0 -29 -2 -32 -9 -16 -6 15 -9 7 -9 -31 -1
-39 5 -60 29 -97 l30 -48 -2 -3949 c-2 -2628 0 -3950 7 -3950 6 0 3 -6 -5 -13
-19 -15 -40 -61 -40 -88 0 -13 -4 -18 -11 -13 -8 5 -10 -9 -7 -48 5 -65 40
-117 96 -145 36 -17 217 -18 5567 -18 5403 0 5531 0 5568 19 21 10 50 35 65
54 24 31 27 45 27 108 0 59 -4 78 -22 103 l-23 30 0 3963 1 3963 24 40 c29 46
33 116 11 168 -21 51 -116 124 -116 90 0 -5 -505 -7 -1122 -5 -616 1 -1118 5
-1115 9 11 10 -13 33 -34 33 -11 0 -19 -5 -19 -11 0 -5 -5 -7 -11 -3 -8 4 -7
9 2 15 10 6 9 9 -6 14 -11 4 -42 17 -70 30 -27 12 -70 32 -95 43 -25 11 -88
39 -140 62 -52 24 -111 49 -130 57 -19 8 -51 23 -70 33 -19 10 -73 34 -120 54
-47 19 -109 46 -137 60 -29 14 -56 26 -59 26 -3 0 -40 16 -82 36 -42 19 -86
39 -97 44 -11 5 -59 27 -107 49 -48 23 -89 41 -92 41 -6 0 -103 43 -154 69
-27 13 -34 14 -41 2 -6 -9 -11 -10 -15 -2 -4 6 -2 11 5 11 20 0 -1 14 -51 35
-73 30 -170 78 -176 86 -2 4 4 10 15 14 33 10 98 89 133 161 32 67 33 73 38
226 l5 157 63 56 c34 31 62 61 62 67 0 5 11 24 24 41 50 68 56 109 56 402 0
268 0 272 -26 335 -34 85 -49 106 -113 168 -71 68 -162 112 -244 118 -34 3
-348 8 -697 10 -488 3 -636 7 -642 17 -4 6 -8 174 -8 373 0 217 -4 373 -10
390 l-10 29 -161 0 c-152 0 -160 -1 -165 -20z m245 -18 c7 -10 12 -137 13
-408 l3 -394 710 -5 c782 -6 741 -2 839 -69 75 -52 130 -124 160 -209 25 -74
26 -85 26 -294 0 -229 -2 -240 -53 -348 -27 -55 -80 -115 -128 -146 l-37 -23
-4 -168 c-4 -145 -7 -175 -26 -216 -28 -61 -100 -138 -154 -164 -117 -56 -44
-53 -1454 -53 -1366 0 -1334 -1 -1434 43 -47 21 -101 79 -146 157 l-37 65 -5
152 -4 152 -62 30 c-100 47 -177 139 -212 251 -18 58 -20 482 -2 544 21 73 94
172 161 219 111 77 50 71 882 77 l750 5 5 395 c3 217 9 401 13 408 12 17 181
17 196 -1z m-4211 -3577 c5 -14 7854 -14 7868 0 6 6 318 10 864 10 l855 1 3
-3981 2 -3980 -5570 0 -5570 0 0 3939 c0 2166 3 3958 6 3982 l6 44 767 -3
c487 -1 767 -6 769 -12z"/>
<path d="M8812 15282 c-104 -44 -157 -110 -181 -220 -6 -29 -11 -125 -11 -213
0 -215 14 -271 86 -348 58 -62 74 -61 63 4 l-6 40 -2 -35 -1 -35 -27 50 c-14
27 -32 72 -39 100 -16 57 -19 320 -5 375 5 19 12 47 15 62 3 14 24 48 45 76
71 90 -81 82 1663 82 1473 0 1542 -1 1581 -18 42 -19 107 -82 107 -105 0 -7 8
-25 17 -42 13 -23 18 -71 23 -215 l7 -185 1 218 c2 198 0 222 -18 262 -37 82
-77 117 -180 157 -42 17 -132 18 -1560 17 l-1515 -1 -63 -26z"/>
<path d="M11856 14845 c10 -8 24 -15 30 -15 20 0 131 -119 151 -162 12 -24 27
-69 34 -101 8 -31 17 -57 22 -57 12 0 29 52 28 88 0 18 -7 40 -16 48 -8 9 -15
20 -15 25 0 26 -136 157 -170 165 -14 3 -33 9 -42 15 -28 14 -44 11 -22 -6z"/>
<path d="M9198 14709 c-17 -9 -18 -38 -18 -373 0 -294 3 -366 14 -375 10 -8
344 -10 1247 -9 l1234 3 3 374 c2 293 -1 376 -10 383 -20 12 -2449 10 -2470
-3z m1447 -115 c48 -19 61 -146 23 -215 -16 -27 -20 -42 -12 -47 22 -14 34
-52 34 -107 0 -65 -20 -110 -52 -119 -40 -10 -443 -7 -475 4 -31 11 -46 34
-69 110 -20 65 -18 79 18 112 28 26 30 32 19 50 -18 29 -51 127 -51 151 0 12
10 31 22 44 21 23 23 23 274 23 139 0 260 -3 269 -6z m348 -9 c-1 -5 -8 -24
-15 -42 -10 -28 -10 -35 6 -52 17 -19 18 -22 2 -45 -20 -32 -20 -45 0 -67 15
-16 14 -20 -2 -48 -16 -27 -16 -31 -2 -53 15 -22 14 -28 -4 -69 -32 -69 -44
-79 -102 -79 -80 0 -92 7 -112 58 -20 50 -27 182 -10 194 5 4 4 24 -4 53 -11
38 -11 48 0 55 8 5 10 17 6 35 -4 15 -9 38 -13 52 l-5 24 128 -3 c79 -2 128
-7 127 -13z m-1085 -134 c18 -22 32 -44 32 -49 0 -15 -67 -62 -89 -62 -25 0
-61 45 -61 77 0 28 41 73 68 73 10 0 33 -18 50 -39z"/>
<path d="M12830 11875 c-8 -2 -55 -9 -105 -15 -486 -66 -940 -396 -1165 -848
-134 -270 -186 -541 -160 -847 10 -128 21 -202 38 -250 5 -16 15 -50 22 -75 7
-25 16 -54 21 -65 5 -11 18 -44 29 -74 11 -29 41 -90 65 -135 l44 -82 -257
-257 -257 -257 -505 2 -505 3 -3 491 c-2 428 0 493 13 504 22 19 19 29 -34
121 -59 100 -79 129 -90 129 -9 0 -131 -213 -131 -228 0 -5 7 -15 15 -22 13
-11 15 -90 15 -599 0 -443 3 -590 12 -599 9 -9 169 -12 657 -12 l645 0 271
270 c149 149 273 270 276 270 3 0 52 -46 110 -103 206 -204 434 -335 709 -410
138 -38 177 -42 400 -42 254 0 296 6 515 78 340 111 653 367 844 692 28 48 51
89 51 91 0 2 11 27 24 56 45 101 58 137 90 253 31 110 37 153 42 313 8 252
-15 424 -81 602 -9 25 -19 54 -22 65 -10 35 -118 238 -154 290 -115 168 -262
315 -424 426 -71 48 -98 64 -200 113 -126 61 -163 76 -184 76 -10 0 -21 3 -25
7 -18 18 -147 46 -286 63 -70 8 -286 11 -320 5z m325 -564 c354 -68 637 -310
768 -656 77 -203 77 -486 0 -690 -111 -293 -325 -507 -618 -618 -79 -30 -269
-67 -340 -67 -45 0 -215 27 -261 41 -17 5 -35 9 -42 9 -6 0 -50 18 -97 40 -47
22 -88 40 -91 40 -19 0 -172 117 -234 179 -162 161 -256 349 -291 586 -78 528
279 1029 811 1140 72 15 309 13 395 -4z"/>
<path d="M12351 10561 c-36 -10 -82 -40 -89 -59 -6 -20 29 -26 62 -9 66 33
155 27 176 -13 15 -29 12 -107 -6 -143 -9 -18 -70 -87 -135 -153 -117 -119
-138 -154 -103 -168 28 -11 329 -7 341 5 6 6 8 19 6 30 -5 17 -16 19 -129 19
-67 0 -125 4 -129 10 -3 5 37 53 90 107 100 102 145 175 145 233 0 45 -24 94
-58 118 -34 25 -119 36 -171 23z"/>
<path d="M12774 10541 c-45 -27 -64 -59 -64 -107 0 -34 7 -49 42 -89 l42 -48
-37 -30 c-68 -54 -85 -122 -47 -184 28 -47 70 -64 154 -65 116 -1 168 38 169
131 1 57 -19 94 -69 123 -19 11 -34 24 -34 29 0 4 14 19 31 31 81 60 78 172
-5 212 -48 23 -142 21 -182 -3z m171 -46 c39 -38 34 -89 -11 -131 -24 -23 -45
-34 -65 -34 -36 0 -85 34 -105 72 -12 24 -12 32 0 62 18 44 39 55 104 56 43 0
57 -5 77 -25z m-25 -246 c74 -44 91 -103 45 -157 -40 -48 -139 -54 -195 -12
-21 16 -25 27 -25 71 0 47 3 54 39 85 46 40 85 44 136 13z"/>
<path d="M13176 10544 c-32 -31 -40 -60 -40 -144 -1 -106 20 -150 77 -164 74
-19 117 26 124 132 6 77 -8 138 -37 170 -25 27 -100 31 -124 6z m93 -33 c37
-37 39 -184 4 -223 -9 -10 -26 -18 -39 -18 -38 0 -54 36 -54 122 0 106 10 129
63 137 4 0 16 -8 26 -18z"/>
<path d="M13502 10508 c-16 -29 -42 -75 -57 -103 -15 -27 -53 -95 -83 -150
-140 -252 -134 -238 -101 -233 20 3 52 53 130 203 17 33 46 85 64 115 92 157
115 201 110 210 -14 22 -35 7 -63 -42z"/>
<path d="M13519 10335 c-47 -25 -62 -70 -58 -174 4 -90 5 -93 37 -122 61 -55
150 -30 172 49 13 47 13 127 0 174 -20 71 -91 106 -151 73z m92 -61 c19 -23
19 -175 0 -198 -7 -9 -26 -16 -42 -16 -44 0 -59 31 -59 123 0 70 3 81 25 103
27 26 46 23 76 -12z"/>
<path d="M9987 8175 c-16 -11 -17 -87 -17 -1100 0 -872 2 -1090 12 -1097 7 -4
1003 -8 2213 -8 1699 0 2204 3 2213 12 17 17 15 42 -6 61 -13 12 -43 17 -117
19 l-100 3 -3 754 c-1 541 -5 758 -13 768 -10 11 -74 13 -343 11 l-331 -3 -5
-765 -5 -765 -185 0 -185 0 -3 375 c-1 206 -6 378 -11 383 -5 5 -156 8 -336 8
-180 0 -331 -3 -336 -8 -5 -5 -10 -177 -11 -383 l-3 -375 -185 0 -185 0 -5
975 -5 975 -340 0 -340 0 -5 -975 -5 -975 -182 -3 c-101 -1 -184 -1 -185 0 -2
2 -5 246 -8 543 l-5 540 -340 0 -340 0 -5 -540 -5 -540 -110 0 -110 0 -3 980
c-1 539 0 989 2 1000 5 19 12 20 116 17 77 -3 115 0 125 8 17 14 20 86 4 96
-6 3 -66 6 -132 6 -67 0 -131 4 -142 8 -13 5 -27 3 -38 -5z"/>
<path d="M10568 8169 c-21 -12 -25 -78 -6 -97 15 -15 211 -16 239 -2 13 7 19
21 19 45 0 56 -18 65 -133 65 -56 0 -110 -5 -119 -11z"/>
<path d="M13082 8171 c-9 -5 -12 -25 -10 -57 l3 -49 114 -3 c75 -2 118 1 127
9 17 14 18 81 2 97 -14 14 -215 17 -236 3z"/>
<path d="M11067 8163 c-12 -11 -8 -81 5 -89 6 -4 59 -8 116 -8 109 -1 140 9
128 41 -3 8 -6 26 -6 39 l0 24 -118 0 c-65 0 -122 -3 -125 -7z"/>
<path d="M11564 8146 c-3 -13 -4 -35 -2 -47 3 -24 4 -24 128 -24 124 0 125 0
128 24 2 12 1 34 -2 47 -6 24 -8 24 -126 24 -118 0 -120 0 -126 -24z"/>
<path d="M12066 8154 c-9 -22 -7 -57 3 -73 7 -11 35 -14 121 -14 62 1 116 5
122 11 5 5 8 27 6 48 l-3 39 -121 3 c-104 2 -123 0 -128 -14z"/>
<path d="M12570 8121 c0 -30 5 -50 13 -53 9 -3 157 -2 225 1 8 1 12 18 12 51
l0 50 -125 0 -125 0 0 -49z"/>
<path d="M13577 8164 c-15 -15 -7 -83 11 -92 25 -12 220 -8 233 5 6 6 9 28 7
49 l-3 39 -121 3 c-66 1 -123 -1 -127 -4z"/>
<path d="M14078 8129 c-2 -24 1 -47 8 -53 10 -10 106 -13 232 -7 8 1 12 18 12
51 l0 50 -124 0 -124 0 -4 -41z"/>
<path d="M6196 7134 c-3 -9 -6 -112 -6 -229 0 -181 2 -216 16 -229 13 -14 60
-16 357 -16 250 1 348 4 363 13 12 7 72 60 134 118 90 85 111 110 105 125 -4
11 -58 67 -120 127 l-113 107 -365 0 c-323 0 -366 -2 -371 -16z"/>
<path d="M7004 7138 c-5 -7 35 -53 107 -121 l114 -109 -114 -108 c-84 -78
-113 -111 -108 -123 6 -15 39 -17 347 -17 l340 0 125 117 c69 64 125 124 125
133 0 10 -54 68 -120 129 l-120 111 -344 0 c-255 0 -347 -3 -352 -12z"/>
<path d="M7781 7133 c0 -10 47 -61 104 -113 58 -52 104 -102 105 -110 0 -8
-48 -60 -107 -115 -80 -76 -105 -105 -100 -118 6 -16 35 -17 339 -17 307 0
335 2 361 19 33 21 237 221 237 231 0 8 -167 173 -216 214 l-32 26 -346 0
c-323 0 -346 -1 -345 -17z"/>
<path d="M8560 7135 c0 -8 47 -61 105 -116 58 -56 105 -107 105 -115 0 -7 -12
-22 -27 -34 -73 -57 -184 -173 -181 -188 3 -15 34 -17 329 -20 180 -1 336 1
347 5 34 13 252 223 252 243 0 11 -50 65 -120 129 l-119 111 -346 0 c-301 0
-345 -2 -345 -15z"/>
<path d="M6206 6454 c-14 -13 -16 -48 -16 -225 0 -126 4 -218 10 -230 10 -18
25 -19 366 -19 l355 0 124 116 c69 64 125 122 125 129 0 10 -210 215 -244 237
-6 4 -167 8 -358 8 -302 0 -349 -2 -362 -16z m374 -184 c29 25 29 25 58 -2 22
-22 24 -22 36 -5 16 21 30 22 45 3 7 -8 21 -12 31 -9 11 3 20 0 20 -6 0 -6 12
-16 26 -21 19 -7 25 -16 22 -32 -4 -27 -38 -38 -38 -13 0 13 -6 16 -24 13 -15
-3 -27 0 -30 8 -3 8 -20 14 -40 14 -27 0 -35 -5 -40 -24 -9 -37 -66 -46 -66
-10 0 21 -30 17 -55 -6 -25 -24 -50 -18 -59 13 -10 37 -7 60 10 79 16 17 18
17 49 -2 32 -20 32 -20 55 0z"/>
<path d="M7000 6455 c0 -8 50 -63 111 -122 l111 -108 -116 -113 c-65 -61 -114
-117 -111 -122 4 -6 135 -10 354 -10 l347 0 124 118 c101 96 122 121 116 137
-4 11 -60 68 -124 128 l-116 107 -348 0 c-303 0 -348 -2 -348 -15z"/>
<path d="M7780 6454 c0 -9 47 -62 105 -116 58 -55 105 -106 105 -113 0 -8 -47
-57 -105 -111 -59 -55 -105 -106 -105 -116 0 -17 19 -18 345 -18 l345 0 125
117 c69 64 125 122 125 129 0 7 -56 64 -125 128 l-124 116 -346 0 c-313 0
-345 -2 -345 -16z"/>
<path d="M8554 6459 c-4 -7 37 -53 104 -117 62 -57 112 -109 112 -116 0 -6
-50 -59 -112 -117 -70 -66 -109 -110 -104 -117 5 -9 96 -12 351 -12 l343 0
114 106 c62 59 119 112 127 119 19 18 10 29 -122 154 l-118 111 -344 0 c-248
0 -346 -3 -351 -11z"/>
</g>
</svg>
